
<svg viewBox="0 0 47 24" fill="none" xmlns="http://www.w3.org/2000/svg">
<path d="M43.6797 0.247714H44.0671V1.28314H44.3517V0.247714H44.7503V0H43.6797V0.247714Z" fill="#ff2222"/>
<path d="M46.0074 0.00292969L45.6114 0.629501L45.2214 0.00292969H44.9668V1.28607H45.2402V0.48293L45.5454 0.956072H45.6679L45.9782 0.481215V1.28607H46.2517V0.00292969H46.0082H46.0074Z" fill="#ff2222"/>
<path d="M18.606 0.251143L13.9654 4.89172C13.8043 5.05286 13.7143 5.27057 13.7143 5.49771V6.42857C13.7143 6.66514 13.5223 6.85714 13.2857 6.85714H0.428571C0.192 6.85714 0 7.04914 0 7.28572V13.2857C0 13.5223 0.192 13.7143 0.428571 13.7143H15.0737C15.3009 13.7143 15.5194 13.6243 15.6797 13.4631L20.3203 8.82257C20.4814 8.66143 20.5714 8.44372 20.5714 8.21657V7.28572C20.5714 7.04914 20.7634 6.85714 21 6.85714H40.7143C40.9509 6.85714 41.1429 6.66514 41.1429 6.42857V0.428571C41.1429 0.192 40.9509 0 40.7143 0H19.212C18.9849 0 18.7663 0.09 18.606 0.251143Z" fill="#ff2222"/>
<path d="M25.4614 10.539C23.6906 12.3098 22.5943 13.4061 20.8234 15.177C20.6623 15.3381 20.5706 15.5576 20.5706 15.7856V16.7147C20.5706 16.9513 20.3786 17.1433 20.142 17.1433H0.428571C0.192 17.1433 0 17.3353 0 17.5718V23.5718C0 23.8084 0.192 24.0004 0.428571 24.0004H21.9309C22.158 24.0004 22.3766 23.9104 22.5369 23.7493L27.1774 19.1087C27.3386 18.9476 27.4286 18.7298 27.4286 18.5027V17.5718C27.4286 17.3353 27.6206 17.1433 27.8571 17.1433H40.7143C40.9509 17.1433 41.1429 16.9513 41.1429 16.7147V10.7147C41.1429 10.4781 40.9509 10.2861 40.7143 10.2861H26.0709C25.8429 10.2861 25.6234 10.377 25.4623 10.539H25.4614Z" fill="#ff2222"/>
</svg>
