<?xml version="1.0" standalone="no"?>
<!DOCTYPE svg PUBLIC "-//W3C//DTD SVG 20010904//EN"
 "http://www.w3.org/TR/2001/REC-SVG-20010904/DTD/svg10.dtd">
<svg version="1.0" xmlns="http://www.w3.org/2000/svg"
 width="1504.000000pt" height="1504.000000pt" viewBox="0 0 1504.000000 1504.000000"
 preserveAspectRatio="xMidYMid meet">
<metadata>
Created by potrace 1.14, written by Peter Selinger 2001-2017
</metadata>
<g transform="translate(0.000000,1504.000000) scale(0.100000,-0.100000)"
fill="#000000" stroke="none">
<path d="M6057 11345 c-20 -8 -47 -21 -60 -29 -31 -22 -247 -238 -247 -248 0
-4 -4 -8 -8 -8 -10 0 -465 -455 -470 -470 -2 -5 -7 -10 -11 -10 -9 0 -745
-736 -749 -750 -2 -6 -8 -10 -13 -10 -25 0 -94 -107 -105 -164 -2 -11 -4 -104
-5 -206 0 -188 -4 -206 -44 -246 -39 -39 28 -38 -2150 -39 -2287 -1 -2123 4
-2169 -58 -21 -28 -21 -30 -21 -1041 l0 -1012 25 -31 c17 -21 40 -35 70 -42
31 -7 759 -10 2420 -8 l2375 2 48 25 c35 18 257 234 818 795 642 642 775 779
796 824 24 51 25 61 27 250 2 201 5 224 46 262 9 9 27 20 41 25 13 4 1458 8
3210 9 l3186 0 36 25 c20 13 34 26 32 29 -3 2 3 10 13 17 16 12 17 75 17 1013
1 1097 4 1039 -58 1085 l-28 21 -3492 2 c-2948 1 -3498 -1 -3530 -12z"/>
<path d="M13979 11355 c0 -3 -1 -19 -2 -37 0 -27 4 -33 26 -39 15 -4 27 -4 27
0 0 8 59 6 67 -3 3 -3 5 -77 4 -166 l-2 -160 46 0 c36 0 45 3 46 18 0 9 0 83
0 164 1 117 4 148 15 152 8 3 14 2 14 -2 0 -6 18 -7 88 -3 9 1 12 13 10 39
l-3 37 -167 3 c-93 1 -168 0 -169 -3z"/>
<path d="M14388 11328 c-2 -18 -2 -111 0 -205 l3 -173 43 0 44 0 -2 116 c0 64
2 121 6 127 4 7 8 8 8 2 0 -20 86 -140 101 -143 14 -2 69 56 69 73 0 3 5 11
10 18 6 7 18 22 28 35 17 23 17 20 16 -102 l-2 -126 44 0 c48 0 47 -2 45 75
-1 22 -1 65 0 95 2 132 0 221 -6 230 -7 12 -55 13 -71 2 -6 -4 -26 -32 -45
-62 -18 -30 -37 -56 -41 -58 -4 -2 -8 -9 -8 -15 0 -7 -8 -22 -18 -34 -17 -23
-17 -23 -78 75 -59 95 -62 97 -102 100 -39 3 -41 2 -44 -30z"/>
<path d="M8257 8054 c-21 -7 -52 -24 -70 -36 -18 -13 -374 -365 -792 -783
-599 -599 -766 -772 -785 -811 -22 -45 -24 -62 -26 -234 -3 -246 -3 -247 -68
-293 l-31 -22 -3190 0 c-3154 -1 -3191 -1 -3224 -20 -19 -11 -42 -36 -52 -55
-19 -34 -19 -74 -17 -1035 3 -982 3 -1000 23 -1027 46 -63 -256 -58 3559 -58
3175 0 3479 1 3523 16 26 9 51 21 55 28 4 6 8 7 8 2 0 -5 351 343 780 772 632
632 784 789 802 829 20 43 22 67 24 233 1 102 5 200 8 217 8 34 49 77 86 89
14 4 963 8 2110 8 l2085 1 36 23 c67 41 64 -14 64 1072 1 971 0 985 -20 1024
-11 23 -34 47 -54 57 -31 17 -160 18 -2415 17 -1971 0 -2388 -3 -2419 -14z"/>
</g>
</svg>
