<svg width="1324" height="517" fill="none" xmlns="http://www.w3.org/2000/svg"><g clip-path="url(#a)"><rect y=".5" width="1324" height="516" rx="12" fill="url(#b)"/><path d="M530 44c0-8 7-15 16-15h787c9 0 15 7 15 15v728c0 9-6 16-15 16H546c-9 0-16-7-16-16z" fill="url(#c)" stroke="#2B2B2B" stroke-width="1.1"/><path fill-rule="evenodd" clip-rule="evenodd" d="M568 55a4 4 0 0 0-4 4v25a4 4 0 0 0 4 4h25a4 4 0 0 0 4-4V59a4 4 0 0 0-4-4zm298 1a4 4 0 0 0-5 4v25a4 4 0 0 0 5 4h24a4 4 0 0 0 5-4V60a4 4 0 0 0-5-4zm-124 62a4 4 0 0 1 5-4h24a4 4 0 0 1 5 4v25a4 4 0 0 1-5 4h-24a4 4 0 0 1-5-4zm119 0a4 4 0 0 1 5-4h24a4 4 0 0 1 5 4v25a4 4 0 0 1-5 4h-24a4 4 0 0 1-5-4zm64-4a4 4 0 0 0-5 4v25a4 4 0 0 0 5 4h24a4 4 0 0 0 5-4v-25a4 4 0 0 0-5-4zm54 4a4 4 0 0 1 4-4h25c3 0 4 2 4 4v25a4 4 0 0 1-4 4h-25a4 4 0 0 1-4-4zm63-4c-2 0-4 2-4 4v25a4 4 0 0 0 4 4h25c2 0 4-2 4-4v-25a4 4 0 0 0-4-4zm58 4a4 4 0 0 1 4-4h25c2 0 4 2 4 4v25a4 4 0 0 1-4 4h-25c-2 0-4-2-4-4zm-56 175c-2 0-4 2-4 4v25a4 4 0 0 0 4 4h25c2 0 4-2 4-4v-25a4 4 0 0 0-4-4zm-209 64a4 4 0 0 0-5-5h-24a4 4 0 0 0-5 5v24a4 4 0 0 0 5 5h24a4 4 0 0 0 5-5zm388 55c-3 0-5 2-5 4v25a4 4 0 0 0 5 4h24c3 0 5-2 5-4v-25a4 4 0 0 0-5-4zm-123-115a4 4 0 0 1 4-4h25c3 0 4 2 4 4v25a4 4 0 0 1-4 4h-25c-2 0-4-2-4-4zm-329 55a4 4 0 0 1 5 5v24a4 4 0 0 1-5 5h-24a4 4 0 0 1-5-5v-24a4 4 0 0 1 5-5zm507 64a4 4 0 0 1 4-4h25c2 0 4 2 4 4v25a4 4 0 0 1-4 4h-25a4 4 0 0 1-4-4zM593 624a4 4 0 0 0 4-4v-25a4 4 0 0 0-4-4h-25a4 4 0 0 0-4 4v25a4 4 0 0 0 4 4zm268-446a4 4 0 0 1 5-4h24a4 4 0 0 1 5 4v25a4 4 0 0 1-5 4h-24a4 4 0 0 1-5-4zm239 0a4 4 0 0 1 4-4h25c3 0 4 2 4 4v25a4 4 0 0 1-4 4h-25c-2 0-4-2-4-4zm63 56a4 4 0 0 0-4 4v25a4 4 0 0 0 4 4h25c2 0 4-2 4-4v-25a4 4 0 0 0-4-4zm-243-56a4 4 0 0 1 5-4h24a4 4 0 0 1 5 4v25a4 4 0 0 1-5 4h-24a4 4 0 0 1-5-4zm5 55a4 4 0 0 0-5 5v24a4 4 0 0 0 5 5h24a4 4 0 0 0 5-5v-24a4 4 0 0 0-5-5zm54 5a4 4 0 0 1 4-5h25c3 0 4 2 4 5v24a4 4 0 0 1-4 5h-25a4 4 0 0 1-4-5zm-351 55a4 4 0 0 0-5 4v25a4 4 0 0 0 5 4h24a4 4 0 0 0 5-4v-25a4 4 0 0 0-5-4zm114-114a4 4 0 0 1 4-5h25a4 4 0 0 1 4 5v24a4 4 0 0 1-4 5h-25a4 4 0 0 1-4-5zm4-123a4 4 0 0 0-4 4v25a4 4 0 0 0 4 4h25a4 4 0 0 0 4-4V60a4 4 0 0 0-4-4zm233 123a4 4 0 0 1 4-5h25c3 0 4 2 4 5v24a4 4 0 0 1-4 5h-25a4 4 0 0 1-4-5zm65 55c-2 0-4 2-4 4v25a4 4 0 0 0 4 4h25c2 0 4-1 4-4v-25a4 4 0 0 0-4-4zM623 476a4 4 0 0 1 5-5h24a4 4 0 0 1 5 5v24a4 4 0 0 1-5 5h-24a4 4 0 0 1-5-5zm624 89c3 0 5-2 5-4v-25a4 4 0 0 0-5-5h-24a4 4 0 0 0-5 5v25a4 4 0 0 0 5 4zm5-208a4 4 0 0 0-5-5h-24a4 4 0 0 0-5 5v24a4 4 0 0 0 5 5h24c3 0 5-2 5-5zm-684-64a4 4 0 0 0-4 4v25a4 4 0 0 0 4 4h25a4 4 0 0 0 4-4v-25a4 4 0 0 0-4-4zm743 64a4 4 0 0 0-4-5h-25c-2 0-4 2-4 5v24a4 4 0 0 0 4 5h25c2 0 4-2 4-5zm-564 55a4 4 0 0 0-5 4v25a4 4 0 0 0 5 4h24a4 4 0 0 0 5-4v-25a4 4 0 0 0-5-4zm564 64a4 4 0 0 0-4-5h-25c-2 0-4 2-4 5v24a4 4 0 0 0 4 5h25c2 0 4-2 4-5zm-743 89a4 4 0 0 1-4-4v-25a4 4 0 0 1 4-5h25a4 4 0 0 1 4 5v25a4 4 0 0 1-4 4zm-4-387a4 4 0 0 1 4-4h25a4 4 0 0 1 4 4v25a4 4 0 0 1-4 4h-25a4 4 0 0 1-4-4zM683 59a4 4 0 0 1 4-4h25a4 4 0 0 1 4 4v25a4 4 0 0 1-4 4h-25a4 4 0 0 1-4-4zm-56-4a4 4 0 0 0-4 4v25a4 4 0 0 0 4 4h25a4 4 0 0 0 4-4V59a4 4 0 0 0-4-4zm294 4a4 4 0 0 1 4-4h25a4 4 0 0 1 4 4v25a4 4 0 0 1-4 4h-25a4 4 0 0 1-4-4zm183-4c-2 0-4 2-4 4v25a4 4 0 0 0 4 4h25c2 0 4-2 4-4V59a4 4 0 0 0-4-4zm55 123a4 4 0 0 1 4-4h25c2 0 4 2 4 4v25a4 4 0 0 1-4 4h-25a4 4 0 0 1-4-4zm123-123c-2 0-4 2-4 4v25a4 4 0 0 0 4 4h25c2 0 4-2 4-4V59a4 4 0 0 0-4-4zm-4 64a4 4 0 0 1 4-5h25c2 0 4 2 4 5v24a4 4 0 0 1-4 5h-25a4 4 0 0 1-4-5zm4 55a4 4 0 0 0-4 4v25a4 4 0 0 0 4 4h25c2 0 4-2 4-4v-25a4 4 0 0 0-4-4zm-4 123a4 4 0 0 1 4-4h25c2 0 4 2 4 4v25a4 4 0 0 1-4 4h-25a4 4 0 0 1-4-4zm-685 55a4 4 0 0 1 4 5v24a4 4 0 0 1-4 5h-25a4 4 0 0 1-4-5v-24a4 4 0 0 1 4-5zm63 5a4 4 0 0 0-4-5h-25a4 4 0 0 0-4 5v24a4 4 0 0 0 4 5h25a4 4 0 0 0 4-5zm-63 55a4 4 0 0 1 4 4v25a4 4 0 0 1-4 4h-25a4 4 0 0 1-4-4v-25a4 4 0 0 1 4-4zm63 4a4 4 0 0 0-4-4h-25a4 4 0 0 0-4 4v25a4 4 0 0 0 4 4h25a4 4 0 0 0 4-4zm90-183a4 4 0 0 0-4 5v24a4 4 0 0 0 4 5h25a4 4 0 0 0 4-5v-24a4 4 0 0 0-4-5zm-63 183a4 4 0 0 1 4-4h25a4 4 0 0 1 4 4v25a4 4 0 0 1-4 4h-25a4 4 0 0 1-4-4zm122-242a4 4 0 0 0-4 4v25a4 4 0 0 0 4 4h25a4 4 0 0 0 4-4v-25a4 4 0 0 0-4-4zm-4-114a4 4 0 0 1 4-4h25a4 4 0 0 1 4 4v25a4 4 0 0 1-4 4h-25a4 4 0 0 1-4-4zm243 114c-2 0-4 2-4 4v25a4 4 0 0 0 4 4h25c2 0 4-2 4-4v-25a4 4 0 0 0-4-4zm56 64a4 4 0 0 1 4-4h25c3 0 4 2 4 4v25a4 4 0 0 1-4 4h-25c-2 0-4-2-4-4zm-175 55a4 4 0 0 0-4 4v25a4 4 0 0 0 4 4h25a4 4 0 0 0 4-4v-25a4 4 0 0 0-4-4zm52 4a4 4 0 0 1 5-4h24c3 0 5 2 5 4v25a4 4 0 0 1-5 4h-24a4 4 0 0 1-5-4zm-27 55a4 4 0 0 1 4 5v24a4 4 0 0 1-4 5h-25a4 4 0 0 1-4-5v-24a4 4 0 0 1 4-5zm-55 5a4 4 0 0 0-5-5h-24a4 4 0 0 0-5 5v24a4 4 0 0 0 5 5h24a4 4 0 0 0 5-5zm114 116c2 0 4 2 4 4v25a4 4 0 0 1-4 4h-25a4 4 0 0 1-4-4v-25a4 4 0 0 1 4-4zm90-57a4 4 0 0 1 5-4h24c3 0 5 2 5 4v25a4 4 0 0 1-5 4h-24c-3 0-5-2-5-4zM688 293a4 4 0 0 0-5 4v25a4 4 0 0 0 5 4h24a4 4 0 0 0 5-4v-25a4 4 0 0 0-5-4zm-5 183a4 4 0 0 1 4-5h25a4 4 0 0 1 4 5v24a4 4 0 0 1-4 5h-25a4 4 0 0 1-4-5zm122-5a4 4 0 0 0-4 5v24a4 4 0 0 0 4 5h25a4 4 0 0 0 4-5v-24a4 4 0 0 0-4-5zm387 90a4 4 0 0 1-4 4h-25c-2 0-4-2-4-4v-25a4 4 0 0 1 4-5h25c2 1 4 2 4 5zm-4-209c3 0 5 2 5 5v24a4 4 0 0 1-5 5h-24a4 4 0 0 1-5-5v-24a4 4 0 0 1 5-5zm-327 64a4 4 0 0 1 5-4h24a4 4 0 0 1 5 4v25a4 4 0 0 1-5 4h-24a4 4 0 0 1-5-4zm327 55c2 0 4 2 4 5v24a4 4 0 0 1-4 5h-25c-2 0-4-2-4-5v-24a4 4 0 0 1 4-5zm-505 90a4 4 0 0 0 4 4h25a4 4 0 0 0 4-4v-25a4 4 0 0 0-4-5h-25a4 4 0 0 0-4 5zm242 4a4 4 0 0 1-5-4v-25a4 4 0 0 1 5-5h24a4 4 0 0 1 5 5v25a4 4 0 0 1-5 4zm-124-4a4 4 0 0 0 4 4h25a4 4 0 0 0 4-4v-25a4 4 0 0 0-4-5h-25a4 4 0 0 0-4 5zm242 4c-3 0-5-2-5-4v-25a4 4 0 0 1 5-5h24c3 1 5 2 5 5v25a4 4 0 0 1-5 4z" fill="#000" fill-opacity=".2"/><path d="M564 59a4 4 0 0 1 4-4v-1a5 5 0 0 0-5 5zm0 25V59h-1v25zm4 4a4 4 0 0 1-4-4h-1a5 5 0 0 0 5 5zm25 0h-25v1h25zm4-4a4 4 0 0 1-4 4v1a5 5 0 0 0 5-5zm0-25v25h1V59zm-4-4a4 4 0 0 1 4 4h1a5 5 0 0 0-5-5zm-25 0h25v-1h-25zm294 5a4 4 0 0 1 4-4v-1a5 5 0 0 0-5 5zm0 25V60h-1v25zm4 4a4 4 0 0 1-4-4h-1a5 5 0 0 0 5 5zm24 0h-24v1h24zm4-4a4 4 0 0 1-4 4v1a5 5 0 0 0 5-5zm0-25v25h1V60zm-4-4a4 4 0 0 1 4 4h1a5 5 0 0 0-5-5zm-24 0h24v-1h-24zm-119 57a5 5 0 0 0-5 5h1a4 4 0 0 1 4-4zm24 0h-24v1h24zm5 5a5 5 0 0 0-5-5v1a4 4 0 0 1 4 4zm0 25v-25h-1v25zm-5 5a5 5 0 0 0 5-5h-1a4 4 0 0 1-4 4zm-24 0h24v-1h-24zm-5-5a5 5 0 0 0 5 5v-1a4 4 0 0 1-4-4zm0-25v25h1v-25zm124-5a5 5 0 0 0-5 5h1a4 4 0 0 1 4-4zm24 0h-24v1h24zm5 5a5 5 0 0 0-5-5v1a4 4 0 0 1 4 4zm0 25v-25h-1v25zm-5 5a5 5 0 0 0 5-5h-1a4 4 0 0 1-4 4zm-24 0h24v-1h-24zm-5-5a5 5 0 0 0 5 5v-1a4 4 0 0 1-4-4zm0-25v25h1v-25zm60 0a4 4 0 0 1 4-4v-1a5 5 0 0 0-5 5zm0 25v-25h-1v25zm4 4a4 4 0 0 1-4-4h-1a5 5 0 0 0 5 5zm24 0h-24v1h24zm4-4a4 4 0 0 1-4 4v1a5 5 0 0 0 5-5zm0-25v25h1v-25zm-4-4a4 4 0 0 1 4 4h1a5 5 0 0 0-5-5zm-24 0h24v-1h-24zm58-1a5 5 0 0 0-4 5h1a4 4 0 0 1 3-4zm25 0h-25v1h25zm5 5a5 5 0 0 0-5-5v1c2 0 4 2 4 4zm0 25v-25h-1v25zm-5 5c3 0 5-3 5-5h-1a4 4 0 0 1-4 4zm-25 0h25v-1h-25zm-4-5a5 5 0 0 0 4 5v-1a4 4 0 0 1-3-4zm0-25v25h1v-25zm59 0a4 4 0 0 1 4-4v-1a5 5 0 0 0-5 5zm0 25v-25h-1v25zm4 4a4 4 0 0 1-4-4h-1a5 5 0 0 0 5 5zm25 0h-25v1h25zm4-4a4 4 0 0 1-4 4v1c3 0 5-3 5-5zm0-25v25h1v-25zm-4-4c2 0 4 2 4 4h1a5 5 0 0 0-5-5zm-25 0h25v-1h-25zm62-1a5 5 0 0 0-5 5h1a4 4 0 0 1 4-4zm25 0h-25v1h25zm5 5a5 5 0 0 0-5-5v1c2 0 4 2 4 4zm0 25v-25h-1v25zm-5 5c3 0 5-3 5-5h-1a4 4 0 0 1-4 4zm-25 0h25v-1h-25zm-5-5a5 5 0 0 0 5 5v-1a4 4 0 0 1-4-4zm0-25v25h1v-25zm-59 179c0-2 2-4 4-4v-1a5 5 0 0 0-5 5zm0 25v-25h-1v25zm4 4a4 4 0 0 1-4-4h-1a5 5 0 0 0 5 5zm25 0h-25v1h25zm3-4a4 4 0 0 1-3 4v1c2 0 4-2 4-5zm0-25v25h1v-25zm-3-4a4 4 0 0 1 3 4h1a5 5 0 0 0-4-5zm-25 0h25v-1h-25zm-214 60a4 4 0 0 1 4 4h1a5 5 0 0 0-5-5zm-24 0h24v-1h-24zm-4 4a4 4 0 0 1 4-4v-1a5 5 0 0 0-5 5zm0 24v-24h-1v24zm4 4a4 4 0 0 1-4-4h-1a5 5 0 0 0 5 5zm24 0h-24v1h24zm4-4a4 4 0 0 1-4 4v1a5 5 0 0 0 5-5zm0-24v24h1v-24zm385 59a4 4 0 0 1 4-4v-1a5 5 0 0 0-5 5zm0 25v-25h-1v25zm4 4a4 4 0 0 1-4-4h-1c0 3 2 5 5 5zm24 0h-24v1h24zm4-4a4 4 0 0 1-4 4v1c3 0 5-2 5-5zm0-25v25h1v-25zm-4-4c2 0 4 2 4 4h1a5 5 0 0 0-5-5zm-24 0h24v-1h-24zm-119-120a5 5 0 0 0-4 5h1a4 4 0 0 1 3-4zm25 0h-25v1h25zm5 5a5 5 0 0 0-5-5v1a4 4 0 0 1 4 4zm0 25v-25h-1v25zm-5 5a5 5 0 0 0 5-5h-1a4 4 0 0 1-4 4zm-25 0h25v-1h-25zm-4-5a5 5 0 0 0 4 5v-1a4 4 0 0 1-3-4zm0-25v25h1v-25zm-324 60a5 5 0 0 0-5-5v1a4 4 0 0 1 4 4zm0 24v-24h-1v24zm-5 5a5 5 0 0 0 5-5h-1a4 4 0 0 1-4 4zm-24 0h24v-1h-24zm-5-5a5 5 0 0 0 5 5v-1a4 4 0 0 1-4-4zm0-24v24h1v-24zm5-5a5 5 0 0 0-5 5h1a4 4 0 0 1 4-4zm24 0h-24v1h24zm511 59a5 5 0 0 0-5 5h1c0-2 2-4 4-4zm25 0h-25v1h25zm5 5a5 5 0 0 0-5-5v1a4 4 0 0 1 4 4zm0 25v-25h-1v25zm-5 5c2 0 5-2 5-5h-1c0 2-2 4-4 4zm-25 0h25v-1h-25zm-5-5c0 3 2 5 5 5v-1a4 4 0 0 1-4-4zm0-25v25h1v-25zM597 620a4 4 0 0 1-4 4v1a5 5 0 0 0 5-5zm0-25v25h1v-25zm-4-3a4 4 0 0 1 4 3h1a5 5 0 0 0-5-4zm-25 0h25v-1h-25zm-4 3a4 4 0 0 1 4-3v-1a5 5 0 0 0-5 4zm0 25v-25h-1v25zm4 4a4 4 0 0 1-4-4h-1a5 5 0 0 0 5 5zm25 0h-25v1h25zm273-451a5 5 0 0 0-5 5h1a4 4 0 0 1 4-4zm24 0h-24v1h24zm5 5a5 5 0 0 0-5-5v1a4 4 0 0 1 4 4zm0 25v-25h-1v25zm-5 5a5 5 0 0 0 5-5h-1a4 4 0 0 1-4 4zm-24 0h24v-1h-24zm-5-5a5 5 0 0 0 5 5v-1a4 4 0 0 1-4-4zm0-25v25h1v-25zm243-5a5 5 0 0 0-4 5h1c0-2 1-4 3-4zm25 0h-25v1h25zm5 5a5 5 0 0 0-5-5v1c2 0 4 2 4 4zm0 25v-25h-1v25zm-5 5c3 0 5-2 5-5h-1a4 4 0 0 1-4 4zm-25 0h25v-1h-25zm-4-5c0 3 2 5 4 5v-1a4 4 0 0 1-3-4zm0-25v25h1v-25zm59 60a4 4 0 0 1 4-4v-1a5 5 0 0 0-5 5zm0 25v-25h-1v25zm4 4a4 4 0 0 1-4-4h-1a5 5 0 0 0 5 5zm25 0h-25v1h25zm4-4c0 2-2 4-4 4v1a5 5 0 0 0 5-5zm0-25v25h1v-25zm-4-4c2 0 4 2 4 4h1a5 5 0 0 0-5-5zm-25 0h25v-1h-25zm-238-61a5 5 0 0 0-5 5h1a4 4 0 0 1 4-4zm24 0h-24v1h24zm5 5a5 5 0 0 0-5-5v1a4 4 0 0 1 4 4zm0 25v-25h-1v25zm-5 5a5 5 0 0 0 5-5h-1a4 4 0 0 1-4 4zm-24 0h24v-1h-24zm-5-5a5 5 0 0 0 5 5v-1a4 4 0 0 1-4-4zm0-25v25h1v-25zm1 60a4 4 0 0 1 4-4v-1a5 5 0 0 0-5 5zm0 24v-24h-1v24zm4 4a4 4 0 0 1-4-4h-1a5 5 0 0 0 5 5zm24 0h-24v1h24zm4-4a4 4 0 0 1-4 4v1a5 5 0 0 0 5-5zm0-24v24h1v-24zm-4-4a4 4 0 0 1 4 4h1a5 5 0 0 0-5-5zm-24 0h24v-1h-24zm58-1a5 5 0 0 0-4 5h1a4 4 0 0 1 3-4zm25 0h-25v1h25zm5 5a5 5 0 0 0-5-5v1c2 0 4 2 4 4zm0 24v-24h-1v24zm-5 5a5 5 0 0 0 5-5h-1c0 3-2 4-4 4zm-25 0h25v-1h-25zm-4-5a5 5 0 0 0 4 5v-1a4 4 0 0 1-3-4zm0-24v24h1v-24zm-355 59a4 4 0 0 1 4-4v-1a5 5 0 0 0-5 5zm0 25v-25h-1v25zm4 4a4 4 0 0 1-4-4h-1a5 5 0 0 0 5 5zm24 0h-24v1h24zm4-4a4 4 0 0 1-4 4v1a5 5 0 0 0 5-5zm0-25v25h1v-25zm-4-4a4 4 0 0 1 4 4h1a5 5 0 0 0-5-5zm-24 0h24v-1h-24zm118-119a5 5 0 0 0-4 5h1a4 4 0 0 1 3-4zm25 0h-25v1h25zm5 5a5 5 0 0 0-5-5v1a4 4 0 0 1 4 4zm0 24v-24h-1v24zm-5 5a5 5 0 0 0 5-5h-1a4 4 0 0 1-4 4zm-25 0h25v-1h-25zm-4-5a5 5 0 0 0 4 5v-1a4 4 0 0 1-3-4zm0-24v24h1v-24zm1-119a4 4 0 0 1 3-4v-1a5 5 0 0 0-4 5zm0 25V60h-1v25zm3 4a4 4 0 0 1-3-4h-1a5 5 0 0 0 4 5zm25 0h-25v1h25zm4-4a4 4 0 0 1-4 4v1a5 5 0 0 0 5-5zm0-25v25h1V60zm-4-4a4 4 0 0 1 4 4h1a5 5 0 0 0-5-5zm-25 0h25v-1h-25zm237 118a5 5 0 0 0-4 5h1a4 4 0 0 1 3-4zm25 0h-25v1h25zm5 5a5 5 0 0 0-5-5v1a4 4 0 0 1 4 4zm0 24v-24h-1v24zm-5 5a5 5 0 0 0 5-5h-1a4 4 0 0 1-4 4zm-25 0h25v-1h-25zm-4-5a5 5 0 0 0 4 5v-1a4 4 0 0 1-3-4zm0-24v24h1v-24zm61 59a4 4 0 0 1 4-3v-1a5 5 0 0 0-5 4zm0 25v-25h-1v25zm4 4a4 4 0 0 1-4-4h-1a5 5 0 0 0 5 5zm25 0h-25v1h25zm3-4a4 4 0 0 1-3 4v1c2 0 4-2 4-5zm0-25v25h1v-25zm-3-3c2 0 3 1 3 3h1a5 5 0 0 0-4-4zm-25 0h25v-1h-25zM628 471a5 5 0 0 0-5 5h1a4 4 0 0 1 4-4zm24 0h-24v1h24zm5 5a5 5 0 0 0-5-5v1a4 4 0 0 1 4 4zm0 24v-24h-1v24zm-5 5a5 5 0 0 0 5-5h-1a4 4 0 0 1-4 4zm-24 0h24v-1h-24zm-5-5a5 5 0 0 0 5 5v-1a4 4 0 0 1-4-4zm0-24v24h1v-24zm628 85a4 4 0 0 1-4 3v1a5 5 0 0 0 5-4zm0-25v25h1v-25zm-4-4c2 0 4 2 4 4h1a5 5 0 0 0-5-5zm-24 0h24v-1h-24zm-4 4a4 4 0 0 1 4-4v-1a5 5 0 0 0-5 5zm0 25v-25h-1v25zm4 3a4 4 0 0 1-4-3h-1a5 5 0 0 0 5 4zm24 0h-24v1h24zm0-211c2 0 4 2 4 4h1a5 5 0 0 0-5-5zm-24 0h24v-1h-24zm-4 4a4 4 0 0 1 4-4v-1a5 5 0 0 0-5 5zm0 24v-24h-1v24zm4 4a4 4 0 0 1-4-4h-1a5 5 0 0 0 5 5zm24 0h-24v1h24zm4-4c0 3-2 4-4 4v1a5 5 0 0 0 5-5zm0-24v24h1v-24zm-687-60a4 4 0 0 1 4-4v-1a5 5 0 0 0-5 5zm0 25v-25h-1v25zm4 4a4 4 0 0 1-4-4h-1a5 5 0 0 0 5 5zm25 0h-25v1h25zm4-4a4 4 0 0 1-4 4v1a5 5 0 0 0 5-5zm0-25v25h1v-25zm-4-4a4 4 0 0 1 4 4h1a5 5 0 0 0-5-5zm-25 0h25v-1h-25zm739 60a4 4 0 0 1 4 4h1a5 5 0 0 0-5-5zm-25 0h25v-1h-25zm-4 4c0-2 2-4 4-4v-1a5 5 0 0 0-5 5zm0 24v-24h-1v24zm4 4a4 4 0 0 1-4-4h-1a5 5 0 0 0 5 5zm25 0h-25v1h25zm4-4a4 4 0 0 1-4 4v1a5 5 0 0 0 5-5zm0-24v24h1v-24zm-568 59a4 4 0 0 1 4-4v-1a5 5 0 0 0-5 5zm0 25v-25h-1v25zm4 4a4 4 0 0 1-4-4h-1a5 5 0 0 0 5 5zm24 0h-24v1h24zm4-4a4 4 0 0 1-4 4v1a5 5 0 0 0 5-5zm0-25v25h1v-25zm-4-4a4 4 0 0 1 4 4h1a5 5 0 0 0-5-5zm-24 0h24v-1h-24zm560 60a4 4 0 0 1 4 4h1a5 5 0 0 0-5-5zm-25 0h25v-1h-25zm-4 4c0-2 2-4 4-4v-1a5 5 0 0 0-5 5zm0 24v-24h-1v24zm4 4a4 4 0 0 1-4-4h-1a5 5 0 0 0 5 5zm25 0h-25v1h25zm4-4a4 4 0 0 1-4 4v1a5 5 0 0 0 5-5zm0-24v24h1v-24zm-748 85a5 5 0 0 0 5 4v-1a4 4 0 0 1-4-3zm0-25v25h1v-25zm5-5a5 5 0 0 0-5 5h1a4 4 0 0 1 4-4zm25 0h-25v1h25zm5 5a5 5 0 0 0-5-5v1a4 4 0 0 1 4 4zm0 25v-25h-1v25zm-5 4a5 5 0 0 0 5-4h-1a4 4 0 0 1-4 3zm-25 0h25v-1h-25zm0-392a5 5 0 0 0-5 5h1a4 4 0 0 1 4-4zm25 0h-25v1h25zm5 5a5 5 0 0 0-5-5v1a4 4 0 0 1 4 4zm0 25v-25h-1v25zm-5 5a5 5 0 0 0 5-5h-1a4 4 0 0 1-4 4zm-25 0h25v-1h-25zm-5-5a5 5 0 0 0 5 5v-1a4 4 0 0 1-4-4zm0-25v25h1v-25zM687 54a5 5 0 0 0-5 5h1a4 4 0 0 1 4-4zm25 0h-25v1h25zm5 5a5 5 0 0 0-5-5v1a4 4 0 0 1 4 4zm0 25V59h-1v25zm-5 5a5 5 0 0 0 5-5h-1a4 4 0 0 1-4 4zm-25 0h25v-1h-25zm-5-5a5 5 0 0 0 5 5v-1a4 4 0 0 1-4-4zm0-25v25h1V59zm-59 0a4 4 0 0 1 4-4v-1a5 5 0 0 0-5 5zm0 25V59h-1v25zm4 4a4 4 0 0 1-4-4h-1a5 5 0 0 0 5 5zm25 0h-25v1h25zm4-4a4 4 0 0 1-4 4v1a5 5 0 0 0 5-5zm0-25v25h1V59zm-4-4a4 4 0 0 1 4 4h1a5 5 0 0 0-5-5zm-25 0h25v-1h-25zm298-1a5 5 0 0 0-5 5h1a4 4 0 0 1 4-4zm25 0h-25v1h25zm5 5a5 5 0 0 0-5-5v1a4 4 0 0 1 4 4zm0 25V59h-1v25zm-5 5a5 5 0 0 0 5-5h-1a4 4 0 0 1-4 4zm-25 0h25v-1h-25zm-5-5a5 5 0 0 0 5 5v-1a4 4 0 0 1-4-4zm0-25v25h1V59zm180 0a4 4 0 0 1 4-4v-1a5 5 0 0 0-5 5zm0 25V59h-1v25zm4 4a4 4 0 0 1-4-4h-1a5 5 0 0 0 5 5zm25 0h-25v1h25zm4-4a4 4 0 0 1-4 4v1a5 5 0 0 0 5-5zm0-25v25h1V59zm-4-4a4 4 0 0 1 4 4h1a5 5 0 0 0-5-5zm-25 0h25v-1h-25zm59 118a5 5 0 0 0-5 5h1c0-2 2-4 4-4zm25 0h-25v1h25zm5 5a5 5 0 0 0-5-5v1a4 4 0 0 1 4 4zm0 25v-25h-1v25zm-5 5c3 0 5-2 5-5h-1c0 2-2 4-4 4zm-25 0h25v-1h-25zm-5-5c0 3 3 5 5 5v-1a4 4 0 0 1-4-4zm0-25v25h1v-25zm120-119a4 4 0 0 1 4-4v-1a5 5 0 0 0-5 5zm0 25V59h-1v25zm4 4a4 4 0 0 1-4-4h-1a5 5 0 0 0 5 5zm25 0h-25v1h25zm4-4a4 4 0 0 1-4 4v1a5 5 0 0 0 5-5zm0-25v25h1V59zm-4-4a4 4 0 0 1 4 4h1a5 5 0 0 0-5-5zm-25 0h25v-1h-25zm0 59a5 5 0 0 0-5 5h1a4 4 0 0 1 4-4zm25 0h-25v1h25zm5 5a5 5 0 0 0-5-5v1c2 0 4 2 4 4zm0 24v-24h-1v24zm-5 5a5 5 0 0 0 5-5h-1c0 3-2 4-4 4zm-25 0h25v-1h-25zm-5-5a5 5 0 0 0 5 5v-1a4 4 0 0 1-4-4zm0-24v24h1v-24zm1 59c0-2 2-4 4-4v-1a5 5 0 0 0-5 5zm0 25v-25h-1v25zm4 4a4 4 0 0 1-4-4h-1c0 3 2 5 5 5zm25 0h-25v1h25zm4-4c0 2-2 4-4 4v1c2 0 5-2 5-5zm0-25v25h1v-25zm-4-4a4 4 0 0 1 4 4h1a5 5 0 0 0-5-5zm-25 0h25v-1h-25zm0 118a5 5 0 0 0-5 5h1a4 4 0 0 1 4-4zm25 0h-25v1h25zm5 5a5 5 0 0 0-5-5v1c2 0 4 2 4 4zm0 25v-25h-1v25zm-5 5a5 5 0 0 0 5-5h-1c0 2-2 4-4 4zm-25 0h25v-1h-25zm-5-5a5 5 0 0 0 5 5v-1a4 4 0 0 1-4-4zm0-25v25h1v-25zm-679 60a5 5 0 0 0-5-5v1a4 4 0 0 1 4 4zm0 24v-24h-1v24zm-5 5a5 5 0 0 0 5-5h-1a4 4 0 0 1-4 4zm-25 0h25v-1h-25zm-5-5a5 5 0 0 0 5 5v-1a4 4 0 0 1-4-4zm0-24v24h1v-24zm5-5a5 5 0 0 0-5 5h1a4 4 0 0 1 4-4zm25 0h-25v1h25zm59 1a4 4 0 0 1 4 4h1a5 5 0 0 0-5-5zm-25 0h25v-1h-25zm-4 4a4 4 0 0 1 4-4v-1a5 5 0 0 0-5 5zm0 24v-24h-1v24zm4 4a4 4 0 0 1-4-4h-1a5 5 0 0 0 5 5zm25 0h-25v1h25zm4-4a4 4 0 0 1-4 4v1a5 5 0 0 0 5-5zm0-24v24h1v-24zm-58 59a5 5 0 0 0-5-5v1a4 4 0 0 1 4 4zm0 25v-25h-1v25zm-5 5a5 5 0 0 0 5-5h-1a4 4 0 0 1-4 4zm-25 0h25v-1h-25zm-5-5a5 5 0 0 0 5 5v-1a4 4 0 0 1-4-4zm0-25v25h1v-25zm5-5a5 5 0 0 0-5 5h1a4 4 0 0 1 4-4zm25 0h-25v1h25zm59 1a4 4 0 0 1 4 4h1a5 5 0 0 0-5-5zm-25 0h25v-1h-25zm-4 4a4 4 0 0 1 4-4v-1a5 5 0 0 0-5 5zm0 25v-25h-1v25zm4 4a4 4 0 0 1-4-4h-1a5 5 0 0 0 5 5zm25 0h-25v1h25zm4-4a4 4 0 0 1-4 4v1a5 5 0 0 0 5-5zm0-25v25h1v-25zm86-178a4 4 0 0 1 4-4v-1a5 5 0 0 0-4 5zm0 24v-24 24zm4 4a4 4 0 0 1-4-4 5 5 0 0 0 4 5zm25 0h-25v1h25zm4-4a4 4 0 0 1-4 4v1a5 5 0 0 0 5-5zm0-24v24h1v-24zm-4-4a4 4 0 0 1 4 4h1a5 5 0 0 0-5-5zm-25 0h25v-1h-25zm-59 177a5 5 0 0 0-5 5h1a4 4 0 0 1 4-4zm25 0h-25v1h25zm5 5a5 5 0 0 0-5-5v1a4 4 0 0 1 4 4zm0 25v-25h-1v25zm-5 5a5 5 0 0 0 5-5h-1a4 4 0 0 1-4 4zm-25 0h25v-1h-25zm-5-5a5 5 0 0 0 5 5v-1a4 4 0 0 1-4-4zm0-25v25h1v-25zm119-238a4 4 0 0 1 4-4v-1a5 5 0 0 0-5 5zm0 25v-25h-1v25zm4 4a4 4 0 0 1-4-4h-1a5 5 0 0 0 5 5zm25 0h-25v1h25zm4-4a4 4 0 0 1-4 4v1a5 5 0 0 0 5-5zm0-25v25h1v-25zm-4-4a4 4 0 0 1 4 4h1a5 5 0 0 0-5-5zm-25 0h25v-1h-25zm0-119a5 5 0 0 0-5 5h1a4 4 0 0 1 4-4zm25 0h-25v1h25zm5 5a5 5 0 0 0-5-5v1a4 4 0 0 1 4 4zm0 25V60h-1v25zm-5 5a5 5 0 0 0 5-5h-1a4 4 0 0 1-4 4zm-25 0h25v-1h-25zm-5-5a5 5 0 0 0 5 5v-1a4 4 0 0 1-4-4zm0-25v25h1V60zm240 118a4 4 0 0 1 4-4v-1a5 5 0 0 0-5 5zm0 25v-25h-1v25zm4 4a4 4 0 0 1-4-4h-1c0 3 2 5 5 5zm25 0h-25v1h25zm3-4a4 4 0 0 1-3 4v1c2 0 4-2 4-5zm0-25v25h1v-25zm-3-4c2 0 3 2 3 4h1a5 5 0 0 0-4-5zm-25 0h25v-1h-25zm60 59a5 5 0 0 0-4 5h1a4 4 0 0 1 3-4zm25 0h-25v1h25zm5 5a5 5 0 0 0-5-5v1a4 4 0 0 1 4 4zm0 25v-25h-1v25zm-5 5a5 5 0 0 0 5-5h-1a4 4 0 0 1-4 4zm-25 0h25v-1h-25zm-4-5a5 5 0 0 0 4 5v-1a4 4 0 0 1-3-4zm0-25v25h1v-25zm-179 59a4 4 0 0 1 4-4v-1a5 5 0 0 0-5 5zm0 25v-25h-1v25zm4 4a4 4 0 0 1-4-4h-1a5 5 0 0 0 5 5zm25 0h-25v1h25zm4-4a4 4 0 0 1-4 4v1a5 5 0 0 0 5-5zm0-25v25h1v-25zm-4-4a4 4 0 0 1 4 4h1a5 5 0 0 0-5-5zm-25 0h25v-1h-25zm57-1a5 5 0 0 0-5 5h1a4 4 0 0 1 4-4zm24 0h-24v1h24zm5 5a5 5 0 0 0-5-5v1a4 4 0 0 1 4 4zm0 25v-25h-1v25zm-5 5a5 5 0 0 0 5-5h-1a4 4 0 0 1-4 4zm-24 0h24v-1h-24zm-5-5a5 5 0 0 0 5 5v-1a4 4 0 0 1-4-4zm0-25v25h1v-25zm-22 60a5 5 0 0 0-5-5v1a4 4 0 0 1 4 4zm0 24v-24h-1v24zm-5 5a5 5 0 0 0 5-5h-1a4 4 0 0 1-4 4zm-25 0h25v-1h-25zm-5-5a5 5 0 0 0 5 5v-1a4 4 0 0 1-4-4zm0-24v24h1v-24zm5-5a5 5 0 0 0-5 5h1a4 4 0 0 1 4-4zm25 0h-25v1h25zm-60 1a4 4 0 0 1 4 4h1a5 5 0 0 0-5-5zm-24 0h24v-1h-24zm-4 4a4 4 0 0 1 4-4v-1a5 5 0 0 0-5 5zm0 24v-24h-1v24zm4 4a4 4 0 0 1-4-4h-1a5 5 0 0 0 5 5zm24 0h-24v1h24zm4-4a4 4 0 0 1-4 4v1a5 5 0 0 0 5-5zm0-24v24h1v-24zm119 120a5 5 0 0 0-4-4v1c2 0 3 1 3 3zm0 25v-25h-1v25zm-4 5c2 0 4-2 4-5h-1a4 4 0 0 1-3 4zm-25 0h25v-1h-25zm-5-5a5 5 0 0 0 5 5v-1a4 4 0 0 1-4-4zm0-25v25h1v-25zm5-4a5 5 0 0 0-5 4h1a4 4 0 0 1 4-3zm25 0h-25v1h25zm95-62a5 5 0 0 0-5 5h1a4 4 0 0 1 4-4zm24 0h-24v1h24zm5 5a5 5 0 0 0-5-5v1c2 0 4 2 4 4zm0 25v-25h-1v25zm-5 5c3 0 5-2 5-5h-1a4 4 0 0 1-4 4zm-24 0h24v-1h-24zm-5-5c0 3 2 5 5 5v-1a4 4 0 0 1-4-4zm0-25v25h1v-25zM684 297a4 4 0 0 1 4-4v-1a5 5 0 0 0-5 5zm0 25v-25h-1v25zm4 4a4 4 0 0 1-4-4h-1a5 5 0 0 0 5 5zm24 0h-24v1h24zm4-4a4 4 0 0 1-4 4v1a5 5 0 0 0 5-5zm0-25v25h1v-25zm-4-4a4 4 0 0 1 4 4h1a5 5 0 0 0-5-5zm-24 0h24v-1h-24zm-1 178a5 5 0 0 0-5 5h1a4 4 0 0 1 4-4zm25 0h-25v1h25zm5 5a5 5 0 0 0-5-5v1a4 4 0 0 1 4 4zm0 24v-24h-1v24zm-5 5a5 5 0 0 0 5-5h-1a4 4 0 0 1-4 4zm-25 0h25v-1h-25zm-5-5a5 5 0 0 0 5 5v-1a4 4 0 0 1-4-4zm0-24v24h1v-24zm119 0a4 4 0 0 1 4-4v-1a5 5 0 0 0-5 5zm0 24v-24h-1v24zm4 4a4 4 0 0 1-4-4h-1a5 5 0 0 0 5 5zm25 0h-25v1h25zm4-4a4 4 0 0 1-4 4v1a5 5 0 0 0 5-5zm0-24v24h1v-24zm-4-4a4 4 0 0 1 4 4h1a5 5 0 0 0-5-5zm-25 0h25v-1h-25zm383 93a5 5 0 0 0 5-4h-1c0 2-2 3-4 3zm-25 0h25v-1h-25zm-5-4a5 5 0 0 0 5 4v-1a4 4 0 0 1-4-3zm0-25v25h1v-25zm5-5a5 5 0 0 0-5 5h1a4 4 0 0 1 4-4zm25 0h-25v1h25zm5 5a5 5 0 0 0-5-5v1a4 4 0 0 1 4 4zm0 25v-25h-1v25zm0-204a5 5 0 0 0-5-5v1c2 0 4 2 4 4zm0 24v-24h-1v24zm-5 5a5 5 0 0 0 5-5h-1c0 3-2 4-4 4zm-24 0h24v-1h-24zm-5-5a5 5 0 0 0 5 5v-1a4 4 0 0 1-4-4zm0-24v24h1v-24zm5-5a5 5 0 0 0-5 5h1a4 4 0 0 1 4-4zm24 0h-24v1h24zm-322 59a5 5 0 0 0-5 5h1a4 4 0 0 1 4-4zm24 0h-24v1h24zm5 5a5 5 0 0 0-5-5v1a4 4 0 0 1 4 4zm0 25v-25h-1v25zm-5 5a5 5 0 0 0 5-5h-1a4 4 0 0 1-4 4zm-24 0h24v-1h-24zm-5-5a5 5 0 0 0 5 5v-1a4 4 0 0 1-4-4zm0-25v25h1v-25zm332 60a5 5 0 0 0-5-5v1a4 4 0 0 1 4 4zm0 24v-24h-1v24zm-5 5a5 5 0 0 0 5-5h-1a4 4 0 0 1-4 4zm-25 0h25v-1h-25zm-5-5a5 5 0 0 0 5 5v-1a4 4 0 0 1-4-4zm0-24v24h1v-24zm5-5a5 5 0 0 0-5 5h1c0-2 2-4 4-4zm25 0h-25v1h25zm-501 93a4 4 0 0 1-4-3h-1a5 5 0 0 0 5 4zm25 0h-25v1h25zm4-3a4 4 0 0 1-4 3v1a5 5 0 0 0 5-4zm0-25v25h1v-25zm-4-4a4 4 0 0 1 4 4h1a5 5 0 0 0-5-5zm-25 0h25v-1h-25zm-4 4a4 4 0 0 1 4-4v-1a5 5 0 0 0-5 5zm0 25v-25h-1v25zm237 0a5 5 0 0 0 5 4v-1a4 4 0 0 1-4-3zm0-25v25h1v-25zm5-5a5 5 0 0 0-5 5h1a4 4 0 0 1 4-4zm24 0h-24v1h24zm5 5a5 5 0 0 0-5-5v1a4 4 0 0 1 4 4zm0 25v-25h-1v25zm-5 4a5 5 0 0 0 5-4h-1a4 4 0 0 1-4 3zm-24 0h24v-1h-24zm-120-1a4 4 0 0 1-4-3h-1a5 5 0 0 0 5 4zm25 0h-25v1h25zm4-3a4 4 0 0 1-4 3v1a5 5 0 0 0 5-4zm0-25v25h1v-25zm-4-4a4 4 0 0 1 4 4h1a5 5 0 0 0-5-5zm-25 0h25v-1h-25zm-4 4a4 4 0 0 1 4-4v-1a5 5 0 0 0-5 5zm0 25v-25h-1v25zm237 0a5 5 0 0 0 5 4v-1a4 4 0 0 1-4-3zm0-25v25h1v-25zm5-5a5 5 0 0 0-5 5h1a4 4 0 0 1 4-4zm24 0h-24v1h24zm5 5a5 5 0 0 0-5-5v1a4 4 0 0 1 4 4zm0 25v-25h-1v25zm-5 4c3 0 5-2 5-4h-1c0 2-1 3-4 3zm-24 0h24v-1h-24z" fill="#fff" fill-opacity=".1"/><g opacity=".2"><path d="m884 127-1 3 2 1v2a4 4 0 0 1 0 2l-1 1h-1a7 7 0 0 1-1 1h-2v2h-2v-2a61 61 0 0 1-1 0v2h-3v-2s1 0 0 0h-2v-3h2v-7l-1-1h-1v-3h2v-2h3v2a60 60 0 0 1 1 0v-2h2v2l1 1h2l1 1v2m-2 6v-1a2 2 0 0 0-1 0 2 2 0 0 0-1-1 7 7 0 0 0-1 0 13 13 0 0 0-1 0h-1v4h1a16 16 0 0 0 1 0h1l1-1 1-1m-1-6a2 2 0 0 0-1-1 4 4 0 0 0-1 0 6 6 0 0 0-1 0 78 78 0 0 1-1 0v3h1a5 5 0 0 0 1 0h1v-1h1v-1" fill="url(#d)" opacity=".5"/><path d="M765 187q0 2-2 3l2 1 1 3a5 5 0 0 1-1 1 3 3 0 0 1 0 1l-1 1a7 7 0 0 1-2 0h-1v2h-2v-1h-2v1h-2v-2a47 47 0 0 0-1 0h-2v-2h2v-8l-1-1h-1v-2h3v-2h2v2h2v-2h2v2h1l1 1 1 1 1 1m-3 6a2 2 0 0 0 0-1 2 2 0 0 0-1 0 6 6 0 0 0-1 0 7 7 0 0 0-1-1h-2v4h3q1 0 0 0t1 0 1-1a2 2 0 0 0 0-1m0-5-1-1a2 2 0 0 0-1-1 6 6 0 0 0-1 0 6 6 0 0 0-1 0h-1v4h2a5 5 0 0 0 1 0v-1h1v-1a2 2 0 0 0 1 0" fill="url(#e)" opacity=".5"/><path d="M765 68q0 2-2 3l2 1 1 2a4 4 0 0 1-1 2v1l-1 1a7 7 0 0 1-2 0h-1v2h-2v-2h-2v2h-2v-2a48 48 0 0 0-1 0h-2v-2h2v-8l-1-1h-1v-2h3v-3h2v3h2v-3h2v3h2l1 1 1 2m-3 6v-1a2 2 0 0 0-1-1 6 6 0 0 0-1 0 7 7 0 0 0-1 0h-1a34 34 0 0 1-1 0v4h4v-1h1a2 2 0 0 0 0-1m0-6h-1a2 2 0 0 0 0-1 2 2 0 0 0-1 0 6 6 0 0 0-1 0 7 7 0 0 0-1 0 81 81 0 0 1-1 0v3h3q1 0 0 0t1 0 0-1a2 2 0 0 0 1-1" fill="url(#f)" opacity=".5"/><path d="m884 187-1 3 2 1v3a4 4 0 0 1 0 1l-1 1-1 1a7 7 0 0 1-1 0h-2v2h-2v-1a69 69 0 0 1-1 0v1h-3v-2s1 0 0 0h-2v-2h1l1-1v-7l-1-1h-1v-2h2v-2h3v2a60 60 0 0 1 1 0v-2h2v2h1l2 1 1 1v1m-2 6a2 2 0 0 0-1-1 2 2 0 0 0-1 0 7 7 0 0 0-1-1 13 13 0 0 0-1 0h-1v4h1a16 16 0 0 0 1 0h2v-1h1a2 2 0 0 0 0-1m-1-5v-1a2 2 0 0 0-1 0 2 2 0 0 0 0-1 4 4 0 0 0-1 0 6 6 0 0 0-1 0 78 78 0 0 1-1 0v4h2v-1h1l1-1" fill="url(#g)" opacity=".5"/><path d="m1062 187-1 3 2 1v4l-1 1-1 1h-2v2h-3v-1h-1v1h-3v-2s1 0 0 0h-2v-2h1l1-1v-7l-1-1h-1v-2h2v-2h3v2h1v-2h3v2h1l1 1 1 1v1m-2 6a2 2 0 0 0-1-1 6 6 0 0 0-1 0 7 7 0 0 0-1-1 13 13 0 0 0-1 0h-1v4a14 14 0 0 0 1 0h2a4 4 0 0 0 1 0v-1h1v-1m-1-5v-1a2 2 0 0 0-1-1 4 4 0 0 0-1 0 6 6 0 0 0-1 0h-1v4h2l1-1h1v-1" fill="url(#h)" opacity=".5"/><path d="m1062 246-1 3 2 1v4l-1 1-1 1h-2v2h-3v-2h-1v2h-3v-2s1 0 0 0h-2v-2h1l1-1v-7l-1-1h-1v-2h2v-2h3v2h1v-2h3v2h1l1 1 1 1v1m-2 6v-1a2 2 0 0 0-1 0 6 6 0 0 0-1-1 7 7 0 0 0-1 0 13 13 0 0 0-1 0h-1v4a14 14 0 0 0 1 0h2a4 4 0 0 0 1 0v-1h1v-1m-1-5v-2a2 2 0 0 0-1 0 4 4 0 0 0-1 0h-2v3h4v-1" fill="url(#i)" opacity=".5"/><path d="m884 68-1 3 2 1v2a5 5 0 0 1 0 2l-1 1-1 1a7 7 0 0 1-1 0h-2v2h-2v-2h-1v2h-3v-2s1 0 0 0h-2v-2h1l1-1v-7l-1-1h-1v-2h2v-3h3v3h1v-3h2v3h3l1 1v2m-2 6v-1a2 2 0 0 0-1 0 2 2 0 0 0-1-1 7 7 0 0 0-1 0 12 12 0 0 0-1 0h-1v4h1q1 0 0 0t1 0 1 0 1-1a2 2 0 0 0 1 0 2 2 0 0 0 0-1m-1-6a2 2 0 0 0-1-1 4 4 0 0 0-1 0 6 6 0 0 0-1 0 80 80 0 0 1-1 0v3h1q1 0 0 0h2l1-1a2 2 0 0 0 0-1" fill="url(#j)" opacity=".5"/><path d="M824 187q0 2-2 3l2 1 1 3a4 4 0 0 1-1 1 3 3 0 0 1 0 1l-2 1a7 7 0 0 1-1 0h-1v2h-2v-1a69 69 0 0 1-2 0v1h-2v-2a47 47 0 0 0-1 0h-2v-2h1l1-1v-7l-1-1h-1v-2h3v-2h2v2a60 60 0 0 1 2 0v-2h2v2h1l1 1 1 1 1 1m-3 6a2 2 0 0 0 0-1h-1a6 6 0 0 0-1 0 7 7 0 0 0-1-1h-2v4h1a16 16 0 0 0 1 0h2l1-1a2 2 0 0 0 0-1m-1-5v-1a2 2 0 0 0-1-1 6 6 0 0 0-1 0 7 7 0 0 0-1 0 78 78 0 0 1-1 0v4h2l1-1h1q1 0 0 0v-1" fill="url(#k)" opacity=".5"/><path d="m1002 187-2 3 2 1 1 3-1 1v1l-1 1h-3v2h-2v-1a69 69 0 0 1-2 0v1h-2v-2a47 47 0 0 0-1 0h-2v-2h2v-8l-1-1h-1v-2h3v-2h2v2a60 60 0 0 1 2 0v-2h2v2h1l1 1 1 1 1 1m-3 6a2 2 0 0 0 0-1 2 2 0 0 0-1 0 6 6 0 0 0-1 0 7 7 0 0 0-1-1h-2v4h1a16 16 0 0 0 2 0 4 4 0 0 0 1 0l1-1a2 2 0 0 0 0-1m0-5-1-1a2 2 0 0 0-1-1 6 6 0 0 0-1 0 7 7 0 0 0-1 0 78 78 0 0 1-1 0v4h3v-1h1q1 0 0 0v-1h1" fill="url(#l)" opacity=".5"/><path d="M824 68q0 2-2 3l2 1 1 2a5 5 0 0 1-1 2v1l-2 1a7 7 0 0 1-1 0h-1v2h-2v-2a63 63 0 0 1-2 0v2h-2v-2a48 48 0 0 0-1 0h-2v-2h1l1-1v-7l-1-1h-1v-2h3v-3h2v3h2v-3h2v3h2l1 1 1 2m-3 6v-1l-1-1a6 6 0 0 0-1 0 7 7 0 0 0-1 0h-2v4h4v-1h1a2 2 0 0 0 0-1m-1-6a2 2 0 0 0 0-1 2 2 0 0 0-1 0 6 6 0 0 0-1 0 7 7 0 0 0-1 0 80 80 0 0 1-1 0v3h4v-1a2 2 0 0 0 0-1" fill="url(#m)" opacity=".5"/><path d="M587 187q0 2-2 3l2 1 1 3a4 4 0 0 1-1 1v1l-2 1a7 7 0 0 1-1 0h-1v2h-2v-1h-2v1h-2v-2a47 47 0 0 0-1 0h-2v-2h2v-8l-1-1h-1v-2h3v-2h2v2h2v-2h2v2h1l1 1 1 1 1 1m-3 6a2 2 0 0 0 0-1 2 2 0 0 0-1 0 6 6 0 0 0-1 0 7 7 0 0 0-1-1h-2v4h1a16 16 0 0 0 2 0h1l1-1a2 2 0 0 0 0-1m-1-5v-1a2 2 0 0 0-1-1 6 6 0 0 0-1 0 7 7 0 0 0-1 0 79 79 0 0 1-1 0v4h2l1-1h1q1 0 0 0v-1" fill="url(#n)" opacity=".5"/><path d="M587 68q0 2-2 3l2 1 1 2a4 4 0 0 1-1 2v1l-2 1a7 7 0 0 1-1 0h-1v2h-2v-2h-2v2h-2v-2a48 48 0 0 0-1 0h-2v-2h2v-8l-1-1h-1v-2h3v-3h2v3h2v-3h2v3h2l1 1 1 2m-3 6v-1a2 2 0 0 0-1-1 6 6 0 0 0-1 0 7 7 0 0 0-1 0h-1a34 34 0 0 1-1 0v4h4v-1h1a2 2 0 0 0 0-1m-1-6a2 2 0 0 0 0-1 2 2 0 0 0-1 0 6 6 0 0 0-1 0 7 7 0 0 0-1 0 81 81 0 0 1-1 0v3h2q1 0 0 0t1 0 1 0 0-1a2 2 0 0 0 0-1" fill="url(#o)" opacity=".5"/><path d="M646 68q0 2-2 3l2 1 1 2a5 5 0 0 1-1 2l-1 1-1 1a7 7 0 0 1-1 0h-1v2h-3v-2h-1v2h-2v-2c-1 0 0 0 0 0a48 48 0 0 0-1 0h-2v-2h1l1-1v-7l-1-1h-1v-2h3v-3h2v3a63 63 0 0 1 1 0v-3h3v3h2l1 1 1 2m-3 6v-1a2 2 0 0 0-1 0 2 2 0 0 0 0-1 6 6 0 0 0-1 0 7 7 0 0 0-1 0 12 12 0 0 0-1 0h-1v4h4v-1h1a2 2 0 0 0 0-1m-1-6a2 2 0 0 0 0-1 2 2 0 0 0-1 0 6 6 0 0 0-1 0 7 7 0 0 0-1 0 80 80 0 0 1-1 0v3h4v-1a2 2 0 0 0 0-1" fill="url(#p)" opacity=".5"/><path d="M706 68q0 2-2 3l3 1v2a5 5 0 0 1 0 2l-1 1-1 1a7 7 0 0 1-2 0h-1v2h-2v-2h-1v2h-3v-2h-3v-2h2l1-1v-7l-2-1h-1v-2h3v-3h3v3a63 63 0 0 1 1 0v-3h2v3h3l1 1v2m-2 6-1-1a2 2 0 0 0-1-1 7 7 0 0 0-1 0 12 12 0 0 0-1 0h-1v4h3l1-1a2 2 0 0 0 1-1m-1-6a2 2 0 0 0-1-1 4 4 0 0 0-1 0 6 6 0 0 0-1 0 80 80 0 0 1-1 0v3h1a5 5 0 0 0 1 0h1l1-1a2 2 0 0 0 0-1" fill="url(#q)" opacity=".5"/><path d="M765 127q0 2-2 3l2 1 1 2a4 4 0 0 1-1 2v1h-1a7 7 0 0 1-2 1h-1v2h-2v-2a61 61 0 0 1-2 0v2h-2v-2a47 47 0 0 0-1 0h-2v-3h2v-7l-1-1h-1v-3h3v-2h2v2h2v-2h2v2l1 1h1l1 1 1 2m-3 6v-1a2 2 0 0 0-1-1 6 6 0 0 0-1 0 7 7 0 0 0-1 0h-2v4h1a16 16 0 0 0 2 0h1v-1h1v-1m0-6h-1a2 2 0 0 0 0-1 2 2 0 0 0-1 0 6 6 0 0 0-1 0 7 7 0 0 0-1 0 79 79 0 0 1-1 0v3h2a5 5 0 0 0 1 0h1v-1l1-1" fill="url(#r)" opacity=".5"/><path d="M765 246q0 2-2 3l2 1 1 3a4 4 0 0 1-1 1v1l-2 1a7 7 0 0 1-1 0h-1v2h-2v-2a61 61 0 0 1-2 0v2h-2v-2a47 47 0 0 0-1 0h-2v-2h1l1-1v-7l-1-1h-1v-2h3v-2h2v2a60 60 0 0 1 2 0v-2h2v2h1l1 1 1 1 1 1m-3 6v-1a2 2 0 0 0-1 0 6 6 0 0 0-1-1 7 7 0 0 0-1 0 13 13 0 0 0-1 0h-1v4h1a16 16 0 0 0 1 0h2q1 0 0 0t1-1a2 2 0 0 0 0-1m-1-5v-1a2 2 0 0 0 0-1 2 2 0 0 0-1 0 6 6 0 0 0-1 0 6 6 0 0 0-1 0 78 78 0 0 1-1 0v3h2q1 0 0 0h2v-1" fill="url(#s)" opacity=".5"/><path d="M943 246q0 2-2 3l2 1 1 3a5 5 0 0 1 0 1 3 3 0 0 1-1 1l-1 1a7 7 0 0 1-2 0h-1v2h-2v-2h-1v2h-3v-2a47 47 0 0 0-1 0h-2v-2h2v-8l-1-1h-1v-2h3v-2h3v2a66 66 0 0 1 1 0v-2h2v2h1l2 1 1 1v1m-2 6-1-1a2 2 0 0 0-1 0 6 6 0 0 0-1-1 13 13 0 0 0-1 0h-1v4h4v-1a2 2 0 0 0 1-1m-1-5v-1a2 2 0 0 0-1-1 4 4 0 0 0-1 0 6 6 0 0 0-1 0h-1v3h1a5 5 0 0 0 1 0h1l1-1" fill="url(#t)" opacity=".5"/><path d="m1002 246-2 3 2 1 1 3-1 1v1l-1 1a7 7 0 0 1-2 0h-1v2h-2v-2h-2v2h-2v-2a47 47 0 0 0-1 0h-2v-2h2v-8l-1-1h-1v-2h3v-2h2v2h2v-2h2v2h1l1 1 1 1 1 1m-3 6v-1a2 2 0 0 0-1 0 6 6 0 0 0-1-1 7 7 0 0 0-1 0h-2v4h4l1-1a2 2 0 0 0 0-1m0-5-1-1a2 2 0 0 0 0-1 2 2 0 0 0-1 0 6 6 0 0 0-1 0 7 7 0 0 0-1 0h-1v3h4v-1a2 2 0 0 0 1 0" fill="url(#u)" opacity=".5"/><path d="m1000 306-1 3 2 2v4l-1 1h-1a7 7 0 0 1-1 1h-2v2h-2v-2a61 61 0 0 1-1 0v2h-3v-2s1 0 0 0h-3v-3h3v-8h-3v-3h3v-2h3v2a60 60 0 0 1 1 0v-2h2v2l1 1h2l1 1v1m-2 7-1-1a2 2 0 0 0 0-1h-1a7 7 0 0 0-1 0 13 13 0 0 0-1 0h-1v4h1a16 16 0 0 0 1 0h1v-1h1q1 0 0 0t1-1m-1-6v-1a2 2 0 0 0-1 0 4 4 0 0 0-1-1 6 6 0 0 0-1 0 78 78 0 0 1-1 0v4h3v-1h1v-1" fill="url(#v)" opacity=".5"/><path d="M943 68q0 2-2 3l2 1 1 2a5 5 0 0 1 0 2l-1 1-1 1a7 7 0 0 1-2 0h-1v2h-2v-2h-1v2h-3v-2a48 48 0 0 0-1 0h-2v-2h2v-8l-1-1h-1v-2h3v-3h3v3a63 63 0 0 1 1 0v-3h2v3h3l1 1v2m-2 6-1-1a2 2 0 0 0-1-1 6 6 0 0 0-1 0 12 12 0 0 0-1 0h-1v4h3l1-1a2 2 0 0 0 1-1m-1-6a2 2 0 0 0-1-1 4 4 0 0 0-1 0 6 6 0 0 0-1 0 80 80 0 0 1-1 0v3h1a5 5 0 0 0 1 0h1l1-1v-1" fill="url(#w)" opacity=".5"/><path d="M1301 68c0 1 0 2-2 3l2 1 1 2a5 5 0 0 1 0 2l-1 1-1 1a7 7 0 0 1-2 0h-1v2h-2v-2h-2v2h-2v-2h-3v-2h2v-8l-1-1h-1v-2h3v-3h2v3h2v-3h2v3h3l1 1v2m-3 6v-1a2 2 0 0 0-1-1 6 6 0 0 0-1 0 13 13 0 0 0-2 0v4a14 14 0 0 0 1 0 12 12 0 0 0 1 0 4 4 0 0 0 2-1v-1m0-6a2 2 0 0 0-1-1h-2a84 84 0 0 1-1 0v3a11 11 0 0 0 2 0 2 2 0 0 0 1 0l1-1v-1" fill="url(#x)" opacity=".5"/><path d="M1301 306c0 2 0 3-2 3l2 2 1 2a5 5 0 0 1 0 2l-1 1h-1l-2 1h-1v2h-2v-2h-2v2h-2v-2h-3v-3h2v-8h-2v-3h3v-2h2v2h2v-2h2v2l1 1h2l1 1v1m-3 7v-1a2 2 0 0 0 0-1h-1a6 6 0 0 0-1 0 13 13 0 0 0-1 0 29 29 0 0 0-1 0v4a15 15 0 0 0 2 0 8 8 0 0 0 1-1h1c1 0 0 0 0 0v-1m0-6v-1a2 2 0 0 0-1 0 4 4 0 0 0-1-1 7 7 0 0 0-1 0 82 82 0 0 1-1 0v4a11 11 0 0 0 2 0 2 2 0 0 0 1-1h1v-1" fill="url(#y)" opacity=".5"/><path d="m1123 68-2 3 2 1 1 2a5 5 0 0 1-1 2v1l-2 1a7 7 0 0 1-1 0h-1v2h-2v-2h-2v2h-2v-2h-3v-2h1l1-1v-7l-1-1h-1v-2h3v-3h2v3h2v-3h2v3h2l1 1 1 2m-3 6v-1a2 2 0 0 0-1-1 6 6 0 0 0-1 0 7 7 0 0 0-1 0 12 12 0 0 0-2 0v4h1a14 14 0 0 0 1 0 12 12 0 0 0 1 0 4 4 0 0 0 1-1h1a2 2 0 0 0 0-1m-1-6v-1a2 2 0 0 0-1 0 6 6 0 0 0-2 0 75 75 0 0 1-1 0v3h2a5 5 0 0 0 1 0h1v-2" fill="url(#z)" opacity=".5"/><path d="m1123 127-2 3 2 1 1 2a5 5 0 0 1-1 2v1l-2 1a7 7 0 0 1-1 0h-1v2h-2v-2h-2v2h-2v-2h-3v-2h1l1-1v-7l-1-1h-1v-2h3v-3h2v3h2v-3h2v3h1l1 1h1l1 2m-3 6v-1l-1-1h-1a7 7 0 0 0-1 0 13 13 0 0 0-1 0h-1v4h1a15 15 0 0 0 1 0 8 8 0 0 0 2 0s1-1 1-1a2 2 0 0 0 0-1m-1-5v-2a2 2 0 0 0-1 0 6 6 0 0 0-1 0h-1a73 73 0 0 1-1 0v3h2a5 5 0 0 0 1 0h1v-1" fill="url(#A)" opacity=".5"/><path d="m1061 127-2 3 2 1 1 2a5 5 0 0 1-1 2v1l-2 1a7 7 0 0 1-1 0h-1v2h-2v-2h-2v2h-2v-2h-3v-2h1l1-1v-7l-1-1h-1v-2h3v-3h2v3h2v-3h2v3h1l1 1h1l1 2m-3 6v-1l-1-1h-1a7 7 0 0 0-1 0 13 13 0 0 0-1 0h-1v4h1a15 15 0 0 0 1 0 8 8 0 0 0 2 0s1-1 1-1a2 2 0 0 0 0-1m-1-5v-2a2 2 0 0 0-1 0 6 6 0 0 0-1 0h-1a73 73 0 0 1-1 0v3h2a5 5 0 0 0 1 0h1v-1" fill="url(#B)" opacity=".5"/><path d="M706 306q0 2-2 3l3 2v2a4 4 0 0 1 0 2l-1 1h-1a7 7 0 0 1-2 1h-1v2h-2v-2a61 61 0 0 1-1 0v2h-3v-2h-3v-3h3v-8h-3v-3h3v-2h3v2a60 60 0 0 1 1 0v-2h2v2l1 1h2l1 1v1m-2 7-1-1a2 2 0 0 0 0-1 2 2 0 0 0-1 0 7 7 0 0 0-1 0 13 13 0 0 0-1 0h-1v4h1a16 16 0 0 0 1 0l1-1h1v-1a2 2 0 0 0 1 0m-1-6v-1a2 2 0 0 0-1 0 4 4 0 0 0-1-1 6 6 0 0 0-1 0 78 78 0 0 1-1 0v4h3v-1h1v-1" fill="url(#C)" opacity=".5"/><path d="M945 306q0 2-2 3l2 2 1 2a4 4 0 0 1-1 2v1h-2a7 7 0 0 1-1 1h-1v2h-2v-2a61 61 0 0 1-2 0v2h-2v-2a47 47 0 0 0-1 0h-2v-3h2v-8h-2v-3h3v-2h2v2a60 60 0 0 1 2 0v-2h2v2l1 1h1l1 1 1 1m-3 7v-1a2 2 0 0 0 0-1 2 2 0 0 0-1 0 6 6 0 0 0-1 0 7 7 0 0 0-1 0h-2v4h1a16 16 0 0 0 1 0h1a4 4 0 0 0 1-1h1v-1m-1-6v-1a2 2 0 0 0-1 0 4 4 0 0 0 0-1 6 6 0 0 0-1 0 7 7 0 0 0-1 0 78 78 0 0 1-1 0v4h2q1 0 0 0h2v-1q-1-1 0 0v-1" fill="url(#D)" opacity=".5"/><path d="m1062 306-1 3 2 2v4l-1 1h-1l-1 1h-1v2h-3v-2h-1v2h-3v-2s1 0 0 0h-2v-3h2v-8h-2v-3h2v-2h3v2h1v-2h3v2l1 1h1l1 1v1m-2 7v-1a2 2 0 0 0-1-1 5 5 0 0 0-1 0 7 7 0 0 0-1 0 13 13 0 0 0-1 0h-1v4a16 16 0 0 0 2 0h1a5 5 0 0 0 1-1l1-1m-1-6v-1a2 2 0 0 0-1 0 4 4 0 0 0-1-1h-1a73 73 0 0 1-1 0v4h3l1-1v-1" fill="url(#E)" opacity=".5"/><path d="M1123 306c0 2-1 3-2 3l2 2 1 2-1 2v1h-1l-2 1h-1v2h-2v-2h-2v2h-2v-2h-3v-3h2v-8h-2v-3h3v-2h2v2h2v-2h2v2l1 1h1l1 1 1 1m-3 7v-1a2 2 0 0 0 0-1h-1a5 5 0 0 0-1 0 7 7 0 0 0-1 0 12 12 0 0 0-1 0h-1v4h1a16 16 0 0 0 2 0 5 5 0 0 0 1-1h1v-1m0-6-1-1a2 2 0 0 0-1 0 4 4 0 0 0 0-1 6 6 0 0 0-1 0 7 7 0 0 0-1 0 86 86 0 0 1-1 0v4h1a12 12 0 0 0 1 0h2v-1l1-1" fill="url(#F)" opacity=".5"/><path d="M943 127q0 2-2 3l2 1 1 2a4 4 0 0 1 0 2l-1 1h-1a7 7 0 0 1-2 1h-1v2h-2v-2a61 61 0 0 1-1 0v2h-3v-2a47 47 0 0 0-1 0h-2v-3h2v-7l-1-1h-1v-3h3v-2h3v2a60 60 0 0 1 1 0v-2h2v2l1 1h2l1 1v2m-2 6-1-1a2 2 0 0 0-1-1 5 5 0 0 0-1 0 13 13 0 0 0-1 0h-1v4h1a16 16 0 0 0 1 0h1l1-1v-1a2 2 0 0 0 1 0m-1-6a2 2 0 0 0-1-1 4 4 0 0 0-1 0 6 6 0 0 0-1 0 78 78 0 0 1-1 0v3h3v-1h1v-1" fill="url(#G)" opacity=".5"/><path d="M1301 127c0 1 0 2-2 3l2 1 1 2a5 5 0 0 1 0 2l-1 1h-1l-2 1h-1v2h-2v-2h-2v2h-2v-2h-3v-3h2v-7l-1-1h-1v-3h3v-2h2v2h2v-2h2v2l1 1h2l1 1v2m-3 6v-1l-1-1a6 6 0 0 0-1 0 13 13 0 0 0-1 0 29 29 0 0 0-1 0v4a15 15 0 0 0 2 0 8 8 0 0 0 1 0l1-1c1 0 0 0 0 0v-1m0-6a2 2 0 0 0-1-1 4 4 0 0 0-1 0 7 7 0 0 0-1 0 82 82 0 0 1-1 0v3a11 11 0 0 0 2 0 2 2 0 0 0 1-1h1v-1" fill="url(#H)" opacity=".5"/><path d="M1301 365c0 2 0 3-2 3l2 1 1 3a5 5 0 0 1 0 1l-1 1-1 1a7 7 0 0 1-2 0l-1 1v2h-2v-2h-2v2h-2v-2h-3v-3h2v-8l-1-1h-1v-2h3v-2h2v2h2v-2h2v2h1l2 1 1 1v1m-3 7v-1a2 2 0 0 0 0-1h-1a6 6 0 0 0-1 0 12 12 0 0 0-2 0v3a14 14 0 0 0 1 0 12 12 0 0 0 1 0 4 4 0 0 0 2 0v-1m0-6v-1a2 2 0 0 0-1 0 2 2 0 0 0 0-1h-1a7 7 0 0 0-1 0 82 82 0 0 1-1 0v4a11 11 0 0 0 2 0 2 2 0 0 0 1-1h1v-1" fill="url(#I)" opacity=".5"/><path d="M1240 365c1 2 0 3-1 3l2 1v3a5 5 0 0 1 0 1l-1 1-1 1a7 7 0 0 1-1 0l-1 1v2h-3v-2h-1v2h-2v-2c-1 0 0 0 0 0h-3v-3h1l1-1v-7l-1-1h-1v-2h3v-2h2v2h1v-2h3v2h1l1 1 1 1v1m-2 7v-1a2 2 0 0 0-1-1 6 6 0 0 0-1 0 7 7 0 0 0-1 0 12 12 0 0 0-2 0v3a14 14 0 0 0 2 0 12 12 0 0 0 1 0 4 4 0 0 0 1 0h1a2 2 0 0 0 0-1m-1-6v-1a2 2 0 0 0-1-1h-2a73 73 0 0 1-1 0v4h2a5 5 0 0 0 1-1h1v-1" fill="url(#J)" opacity=".5"/><path d="M1182 365c0 2-1 3-2 3l2 1 1 3-1 1v1l-2 1h-1l-1 1v2h-2v-2h-2v2h-2v-2h-3v-3h1l1-1v-7l-1-1h-1v-2h3v-2h2v2h2v-2h2v2h1l1 1 1 1 1 1m-3 7v-1a2 2 0 0 0 0-1h-1a5 5 0 0 0-1 0 7 7 0 0 0-1 0 12 12 0 0 0-2 0v3h1a14 14 0 0 0 1 0h1a4 4 0 0 0 1 0h1v-1m-1-6v-1a2 2 0 0 0-1-1 7 7 0 0 0-1 0 7 7 0 0 0-1 0 86 86 0 0 1-1 0v4h3v-1h1v-1" fill="url(#K)" opacity=".5"/><path d="m1002 127-2 3 2 1 1 2-1 2v1h-1l-2 1h-1v2h-2v-2a61 61 0 0 1-2 0v2h-2v-2a47 47 0 0 0-1 0h-2v-3h2v-7l-1-1h-1v-3h3v-2h2v2a60 60 0 0 1 2 0v-2h2v2l1 1h1l1 1 1 2m-3 6v-1a2 2 0 0 0-1-1 6 6 0 0 0-1 0 7 7 0 0 0-1 0h-2v4h1a16 16 0 0 0 2 0 4 4 0 0 0 1 0v-1h1v-1m0-6h-1a2 2 0 0 0 0-1 2 2 0 0 0-1 0 6 6 0 0 0-1 0 7 7 0 0 0-1 0 78 78 0 0 1-1 0v3h2a5 5 0 0 0 1 0h1v-1l1-1" fill="url(#L)" opacity=".5"/><path d="M706 424q0 2-2 3l3 1v3a4 4 0 0 1 0 1l-1 1-1 1a7 7 0 0 1-2 0h-1v2h-2v-2a61 61 0 0 1-1 0v2h-3v-2h-3v-2h2l1-1v-7l-2-1h-1v-2h3v-2h3v2a60 60 0 0 1 1 0v-2h2v2h1l2 1 1 1v1m-2 6h-1a2 2 0 0 0 0-1 2 2 0 0 0-1 0 6 6 0 0 0 0-1 7 7 0 0 0-1 0 13 13 0 0 0-1 0h-1v4h1a16 16 0 0 0 1 0h2v-1a2 2 0 0 0 1-1m-1-5v-1a2 2 0 0 0-1 0 2 2 0 0 0 0-1 4 4 0 0 0-1 0 6 6 0 0 0-1 0 78 78 0 0 1-1 0v4h1l1-1h1l1-1" fill="url(#M)" opacity=".5"/><path d="M765 424q0 2-2 3l2 1 1 3a4 4 0 0 1-1 1v1l-1 1a7 7 0 0 1-2 0h-1v2h-2v-2a61 61 0 0 1-2 0v2h-2v-2a47 47 0 0 0-1 0h-2v-2h2v-8l-1-1h-1v-2h3v-2h2v2h2v-2h2v2h1l1 1 1 1 1 1m-3 6a2 2 0 0 0 0-1 2 2 0 0 0-1 0 6 6 0 0 0-1-1 7 7 0 0 0-1 0h-2v4h1a16 16 0 0 0 2 0h1l1-1a2 2 0 0 0 0-1m0-5-1-1a2 2 0 0 0-1-1 6 6 0 0 0-1 0 6 6 0 0 0-1 0 79 79 0 0 1-1 0v4h2a5 5 0 0 0 1-1h1q1 0 0 0v-1h1" fill="url(#N)" opacity=".5"/><path d="m884 424-1 3 2 1v3a4 4 0 0 1 0 1l-1 1-1 1a7 7 0 0 1-1 0h-2v2h-2v-2a61 61 0 0 1-1 0v2h-3v-2s1 0 0 0h-2v-2h1l1-1v-7l-1-1h-1v-2h2v-2h3v2a60 60 0 0 1 1 0v-2h2v2h1l2 1 1 1v1m-2 6a2 2 0 0 0-1-1 2 2 0 0 0-1 0 6 6 0 0 0 0-1 7 7 0 0 0-1 0 13 13 0 0 0-1 0h-1v4h1a16 16 0 0 0 1 0h2v-1h1a2 2 0 0 0 0-1m-1-5v-1a2 2 0 0 0-1 0 2 2 0 0 0 0-1 4 4 0 0 0-1 0 6 6 0 0 0-1 0 78 78 0 0 1-1 0v4h1a5 5 0 0 0 1-1h1l1-1" fill="url(#O)" opacity=".5"/><path d="M765 365q0 2-2 3l2 1 1 3a4 4 0 0 1-1 1v1a4 4 0 0 1-1 1 7 7 0 0 1-2 0l-1 1v2h-2v-2a61 61 0 0 1-2 0v2h-2v-2a44 44 0 0 0-1 0h-2v-3h2v-8l-1-1h-1v-2h3v-2h2v2h2v-2h2v2h1l1 1 1 1 1 1m-3 7v-1a2 2 0 0 0 0-1 2 2 0 0 0-1 0 6 6 0 0 0-1 0 7 7 0 0 0-1 0h-2v3h1v1l1-1h1a4 4 0 0 0 1 0h1v-1q0-1 0 0m0-6-1-1a2 2 0 0 0-1-1 7 7 0 0 0-1 0 7 7 0 0 0-1 0 79 79 0 0 1-1 0v4h2a5 5 0 0 0 1 0l1-1a2 2 0 0 0 1-1" fill="url(#P)" opacity=".5"/><path d="M824 365q0 2-2 3l2 1 1 3a5 5 0 0 1-1 1 3 3 0 0 1 0 1l-2 1a7 7 0 0 1-1 0l-1 1v2h-2v-2a61 61 0 0 1-2 0v2h-2v-2a44 44 0 0 0-1 0h-2v-3h1l1-1v-7l-1-1h-1v-2h3v-2h2v2h2v-2h2v2h1l1 1 1 1 1 1m-3 7v-1a2 2 0 0 0 0-1h-1a6 6 0 0 0-1 0 7 7 0 0 0-1 0h-2v3h1v1l1-1q1-1 0 0h1a4 4 0 0 0 1 0h1v-1m-1-6v-1a2 2 0 0 0-1-1 7 7 0 0 0-1 0 7 7 0 0 0-1 0 78 78 0 0 1-1 0v4h3l1-1a2 2 0 0 0 0-1" fill="url(#Q)" opacity=".5"/><path d="m884 365-1 3 2 1v3a5 5 0 0 1 0 1l-1 1-1 1a7 7 0 0 1-1 0l-2 1v2h-2v-2a61 61 0 0 1-1 0v2h-3v-2s1 0 0 0h-2v-3h1l1-1v-7l-1-1h-1v-2h2v-2h3v2h1v-2h2v2h1l2 1 1 1v1m-2 7v-1a2 2 0 0 0-1-1 2 2 0 0 0-1 0 7 7 0 0 0-1 0 12 12 0 0 0-1 0h-1v3l1 1v-1h3a2 2 0 0 0 1-1m-1-6v-1a2 2 0 0 0-1 0 2 2 0 0 0 0-1 4 4 0 0 0-1 0 7 7 0 0 0-1 0 78 78 0 0 1-1 0v4h1q1 0 0 0a5 5 0 0 0 1 0l1-1h1a2 2 0 0 0 0-1" fill="url(#R)" opacity=".5"/><path d="M945 365q0 2-2 3l2 1 1 3a5 5 0 0 1-1 1v1l-2 1a7 7 0 0 1-1 0l-1 1v2h-2v-2a61 61 0 0 1-2 0v2h-2v-2a44 44 0 0 0-1 0h-2v-3h1l1-1v-7l-1-1h-1v-2h3v-2h2v2h2v-2h2v2h1l1 1 1 1 1 1m-3 7v-1a2 2 0 0 0 0-1 2 2 0 0 0-1 0 6 6 0 0 0-1 0 7 7 0 0 0-1 0h-2v3h1v1l1-1q1-1 0 0h3v-1q0-1 0 0m-1-6v-1a2 2 0 0 0-1-1 7 7 0 0 0-1 0 7 7 0 0 0-1 0 78 78 0 0 1-1 0v4h3l1-1a2 2 0 0 0 0-1" fill="url(#S)" opacity=".5"/><path d="m1002 483-2 3 2 1 1 3-1 1a3 3 0 0 1-1 2 7 7 0 0 1-2 0h-1v2h-2v-2a61 61 0 0 1-2 0v2h-2v-2a47 47 0 0 0-1 0h-2v-2h2v-8l-1-1h-1v-2h3v-2h2v2h2v-2h2v2h1l1 1h1l1 2m-3 6v-1a2 2 0 0 0-1 0 6 6 0 0 0-1-1 7 7 0 0 0-1 0h-2v4h4l1-1a2 2 0 0 0 0-1m0-5-1-1a2 2 0 0 0 0-1 2 2 0 0 0-1 0 6 6 0 0 0-1 0 7 7 0 0 0-1 0h-1v3h4v-1a2 2 0 0 0 1 0" fill="url(#T)" opacity=".5"/><path d="M943 185q0 2-2 3l2 2 1 2a5 5 0 0 1 0 2 3 3 0 0 1-1 1h-1a7 7 0 0 1-2 1h-1v2h-2v-2h-1v2h-3v-2a47 47 0 0 0-1 0h-2v-3h2v-8h-2v-3h3v-2h3v2a66 66 0 0 1 1 0v-2h2v2l1 1h2l1 1v1m-2 7-1-1a2 2 0 0 0 0-1 2 2 0 0 0-1 0 6 6 0 0 0-1 0 13 13 0 0 0-1 0h-1v4h2l1-1h1q1 0 0 0v-1a2 2 0 0 0 1 0m-1-6v-1a2 2 0 0 0-1 0 4 4 0 0 0-1-1 6 6 0 0 0-1 0h-1v4h1a5 5 0 0 0 1 0h1v-1h1v-1" fill="url(#U)" opacity=".5"/><path d="m1123 187-2 3 2 1 1 3-1 1v1l-1 1h-3v2h-2v-1h-2v1h-2v-2h-3v-2h2v-8l-1-1h-1v-2h3v-2h2v2h2v-2h2v2h1l1 1 1 1 1 1m-3 6a2 2 0 0 0 0-1h-1a6 6 0 0 0-1 0 7 7 0 0 0-1-1 12 12 0 0 0-1 0h-1v4h1a16 16 0 0 0 2 0 5 5 0 0 0 1 0l1-1v-1m0-5-1-1a2 2 0 0 0-1-1h-2a86 86 0 0 1-1 0v4h1a15 15 0 0 0 1 0h1v-1h1v-1h1" fill="url(#V)" opacity=".5"/><path d="m1123 246-2 3 2 1 1 3-1 1v1l-1 1h-3v2h-2v-2h-2v2h-2v-2h-3v-2h2v-8l-1-1h-1v-2h3v-2h2v2h2v-2h2v2h1l1 1 1 1 1 1m-3 6v-1h-1a6 6 0 0 0-1-1 7 7 0 0 0-1 0 12 12 0 0 0-1 0h-1v4h1a14 14 0 0 0 1 0h1a4 4 0 0 0 1 0l1-1v-1m0-5-1-1a2 2 0 0 0 0-1 2 2 0 0 0-1 0 4 4 0 0 0-1 0 7 7 0 0 0-1 0h-1v3h3q1 0 0 0h1v-1h1" fill="url(#W)" opacity=".5"/><path d="M1301 187c0 1 0 2-2 3l2 1 1 3a5 5 0 0 1 0 1l-1 1-1 1h-3v2h-2v-1h-2v1h-2v-2h-3v-2h2v-8l-1-1h-1v-2h3v-2h2v2h2v-2h2v2h1l2 1 1 1v1m-3 6a2 2 0 0 0 0-1h-1a6 6 0 0 0-1 0 7 7 0 0 0 0-1 13 13 0 0 0-1 0 29 29 0 0 0-1 0v4a15 15 0 0 0 2 0 8 8 0 0 0 1 0h1v-2m0-5v-1a2 2 0 0 0-1 0 2 2 0 0 0 0-1 4 4 0 0 0-1 0h-1a82 82 0 0 1-1 0v4a15 15 0 0 0 2 0v-1a2 2 0 0 0 1 0l1-1" fill="url(#X)" opacity=".5"/><path d="M1301 424c0 1 0 2-2 3l2 1 1 3a5 5 0 0 1 0 1l-1 1-1 1h-3v2h-2v-2h-2v2h-2v-2h-3v-2h2v-8l-1-1h-1v-2h3v-2h2v2h2v-2h2v2h1l2 1 1 1v1m-3 6a2 2 0 0 0 0-1h-1a6 6 0 0 0-1-1 13 13 0 0 0-1 0 29 29 0 0 0-1 0v4a15 15 0 0 0 2 0 8 8 0 0 0 1 0h1v-2m0-5v-1a2 2 0 0 0-1 0 2 2 0 0 0 0-1 4 4 0 0 0-1 0h-1a82 82 0 0 1-1 0v4a11 11 0 0 0 2-1 2 2 0 0 0 1 0l1-1" fill="url(#Y)" opacity=".5"/><path d="M1240 424c1 1 0 2-1 3l2 1v3a5 5 0 0 1 0 1l-1 1-1 1h-2v2h-3v-2h-1v2h-2v-2c-1 0 0 0 0 0h-3v-2h1l1-1v-7l-1-1h-1v-2h3v-2h2v2h1v-2h3v2h1l1 1 1 1v1m-2 6a2 2 0 0 0-1-1 6 6 0 0 0-1-1 7 7 0 0 0-1 0 13 13 0 0 0-1 0h-1v4a15 15 0 0 0 2 0 8 8 0 0 0 2 0s0 0 1-1a2 2 0 0 0 0-1m-1-5v-1a2 2 0 0 0-1-1 4 4 0 0 0-1 0 6 6 0 0 0-1 0 73 73 0 0 1-1 0v4h2a5 5 0 0 0 1-1h1v-1c0-1 0 0 0 0" fill="url(#Z)" opacity=".5"/><path d="m1121 424-1 3 2 1v3a5 5 0 0 1 0 1l-1 1-1 1h-3v2h-2v-2h-1v2h-3v-2s1 0 0 0h-3v-2h2l1-1v-7l-1-1h-2v-2h3v-2h3v2h1v-2h2v2h1l2 1 1 1v1m-2 6h-1a2 2 0 0 0 0-1h-1a6 6 0 0 0 0-1 7 7 0 0 0-1 0 13 13 0 0 0-2 0v4a15 15 0 0 0 2 0 8 8 0 0 0 1 0h1v-1a2 2 0 0 0 1-1m-1-5v-1h-1a2 2 0 0 0 0-1 4 4 0 0 0-1 0 6 6 0 0 0-1 0 73 73 0 0 1-1 0v4h1a5 5 0 0 0 2-1l1-1c0-1 0 0 0 0" fill="url(#aa)" opacity=".5"/><path d="M1301 484c0 2 0 3-2 4l2 1 1 2a5 5 0 0 1 0 2l-1 1h-1a7 7 0 0 1-2 1h-1v2h-2v-2h-2v2h-2v-2h-3v-3h2v-7l-1-1h-1v-3h3v-2h2v2h2v-2h2v2l1 1h2l1 1v1m-3 7v-1l-1-1a6 6 0 0 0-1 0 12 12 0 0 0-2 0v4a14 14 0 0 0 1 0 12 12 0 0 0 1 0 4 4 0 0 0 2-1v-1m0-6a2 2 0 0 0-1-1h-2a7 7 0 0 0 0-1 82 82 0 0 1-1 1v3a11 11 0 0 0 2 0 2 2 0 0 0 1-1h1v-1" fill="url(#ab)" opacity=".5"/><path d="m1182 484-2 4 2 1 1 2-1 2v1h-2l-1 1h-1v2h-2v-2h-2v2h-2v-2h-3v-3h2v-7l-1-1h-1v-3h3v-2h2v2h2v-2h2v2l1 1h1l1 1 1 1m-3 7v-1l-1-1a5 5 0 0 0-1 0 7 7 0 0 0-1 0 12 12 0 0 0-2 0v4h1a14 14 0 0 0 1 0h1a4 4 0 0 0 1-1h1v-1m-1-6a2 2 0 0 0 0-1 2 2 0 0 0-1 0 4 4 0 0 0-1 0 7 7 0 0 0-1-1 86 86 0 0 1-1 1v3h3l1-1v-1" fill="url(#ac)" opacity=".5"/><path d="m1182 187-2 3 2 1 1 3-1 1v1l-2 1h-2v2h-2v-1h-2v1h-2v-2h-3v-2h1l1-1v-7l-1-1h-1v-2h3v-2h2v2h2v-2h2v2h1l1 1 1 1 1 1m-3 6a2 2 0 0 0 0-1h-1a6 6 0 0 0-1 0 7 7 0 0 0-1-1 12 12 0 0 0-1 0h-1v4h1a16 16 0 0 0 1 0h1a5 5 0 0 0 1 0l1-1v-1m-1-5v-1a2 2 0 0 0-1-1h-2a86 86 0 0 1-1 0v4h1a15 15 0 0 0 1 0l1-1h1v-1" fill="url(#ad)" opacity=".5"/><path d="m1182 246-2 3 2 1 1 3-1 1v1l-2 1h-2v2h-2v-2h-2v2h-2v-2h-3v-2h1l1-1v-7l-1-1h-1v-2h3v-2h2v2h2v-2h2v2h1l1 1 1 1 1 1m-3 6v-1h-1a6 6 0 0 0-1-1 7 7 0 0 0-1 0 12 12 0 0 0-1 0h-1v4h1a14 14 0 0 0 1 0h1a4 4 0 0 0 1 0l1-1v-1m-1-5v-1a2 2 0 0 0 0-1 2 2 0 0 0-1 0 4 4 0 0 0-1 0 7 7 0 0 0-1 0h-1v3h4v-1" fill="url(#ae)" opacity=".5"/><path d="M706 484q0 3-2 4l3 1v2a5 5 0 0 1 0 2l-1 1a4 4 0 0 1-1 0 7 7 0 0 1-2 1h-1v2h-2v-2a61 61 0 0 1-1 0v2h-3v-2h-3v-3h3v-7l-2-1h-1v-3h3v-2h3v2a61 61 0 0 1 1 0v-2h2v2l1 1h2l1 1v1m-2 7-1-1a2 2 0 0 0-1-1 7 7 0 0 0-1 0 12 12 0 0 0-1 0h-1v4h2a4 4 0 0 0 1 0l1-1v-1h1m-1-6a2 2 0 0 0-1-1 4 4 0 0 0-1 0 6 6 0 0 0-1 0 7 7 0 0 0 0-1 78 78 0 0 1-1 1v3h3v-1h1a2 2 0 0 0 0-1" fill="url(#af)" opacity=".5"/><path d="M824 484q0 3-2 4l2 1 1 2a5 5 0 0 1-1 2 3 3 0 0 1 0 1h-2a7 7 0 0 1-1 1h-1v2h-2v-2a61 61 0 0 1-2 0v2h-2v-2a47 47 0 0 0-1 0h-2v-3h2v-7l-1-1h-1v-3h3v-2h2v2h2v-2h2v2l1 1h1l1 1 1 1m-3 7v-1l-1-1a6 6 0 0 0-1 0 7 7 0 0 0-1 0h-2v4h3a4 4 0 0 0 1 0v-1h1v-1m-1-6a2 2 0 0 0 0-1 2 2 0 0 0-1 0 6 6 0 0 0-1 0 7 7 0 0 0-1-1 78 78 0 0 1-1 1v3h4a3 3 0 0 0 0-1 2 2 0 0 0 0-1" fill="url(#ag)" opacity=".5"/><path d="M646 306q0 2-2 3l2 2 1 2a4 4 0 0 1-1 2l-1 1h-1a7 7 0 0 1-1 1h-1v2h-3v-2a61 61 0 0 1-1 0v2h-2v-2c-1 0 0 0 0 0a47 47 0 0 0-1 0h-2v-3h2v-8h-2v-3h3v-2h2v2a60 60 0 0 1 1 0v-2h3v2l1 1h1l1 1 1 1m-3 7v-1a2 2 0 0 0-1-1 5 5 0 0 0-1 0 7 7 0 0 0-1 0 13 13 0 0 0-1 0h-1v4h1a16 16 0 0 0 1 0h1l1-1q1-1 0 0t1 0 0-1m-1-6v-1a2 2 0 0 0-1 0 4 4 0 0 0 0-1 6 6 0 0 0-1 0 7 7 0 0 0-1 0 78 78 0 0 1-1 0v4h2q1 0 0 0h1l1-1v-1" fill="url(#ah)" opacity=".5"/><path d="M646 484q0 3-2 4l2 1 1 2a5 5 0 0 1-1 2l-1 1a4 4 0 0 1-1 0 7 7 0 0 1-1 1h-1v2h-3v-2a61 61 0 0 1-1 0v2h-2v-2c-1 0 0 0 0 0a47 47 0 0 0-1 0h-2v-3h2v-7l-1-1h-1v-3h3v-2h2v2a61 61 0 0 1 1 0v-2h3v2l1 1h1l1 1 1 1m-3 7v-1a2 2 0 0 0-1 0 2 2 0 0 0 0-1 5 5 0 0 0-1 0 7 7 0 0 0-1 0 12 12 0 0 0-1 0h-1v4h3a4 4 0 0 0 1 0v-1h1v-1q-1-1 0 0m-1-6a2 2 0 0 0 0-1 2 2 0 0 0-1 0 6 6 0 0 0-1 0 7 7 0 0 0-1-1 78 78 0 0 1-1 1v3h3l1-1a2 2 0 0 0 0-1" fill="url(#ai)" opacity=".5"/><path d="M587 306q0 2-2 3l2 2 1 2a4 4 0 0 1-1 2v1h-2a7 7 0 0 1-1 1h-1v2h-2v-2a61 61 0 0 1-2 0v2h-2v-2a47 47 0 0 0-1 0h-2v-3h2v-8h-2v-3h3v-2h2v2h2v-2h2v2l1 1h1l1 1 1 1m-3 7v-1a2 2 0 0 0 0-1 2 2 0 0 0-1 0 6 6 0 0 0-1 0 7 7 0 0 0-1 0h-2v4h1a16 16 0 0 0 2 0l1-1h1v-1m-1-6v-1a2 2 0 0 0-1 0 4 4 0 0 0 0-1 6 6 0 0 0-1 0 7 7 0 0 0-1 0 79 79 0 0 1-1 0v4h4v-2" fill="url(#aj)" opacity=".5"/><path d="M587 365q0 2-2 3l2 1 1 3a4 4 0 0 1-1 1v1a4 4 0 0 1-2 1 7 7 0 0 1-1 0l-1 1v2h-2v-2a61 61 0 0 1-2 0v2h-2v-2a44 44 0 0 0-1 0h-2v-3h2v-8l-1-1h-1v-2h3v-2h2v2h2v-2h2v2h1l1 1 1 1 1 1m-3 7v-1a2 2 0 0 0 0-1 2 2 0 0 0-1 0 6 6 0 0 0-1 0 7 7 0 0 0-1 0h-2v3h1v1l1-1h1a4 4 0 0 0 1 0h1v-1q0-1 0 0m-1-6v-1a2 2 0 0 0-1-1 7 7 0 0 0-1 0 7 7 0 0 0-1 0 79 79 0 0 1-1 0v4h3l1-1a2 2 0 0 0 0-1" fill="url(#ak)" opacity=".5"/><path d="M646 365q0 2-2 3l2 1 1 3a5 5 0 0 1-1 1l-1 1a4 4 0 0 1-1 1 7 7 0 0 1-1 0l-1 1v2h-3v-2a61 61 0 0 1-1 0v2h-2v-2c-1 0 0 0 0 0a44 44 0 0 0-1 0h-2v-3h1l1-1v-7l-1-1h-1v-2h3v-2h2v2a61 61 0 0 1 1 0v-2h3v2h1l1 1 1 1 1 1m-3 7v-1a2 2 0 0 0-1-1 5 5 0 0 0-1 0 7 7 0 0 0-1 0 12 12 0 0 0-1 0h-1v3l1 1 1-1h1a4 4 0 0 0 1 0h1v-1q-1-1 0 0m-1-6v-1a2 2 0 0 0-1-1 7 7 0 0 0-1 0 7 7 0 0 0-1 0 78 78 0 0 1-1 0v4h2q1 0 0 0t1 0v-1h1a2 2 0 0 0 0-1" fill="url(#al)" opacity=".5"/><path d="M587 424q0 2-2 3l2 1 1 3a4 4 0 0 1-1 1v1l-2 1a7 7 0 0 1-1 0h-1v2h-2v-2a61 61 0 0 1-2 0v2h-2v-2a47 47 0 0 0-1 0h-2v-2h2v-8l-1-1h-1v-2h3v-2h2v2h2v-2h2v2h1l1 1 1 1 1 1m-3 6a2 2 0 0 0 0-1 2 2 0 0 0-1 0 6 6 0 0 0-1-1 7 7 0 0 0-1 0h-2v4h1a16 16 0 0 0 2 0h1l1-1a2 2 0 0 0 0-1m-1-5v-1a2 2 0 0 0-1-1 6 6 0 0 0-1 0 6 6 0 0 0-1 0 79 79 0 0 1-1 0v4h2a5 5 0 0 0 0-1h2q1 0 0 0v-1q0-1 0 0" fill="url(#am)" opacity=".5"/><path d="M646 424q0 2-2 3l2 1 1 3a4 4 0 0 1-1 1l-1 1-1 1a7 7 0 0 1-1 0h-1v2h-3v-2a61 61 0 0 1-1 0v2h-2v-2c-1 0 0 0 0 0a47 47 0 0 0-1 0h-2v-2h1l1-1v-7l-1-1h-1v-2h3v-2h2v2a60 60 0 0 1 1 0v-2h3v2h1l1 1 1 1 1 1m-3 6a2 2 0 0 0-1-1 5 5 0 0 0-1-1 7 7 0 0 0-1 0 13 13 0 0 0-1 0h-1v4h1a16 16 0 0 0 1 0h2q1 0 0 0t1-1a2 2 0 0 0 0-1m-1-5v-1a2 2 0 0 0-1-1 6 6 0 0 0-1 0 6 6 0 0 0-1 0 78 78 0 0 1-1 0v4h2v-1h1q2 1 0 0t1 0 0-1" fill="url(#an)" opacity=".5"/></g><g opacity=".5" filter="url(#ao)"><rect x="620.5" y="119.2" width="93" height="93" rx="8.7" fill="#FF8C22"/><rect x="1158" y="59.9" width="93" height="93" rx="8.7" fill="#FF8C22"/><rect x="800" y="238.5" width="93" height="93" rx="8.7" fill="#FF8C22"/><rect x="978.7" y="357.2" width="93" height="93" rx="8.7" fill="#FF8C22"/><path d="M680 157q1 5-3 8 3 0 4 3 2 2 2 6l-1 3-2 3q-1 2-3 1a17 17 0 0 1-3 1l-3 1v5h-6v-5h-3v5h-6v-5s1 0 0 0a128 128 0 0 0-1 0h-6v-7h4l2-1v-17q-1-2-3-2h-3v-6h7v-6h6v6h3v-6h6v6h3l3 2 2 2 1 3m-6 16v-2a4 4 0 0 0-1-1l-2-1a14 14 0 0 0-2-1 17 17 0 0 0-2 0 30 30 0 0 0-2 0h-3v10h4a30 30 0 0 0 2-1h3a10 10 0 0 0 1-1l1-1 1-1v-1m-2-14v-1a4 4 0 0 0-1-2h-1a10 10 0 0 0-2-1 15 15 0 0 0-2 0 16 16 0 0 0-1 0 200 200 0 0 1-3 0v9h4l1-1h3a8 8 0 0 0 1-1l1-1v-2" fill="url(#ap)" opacity=".5"/><path d="M1218 97q0 6-4 8c2 0 4 1 5 3l1 6-1 3-2 3-2 2h-4l-2 1v5h-6v-5h-4v5h-5v-5c-1 0 0 0 0 0h-7v-6h3l2-2V98c0-2-1-2-2-2h-3v-6h7v-5h5v5h4v-5h6v5l2 1 3 1 3 2 1 3m-6 16-1-2a4 4 0 0 0-1-1l-1-1a14 14 0 0 0-4-1 30 30 0 0 0-5 0v10a76 76 0 0 1 5 0 20 20 0 0 0 2-1h1l2-1 1-1v-1l1-1m-2-14a4 4 0 0 0-2-3h-1a10 10 0 0 0-1-1 16 16 0 0 0-2 0 16 16 0 0 0-2 0 194 194 0 0 1-2 0v9a91 91 0 0 1 2 0h1a12 12 0 0 0 2-1h3l1-1v-1l1-2" fill="url(#aq)" opacity=".5"/><path d="M860 276q0 5-4 7l5 3q2 2 1 6l-1 4-2 2-2 2a17 17 0 0 1-4 1h-2v5h-6v-4h-4v4h-5v-5c-1 0 0 0 0 0a128 128 0 0 0-2 0h-5v-6h3l2-1v-18q0-2-2-2h-3v-5h7v-6h5v5h4v-5h6v6h2l3 1a7 7 0 0 1 3 3l1 3m-6 15-1-1a4 4 0 0 0-1-2l-1-1a14 14 0 0 0-2 0 17 17 0 0 0-2 0 30 30 0 0 0-2 0h-3v9h3a30 30 0 0 0 2 0h3a10 10 0 0 0 2-1l1-1v-1l1-2m-2-13-1-2a4 4 0 0 0-1-1l-1-1a10 10 0 0 0-1 0 15 15 0 0 0-2 0 16 16 0 0 0-2-1 200 200 0 0 1-2 1v8h6l2-1a8 8 0 0 0 1-1v-1l1-1" fill="url(#ar)" opacity=".5"/><path d="M1038 395q1 5-3 7c2 1 4 1 5 3l1 6-1 4-2 2-3 2-3 1h-3v5h-5v-5h-4v5h-6v-5s1 0 0 0h-6v-6h3l2-2v-17c0-1-1-2-3-2h-2v-6h6v-5h6v5h4v-5h5v5l3 1 3 1 2 2 1 4m-6 15v-2a4 4 0 0 0-1-1l-2-1a13 13 0 0 0-2 0l-2-1h-5v10h4a28 28 0 0 0 2 0h1l2-1h1l1-1 1-1v-2m-2-13v-2a4 4 0 0 0-1-1l-1-1a10 10 0 0 0-2-1h-3a200 200 0 0 1-3 0v9a95 95 0 0 1 4 0 12 12 0 0 0 2 0l1-1h1l1-1 1-1v-1" fill="url(#as)" opacity=".5"/><path d="M598 166H241" stroke="url(#at)" stroke-width="6"/><path d="M1133 106H429" stroke="url(#au)" stroke-width="6"/><path d="M772 285H472" stroke="url(#av)" stroke-width="6"/><path d="M952 403H360" stroke="url(#aw)" stroke-width="6"/><rect x="259.2" y="362.5" width="83.4" height="81.3" rx="5.3" fill="#F22"/><path fill-rule="evenodd" clip-rule="evenodd" d="m297 387-7 6a1 1 0 0 0 0 1v1l-1 1h-17a1 1 0 0 0-1 0v9h22l6-6 1-1v-2h28v-9a1 1 0 0 0 0-1h-30l-1 1m35 0v-1h1v2h-1zm3 0v-1 2-1 1h-1v-1 1-2zm-35 21 6-7h22v9h-18a1 1 0 0 0-1 1v2l-7 6v1h-30a1 1 0 0 1-1-1v-8l1-1h28v-2" fill="#760000"/><rect x="139" y="125.2" width="83.4" height="81.3" rx="5.3" fill="#F22"/><path fill-rule="evenodd" clip-rule="evenodd" d="m177 149-7 7v2l-1 1h-18v9h22l6-7v-2h29v-9a1 1 0 0 0 0-1h-30a1 1 0 0 0-1 0m35 0h1v2h-1zm2 1 1-1v2-1h-1v1h-1v-2h1zm-34 20 6-6 1-1h21v10h-18a1 1 0 0 0-1 0v3l-7 6h-31v-9h28v-2l1-1" fill="#760000"/><rect x="322" y="65.3" width="83.4" height="81.3" rx="5.3" fill="#F22"/><path fill-rule="evenodd" clip-rule="evenodd" d="m360 89-7 7v2l-1 1h-18v9h22l6-7v-2h29v-9a1 1 0 0 0 0-1h-31m35 0h1v2h-1zm2 1 1-1v2-1h-1v1h-1v-2h1zm-34 20 6-6 1-1h21v10h-18a1 1 0 0 0-1 1v2l-7 6-1 1h-30a1 1 0 0 1 0-1v-9h28v-2l1-1" fill="#760000"/><rect x="363.9" y="243.8" width="83.4" height="81.3" rx="5.3" fill="#F22"/><path fill-rule="evenodd" clip-rule="evenodd" d="M437 268h1v1h-1zm2 1 1-1v1-1l-1 1v-1 1h-1v-1h1zm-37-1-7 6v3h-19a1 1 0 0 0 0 1v9h21l1-1 6-6v-2l1-1h28v-9a1 1 0 0 0-1 0h-30m3 21 6-7h21l1 1v8l-1 1h-17a1 1 0 0 0-1 0v2l-7 7h-31v-9h28v-2l1-1" fill="#760000"/></g><rect x="622.5" y="114.2" width="93" height="93" rx="8.7" fill="#FF8C22"/><rect x="1160" y="54.9" width="93" height="93" rx="8.7" fill="#FF8C22"/><rect x="802" y="233.5" width="93" height="93" rx="8.7" fill="#FF8C22"/><rect x="980.7" y="352.2" width="93" height="93" rx="8.7" fill="#FF8C22"/><path d="M682 152q1 5-3 8 3 0 4 3 2 2 2 6l-1 3-2 3q-1 2-3 1a17 17 0 0 1-3 1l-3 1v5h-6v-5h-3v5h-6v-5s1 0 0 0a128 128 0 0 0-1 0h-6v-7h4l2-1v-17q-1-2-3-2h-3v-6h7v-6h6v6h3v-6h6v6h3l3 2 2 2 1 3m-6 16v-2a4 4 0 0 0-1-1l-2-1a14 14 0 0 0-2-1 17 17 0 0 0-2 0 30 30 0 0 0-2 0h-3v10h4a30 30 0 0 0 2-1h3a10 10 0 0 0 1-1l1-1 1-1v-1m-2-14v-1a4 4 0 0 0-1-2h-1a10 10 0 0 0-2-1 15 15 0 0 0-2 0 16 16 0 0 0-1 0 200 200 0 0 1-3 0v9h4l1-1h3a8 8 0 0 0 1-1l1-1v-2" fill="url(#ax)" opacity=".5"/><path d="M1220 92q0 6-4 8c2 0 4 1 5 3l1 6-1 3-2 3-2 2h-4l-2 1v5h-6v-5h-4v5h-5v-5c-1 0 0 0 0 0h-7v-6h3l2-2V93c0-2-1-2-2-2h-3v-6h7v-5h5v5h4v-5h6v5l2 1 3 1 3 2 1 3m-6 16-1-2a4 4 0 0 0-1-1l-1-1a14 14 0 0 0-4-1 30 30 0 0 0-5 0v10a76 76 0 0 1 5 0 20 20 0 0 0 2-1h1l2-1 1-1v-1l1-1m-2-14a4 4 0 0 0-2-3h-1a10 10 0 0 0-1-1 16 16 0 0 0-2 0 16 16 0 0 0-2 0 194 194 0 0 1-2 0v9a91 91 0 0 1 2 0h1a12 12 0 0 0 5-1l1-1v-1l1-2" fill="url(#ay)" opacity=".5"/><path d="M862 271q0 5-4 7l5 3q2 2 1 6l-1 4-2 2-2 2a17 17 0 0 1-4 1h-2v5h-6v-4h-4v4h-5v-5c-1 0 0 0 0 0a128 128 0 0 0-2 0h-5v-6h3l2-1v-18q0-2-2-2h-3v-5h7v-6h5v5h4v-5h6v6h2l3 1a7 7 0 0 1 3 3l1 3m-6 15-1-1a4 4 0 0 0-1-2l-1-1a14 14 0 0 0-2 0 17 17 0 0 0-2 0 30 30 0 0 0-2 0h-3v9h3a30 30 0 0 0 2 0h3a10 10 0 0 0 2-1l1-1v-1l1-2m-2-13-1-2a4 4 0 0 0-1-1l-1-1a10 10 0 0 0-1 0 15 15 0 0 0-2 0 16 16 0 0 0-2-1 200 200 0 0 1-2 1v8h6l2-1a8 8 0 0 0 1-1v-1l1-1" fill="url(#az)" opacity=".5"/><path d="M1040 390q1 5-3 7c2 1 4 1 5 3l1 6-1 4-2 2-3 2-3 1h-3v5h-5v-5h-4v5h-6v-5s1 0 0 0h-6v-6h3l2-2v-17c0-1-1-2-3-2h-2v-6h6v-5h6v5h4v-5h5v5l3 1 3 1 2 2 1 4m-6 15v-2a4 4 0 0 0-1-1l-2-1a13 13 0 0 0-2 0l-2-1h-5v10h4a28 28 0 0 0 2 0h1l2-1h1l1-1 1-1v-2m-2-13v-2a4 4 0 0 0-1-1l-1-1a10 10 0 0 0-2-1h-3a200 200 0 0 1-3 0v9a95 95 0 0 1 4 0 12 12 0 0 0 2 0l1-1h1l1-1 1-1v-1" fill="url(#aA)" opacity=".5"/><path d="M600 161H243" stroke="url(#aB)" stroke-width="6"/><path d="M1135 101H431" stroke="url(#aC)" stroke-width="6"/><path d="M774 280H474" stroke="url(#aD)" stroke-width="6"/><path d="M954 398H362" stroke="url(#aE)" stroke-width="6"/><rect x="261.2" y="357.5" width="83.4" height="81.3" rx="5.3" fill="#F22"/><path fill-rule="evenodd" clip-rule="evenodd" d="m299 382-7 6a1 1 0 0 0 0 1v1l-1 1h-17a1 1 0 0 0-1 0v9h22l6-6 1-1v-2h28v-9a1 1 0 0 0 0-1h-30l-1 1m35 0v-1h1v2h-1zm3 0v-1 2-1 1h-1v-1 1-2zm-35 21 6-7h22v9h-18a1 1 0 0 0-1 1v2l-7 6v1h-30a1 1 0 0 1-1-1v-8l1-1h28v-2" fill="#760000"/><rect x="141" y="120.2" width="83.4" height="81.3" rx="5.3" fill="#F22"/><path fill-rule="evenodd" clip-rule="evenodd" d="m179 144-7 7v2l-1 1h-18v9h22l6-7v-2h29v-9a1 1 0 0 0 0-1h-30a1 1 0 0 0-1 0m35 0h1v2h-1zm2 1 1-1v2-1h-1v1h-1v-2h1zm-34 20 6-6 1-1h21v10h-18a1 1 0 0 0-1 0v3l-7 6h-31v-9h28v-2l1-1" fill="#760000"/><rect x="324" y="60.3" width="83.4" height="81.3" rx="5.3" fill="#F22"/><path fill-rule="evenodd" clip-rule="evenodd" d="m362 84-7 7v2l-1 1h-18v9h22l6-7v-2h29v-9a1 1 0 0 0 0-1h-31m35 0h1v2h-1zm2 1 1-1v2-1h-1v1h-1v-2h1zm-34 20 6-6 1-1h21v10h-18a1 1 0 0 0-1 1v2l-7 6-1 1h-30a1 1 0 0 1 0-1v-9h28v-2l1-1" fill="#760000"/><rect x="365.9" y="238.8" width="83.4" height="81.3" rx="5.3" fill="#F22"/><path fill-rule="evenodd" clip-rule="evenodd" d="M439 263h1v1h-1zm2 1 1-1v1-1l-1 1v-1 1h-1v-1h1zm-37-1-7 6v3h-19a1 1 0 0 0 0 1v9h21l1-1 6-6v-2l1-1h28v-9a1 1 0 0 0-1 0h-30m3 21 6-7h21l1 1v8l-1 1h-17a1 1 0 0 0-1 0v2l-7 7h-31v-9h28v-2l1-1" fill="#760000"/></g><rect x=".5" y="1" width="1323" height="515" rx="11.5" stroke="#202020"/><defs><linearGradient id="b" x1="662" y1=".5" x2="662" y2="516.5" gradientUnits="userSpaceOnUse"><stop stop-color="#070707"/><stop offset="1" stop-color="#101010"/></linearGradient><linearGradient id="c" x1="777.3" y1="520.3" x2="777.3" y2="39.4" gradientUnits="userSpaceOnUse"><stop stop-color="#171717"/><stop offset="1" stop-color="#090909"/></linearGradient><linearGradient id="d" x1="878.4" y1="121.3" x2="878.4" y2="138.9" gradientUnits="userSpaceOnUse"><stop stop-color="#888"/><stop offset="1" stop-color="#fff"/></linearGradient><linearGradient id="e" x1="759" y1="181.8" x2="759" y2="199.4" gradientUnits="userSpaceOnUse"><stop stop-color="#888"/><stop offset="1" stop-color="#fff"/></linearGradient><linearGradient id="f" x1="759" y1="62.4" x2="759" y2="80.1" gradientUnits="userSpaceOnUse"><stop stop-color="#888"/><stop offset="1" stop-color="#fff"/></linearGradient><linearGradient id="g" x1="878.4" y1="181.8" x2="878.4" y2="199.4" gradientUnits="userSpaceOnUse"><stop stop-color="#888"/><stop offset="1" stop-color="#fff"/></linearGradient><linearGradient id="h" x1="1056.5" y1="181.8" x2="1056.5" y2="199.4" gradientUnits="userSpaceOnUse"><stop stop-color="#888"/><stop offset="1" stop-color="#fff"/></linearGradient><linearGradient id="i" x1="1056.5" y1="240.6" x2="1056.5" y2="258.3" gradientUnits="userSpaceOnUse"><stop stop-color="#888"/><stop offset="1" stop-color="#fff"/></linearGradient><linearGradient id="j" x1="878.4" y1="62.4" x2="878.4" y2="80.1" gradientUnits="userSpaceOnUse"><stop stop-color="#888"/><stop offset="1" stop-color="#fff"/></linearGradient><linearGradient id="k" x1="817.9" y1="181.8" x2="817.9" y2="199.4" gradientUnits="userSpaceOnUse"><stop stop-color="#888"/><stop offset="1" stop-color="#fff"/></linearGradient><linearGradient id="l" x1="996" y1="181.8" x2="996" y2="199.4" gradientUnits="userSpaceOnUse"><stop stop-color="#888"/><stop offset="1" stop-color="#fff"/></linearGradient><linearGradient id="m" x1="817.9" y1="62.4" x2="817.9" y2="80.1" gradientUnits="userSpaceOnUse"><stop stop-color="#888"/><stop offset="1" stop-color="#fff"/></linearGradient><linearGradient id="n" x1="580.9" y1="181.8" x2="580.9" y2="199.4" gradientUnits="userSpaceOnUse"><stop stop-color="#888"/><stop offset="1" stop-color="#fff"/></linearGradient><linearGradient id="o" x1="580.9" y1="62.4" x2="580.9" y2="80.1" gradientUnits="userSpaceOnUse"><stop stop-color="#888"/><stop offset="1" stop-color="#fff"/></linearGradient><linearGradient id="p" x1="639.7" y1="62.4" x2="639.7" y2="80.1" gradientUnits="userSpaceOnUse"><stop stop-color="#888"/><stop offset="1" stop-color="#fff"/></linearGradient><linearGradient id="q" x1="700.2" y1="62.4" x2="700.2" y2="80.1" gradientUnits="userSpaceOnUse"><stop stop-color="#888"/><stop offset="1" stop-color="#fff"/></linearGradient><linearGradient id="r" x1="759" y1="121.3" x2="759" y2="138.9" gradientUnits="userSpaceOnUse"><stop stop-color="#888"/><stop offset="1" stop-color="#fff"/></linearGradient><linearGradient id="s" x1="758.8" y1="240.6" x2="758.8" y2="258.3" gradientUnits="userSpaceOnUse"><stop stop-color="#888"/><stop offset="1" stop-color="#fff"/></linearGradient><linearGradient id="t" x1="937.2" y1="240.6" x2="937.2" y2="258.3" gradientUnits="userSpaceOnUse"><stop stop-color="#888"/><stop offset="1" stop-color="#fff"/></linearGradient><linearGradient id="u" x1="996" y1="240.6" x2="996" y2="258.3" gradientUnits="userSpaceOnUse"><stop stop-color="#888"/><stop offset="1" stop-color="#fff"/></linearGradient><linearGradient id="v" x1="994.3" y1="301.1" x2="994.3" y2="318.8" gradientUnits="userSpaceOnUse"><stop stop-color="#888"/><stop offset="1" stop-color="#fff"/></linearGradient><linearGradient id="w" x1="937.2" y1="62.4" x2="937.2" y2="80.1" gradientUnits="userSpaceOnUse"><stop stop-color="#888"/><stop offset="1" stop-color="#fff"/></linearGradient><linearGradient id="x" x1="1295.2" y1="62.4" x2="1295.2" y2="80.1" gradientUnits="userSpaceOnUse"><stop stop-color="#888"/><stop offset="1" stop-color="#fff"/></linearGradient><linearGradient id="y" x1="1295.2" y1="301.1" x2="1295.2" y2="318.8" gradientUnits="userSpaceOnUse"><stop stop-color="#888"/><stop offset="1" stop-color="#fff"/></linearGradient><linearGradient id="z" x1="1116.8" y1="62.4" x2="1116.8" y2="80.1" gradientUnits="userSpaceOnUse"><stop stop-color="#888"/><stop offset="1" stop-color="#fff"/></linearGradient><linearGradient id="A" x1="1116.8" y1="121.5" x2="1116.8" y2="139.2" gradientUnits="userSpaceOnUse"><stop stop-color="#888"/><stop offset="1" stop-color="#fff"/></linearGradient><linearGradient id="B" x1="1054.8" y1="121.5" x2="1054.8" y2="139.2" gradientUnits="userSpaceOnUse"><stop stop-color="#888"/><stop offset="1" stop-color="#fff"/></linearGradient><linearGradient id="C" x1="700.2" y1="301.1" x2="700.2" y2="318.8" gradientUnits="userSpaceOnUse"><stop stop-color="#888"/><stop offset="1" stop-color="#fff"/></linearGradient><linearGradient id="D" x1="938.9" y1="301.1" x2="938.9" y2="318.8" gradientUnits="userSpaceOnUse"><stop stop-color="#888"/><stop offset="1" stop-color="#fff"/></linearGradient><linearGradient id="E" x1="1056.5" y1="301.1" x2="1056.5" y2="318.8" gradientUnits="userSpaceOnUse"><stop stop-color="#888"/><stop offset="1" stop-color="#fff"/></linearGradient><linearGradient id="F" x1="1117" y1="301.1" x2="1117" y2="318.8" gradientUnits="userSpaceOnUse"><stop stop-color="#888"/><stop offset="1" stop-color="#fff"/></linearGradient><linearGradient id="G" x1="937.2" y1="121.3" x2="937.2" y2="138.9" gradientUnits="userSpaceOnUse"><stop stop-color="#888"/><stop offset="1" stop-color="#fff"/></linearGradient><linearGradient id="H" x1="1295.2" y1="121.3" x2="1295.2" y2="138.9" gradientUnits="userSpaceOnUse"><stop stop-color="#888"/><stop offset="1" stop-color="#fff"/></linearGradient><linearGradient id="I" x1="1295.2" y1="359.9" x2="1295.2" y2="377.6" gradientUnits="userSpaceOnUse"><stop stop-color="#888"/><stop offset="1" stop-color="#fff"/></linearGradient><linearGradient id="J" x1="1234.7" y1="359.9" x2="1234.7" y2="377.6" gradientUnits="userSpaceOnUse"><stop stop-color="#888"/><stop offset="1" stop-color="#fff"/></linearGradient><linearGradient id="K" x1="1175.8" y1="359.9" x2="1175.8" y2="377.6" gradientUnits="userSpaceOnUse"><stop stop-color="#888"/><stop offset="1" stop-color="#fff"/></linearGradient><linearGradient id="L" x1="996" y1="121.3" x2="996" y2="138.9" gradientUnits="userSpaceOnUse"><stop stop-color="#888"/><stop offset="1" stop-color="#fff"/></linearGradient><linearGradient id="M" x1="700.2" y1="418.7" x2="700.2" y2="436.4" gradientUnits="userSpaceOnUse"><stop stop-color="#888"/><stop offset="1" stop-color="#fff"/></linearGradient><linearGradient id="N" x1="759" y1="418.7" x2="759" y2="436.4" gradientUnits="userSpaceOnUse"><stop stop-color="#888"/><stop offset="1" stop-color="#fff"/></linearGradient><linearGradient id="O" x1="878.4" y1="418.7" x2="878.4" y2="436.4" gradientUnits="userSpaceOnUse"><stop stop-color="#888"/><stop offset="1" stop-color="#fff"/></linearGradient><linearGradient id="P" x1="759" y1="359.9" x2="759" y2="377.6" gradientUnits="userSpaceOnUse"><stop stop-color="#888"/><stop offset="1" stop-color="#fff"/></linearGradient><linearGradient id="Q" x1="817.9" y1="359.9" x2="817.9" y2="377.6" gradientUnits="userSpaceOnUse"><stop stop-color="#888"/><stop offset="1" stop-color="#fff"/></linearGradient><linearGradient id="R" x1="878.4" y1="359.9" x2="878.4" y2="377.6" gradientUnits="userSpaceOnUse"><stop stop-color="#888"/><stop offset="1" stop-color="#fff"/></linearGradient><linearGradient id="S" x1="938.9" y1="359.9" x2="938.9" y2="377.6" gradientUnits="userSpaceOnUse"><stop stop-color="#888"/><stop offset="1" stop-color="#fff"/></linearGradient><linearGradient id="T" x1="996" y1="477.6" x2="996" y2="495.2" gradientUnits="userSpaceOnUse"><stop stop-color="#888"/><stop offset="1" stop-color="#fff"/></linearGradient><linearGradient id="U" x1="937.2" y1="180.1" x2="937.2" y2="197.8" gradientUnits="userSpaceOnUse"><stop stop-color="#888"/><stop offset="1" stop-color="#fff"/></linearGradient><linearGradient id="V" x1="1117" y1="181.8" x2="1117" y2="199.4" gradientUnits="userSpaceOnUse"><stop stop-color="#888"/><stop offset="1" stop-color="#fff"/></linearGradient><linearGradient id="W" x1="1117" y1="240.6" x2="1117" y2="258.3" gradientUnits="userSpaceOnUse"><stop stop-color="#888"/><stop offset="1" stop-color="#fff"/></linearGradient><linearGradient id="X" x1="1295.2" y1="181.8" x2="1295.2" y2="199.4" gradientUnits="userSpaceOnUse"><stop stop-color="#888"/><stop offset="1" stop-color="#fff"/></linearGradient><linearGradient id="Y" x1="1295.2" y1="418.7" x2="1295.2" y2="436.4" gradientUnits="userSpaceOnUse"><stop stop-color="#888"/><stop offset="1" stop-color="#fff"/></linearGradient><linearGradient id="Z" x1="1234.7" y1="418.7" x2="1234.7" y2="436.4" gradientUnits="userSpaceOnUse"><stop stop-color="#888"/><stop offset="1" stop-color="#fff"/></linearGradient><linearGradient id="aa" x1="1115.3" y1="418.7" x2="1115.3" y2="436.4" gradientUnits="userSpaceOnUse"><stop stop-color="#888"/><stop offset="1" stop-color="#fff"/></linearGradient><linearGradient id="ab" x1="1295.2" y1="479.2" x2="1295.2" y2="496.9" gradientUnits="userSpaceOnUse"><stop stop-color="#888"/><stop offset="1" stop-color="#fff"/></linearGradient><linearGradient id="ac" x1="1175.8" y1="479.2" x2="1175.8" y2="496.9" gradientUnits="userSpaceOnUse"><stop stop-color="#888"/><stop offset="1" stop-color="#fff"/></linearGradient><linearGradient id="ad" x1="1175.8" y1="181.8" x2="1175.8" y2="199.4" gradientUnits="userSpaceOnUse"><stop stop-color="#888"/><stop offset="1" stop-color="#fff"/></linearGradient><linearGradient id="ae" x1="1175.8" y1="240.6" x2="1175.8" y2="258.3" gradientUnits="userSpaceOnUse"><stop stop-color="#888"/><stop offset="1" stop-color="#fff"/></linearGradient><linearGradient id="af" x1="700.2" y1="479.2" x2="700.2" y2="496.9" gradientUnits="userSpaceOnUse"><stop stop-color="#888"/><stop offset="1" stop-color="#fff"/></linearGradient><linearGradient id="ag" x1="817.9" y1="479.2" x2="817.9" y2="496.9" gradientUnits="userSpaceOnUse"><stop stop-color="#888"/><stop offset="1" stop-color="#fff"/></linearGradient><linearGradient id="ah" x1="639.7" y1="301.1" x2="639.7" y2="318.8" gradientUnits="userSpaceOnUse"><stop stop-color="#888"/><stop offset="1" stop-color="#fff"/></linearGradient><linearGradient id="ai" x1="639.7" y1="479.2" x2="639.7" y2="496.9" gradientUnits="userSpaceOnUse"><stop stop-color="#888"/><stop offset="1" stop-color="#fff"/></linearGradient><linearGradient id="aj" x1="580.9" y1="301.1" x2="580.9" y2="318.8" gradientUnits="userSpaceOnUse"><stop stop-color="#888"/><stop offset="1" stop-color="#fff"/></linearGradient><linearGradient id="ak" x1="580.9" y1="359.9" x2="580.9" y2="377.6" gradientUnits="userSpaceOnUse"><stop stop-color="#888"/><stop offset="1" stop-color="#fff"/></linearGradient><linearGradient id="al" x1="639.7" y1="359.9" x2="639.7" y2="377.6" gradientUnits="userSpaceOnUse"><stop stop-color="#888"/><stop offset="1" stop-color="#fff"/></linearGradient><linearGradient id="am" x1="580.9" y1="418.7" x2="580.9" y2="436.4" gradientUnits="userSpaceOnUse"><stop stop-color="#888"/><stop offset="1" stop-color="#fff"/></linearGradient><linearGradient id="an" x1="639.7" y1="418.7" x2="639.7" y2="436.4" gradientUnits="userSpaceOnUse"><stop stop-color="#888"/><stop offset="1" stop-color="#fff"/></linearGradient><linearGradient id="ap" x1="666.1" y1="148.4" x2="666.1" y2="205.5" gradientUnits="userSpaceOnUse"><stop/><stop offset="1" stop-color="#1D1D1D" stop-opacity="0"/></linearGradient><linearGradient id="aq" x1="1203.6" y1="88.6" x2="1203.6" y2="145.6" gradientUnits="userSpaceOnUse"><stop/><stop offset="1" stop-color="#1D1D1D" stop-opacity="0"/></linearGradient><linearGradient id="ar" x1="845.6" y1="267.1" x2="845.6" y2="324.2" gradientUnits="userSpaceOnUse"><stop/><stop offset="1" stop-color="#1D1D1D" stop-opacity="0"/></linearGradient><linearGradient id="as" x1="1024.3" y1="385.8" x2="1024.3" y2="442.8" gradientUnits="userSpaceOnUse"><stop/><stop offset="1" stop-color="#1D1D1D" stop-opacity="0"/></linearGradient><linearGradient id="at" x1="241.4" y1="166.3" x2="597.5" y2="166.3" gradientUnits="userSpaceOnUse"><stop stop-color="#F22"/><stop offset="1" stop-color="#FF971D"/></linearGradient><linearGradient id="au" x1="447.1" y1="106.6" x2="1021.2" y2="106.6" gradientUnits="userSpaceOnUse"><stop stop-color="#F22"/><stop offset="1" stop-color="#FF971D"/></linearGradient><linearGradient id="av" x1="665" y1="285" x2="772" y2="285" gradientUnits="userSpaceOnUse"><stop stop-color="#F22"/><stop offset="1" stop-color="#FF971D"/></linearGradient><linearGradient id="aw" x1="663.4" y1="403.7" x2="952" y2="403.7" gradientUnits="userSpaceOnUse"><stop stop-color="#F22"/><stop offset="1" stop-color="#FF971D"/></linearGradient><linearGradient id="ax" x1="668.1" y1="143.4" x2="668.1" y2="200.5" gradientUnits="userSpaceOnUse"><stop/><stop offset="1" stop-color="#1D1D1D" stop-opacity="0"/></linearGradient><linearGradient id="ay" x1="1205.6" y1="83.6" x2="1205.6" y2="140.6" gradientUnits="userSpaceOnUse"><stop/><stop offset="1" stop-color="#1D1D1D" stop-opacity="0"/></linearGradient><linearGradient id="az" x1="847.6" y1="262.1" x2="847.6" y2="319.2" gradientUnits="userSpaceOnUse"><stop/><stop offset="1" stop-color="#1D1D1D" stop-opacity="0"/></linearGradient><linearGradient id="aA" x1="1026.3" y1="380.8" x2="1026.3" y2="437.8" gradientUnits="userSpaceOnUse"><stop/><stop offset="1" stop-color="#1D1D1D" stop-opacity="0"/></linearGradient><linearGradient id="aB" x1="243.4" y1="161.3" x2="599.5" y2="161.3" gradientUnits="userSpaceOnUse"><stop stop-color="#F22"/><stop offset="1" stop-color="#FF971D"/></linearGradient><linearGradient id="aC" x1="449.1" y1="101.6" x2="1023.2" y2="101.6" gradientUnits="userSpaceOnUse"><stop stop-color="#F22"/><stop offset="1" stop-color="#FF971D"/></linearGradient><linearGradient id="aD" x1="667" y1="280" x2="774" y2="280" gradientUnits="userSpaceOnUse"><stop stop-color="#F22"/><stop offset="1" stop-color="#FF971D"/></linearGradient><linearGradient id="aE" x1="665.4" y1="398.7" x2="954" y2="398.7" gradientUnits="userSpaceOnUse"><stop stop-color="#F22"/><stop offset="1" stop-color="#FF971D"/></linearGradient><clipPath id="a"><rect y=".5" width="1324" height="516" rx="12" fill="#fff"/></clipPath><filter id="ao" x="126" y="46.9" width="1138" height="416.2" filterUnits="userSpaceOnUse" color-interpolation-filters="sRGB"><feFlood flood-opacity="0" result="BackgroundImageFix"/><feBlend in="SourceGraphic" in2="BackgroundImageFix" result="shape"/><feGaussianBlur stdDeviation="6.5" result="effect1_foregroundBlur_145_4320"/></filter></defs></svg>