<svg width="1324" height="517" viewBox="0 0 1324 517" fill="none" xmlns="http://www.w3.org/2000/svg"><g clip-path="url(#a)"><rect y=".5" width="1324" height="516" rx="12" fill="url(#b)"/><path d="M74 256.483c0-8.827 7.156-15.983 15.983-15.983H1250.02c8.82 0 15.98 7.156 15.98 15.983v728.034c0 8.827-7.16 15.983-15.98 15.983H89.983c-8.827 0-15.983-7.156-15.983-15.983z" fill="url(#c)" stroke="#2B2B2B" stroke-width="1.069"/><path fill-rule="evenodd" clip-rule="evenodd" d="M114.354 278.5a4.354 4.354 0 0 0-4.354 4.354v24.67a4.354 4.354 0 0 0 4.354 4.354h24.67a4.354 4.354 0 0 0 4.354-4.354v-24.67a4.354 4.354 0 0 0-4.354-4.354zm293.142 5.12a4.353 4.353 0 0 1 4.354-4.353h24.67a4.353 4.353 0 0 1 4.354 4.353v24.671a4.353 4.353 0 0 1-4.354 4.353h-24.67a4.353 4.353 0 0 1-4.354-4.353zM288.5 341.591a4.353 4.353 0 0 1 4.353-4.354h24.671a4.354 4.354 0 0 1 4.354 4.354v24.67a4.354 4.354 0 0 1-4.354 4.354h-24.671a4.353 4.353 0 0 1-4.353-4.354zm118.996 0a4.354 4.354 0 0 1 4.354-4.354h24.67a4.354 4.354 0 0 1 4.354 4.354v24.67a4.354 4.354 0 0 1-4.354 4.354h-24.67a4.354 4.354 0 0 1-4.354-4.354zm63.394-4.354a4.354 4.354 0 0 0-4.354 4.354v24.67a4.354 4.354 0 0 0 4.354 4.354h24.67a4.354 4.354 0 0 0 4.354-4.354v-24.67a4.354 4.354 0 0 0-4.354-4.354zm54.469 4.355a4.354 4.354 0 0 1 4.354-4.354h24.671a4.353 4.353 0 0 1 4.353 4.354v24.67a4.353 4.353 0 0 1-4.353 4.354h-24.671a4.354 4.354 0 0 1-4.354-4.354zm63.264-4.354a4.353 4.353 0 0 0-4.353 4.354v24.67a4.353 4.353 0 0 0 4.353 4.354h24.671a4.353 4.353 0 0 0 4.353-4.354v-24.67a4.353 4.353 0 0 0-4.353-4.354zm-2.754 183.615a4.353 4.353 0 0 1 4.354-4.353h24.67a4.353 4.353 0 0 1 4.354 4.353v24.671a4.354 4.354 0 0 1-4.354 4.354h-24.67a4.354 4.354 0 0 1-4.354-4.354zm-209.402 55.143a4.353 4.353 0 0 1 4.353 4.354v24.67a4.353 4.353 0 0 1-4.353 4.354h-24.671a4.354 4.354 0 0 1-4.354-4.354v-24.67a4.354 4.354 0 0 1 4.354-4.354zm388.032 63.85a4.354 4.354 0 0 1 4.354-4.354h24.671a4.353 4.353 0 0 1 4.353 4.354v24.67a4.353 4.353 0 0 1-4.353 4.354h-24.671a4.354 4.354 0 0 1-4.354-4.354zM650.719 516.5a4.353 4.353 0 0 0-4.353 4.353v24.671a4.354 4.354 0 0 0 4.353 4.354h24.671a4.355 4.355 0 0 0 4.354-4.354v-24.671a4.354 4.354 0 0 0-4.354-4.353zM321.88 580.35a4.354 4.354 0 0 0-4.354-4.354h-24.67a4.354 4.354 0 0 0-4.354 4.354v24.67a4.354 4.354 0 0 0 4.354 4.354h24.67a4.354 4.354 0 0 0 4.354-4.354zm506.477 55.142a4.354 4.354 0 0 0-4.354 4.354v24.67a4.354 4.354 0 0 0 4.354 4.354h24.67a4.354 4.354 0 0 0 4.354-4.354v-24.67a4.354 4.354 0 0 0-4.354-4.354zM143.38 843.593a4.354 4.354 0 0 1-4.354 4.354h-24.67a4.354 4.354 0 0 1-4.354-4.354v-24.67a4.354 4.354 0 0 1 4.354-4.354h24.67a4.354 4.354 0 0 1 4.354 4.354zm268.47-446.097a4.354 4.354 0 0 0-4.354 4.354v24.67a4.354 4.354 0 0 0 4.354 4.354h24.67a4.354 4.354 0 0 0 4.354-4.354v-24.67a4.354 4.354 0 0 0-4.354-4.354zm297.695 59.918a4.353 4.353 0 0 0-4.354 4.353v24.671a4.354 4.354 0 0 0 4.354 4.354h24.67a4.354 4.354 0 0 0 4.354-4.354v-24.671a4.353 4.353 0 0 0-4.354-4.353zM466.536 401.85a4.354 4.354 0 0 1 4.354-4.354h24.67a4.354 4.354 0 0 1 4.354 4.354v24.67a4.354 4.354 0 0 1-4.354 4.354h-24.67a4.354 4.354 0 0 1-4.354-4.354zM470.89 457a4.353 4.353 0 0 0-4.354 4.353v24.671a4.354 4.354 0 0 0 4.354 4.354h24.67a4.354 4.354 0 0 0 4.354-4.354v-24.671A4.353 4.353 0 0 0 495.56 457zm54.471 4.353a4.353 4.353 0 0 1 4.354-4.353h24.67a4.353 4.353 0 0 1 4.354 4.353v24.671a4.354 4.354 0 0 1-4.354 4.354h-24.67a4.354 4.354 0 0 1-4.354-4.354zM173.857 516.5a4.353 4.353 0 0 0-4.353 4.353v24.671a4.354 4.354 0 0 0 4.353 4.354h24.671a4.355 4.355 0 0 0 4.354-4.354v-24.671a4.354 4.354 0 0 0-4.354-4.353zm114.532-114.405a4.354 4.354 0 0 1 4.353-4.354h24.671a4.354 4.354 0 0 1 4.353 4.354v24.671a4.353 4.353 0 0 1-4.353 4.353h-24.671a4.353 4.353 0 0 1-4.353-4.353zm4.353-122.583a4.353 4.353 0 0 0-4.353 4.354v24.67a4.353 4.353 0 0 0 4.353 4.354h24.671a4.353 4.353 0 0 0 4.353-4.354v-24.67a4.353 4.353 0 0 0-4.353-4.354zm232.619 122.583a4.354 4.354 0 0 1 4.354-4.354h24.67a4.354 4.354 0 0 1 4.354 4.354v24.671a4.353 4.353 0 0 1-4.354 4.353h-24.67a4.353 4.353 0 0 1-4.354-4.353zm64.862 55.568a4.354 4.354 0 0 0-4.354 4.354v24.67a4.354 4.354 0 0 0 4.354 4.354h24.67a4.354 4.354 0 0 0 4.354-4.354v-24.67a4.354 4.354 0 0 0-4.354-4.354zM169.504 699.349a4.353 4.353 0 0 1 4.353-4.353h24.671a4.354 4.354 0 0 1 4.354 4.353v24.671a4.355 4.355 0 0 1-4.354 4.354h-24.671a4.354 4.354 0 0 1-4.353-4.354zm624.022 89.09a4.354 4.354 0 0 0 4.354-4.353v-24.671a4.354 4.354 0 0 0-4.354-4.353h-24.671a4.353 4.353 0 0 0-4.353 4.353v24.671a4.353 4.353 0 0 0 4.353 4.353zm4.354-208.089a4.354 4.354 0 0 0-4.354-4.354h-24.671a4.353 4.353 0 0 0-4.353 4.354v24.67a4.353 4.353 0 0 0 4.353 4.354h24.671a4.354 4.354 0 0 0 4.354-4.354zM114.354 516.5a4.353 4.353 0 0 0-4.354 4.353v24.671a4.354 4.354 0 0 0 4.354 4.354h24.67a4.354 4.354 0 0 0 4.354-4.354v-24.671a4.353 4.353 0 0 0-4.354-4.353zm743.022 63.85a4.354 4.354 0 0 0-4.354-4.354h-24.671a4.353 4.353 0 0 0-4.353 4.354v24.67a4.353 4.353 0 0 0 4.353 4.354h24.671a4.354 4.354 0 0 0 4.354-4.354zm-564.523 55.142a4.353 4.353 0 0 0-4.353 4.354v24.67a4.353 4.353 0 0 0 4.353 4.354h24.671a4.354 4.354 0 0 0 4.354-4.354v-24.67a4.354 4.354 0 0 0-4.354-4.354zm564.523 63.857a4.354 4.354 0 0 0-4.354-4.353h-24.671a4.353 4.353 0 0 0-4.353 4.353v24.671a4.354 4.354 0 0 0 4.353 4.354h24.671a4.355 4.355 0 0 0 4.354-4.354zm-743.022 89.09a4.353 4.353 0 0 1-4.354-4.353v-24.671a4.353 4.353 0 0 1 4.354-4.353h24.67a4.353 4.353 0 0 1 4.354 4.353v24.671a4.353 4.353 0 0 1-4.354 4.353zM110 401.85a4.354 4.354 0 0 1 4.354-4.354h24.67a4.354 4.354 0 0 1 4.354 4.354v24.67a4.354 4.354 0 0 1-4.354 4.354h-24.67A4.354 4.354 0 0 1 110 426.52zm118.996-118.996a4.354 4.354 0 0 1 4.354-4.354h24.67a4.354 4.354 0 0 1 4.354 4.354v24.67a4.354 4.354 0 0 1-4.354 4.354h-24.67a4.354 4.354 0 0 1-4.354-4.354zm-55.579-4.354a4.354 4.354 0 0 0-4.354 4.354v24.67a4.354 4.354 0 0 0 4.354 4.354h24.67a4.354 4.354 0 0 0 4.354-4.354v-24.67a4.354 4.354 0 0 0-4.354-4.354zm293.575 4.354a4.354 4.354 0 0 1 4.354-4.354h24.67a4.354 4.354 0 0 1 4.354 4.354v24.67a4.354 4.354 0 0 1-4.354 4.354h-24.67a4.354 4.354 0 0 1-4.354-4.354zm242.553 114.642a4.354 4.354 0 0 0-4.354 4.354v24.67a4.354 4.354 0 0 0 4.354 4.354h24.67a4.354 4.354 0 0 0 4.354-4.354v-24.67a4.354 4.354 0 0 0-4.354-4.354zm114.458-114.642a4.354 4.354 0 0 1 4.354-4.354h24.67a4.354 4.354 0 0 1 4.354 4.354v24.67a4.354 4.354 0 0 1-4.354 4.354h-24.67a4.354 4.354 0 0 1-4.354-4.354zm4.354 55.15a4.353 4.353 0 0 0-4.354 4.353v24.671a4.354 4.354 0 0 0 4.354 4.354h24.67a4.354 4.354 0 0 0 4.354-4.354v-24.671a4.353 4.353 0 0 0-4.354-4.353zm-4.354 63.846a4.354 4.354 0 0 1 4.354-4.354h24.67a4.354 4.354 0 0 1 4.354 4.354v24.67a4.354 4.354 0 0 1-4.354 4.354h-24.67a4.354 4.354 0 0 1-4.354-4.354zm4.354 114.65a4.353 4.353 0 0 0-4.354 4.353v24.671a4.354 4.354 0 0 0 4.354 4.354h24.67a4.354 4.354 0 0 0 4.354-4.354v-24.671a4.353 4.353 0 0 0-4.354-4.353zM143.38 580.35a4.354 4.354 0 0 0-4.354-4.354h-24.67a4.354 4.354 0 0 0-4.354 4.354v24.67a4.354 4.354 0 0 0 4.354 4.354h24.67a4.354 4.354 0 0 0 4.354-4.354zm54.702-4.354a4.353 4.353 0 0 1 4.353 4.354v24.67a4.353 4.353 0 0 1-4.353 4.354h-24.671a4.353 4.353 0 0 1-4.353-4.354v-24.67a4.353 4.353 0 0 1 4.353-4.354zm-54.702 63.85a4.354 4.354 0 0 0-4.354-4.354h-24.67a4.354 4.354 0 0 0-4.354 4.354v24.67a4.354 4.354 0 0 0 4.354 4.354h24.67a4.354 4.354 0 0 0 4.354-4.354zm54.702-4.354a4.353 4.353 0 0 1 4.353 4.354v24.67a4.353 4.353 0 0 1-4.353 4.354h-24.671a4.353 4.353 0 0 1-4.353-4.354v-24.67a4.353 4.353 0 0 1 4.353-4.354zm90.188-174.138a4.353 4.353 0 0 1 4.353-4.354h24.671a4.353 4.353 0 0 1 4.353 4.354v24.67a4.353 4.353 0 0 1-4.353 4.354h-24.671a4.353 4.353 0 0 1-4.353-4.354zm-54.92 174.138a4.354 4.354 0 0 0-4.354 4.354v24.67a4.354 4.354 0 0 0 4.354 4.354h24.67a4.354 4.354 0 0 0 4.354-4.354v-24.67a4.354 4.354 0 0 0-4.354-4.354zM347.21 401.85a4.354 4.354 0 0 1 4.354-4.354h24.67a4.354 4.354 0 0 1 4.354 4.354v24.67a4.354 4.354 0 0 1-4.354 4.354h-24.67a4.354 4.354 0 0 1-4.354-4.354zm4.354-122.583a4.353 4.353 0 0 0-4.354 4.353v24.671a4.353 4.353 0 0 0 4.354 4.353h24.67a4.353 4.353 0 0 0 4.354-4.353V283.62a4.353 4.353 0 0 0-4.354-4.353zM585.869 401.85a4.354 4.354 0 0 1 4.354-4.354h24.67a4.354 4.354 0 0 1 4.354 4.354v24.67a4.354 4.354 0 0 1-4.354 4.354h-24.67a4.354 4.354 0 0 1-4.354-4.354zM471.346 516.5a4.353 4.353 0 0 0-4.354 4.353v24.671a4.354 4.354 0 0 0 4.354 4.354h24.67a4.354 4.354 0 0 0 4.354-4.354v-24.671a4.353 4.353 0 0 0-4.354-4.353zm52.329 4.353a4.353 4.353 0 0 1 4.353-4.353h24.671a4.353 4.353 0 0 1 4.353 4.353v24.671a4.354 4.354 0 0 1-4.353 4.354h-24.671a4.354 4.354 0 0 1-4.353-4.354zm-27.653 55.143a4.354 4.354 0 0 1 4.354 4.354v24.67a4.354 4.354 0 0 1-4.354 4.354h-24.67a4.354 4.354 0 0 1-4.354-4.354v-24.67a4.354 4.354 0 0 1 4.354-4.354zm-54.928 4.354a4.353 4.353 0 0 0-4.353-4.354H412.07a4.353 4.353 0 0 0-4.353 4.354v24.67a4.353 4.353 0 0 0 4.353 4.354h24.671a4.353 4.353 0 0 0 4.353-4.354zm113.75 116.221a4.353 4.353 0 0 1 4.353 4.354v24.67a4.353 4.353 0 0 1-4.353 4.354h-24.671a4.353 4.353 0 0 1-4.353-4.354v-24.67a4.353 4.353 0 0 1 4.353-4.354zm90.656-56.725a4.353 4.353 0 0 1 4.353-4.354h24.671a4.353 4.353 0 0 1 4.353 4.354v24.67a4.353 4.353 0 0 1-4.353 4.354h-24.671a4.353 4.353 0 0 1-4.353-4.354zM233.921 516.5a4.353 4.353 0 0 0-4.354 4.353v24.671a4.354 4.354 0 0 0 4.354 4.354h24.67a4.354 4.354 0 0 0 4.354-4.354v-24.671a4.353 4.353 0 0 0-4.354-4.353zm-4.925 182.849a4.353 4.353 0 0 1 4.354-4.353h24.67a4.353 4.353 0 0 1 4.354 4.353v24.671a4.354 4.354 0 0 1-4.354 4.354h-24.67a4.354 4.354 0 0 1-4.354-4.354zm122.568-4.353a4.353 4.353 0 0 0-4.354 4.353v24.671a4.354 4.354 0 0 0 4.354 4.354h24.67a4.354 4.354 0 0 0 4.354-4.354v-24.671a4.353 4.353 0 0 0-4.354-4.353zm386.808 89.09a4.353 4.353 0 0 1-4.354 4.353h-24.67a4.353 4.353 0 0 1-4.354-4.353v-24.671a4.353 4.353 0 0 1 4.354-4.353h24.67a4.353 4.353 0 0 1 4.354 4.353zm-3.924-208.09a4.353 4.353 0 0 1 4.353 4.354v24.67a4.353 4.353 0 0 1-4.353 4.354h-24.671a4.354 4.354 0 0 1-4.354-4.354v-24.67a4.354 4.354 0 0 1 4.354-4.354zm-326.952 63.85a4.354 4.354 0 0 1 4.354-4.354h24.67a4.354 4.354 0 0 1 4.354 4.354v24.67a4.354 4.354 0 0 1-4.354 4.354h-24.67a4.354 4.354 0 0 1-4.354-4.354zm326.526 55.15a4.353 4.353 0 0 1 4.354 4.353v24.671a4.354 4.354 0 0 1-4.354 4.354h-24.67a4.354 4.354 0 0 1-4.354-4.354v-24.671a4.353 4.353 0 0 1 4.354-4.353zm-505.026 89.09a4.353 4.353 0 0 0 4.354 4.353h24.67a4.353 4.353 0 0 0 4.354-4.353v-24.671a4.353 4.353 0 0 0-4.354-4.353h-24.67a4.353 4.353 0 0 0-4.354 4.353zm241.894 4.353a4.353 4.353 0 0 1-4.354-4.353v-24.671a4.353 4.353 0 0 1 4.354-4.353h24.67a4.353 4.353 0 0 1 4.354 4.353v24.671a4.353 4.353 0 0 1-4.354 4.353zm-123.68-4.353a4.353 4.353 0 0 0 4.354 4.353h24.67a4.353 4.353 0 0 0 4.354-4.353v-24.671a4.353 4.353 0 0 0-4.354-4.353h-24.67a4.353 4.353 0 0 0-4.354 4.353zm241.894 4.353a4.353 4.353 0 0 1-4.354-4.353v-24.671a4.353 4.353 0 0 1 4.354-4.353h24.67a4.353 4.353 0 0 1 4.354 4.353v24.671a4.353 4.353 0 0 1-4.354 4.353zM1077.5 341.592a4.353 4.353 0 0 1 4.35-4.354h24.67c2.41 0 4.36 1.949 4.36 4.354v24.67a4.355 4.355 0 0 1-4.36 4.354h-24.67c-2.4 0-4.35-1.949-4.35-4.354zm123.35-4.354c-2.4 0-4.35 1.949-4.35 4.354v24.67a4.353 4.353 0 0 0 4.35 4.354h24.67c2.4 0 4.35-1.949 4.35-4.354v-24.67a4.353 4.353 0 0 0-4.35-4.354zm-31.03 243.112a4.353 4.353 0 0 0-4.35-4.354h-24.67a4.355 4.355 0 0 0-4.36 4.354v24.67a4.355 4.355 0 0 0 4.36 4.354h24.67c2.4 0 4.35-1.949 4.35-4.354zm-63.29-4.354c2.4 0 4.35 1.949 4.35 4.354v24.67a4.353 4.353 0 0 1-4.35 4.354h-24.68c-2.4 0-4.35-1.949-4.35-4.354v-24.67a4.353 4.353 0 0 1 4.35-4.354zm89.97-174.146a4.353 4.353 0 0 1 4.35-4.354h24.67c2.4 0 4.35 1.949 4.35 4.354v24.67a4.353 4.353 0 0 1-4.35 4.354h-24.67c-2.4 0-4.35-1.949-4.35-4.354zm4.35-122.584c-2.4 0-4.35 1.949-4.35 4.353v24.671a4.353 4.353 0 0 0 4.35 4.353h24.67c2.4 0 4.35-1.949 4.35-4.353v-24.671a4.353 4.353 0 0 0-4.35-4.353zM958.504 520.854a4.354 4.354 0 0 1 4.354-4.354h24.67a4.354 4.354 0 0 1 4.354 4.354v24.67a4.354 4.354 0 0 1-4.354 4.354h-24.67a4.354 4.354 0 0 1-4.354-4.354zm123.236-123.112c-2.4 0-4.35 1.949-4.35 4.354v24.67a4.353 4.353 0 0 0 4.35 4.354h24.67c2.41 0 4.36-1.949 4.36-4.354v-24.67a4.355 4.355 0 0 0-4.36-4.354zm-4.35-113.877a4.353 4.353 0 0 1 4.35-4.353h24.67c2.41 0 4.36 1.949 4.36 4.353v24.671a4.356 4.356 0 0 1-4.36 4.354h-24.67c-2.4 0-4.35-1.95-4.35-4.354zM903.354 516.5a4.354 4.354 0 0 0-4.354 4.354v24.67a4.354 4.354 0 0 0 4.354 4.354h24.67a4.354 4.354 0 0 0 4.354-4.354v-24.67a4.354 4.354 0 0 0-4.354-4.354zM1077.5 639.846a4.353 4.353 0 0 1 4.35-4.354h24.67c2.41 0 4.36 1.949 4.36 4.354v24.67a4.355 4.355 0 0 1-4.36 4.354h-24.67c-2.4 0-4.35-1.949-4.35-4.354zm-174.146-242.35A4.354 4.354 0 0 0 899 401.85v24.67a4.354 4.354 0 0 0 4.354 4.354h24.67a4.354 4.354 0 0 0 4.354-4.354v-24.67a4.354 4.354 0 0 0-4.354-4.354zM899 282.854a4.354 4.354 0 0 1 4.354-4.354h24.67a4.354 4.354 0 0 1 4.354 4.354v24.67a4.354 4.354 0 0 1-4.354 4.354h-24.67a4.354 4.354 0 0 1-4.354-4.354zm123.35-4.354c-2.4 0-4.35 1.949-4.35 4.354v24.67a4.353 4.353 0 0 0 4.35 4.354h24.67c2.4 0 4.35-1.949 4.35-4.354v-24.67a4.353 4.353 0 0 0-4.35-4.354zm-64.288 4.354a4.354 4.354 0 0 1 4.354-4.354h24.671a4.353 4.353 0 0 1 4.353 4.354v24.67a4.353 4.353 0 0 1-4.353 4.354h-24.671a4.354 4.354 0 0 1-4.354-4.354zm-30.037 293.142a4.354 4.354 0 0 1 4.354 4.354v24.67a4.354 4.354 0 0 1-4.354 4.354h-24.67a4.354 4.354 0 0 1-4.354-4.354v-24.67a4.354 4.354 0 0 1 4.354-4.354zm63.409 4.354a4.354 4.354 0 0 0-4.354-4.354h-24.671a4.353 4.353 0 0 0-4.353 4.354v24.67a4.353 4.353 0 0 0 4.353 4.354h24.671a4.354 4.354 0 0 0 4.354-4.354zm-63.409 55.142a4.354 4.354 0 0 1 4.354 4.354v24.67a4.354 4.354 0 0 1-4.354 4.354h-24.67a4.354 4.354 0 0 1-4.354-4.354v-24.67a4.354 4.354 0 0 1 4.354-4.354zm63.409 4.354a4.354 4.354 0 0 0-4.354-4.354h-24.671a4.353 4.353 0 0 0-4.353 4.354v24.67a4.353 4.353 0 0 0 4.353 4.354h24.671a4.354 4.354 0 0 0 4.354-4.354zM1081.62 457c-2.4 0-4.35 1.949-4.35 4.354v24.67a4.353 4.353 0 0 0 4.35 4.354h24.67c2.41 0 4.36-1.949 4.36-4.354v-24.67a4.355 4.355 0 0 0-4.36-4.354zM1018 639.846a4.353 4.353 0 0 1 4.35-4.354h24.67c2.4 0 4.35 1.949 4.35 4.354v24.67a4.353 4.353 0 0 1-4.35 4.354h-24.67c-2.4 0-4.35-1.949-4.35-4.354zm122.56-242.35c-2.4 0-4.35 1.949-4.35 4.354v24.67a4.353 4.353 0 0 0 4.35 4.354h24.68c2.4 0 4.35-1.949 4.35-4.354v-24.67a4.353 4.353 0 0 0-4.35-4.354zm-4.35-113.877a4.353 4.353 0 0 1 4.35-4.353h24.68c2.4 0 4.35 1.949 4.35 4.353v24.671a4.353 4.353 0 0 1-4.35 4.353h-24.68c-2.4 0-4.35-1.949-4.35-4.353zm89.53 292.377c2.4 0 4.35 1.949 4.35 4.354v24.67a4.353 4.353 0 0 1-4.35 4.354h-24.67c-2.4 0-4.35-1.949-4.35-4.354v-24.67a4.353 4.353 0 0 1 4.35-4.354zm-207.17-55.142a4.353 4.353 0 0 1 4.35-4.354h24.67c2.4 0 4.35 1.949 4.35 4.354v24.67a4.353 4.353 0 0 1-4.35 4.354h-24.67c-2.4 0-4.35-1.949-4.35-4.354zm182.28 114.638c-2.4 0-4.35 1.949-4.35 4.354v24.67a4.353 4.353 0 0 0 4.35 4.354h24.67c2.4 0 4.35-1.949 4.35-4.354v-24.67a4.353 4.353 0 0 0-4.35-4.354z" fill="#000" fill-opacity=".5"/><path d="M110.497 282.854a3.857 3.857 0 0 1 3.857-3.857v-.994a4.85 4.85 0 0 0-4.851 4.851zm0 24.67v-24.67h-.994v24.67zm3.857 3.856a3.856 3.856 0 0 1-3.857-3.856h-.994a4.85 4.85 0 0 0 4.851 4.851zm24.67 0h-24.67v.995h24.67zm3.856-3.856a3.856 3.856 0 0 1-3.856 3.856v.995a4.85 4.85 0 0 0 4.851-4.851zm0-24.67v24.67h.995v-24.67zm-3.856-3.857a3.856 3.856 0 0 1 3.856 3.857h.995a4.85 4.85 0 0 0-4.851-4.851zm-24.67 0h24.67v-.994h-24.67zm297.496-.228a4.85 4.85 0 0 0-4.851 4.851h.994a3.856 3.856 0 0 1 3.857-3.856zm24.67 0h-24.67v.995h24.67zm4.851 4.851a4.85 4.85 0 0 0-4.851-4.851v.995a3.856 3.856 0 0 1 3.856 3.856zm0 24.671V283.62h-.995v24.671zm-4.851 4.851a4.85 4.85 0 0 0 4.851-4.851h-.995a3.856 3.856 0 0 1-3.856 3.856zm-24.67 0h24.67v-.995h-24.67zm-4.851-4.851a4.85 4.85 0 0 0 4.851 4.851v-.995a3.856 3.856 0 0 1-3.857-3.856zm0-24.671v24.671h.994V283.62zm-114.146 53.12a4.85 4.85 0 0 0-4.85 4.851h.994a3.857 3.857 0 0 1 3.856-3.857zm24.671 0h-24.671v.994h24.671zm4.851 4.851a4.85 4.85 0 0 0-4.851-4.851v.994a3.856 3.856 0 0 1 3.856 3.857zm0 24.67v-24.67h-.995v24.67zm-4.851 4.851a4.85 4.85 0 0 0 4.851-4.851h-.995a3.856 3.856 0 0 1-3.856 3.857zm-24.671 0h24.671v-.994h-24.671zm-4.85-4.851a4.85 4.85 0 0 0 4.85 4.851v-.994a3.857 3.857 0 0 1-3.856-3.857zm0-24.67v24.67h.994v-24.67zm123.847-4.851a4.85 4.85 0 0 0-4.851 4.851h.994a3.857 3.857 0 0 1 3.857-3.857zm24.67 0h-24.67v.994h24.67zm4.851 4.851a4.85 4.85 0 0 0-4.851-4.851v.994a3.856 3.856 0 0 1 3.856 3.857zm0 24.67v-24.67h-.995v24.67zm-4.851 4.851a4.85 4.85 0 0 0 4.851-4.851h-.995a3.856 3.856 0 0 1-3.856 3.857zm-24.67 0h24.67v-.994h-24.67zm-4.851-4.851a4.85 4.85 0 0 0 4.851 4.851v-.994a3.857 3.857 0 0 1-3.857-3.857zm0-24.67v24.67h.994v-24.67zm60.034 0a3.857 3.857 0 0 1 3.857-3.857v-.994a4.85 4.85 0 0 0-4.851 4.851zm0 24.67v-24.67h-.994v24.67zm3.857 3.857a3.857 3.857 0 0 1-3.857-3.857h-.994a4.85 4.85 0 0 0 4.851 4.851zm24.67 0h-24.67v.994h24.67zm3.856-3.857a3.856 3.856 0 0 1-3.856 3.857v.994a4.85 4.85 0 0 0 4.851-4.851zm0-24.67v24.67h.995v-24.67zm-3.856-3.857a3.856 3.856 0 0 1 3.856 3.857h.995a4.85 4.85 0 0 0-4.851-4.851zm-24.67 0h24.67v-.994h-24.67zm58.823-.993a4.85 4.85 0 0 0-4.851 4.851h.995a3.856 3.856 0 0 1 3.856-3.856zm24.671 0h-24.671v.995h24.671zm4.85 4.851a4.85 4.85 0 0 0-4.85-4.851v.995a3.856 3.856 0 0 1 3.856 3.856zm0 24.67v-24.67h-.994v24.67zm-4.85 4.851a4.85 4.85 0 0 0 4.85-4.851h-.994a3.857 3.857 0 0 1-3.856 3.857zm-24.671 0h24.671v-.994h-24.671zm-4.851-4.851a4.85 4.85 0 0 0 4.851 4.851v-.994a3.856 3.856 0 0 1-3.856-3.857zm0-24.67v24.67h.995v-24.67zm59.905 0a3.856 3.856 0 0 1 3.856-3.856v-.995a4.85 4.85 0 0 0-4.851 4.851zm0 24.67v-24.67h-.995v24.67zm3.856 3.857a3.856 3.856 0 0 1-3.856-3.857h-.995a4.85 4.85 0 0 0 4.851 4.851zm24.671 0h-24.671v.994h24.671zm3.856-3.857a3.857 3.857 0 0 1-3.856 3.857v.994a4.85 4.85 0 0 0 4.851-4.851zm0-24.67v24.67h.995v-24.67zm-3.856-3.856a3.856 3.856 0 0 1 3.856 3.856h.995a4.85 4.85 0 0 0-4.851-4.851zm-24.671 0h24.671v-.995h-24.671zm1.6 178.266a4.85 4.85 0 0 0-4.851 4.851h.995a3.856 3.856 0 0 1 3.856-3.856zm24.67 0h-24.67v.995h24.67zm4.851 4.851a4.85 4.85 0 0 0-4.851-4.851v.995a3.857 3.857 0 0 1 3.857 3.856zm0 24.671v-24.671h-.994v24.671zm-4.851 4.851a4.85 4.85 0 0 0 4.851-4.851h-.994a3.856 3.856 0 0 1-3.857 3.856zm-24.67 0h24.67v-.995h-24.67zm-4.851-4.851a4.85 4.85 0 0 0 4.851 4.851v-.995a3.856 3.856 0 0 1-3.856-3.856zm0-24.671v24.671h.995v-24.671zM381.318 580.35a4.85 4.85 0 0 0-4.851-4.851v.994a3.857 3.857 0 0 1 3.856 3.857zm0 24.67v-24.67h-.995v24.67zm-4.851 4.851a4.85 4.85 0 0 0 4.851-4.851h-.995a3.856 3.856 0 0 1-3.856 3.856zm-24.671 0h24.671v-.995h-24.671zm-4.851-4.851a4.85 4.85 0 0 0 4.851 4.851v-.995a3.856 3.856 0 0 1-3.856-3.856zm0-24.67v24.67h.995v-24.67zm4.851-4.851a4.85 4.85 0 0 0-4.851 4.851h.995a3.856 3.856 0 0 1 3.856-3.857zm24.671 0h-24.671v.994h24.671zm392.386 59.496a4.85 4.85 0 0 0-4.851 4.851h.995a3.856 3.856 0 0 1 3.856-3.857zm24.671 0h-24.671v.994h24.671zm4.851 4.851a4.85 4.85 0 0 0-4.851-4.851v.994a3.857 3.857 0 0 1 3.856 3.857zm0 24.67v-24.67h-.995v24.67zm-4.851 4.851a4.85 4.85 0 0 0 4.851-4.851h-.995a3.857 3.857 0 0 1-3.856 3.857zm-24.671 0h24.671v-.994h-24.671zm-4.851-4.851a4.85 4.85 0 0 0 4.851 4.851v-.994a3.856 3.856 0 0 1-3.856-3.857zm0-24.67v24.67h.995v-24.67zM646.863 520.853a3.857 3.857 0 0 1 3.856-3.856v-.995a4.85 4.85 0 0 0-4.85 4.851zm0 24.671v-24.671h-.994v24.671zm3.856 3.856a3.856 3.856 0 0 1-3.856-3.856h-.994a4.85 4.85 0 0 0 4.85 4.851zm24.671 0h-24.671v.995h24.671zm3.856-3.856a3.856 3.856 0 0 1-3.856 3.856v.995a4.85 4.85 0 0 0 4.851-4.851zm0-24.671v24.671h.995v-24.671zm-3.856-3.856a3.856 3.856 0 0 1 3.856 3.856h.995a4.85 4.85 0 0 0-4.851-4.851zm-24.671 0h24.671v-.995h-24.671zm-333.193 59.496a3.857 3.857 0 0 1 3.857 3.857h.994a4.85 4.85 0 0 0-4.851-4.851zm-24.67 0h24.67v-.994h-24.67zm-3.857 3.857a3.857 3.857 0 0 1 3.857-3.857v-.994a4.85 4.85 0 0 0-4.851 4.851zm0 24.67v-24.67h-.994v24.67zm3.857 3.856a3.856 3.856 0 0 1-3.857-3.856h-.994a4.85 4.85 0 0 0 4.851 4.851zm24.67 0h-24.67v.995h24.67zm3.857-3.856a3.856 3.856 0 0 1-3.857 3.856v.995a4.85 4.85 0 0 0 4.851-4.851zm0-24.67v24.67h.994v-24.67zM824.5 639.846a3.857 3.857 0 0 1 3.857-3.857v-.994a4.85 4.85 0 0 0-4.851 4.851zm0 24.67v-24.67h-.994v24.67zm3.857 3.857a3.857 3.857 0 0 1-3.857-3.857h-.994a4.85 4.85 0 0 0 4.851 4.851zm24.67 0h-24.67v.994h24.67zm3.857-3.857a3.857 3.857 0 0 1-3.857 3.857v.994a4.85 4.85 0 0 0 4.851-4.851zm0-24.67v24.67h.994v-24.67zm-3.857-3.857a3.857 3.857 0 0 1 3.857 3.857h.994a4.85 4.85 0 0 0-4.851-4.851zm-24.67 0h24.67v-.994h-24.67zM139.026 848.444a4.85 4.85 0 0 0 4.851-4.851h-.994a3.857 3.857 0 0 1-3.857 3.857zm-24.67 0h24.67v-.994h-24.67zm-4.851-4.851a4.85 4.85 0 0 0 4.851 4.851v-.994a3.856 3.856 0 0 1-3.856-3.857zm0-24.67v24.67h.995v-24.67zm4.851-4.851a4.85 4.85 0 0 0-4.851 4.851h.995a3.856 3.856 0 0 1 3.856-3.857zm24.67 0h-24.67v.994h24.67zm4.851 4.851a4.85 4.85 0 0 0-4.851-4.851v.994a3.857 3.857 0 0 1 3.857 3.857zm0 24.67v-24.67h-.994v24.67zM407.993 401.85a3.857 3.857 0 0 1 3.857-3.857v-.994a4.85 4.85 0 0 0-4.851 4.851zm0 24.67v-24.67h-.994v24.67zm3.857 3.857a3.857 3.857 0 0 1-3.857-3.857h-.994a4.85 4.85 0 0 0 4.851 4.851zm24.67 0h-24.67v.994h24.67zm3.856-3.857a3.856 3.856 0 0 1-3.856 3.857v.994a4.85 4.85 0 0 0 4.851-4.851zm0-24.67v24.67h.995v-24.67zm-3.856-3.857a3.856 3.856 0 0 1 3.856 3.857h.995a4.85 4.85 0 0 0-4.851-4.851zm-24.67 0h24.67v-.994h-24.67zm293.838 63.774a3.857 3.857 0 0 1 3.857-3.856v-.994a4.85 4.85 0 0 0-4.851 4.85zm0 24.671v-24.671h-.994v24.671zm3.857 3.856a3.856 3.856 0 0 1-3.857-3.856h-.994a4.85 4.85 0 0 0 4.851 4.851zm24.67 0h-24.67v.995h24.67zm3.857-3.856a3.856 3.856 0 0 1-3.857 3.856v.995a4.85 4.85 0 0 0 4.851-4.851zm0-24.671v24.671h.994v-24.671zm-3.857-3.856a3.857 3.857 0 0 1 3.857 3.856h.994a4.85 4.85 0 0 0-4.851-4.85zm-24.67 0h24.67v-.994h-24.67zM470.89 396.999a4.85 4.85 0 0 0-4.851 4.851h.994a3.857 3.857 0 0 1 3.857-3.857zm24.67 0h-24.67v.994h24.67zm4.851 4.851a4.85 4.85 0 0 0-4.851-4.851v.994a3.856 3.856 0 0 1 3.856 3.857zm0 24.67v-24.67h-.995v24.67zm-4.851 4.851a4.85 4.85 0 0 0 4.851-4.851h-.995a3.856 3.856 0 0 1-3.856 3.857zm-24.67 0h24.67v-.994h-24.67zm-4.851-4.851a4.85 4.85 0 0 0 4.851 4.851v-.994a3.857 3.857 0 0 1-3.857-3.857zm0-24.67v24.67h.994v-24.67zm.994 59.503a3.857 3.857 0 0 1 3.857-3.856v-.994a4.85 4.85 0 0 0-4.851 4.85zm0 24.671v-24.671h-.994v24.671zm3.857 3.856a3.856 3.856 0 0 1-3.857-3.856h-.994a4.85 4.85 0 0 0 4.851 4.851zm24.67 0h-24.67v.995h24.67zm3.856-3.856a3.856 3.856 0 0 1-3.856 3.856v.995a4.85 4.85 0 0 0 4.851-4.851zm0-24.671v24.671h.995v-24.671zm-3.856-3.856a3.856 3.856 0 0 1 3.856 3.856h.995a4.85 4.85 0 0 0-4.851-4.85zm-24.67 0h24.67v-.994h-24.67zm58.825-.994a4.85 4.85 0 0 0-4.851 4.85h.994a3.857 3.857 0 0 1 3.857-3.856zm24.67 0h-24.67v.994h24.67zm4.851 4.85a4.85 4.85 0 0 0-4.851-4.85v.994a3.857 3.857 0 0 1 3.857 3.856zm0 24.671v-24.671h-.994v24.671zm-4.851 4.851a4.85 4.85 0 0 0 4.851-4.851h-.994a3.856 3.856 0 0 1-3.857 3.856zm-24.67 0h24.67v-.995h-24.67zm-4.851-4.851a4.85 4.85 0 0 0 4.851 4.851v-.995a3.856 3.856 0 0 1-3.857-3.856zm0-24.671v24.671h.994v-24.671zm-354.863 59.5a3.857 3.857 0 0 1 3.856-3.856v-.995a4.85 4.85 0 0 0-4.851 4.851zm0 24.671v-24.671h-.995v24.671zm3.856 3.856a3.856 3.856 0 0 1-3.856-3.856h-.995a4.85 4.85 0 0 0 4.851 4.851zm24.671 0h-24.671v.995h24.671zm3.856-3.856a3.856 3.856 0 0 1-3.856 3.856v.995a4.85 4.85 0 0 0 4.851-4.851zm0-24.671v24.671h.995v-24.671zm-3.856-3.856a3.856 3.856 0 0 1 3.856 3.856h.995a4.85 4.85 0 0 0-4.851-4.851zm-24.671 0h24.671v-.995h-24.671zm118.885-119.753a4.85 4.85 0 0 0-4.851 4.851h.995a3.856 3.856 0 0 1 3.856-3.856zm24.671 0h-24.671v.995h24.671zm4.851 4.851a4.85 4.85 0 0 0-4.851-4.851v.995a3.856 3.856 0 0 1 3.856 3.856zm0 24.671v-24.671h-.995v24.671zm-4.851 4.85a4.85 4.85 0 0 0 4.851-4.85h-.995a3.856 3.856 0 0 1-3.856 3.856zm-24.671 0h24.671v-.994h-24.671zm-4.851-4.85a4.85 4.85 0 0 0 4.851 4.85v-.994a3.857 3.857 0 0 1-3.856-3.856zm0-24.671v24.671h.995v-24.671zm.995-118.229a3.857 3.857 0 0 1 3.856-3.857v-.994a4.85 4.85 0 0 0-4.851 4.851zm0 24.67v-24.67h-.995v24.67zm3.856 3.856a3.856 3.856 0 0 1-3.856-3.856h-.995a4.85 4.85 0 0 0 4.851 4.851zm24.671 0h-24.671v.995h24.671zm3.856-3.856a3.856 3.856 0 0 1-3.856 3.856v.995a4.85 4.85 0 0 0 4.851-4.851zm0-24.67v24.67h.995v-24.67zm-3.856-3.857a3.856 3.856 0 0 1 3.856 3.857h.995a4.85 4.85 0 0 0-4.851-4.851zm-24.671 0h24.671v-.994h-24.671zm236.973 117.235a4.85 4.85 0 0 0-4.851 4.851h.994a3.856 3.856 0 0 1 3.857-3.856zm24.67 0h-24.67v.995h24.67zm4.851 4.851a4.85 4.85 0 0 0-4.851-4.851v.995a3.856 3.856 0 0 1 3.857 3.856zm0 24.671v-24.671h-.994v24.671zm-4.851 4.85a4.85 4.85 0 0 0 4.851-4.85h-.994a3.857 3.857 0 0 1-3.857 3.856zm-24.67 0h24.67v-.994h-24.67zm-4.851-4.85a4.85 4.85 0 0 0 4.851 4.85v-.994a3.857 3.857 0 0 1-3.857-3.856zm0-24.671v24.671h.994v-24.671zm61.503 59.922a3.856 3.856 0 0 1 3.856-3.857v-.994a4.85 4.85 0 0 0-4.851 4.851zm0 24.67v-24.67h-.995v24.67zm3.856 3.856a3.856 3.856 0 0 1-3.856-3.856h-.995a4.85 4.85 0 0 0 4.851 4.851zm24.67 0h-24.67v.995h24.67zm3.857-3.856a3.856 3.856 0 0 1-3.857 3.856v.995a4.85 4.85 0 0 0 4.851-4.851zm0-24.67v24.67h.994v-24.67zm-3.857-3.857a3.857 3.857 0 0 1 3.857 3.857h.994a4.85 4.85 0 0 0-4.851-4.851zm-24.67 0h24.67v-.994h-24.67zM173.857 694.499a4.85 4.85 0 0 0-4.851 4.85h.995a3.857 3.857 0 0 1 3.856-3.856zm24.671 0h-24.671v.994h24.671zm4.851 4.85a4.85 4.85 0 0 0-4.851-4.85v.994a3.856 3.856 0 0 1 3.856 3.856zm0 24.671v-24.671h-.995v24.671zm-4.851 4.851a4.85 4.85 0 0 0 4.851-4.851h-.995a3.856 3.856 0 0 1-3.856 3.856zm-24.671 0h24.671v-.995h-24.671zm-4.851-4.851a4.85 4.85 0 0 0 4.851 4.851v-.995a3.856 3.856 0 0 1-3.856-3.856zm0-24.671v24.671h.995v-24.671zm628.376 84.737a3.856 3.856 0 0 1-3.856 3.856v.995a4.85 4.85 0 0 0 4.851-4.851zm0-24.671v24.671h.995v-24.671zm-3.856-3.856a3.856 3.856 0 0 1 3.856 3.856h.995a4.85 4.85 0 0 0-4.851-4.851zm-24.671 0h24.671v-.995h-24.671zm-3.856 3.856a3.856 3.856 0 0 1 3.856-3.856v-.995a4.85 4.85 0 0 0-4.851 4.851zm0 24.671v-24.671h-.995v24.671zm3.856 3.856a3.857 3.857 0 0 1-3.856-3.856h-.995a4.85 4.85 0 0 0 4.851 4.851zm24.671 0h-24.671v.995h24.671zm0-211.449a3.856 3.856 0 0 1 3.856 3.857h.995a4.85 4.85 0 0 0-4.851-4.851zm-24.671 0h24.671v-.994h-24.671zm-3.856 3.857a3.857 3.857 0 0 1 3.856-3.857v-.994a4.85 4.85 0 0 0-4.851 4.851zm0 24.67v-24.67h-.995v24.67zm3.856 3.856a3.856 3.856 0 0 1-3.856-3.856h-.995a4.85 4.85 0 0 0 4.851 4.851zm24.671 0h-24.671v.995h24.671zm3.856-3.856a3.856 3.856 0 0 1-3.856 3.856v.995a4.85 4.85 0 0 0 4.851-4.851zm0-24.67v24.67h.995v-24.67zm-686.885-59.497a3.857 3.857 0 0 1 3.857-3.856v-.995a4.85 4.85 0 0 0-4.851 4.851zm0 24.671v-24.671h-.994v24.671zm3.857 3.856a3.856 3.856 0 0 1-3.857-3.856h-.994a4.85 4.85 0 0 0 4.851 4.851zm24.67 0h-24.67v.995h24.67zm3.856-3.856a3.856 3.856 0 0 1-3.856 3.856v.995a4.85 4.85 0 0 0 4.851-4.851zm0-24.671v24.671h.995v-24.671zm-3.856-3.856a3.856 3.856 0 0 1 3.856 3.856h.995a4.85 4.85 0 0 0-4.851-4.851zm-24.67 0h24.67v-.995h-24.67zm738.668 59.496a3.856 3.856 0 0 1 3.856 3.857h.995a4.85 4.85 0 0 0-4.851-4.851zm-24.671 0h24.671v-.994h-24.671zm-3.856 3.857a3.857 3.857 0 0 1 3.856-3.857v-.994a4.85 4.85 0 0 0-4.851 4.851zm0 24.67v-24.67h-.995v24.67zm3.856 3.856a3.856 3.856 0 0 1-3.856-3.856h-.995a4.85 4.85 0 0 0 4.851 4.851zm24.671 0h-24.671v.995h24.671zm3.856-3.856a3.856 3.856 0 0 1-3.856 3.856v.995a4.85 4.85 0 0 0 4.851-4.851zm0-24.67v24.67h.995v-24.67zm-567.881 59.496a3.857 3.857 0 0 1 3.856-3.857v-.994a4.85 4.85 0 0 0-4.85 4.851zm0 24.67v-24.67h-.994v24.67zm3.856 3.857a3.857 3.857 0 0 1-3.856-3.857h-.994a4.85 4.85 0 0 0 4.85 4.851zm24.671 0h-24.671v.994h24.671zm3.856-3.857a3.856 3.856 0 0 1-3.856 3.857v.994a4.85 4.85 0 0 0 4.851-4.851zm0-24.67v24.67h.995v-24.67zm-3.856-3.857a3.856 3.856 0 0 1 3.856 3.857h.995a4.85 4.85 0 0 0-4.851-4.851zm-24.671 0h24.671v-.994h-24.671zm560.169 59.504a3.856 3.856 0 0 1 3.856 3.856h.995a4.85 4.85 0 0 0-4.851-4.85zm-24.671 0h24.671v-.994h-24.671zm-3.856 3.856a3.857 3.857 0 0 1 3.856-3.856v-.994a4.85 4.85 0 0 0-4.851 4.85zm0 24.671v-24.671h-.995v24.671zm3.856 3.856a3.856 3.856 0 0 1-3.856-3.856h-.995a4.85 4.85 0 0 0 4.851 4.851zm24.671 0h-24.671v.995h24.671zm3.856-3.856a3.856 3.856 0 0 1-3.856 3.856v.995a4.85 4.85 0 0 0 4.851-4.851zm0-24.671v24.671h.995v-24.671zm-747.375 84.737a4.85 4.85 0 0 0 4.851 4.851v-.995a3.857 3.857 0 0 1-3.857-3.856zm0-24.671v24.671h.994v-24.671zm4.851-4.851a4.85 4.85 0 0 0-4.851 4.851h.994a3.856 3.856 0 0 1 3.857-3.856zm24.67 0h-24.67v.995h24.67zm4.851 4.851a4.85 4.85 0 0 0-4.851-4.851v.995a3.856 3.856 0 0 1 3.856 3.856zm0 24.671v-24.671h-.995v24.671zm-4.851 4.851a4.85 4.85 0 0 0 4.851-4.851h-.995a3.856 3.856 0 0 1-3.856 3.856zm-24.67 0h24.67v-.995h-24.67zm0-391.938a4.85 4.85 0 0 0-4.851 4.851h.994a3.857 3.857 0 0 1 3.857-3.857zm24.67 0h-24.67v.994h24.67zm4.851 4.851a4.85 4.85 0 0 0-4.851-4.851v.994a3.856 3.856 0 0 1 3.856 3.857zm0 24.67v-24.67h-.995v24.67zm-4.851 4.851a4.85 4.85 0 0 0 4.851-4.851h-.995a3.856 3.856 0 0 1-3.856 3.857zm-24.67 0h24.67v-.994h-24.67zm-4.851-4.851a4.85 4.85 0 0 0 4.851 4.851v-.994a3.857 3.857 0 0 1-3.857-3.857zm0-24.67v24.67h.994v-24.67zM233.35 278.003a4.85 4.85 0 0 0-4.851 4.851h.994a3.857 3.857 0 0 1 3.857-3.857zm24.67 0h-24.67v.994h24.67zm4.851 4.851a4.85 4.85 0 0 0-4.851-4.851v.994a3.857 3.857 0 0 1 3.857 3.857zm0 24.67v-24.67h-.994v24.67zm-4.851 4.851a4.85 4.85 0 0 0 4.851-4.851h-.994a3.856 3.856 0 0 1-3.857 3.856zm-24.67 0h24.67v-.995h-24.67zm-4.851-4.851a4.85 4.85 0 0 0 4.851 4.851v-.995a3.856 3.856 0 0 1-3.857-3.856zm0-24.67v24.67h.994v-24.67zm-58.939 0a3.857 3.857 0 0 1 3.857-3.857v-.994a4.85 4.85 0 0 0-4.851 4.851zm0 24.67v-24.67h-.994v24.67zm3.857 3.856a3.856 3.856 0 0 1-3.857-3.856h-.994a4.85 4.85 0 0 0 4.851 4.851zm24.67 0h-24.67v.995h24.67zm3.856-3.856a3.856 3.856 0 0 1-3.856 3.856v.995a4.85 4.85 0 0 0 4.851-4.851zm0-24.67v24.67h.995v-24.67zm-3.856-3.857a3.856 3.856 0 0 1 3.856 3.857h.995a4.85 4.85 0 0 0-4.851-4.851zm-24.67 0h24.67v-.994h-24.67zm297.929-.994a4.85 4.85 0 0 0-4.851 4.851h.994a3.857 3.857 0 0 1 3.857-3.857zm24.67 0h-24.67v.994h24.67zm4.851 4.851a4.85 4.85 0 0 0-4.851-4.851v.994a3.857 3.857 0 0 1 3.857 3.857zm0 24.67v-24.67h-.994v24.67zm-4.851 4.851a4.85 4.85 0 0 0 4.851-4.851h-.994a3.856 3.856 0 0 1-3.857 3.856zm-24.67 0h24.67v-.995h-24.67zm-4.851-4.851a4.85 4.85 0 0 0 4.851 4.851v-.995a3.856 3.856 0 0 1-3.857-3.856zm0-24.67v24.67h.994v-24.67zM705.688 401.85a3.857 3.857 0 0 1 3.857-3.857v-.994a4.85 4.85 0 0 0-4.851 4.851zm0 24.67v-24.67h-.994v24.67zm3.857 3.857a3.857 3.857 0 0 1-3.857-3.857h-.994a4.85 4.85 0 0 0 4.851 4.851zm24.67 0h-24.67v.994h24.67zm3.857-3.857a3.857 3.857 0 0 1-3.857 3.857v.994a4.85 4.85 0 0 0 4.851-4.851zm0-24.67v24.67h.994v-24.67zm-3.857-3.857a3.857 3.857 0 0 1 3.857 3.857h.994a4.85 4.85 0 0 0-4.851-4.851zm-24.67 0h24.67v-.994h-24.67zm118.812-119.99a4.85 4.85 0 0 0-4.851 4.851h.994a3.857 3.857 0 0 1 3.857-3.857zm24.67 0h-24.67v.994h24.67zm4.851 4.851a4.85 4.85 0 0 0-4.851-4.851v.994a3.857 3.857 0 0 1 3.857 3.857zm0 24.67v-24.67h-.994v24.67zm-4.851 4.851a4.85 4.85 0 0 0 4.851-4.851h-.994a3.856 3.856 0 0 1-3.857 3.856zm-24.67 0h24.67v-.995h-24.67zm-4.851-4.851a4.85 4.85 0 0 0 4.851 4.851v-.995a3.856 3.856 0 0 1-3.857-3.856zm0-24.67v24.67h.994v-24.67zm.994 59.503a3.857 3.857 0 0 1 3.857-3.856v-.995a4.85 4.85 0 0 0-4.851 4.851zm0 24.671v-24.671h-.994v24.671zm3.857 3.856a3.856 3.856 0 0 1-3.857-3.856h-.994a4.85 4.85 0 0 0 4.851 4.851zm24.67 0h-24.67v.995h24.67zm3.857-3.856a3.856 3.856 0 0 1-3.857 3.856v.995a4.85 4.85 0 0 0 4.851-4.851zm0-24.671v24.671h.994v-24.671zm-3.857-3.856a3.857 3.857 0 0 1 3.857 3.856h.994a4.85 4.85 0 0 0-4.851-4.851zm-24.67 0h24.67v-.995h-24.67zm0 58.498a4.85 4.85 0 0 0-4.851 4.851h.994a3.857 3.857 0 0 1 3.857-3.857zm24.67 0h-24.67v.994h24.67zm4.851 4.851a4.85 4.85 0 0 0-4.851-4.851v.994a3.857 3.857 0 0 1 3.857 3.857zm0 24.67v-24.67h-.994v24.67zm-4.851 4.851a4.85 4.85 0 0 0 4.851-4.851h-.994a3.857 3.857 0 0 1-3.857 3.857zm-24.67 0h24.67v-.994h-24.67zm-4.851-4.851a4.85 4.85 0 0 0 4.851 4.851v-.994a3.857 3.857 0 0 1-3.857-3.857zm0-24.67v24.67h.994v-24.67zm.994 119.003a3.857 3.857 0 0 1 3.857-3.856v-.995a4.85 4.85 0 0 0-4.851 4.851zm0 24.671v-24.671h-.994v24.671zm3.857 3.856a3.856 3.856 0 0 1-3.857-3.856h-.994a4.85 4.85 0 0 0 4.851 4.851zm24.67 0h-24.67v.995h24.67zm3.857-3.856a3.856 3.856 0 0 1-3.857 3.856v.995a4.85 4.85 0 0 0 4.851-4.851zm0-24.671v24.671h.994v-24.671zm-3.857-3.856a3.857 3.857 0 0 1 3.857 3.856h.994a4.85 4.85 0 0 0-4.851-4.851zm-24.67 0h24.67v-.995h-24.67zm-689.331 59.496a3.857 3.857 0 0 1 3.857 3.857h.994a4.85 4.85 0 0 0-4.851-4.851zm-24.67 0h24.67v-.994h-24.67zm-3.856 3.857a3.856 3.856 0 0 1 3.856-3.857v-.994a4.85 4.85 0 0 0-4.851 4.851zm0 24.67v-24.67h-.995v24.67zm3.856 3.856a3.856 3.856 0 0 1-3.856-3.856h-.995a4.85 4.85 0 0 0 4.851 4.851zm24.67 0h-24.67v.995h24.67zm3.857-3.856a3.856 3.856 0 0 1-3.857 3.856v.995a4.85 4.85 0 0 0 4.851-4.851zm0-24.67v24.67h.994v-24.67zm60.05 0a4.85 4.85 0 0 0-4.851-4.851v.994a3.856 3.856 0 0 1 3.856 3.857zm0 24.67v-24.67h-.995v24.67zm-4.851 4.851a4.85 4.85 0 0 0 4.851-4.851h-.995a3.856 3.856 0 0 1-3.856 3.856zm-24.671 0h24.671v-.995h-24.671zm-4.851-4.851a4.85 4.85 0 0 0 4.851 4.851v-.995a3.856 3.856 0 0 1-3.856-3.856zm0-24.67v24.67h.995v-24.67zm4.851-4.851a4.85 4.85 0 0 0-4.851 4.851h.995a3.856 3.856 0 0 1 3.856-3.857zm24.671 0h-24.671v.994h24.671zm-59.056 60.49a3.857 3.857 0 0 1 3.857 3.857h.994a4.85 4.85 0 0 0-4.851-4.851zm-24.67 0h24.67v-.994h-24.67zm-3.856 3.857a3.856 3.856 0 0 1 3.856-3.857v-.994a4.85 4.85 0 0 0-4.851 4.851zm0 24.67v-24.67h-.995v24.67zm3.856 3.857a3.856 3.856 0 0 1-3.856-3.857h-.995a4.85 4.85 0 0 0 4.851 4.851zm24.67 0h-24.67v.994h24.67zm3.857-3.857a3.857 3.857 0 0 1-3.857 3.857v.994a4.85 4.85 0 0 0 4.851-4.851zm0-24.67v24.67h.994v-24.67zm60.05 0a4.85 4.85 0 0 0-4.851-4.851v.994a3.856 3.856 0 0 1 3.856 3.857zm0 24.67v-24.67h-.995v24.67zm-4.851 4.851a4.85 4.85 0 0 0 4.851-4.851h-.995a3.856 3.856 0 0 1-3.856 3.857zm-24.671 0h24.671v-.994h-24.671zm-4.851-4.851a4.85 4.85 0 0 0 4.851 4.851v-.994a3.856 3.856 0 0 1-3.856-3.857zm0-24.67v24.67h.995v-24.67zm4.851-4.851a4.85 4.85 0 0 0-4.851 4.851h.995a3.856 3.856 0 0 1 3.856-3.857zm24.671 0h-24.671v.994h24.671zm94.541-178.492a4.85 4.85 0 0 0-4.851 4.851h.995a3.856 3.856 0 0 1 3.856-3.857zm24.671 0h-24.671v.994h24.671zm4.851 4.851a4.85 4.85 0 0 0-4.851-4.851v.994a3.857 3.857 0 0 1 3.856 3.857zm0 24.67v-24.67h-.995v24.67zm-4.851 4.851a4.85 4.85 0 0 0 4.851-4.851h-.995a3.856 3.856 0 0 1-3.856 3.856zm-24.671 0h24.671v-.995h-24.671zm-4.851-4.851a4.85 4.85 0 0 0 4.851 4.851v-.995a3.856 3.856 0 0 1-3.856-3.856zm0-24.67v24.67h.995v-24.67zm-58.279 178.492a3.857 3.857 0 0 1 3.857-3.857v-.994a4.85 4.85 0 0 0-4.851 4.851zm0 24.67v-24.67h-.994v24.67zm3.857 3.857a3.857 3.857 0 0 1-3.857-3.857h-.994a4.85 4.85 0 0 0 4.851 4.851zm24.67 0h-24.67v.994h24.67zm3.857-3.857a3.857 3.857 0 0 1-3.857 3.857v.994a4.85 4.85 0 0 0 4.851-4.851zm0-24.67v24.67h.994v-24.67zm-3.857-3.857a3.857 3.857 0 0 1 3.857 3.857h.994a4.85 4.85 0 0 0-4.851-4.851zm-24.67 0h24.67v-.994h-24.67zm118.214-238.99a4.85 4.85 0 0 0-4.851 4.851h.994a3.857 3.857 0 0 1 3.857-3.857zm24.67 0h-24.67v.994h24.67zm4.851 4.851a4.85 4.85 0 0 0-4.851-4.851v.994a3.857 3.857 0 0 1 3.857 3.857zm0 24.67v-24.67h-.994v24.67zm-4.851 4.851a4.85 4.85 0 0 0 4.851-4.851h-.994a3.857 3.857 0 0 1-3.857 3.857zm-24.67 0h24.67v-.994h-24.67zm-4.851-4.851a4.85 4.85 0 0 0 4.851 4.851v-.994a3.857 3.857 0 0 1-3.857-3.857zm0-24.67v24.67h.994v-24.67zm.994-118.23a3.856 3.856 0 0 1 3.857-3.856v-.995a4.85 4.85 0 0 0-4.851 4.851zm0 24.671V283.62h-.994v24.671zm3.857 3.856a3.856 3.856 0 0 1-3.857-3.856h-.994a4.85 4.85 0 0 0 4.851 4.851zm24.67 0h-24.67v.995h24.67zm3.857-3.856a3.856 3.856 0 0 1-3.857 3.856v.995a4.85 4.85 0 0 0 4.851-4.851zm0-24.671v24.671h.994V283.62zm-3.857-3.856a3.856 3.856 0 0 1 3.857 3.856h.994a4.85 4.85 0 0 0-4.851-4.851zm-24.67 0h24.67v-.995h-24.67zm238.659 117.235a4.85 4.85 0 0 0-4.851 4.851h.995a3.856 3.856 0 0 1 3.856-3.857zm24.67 0h-24.67v.994h24.67zm4.851 4.851a4.85 4.85 0 0 0-4.851-4.851v.994a3.857 3.857 0 0 1 3.857 3.857zm0 24.67v-24.67h-.994v24.67zm-4.851 4.851a4.85 4.85 0 0 0 4.851-4.851h-.994a3.857 3.857 0 0 1-3.857 3.857zm-24.67 0h24.67v-.994h-24.67zm-4.851-4.851a4.85 4.85 0 0 0 4.851 4.851v-.994a3.856 3.856 0 0 1-3.856-3.857zm0-24.67v24.67h.995v-24.67zM467.489 520.853a3.857 3.857 0 0 1 3.857-3.856v-.995a4.85 4.85 0 0 0-4.851 4.851zm0 24.671v-24.671h-.994v24.671zm3.857 3.856a3.856 3.856 0 0 1-3.857-3.856h-.994a4.85 4.85 0 0 0 4.851 4.851zm24.67 0h-24.67v.995h24.67zm3.857-3.856a3.856 3.856 0 0 1-3.857 3.856v.995a4.85 4.85 0 0 0 4.851-4.851zm0-24.671v24.671h.994v-24.671zm-3.857-3.856a3.857 3.857 0 0 1 3.857 3.856h.994a4.85 4.85 0 0 0-4.851-4.851zm-24.67 0h24.67v-.995h-24.67zm56.682-.995a4.85 4.85 0 0 0-4.851 4.851h.995a3.856 3.856 0 0 1 3.856-3.856zm24.671 0h-24.671v.995h24.671zm4.851 4.851a4.85 4.85 0 0 0-4.851-4.851v.995a3.857 3.857 0 0 1 3.856 3.856zm0 24.671v-24.671h-.995v24.671zm-4.851 4.851a4.85 4.85 0 0 0 4.851-4.851h-.995a3.856 3.856 0 0 1-3.856 3.856zm-24.671 0h24.671v-.995h-24.671zm-4.851-4.851a4.85 4.85 0 0 0 4.851 4.851v-.995a3.856 3.856 0 0 1-3.856-3.856zm0-24.671v24.671h.995v-24.671zm-22.304 59.497a4.85 4.85 0 0 0-4.851-4.851v.994a3.857 3.857 0 0 1 3.857 3.857zm0 24.67v-24.67h-.994v24.67zm-4.851 4.851a4.85 4.85 0 0 0 4.851-4.851h-.994a3.856 3.856 0 0 1-3.857 3.856zm-24.67 0h24.67v-.995h-24.67zm-4.851-4.851a4.85 4.85 0 0 0 4.851 4.851v-.995a3.856 3.856 0 0 1-3.857-3.856zm0-24.67v24.67h.994v-24.67zm4.851-4.851a4.85 4.85 0 0 0-4.851 4.851h.994a3.857 3.857 0 0 1 3.857-3.857zm24.67 0h-24.67v.994h24.67zm-59.281.994a3.856 3.856 0 0 1 3.856 3.857h.995a4.85 4.85 0 0 0-4.851-4.851zm-24.671 0h24.671v-.994H412.07zm-3.856 3.857a3.857 3.857 0 0 1 3.856-3.857v-.994a4.85 4.85 0 0 0-4.851 4.851zm0 24.67v-24.67h-.995v24.67zm3.856 3.856a3.856 3.856 0 0 1-3.856-3.856h-.995a4.85 4.85 0 0 0 4.851 4.851zm24.671 0H412.07v.995h24.671zm3.856-3.856a3.856 3.856 0 0 1-3.856 3.856v.995a4.85 4.85 0 0 0 4.851-4.851zm0-24.67v24.67h.995v-24.67zm119.098 120.575a4.85 4.85 0 0 0-4.851-4.851v.995a3.856 3.856 0 0 1 3.856 3.856zm0 24.67v-24.67h-.995v24.67zm-4.851 4.851a4.85 4.85 0 0 0 4.851-4.851h-.995a3.856 3.856 0 0 1-3.856 3.857zm-24.671 0h24.671v-.994h-24.671zm-4.851-4.851a4.85 4.85 0 0 0 4.851 4.851v-.994a3.856 3.856 0 0 1-3.856-3.857zm0-24.67v24.67h.995v-24.67zm4.851-4.851a4.85 4.85 0 0 0-4.851 4.851h.995a3.856 3.856 0 0 1 3.856-3.856zm24.671 0h-24.671v.995h24.671zm95.009-61.079a4.85 4.85 0 0 0-4.851 4.851h.995a3.856 3.856 0 0 1 3.856-3.857zm24.671 0h-24.671v.994h24.671zm4.851 4.851a4.85 4.85 0 0 0-4.851-4.851v.994a3.857 3.857 0 0 1 3.856 3.857zm0 24.67v-24.67h-.995v24.67zm-4.851 4.851a4.85 4.85 0 0 0 4.851-4.851h-.995a3.857 3.857 0 0 1-3.856 3.857zm-24.671 0h24.671v-.994h-24.671zm-4.851-4.851a4.85 4.85 0 0 0 4.851 4.851v-.994a3.856 3.856 0 0 1-3.856-3.857zm0-24.67v24.67h.995v-24.67zM230.065 520.853a3.856 3.856 0 0 1 3.856-3.856v-.995a4.85 4.85 0 0 0-4.851 4.851zm0 24.671v-24.671h-.995v24.671zm3.856 3.856a3.856 3.856 0 0 1-3.856-3.856h-.995a4.85 4.85 0 0 0 4.851 4.851zm24.67 0h-24.67v.995h24.67zm3.857-3.856a3.856 3.856 0 0 1-3.857 3.856v.995a4.85 4.85 0 0 0 4.851-4.851zm0-24.671v24.671h.994v-24.671zm-3.857-3.856a3.857 3.857 0 0 1 3.857 3.856h.994a4.85 4.85 0 0 0-4.851-4.851zm-24.67 0h24.67v-.995h-24.67zm-.571 177.502a4.85 4.85 0 0 0-4.851 4.85h.994a3.857 3.857 0 0 1 3.857-3.856zm24.67 0h-24.67v.994h24.67zm4.851 4.85a4.85 4.85 0 0 0-4.851-4.85v.994a3.857 3.857 0 0 1 3.857 3.856zm0 24.671v-24.671h-.994v24.671zm-4.851 4.851a4.85 4.85 0 0 0 4.851-4.851h-.994a3.856 3.856 0 0 1-3.857 3.856zm-24.67 0h24.67v-.995h-24.67zm-4.851-4.851a4.85 4.85 0 0 0 4.851 4.851v-.995a3.856 3.856 0 0 1-3.857-3.856zm0-24.671v24.671h.994v-24.671zm119.208 0a3.857 3.857 0 0 1 3.857-3.856v-.994a4.85 4.85 0 0 0-4.851 4.85zm0 24.671v-24.671h-.994v24.671zm3.857 3.856a3.856 3.856 0 0 1-3.857-3.856h-.994a4.85 4.85 0 0 0 4.851 4.851zm24.67 0h-24.67v.995h24.67zm3.857-3.856a3.856 3.856 0 0 1-3.857 3.856v.995a4.85 4.85 0 0 0 4.851-4.851zm0-24.671v24.671h.994v-24.671zm-3.857-3.856a3.857 3.857 0 0 1 3.857 3.856h.994a4.85 4.85 0 0 0-4.851-4.85zm-24.67 0h24.67v-.994h-24.67zm382.454 93.444a4.85 4.85 0 0 0 4.851-4.851h-.994a3.857 3.857 0 0 1-3.857 3.856zm-24.67 0h24.67v-.995h-24.67zm-4.851-4.851a4.85 4.85 0 0 0 4.851 4.851v-.995a3.857 3.857 0 0 1-3.857-3.856zm0-24.671v24.671h.994v-24.671zm4.851-4.851a4.85 4.85 0 0 0-4.851 4.851h.994a3.856 3.856 0 0 1 3.857-3.856zm24.67 0h-24.67v.995h24.67zm4.851 4.851a4.85 4.85 0 0 0-4.851-4.851v.995a3.856 3.856 0 0 1 3.857 3.856zm0 24.671v-24.671h-.994v24.671zm.43-203.736a4.85 4.85 0 0 0-4.851-4.851v.994a3.857 3.857 0 0 1 3.856 3.857zm0 24.67v-24.67h-.995v24.67zm-4.851 4.851a4.85 4.85 0 0 0 4.851-4.851h-.995a3.856 3.856 0 0 1-3.856 3.856zm-24.671 0h24.671v-.995h-24.671zm-4.851-4.851a4.85 4.85 0 0 0 4.851 4.851v-.995a3.856 3.856 0 0 1-3.856-3.856zm0-24.67v24.67h.995v-24.67zm4.851-4.851a4.85 4.85 0 0 0-4.851 4.851h.995a3.856 3.856 0 0 1 3.856-3.857zm24.671 0h-24.671v.994h24.671zM411.85 634.995a4.85 4.85 0 0 0-4.851 4.851h.994a3.857 3.857 0 0 1 3.857-3.857zm24.67 0h-24.67v.994h24.67zm4.851 4.851a4.85 4.85 0 0 0-4.851-4.851v.994a3.856 3.856 0 0 1 3.856 3.857zm0 24.67v-24.67h-.995v24.67zm-4.851 4.851a4.85 4.85 0 0 0 4.851-4.851h-.995a3.856 3.856 0 0 1-3.856 3.857zm-24.67 0h24.67v-.994h-24.67zm-4.851-4.851a4.85 4.85 0 0 0 4.851 4.851v-.994a3.857 3.857 0 0 1-3.857-3.857zm0-24.67v24.67h.994v-24.67zm331.874 59.503a4.85 4.85 0 0 0-4.851-4.85v.994a3.856 3.856 0 0 1 3.856 3.856zm0 24.671v-24.671h-.995v24.671zm-4.851 4.851a4.85 4.85 0 0 0 4.851-4.851h-.995a3.856 3.856 0 0 1-3.856 3.856zm-24.67 0h24.67v-.995h-24.67zm-4.851-4.851a4.85 4.85 0 0 0 4.851 4.851v-.995a3.856 3.856 0 0 1-3.857-3.856zm0-24.671v24.671h.994v-24.671zm4.851-4.85a4.85 4.85 0 0 0-4.851 4.85h.994a3.857 3.857 0 0 1 3.857-3.856zm24.67 0h-24.67v.994h24.67zM233.35 787.942a3.857 3.857 0 0 1-3.857-3.856h-.994a4.85 4.85 0 0 0 4.851 4.851zm24.67 0h-24.67v.995h24.67zm3.857-3.856a3.857 3.857 0 0 1-3.857 3.856v.995a4.85 4.85 0 0 0 4.851-4.851zm0-24.671v24.671h.994v-24.671zm-3.857-3.856a3.856 3.856 0 0 1 3.857 3.856h.994a4.85 4.85 0 0 0-4.851-4.851zm-24.67 0h24.67v-.995h-24.67zm-3.857 3.856a3.856 3.856 0 0 1 3.857-3.856v-.995a4.85 4.85 0 0 0-4.851 4.851zm0 24.671v-24.671h-.994v24.671zm236.546 0a4.85 4.85 0 0 0 4.851 4.851v-.995a3.857 3.857 0 0 1-3.857-3.856zm0-24.671v24.671h.994v-24.671zm4.851-4.851a4.85 4.85 0 0 0-4.851 4.851h.994a3.856 3.856 0 0 1 3.857-3.856zm24.67 0h-24.67v.995h24.67zm4.851 4.851a4.85 4.85 0 0 0-4.851-4.851v.995a3.856 3.856 0 0 1 3.856 3.856zm0 24.671v-24.671h-.995v24.671zm-4.851 4.851a4.85 4.85 0 0 0 4.851-4.851h-.995a3.856 3.856 0 0 1-3.856 3.856zm-24.67 0h24.67v-.995h-24.67zm-119.326-.995a3.857 3.857 0 0 1-3.857-3.856h-.994a4.85 4.85 0 0 0 4.851 4.851zm24.67 0h-24.67v.995h24.67zm3.857-3.856a3.857 3.857 0 0 1-3.857 3.856v.995a4.85 4.85 0 0 0 4.851-4.851zm0-24.671v24.671h.994v-24.671zm-3.857-3.856a3.856 3.856 0 0 1 3.857 3.856h.994a4.85 4.85 0 0 0-4.851-4.851zm-24.67 0h24.67v-.995h-24.67zm-3.857 3.856a3.856 3.856 0 0 1 3.857-3.856v-.995a4.85 4.85 0 0 0-4.851 4.851zm0 24.671v-24.671h-.994v24.671zm236.546 0a4.85 4.85 0 0 0 4.851 4.851v-.995a3.857 3.857 0 0 1-3.857-3.856zm0-24.671v24.671h.994v-24.671zm4.851-4.851a4.85 4.85 0 0 0-4.851 4.851h.994a3.856 3.856 0 0 1 3.857-3.856zm24.67 0h-24.67v.995h24.67zm4.851 4.851a4.85 4.85 0 0 0-4.851-4.851v.995a3.856 3.856 0 0 1 3.856 3.856zm0 24.671v-24.671h-.995v24.671zm-4.851 4.851a4.85 4.85 0 0 0 4.851-4.851h-.995a3.856 3.856 0 0 1-3.856 3.856zm-24.67 0h24.67v-.995h-24.67zm492.746-452.196a4.85 4.85 0 0 0-4.85 4.851h1a3.85 3.85 0 0 1 3.85-3.856zm24.67 0h-24.67v.995h24.67zm4.86 4.851a4.86 4.86 0 0 0-4.86-4.851v.995c2.13 0 3.86 1.726 3.86 3.856zm0 24.67v-24.67h-1v24.67zm-4.86 4.851c2.68 0 4.86-2.171 4.86-4.851h-1a3.86 3.86 0 0 1-3.86 3.857zm-24.67 0h24.67v-.994h-24.67zm-4.85-4.851c0 2.68 2.17 4.851 4.85 4.851v-.994a3.85 3.85 0 0 1-3.85-3.857zm0-24.67v24.67h1v-24.67zm119.99 0c0-2.13 1.73-3.856 3.86-3.856v-.995a4.85 4.85 0 0 0-4.85 4.851zm0 24.67v-24.67h-.99v24.67zm3.86 3.857a3.86 3.86 0 0 1-3.86-3.857h-.99c0 2.68 2.17 4.851 4.85 4.851zm24.67 0h-24.67v.994h24.67zm3.86-3.857a3.86 3.86 0 0 1-3.86 3.857v.994c2.68 0 4.85-2.171 4.85-4.851zm0-24.67v24.67h.99v-24.67zm-3.86-3.856c2.13 0 3.86 1.726 3.86 3.856h.99a4.85 4.85 0 0 0-4.85-4.851zm-24.67 0h24.67v-.995h-24.67zm-35.38 238.757c2.13 0 3.85 1.727 3.85 3.857h1a4.85 4.85 0 0 0-4.85-4.851zm-24.67 0h24.67v-.994h-24.67zm-3.86 3.857a3.86 3.86 0 0 1 3.86-3.857v-.994a4.85 4.85 0 0 0-4.85 4.851zm0 24.67v-24.67h-.99v24.67zm3.86 3.857a3.86 3.86 0 0 1-3.86-3.857h-.99a4.85 4.85 0 0 0 4.85 4.851zm24.67 0h-24.67v.994h24.67zm3.85-3.857c0 2.13-1.72 3.857-3.85 3.857v.994a4.85 4.85 0 0 0 4.85-4.851zm0-24.67v24.67h1v-24.67zm-57.94 0a4.856 4.856 0 0 0-4.85-4.851v.994c2.13 0 3.85 1.727 3.85 3.857zm0 24.67v-24.67h-1v24.67zm-4.85 4.851c2.67 0 4.85-2.172 4.85-4.851h-1c0 2.13-1.72 3.857-3.85 3.857zm-24.68 0h24.68v-.994h-24.68zm-4.85-4.851a4.856 4.856 0 0 0 4.85 4.851v-.994a3.85 3.85 0 0 1-3.85-3.857zm0-24.67v24.67h1v-24.67zm4.85-4.851a4.856 4.856 0 0 0-4.85 4.851h1c0-2.13 1.72-3.857 3.85-3.857zm24.68 0h-24.68v.994h24.68zm94.32-178.5a4.85 4.85 0 0 0-4.85 4.851h.99a3.86 3.86 0 0 1 3.86-3.857zm24.67 0h-24.67v.994h24.67zm4.85 4.851a4.85 4.85 0 0 0-4.85-4.851v.994a3.86 3.86 0 0 1 3.86 3.857zm0 24.67v-24.67h-.99v24.67zm-4.85 4.851a4.85 4.85 0 0 0 4.85-4.851h-.99a3.86 3.86 0 0 1-3.86 3.857zm-24.67 0h24.67v-.994h-24.67zm-4.85-4.851a4.85 4.85 0 0 0 4.85 4.851v-.994a3.86 3.86 0 0 1-3.86-3.857zm0-24.67v24.67h.99v-24.67zm.99-118.231c0-2.13 1.73-3.856 3.86-3.856v-.995a4.85 4.85 0 0 0-4.85 4.851zm0 24.671v-24.671h-.99v24.671zm3.86 3.856a3.86 3.86 0 0 1-3.86-3.856h-.99a4.85 4.85 0 0 0 4.85 4.851zm24.67 0h-24.67v.995h24.67zm3.86-3.856c0 2.13-1.73 3.856-3.86 3.856v.995a4.85 4.85 0 0 0 4.85-4.851zm0-24.671v24.671h.99v-24.671zm-3.86-3.856c2.13 0 3.86 1.726 3.86 3.856h.99a4.85 4.85 0 0 0-4.85-4.851zm-24.67 0h24.67v-.995h-24.67zm-237.992 236.24a4.85 4.85 0 0 0-4.851 4.851h.994a3.857 3.857 0 0 1 3.857-3.857zm24.67 0h-24.67v.994h24.67zm4.851 4.851a4.85 4.85 0 0 0-4.851-4.851v.994a3.856 3.856 0 0 1 3.856 3.857zm0 24.67v-24.67h-.995v24.67zm-4.851 4.851a4.85 4.85 0 0 0 4.851-4.851h-.995a3.856 3.856 0 0 1-3.856 3.856zm-24.67 0h24.67v-.995h-24.67zm-4.851-4.851a4.85 4.85 0 0 0 4.851 4.851v-.995a3.856 3.856 0 0 1-3.857-3.856zm0-24.67v24.67h.994v-24.67zm119.883-118.758c0-2.13 1.72-3.857 3.85-3.857v-.994a4.856 4.856 0 0 0-4.85 4.851zm0 24.67v-24.67h-1v24.67zm3.85 3.857a3.85 3.85 0 0 1-3.85-3.857h-1a4.856 4.856 0 0 0 4.85 4.851zm24.67 0h-24.67v.994h24.67zm3.86-3.857a3.86 3.86 0 0 1-3.86 3.857v.994c2.68 0 4.86-2.172 4.86-4.851zm0-24.67v24.67h1v-24.67zm-3.86-3.857a3.86 3.86 0 0 1 3.86 3.857h1a4.86 4.86 0 0 0-4.86-4.851zm-24.67 0h24.67v-.994h-24.67zm0-119.225a4.856 4.856 0 0 0-4.85 4.851h1a3.85 3.85 0 0 1 3.85-3.856zm24.67 0h-24.67v.995h24.67zm4.86 4.851a4.86 4.86 0 0 0-4.86-4.851v.995a3.86 3.86 0 0 1 3.86 3.856zm0 24.671v-24.671h-1v24.671zm-4.86 4.851c2.68 0 4.86-2.172 4.86-4.851h-1c0 2.13-1.73 3.856-3.86 3.856zm-24.67 0h24.67v-.995h-24.67zm-4.85-4.851a4.856 4.856 0 0 0 4.85 4.851v-.995a3.85 3.85 0 0 1-3.85-3.856zm0-24.671v24.671h1v-24.671zM899.497 520.854a3.857 3.857 0 0 1 3.857-3.857v-.994a4.85 4.85 0 0 0-4.851 4.851zm0 24.67v-24.67h-.994v24.67zm3.857 3.856a3.856 3.856 0 0 1-3.857-3.856h-.994a4.85 4.85 0 0 0 4.851 4.851zm24.67 0h-24.67v.995h24.67zm3.856-3.856a3.856 3.856 0 0 1-3.856 3.856v.995a4.85 4.85 0 0 0 4.851-4.851zm0-24.67v24.67h.995v-24.67zm-3.856-3.857a3.856 3.856 0 0 1 3.856 3.857h.995a4.85 4.85 0 0 0-4.851-4.851zm-24.67 0h24.67v-.994h-24.67zm178.496 117.998a4.85 4.85 0 0 0-4.85 4.851h1a3.85 3.85 0 0 1 3.85-3.856zm24.67 0h-24.67v.995h24.67zm4.86 4.851a4.86 4.86 0 0 0-4.86-4.851v.995c2.13 0 3.86 1.726 3.86 3.856zm0 24.67v-24.67h-1v24.67zm-4.86 4.851c2.68 0 4.86-2.172 4.86-4.851h-1a3.86 3.86 0 0 1-3.86 3.857zm-24.67 0h24.67v-.994h-24.67zm-4.85-4.851a4.85 4.85 0 0 0 4.85 4.851v-.994a3.85 3.85 0 0 1-3.85-3.857zm0-24.67v24.67h1v-24.67zM899.497 401.85a3.857 3.857 0 0 1 3.857-3.857v-.994a4.85 4.85 0 0 0-4.851 4.851zm0 24.67v-24.67h-.994v24.67zm3.857 3.857a3.857 3.857 0 0 1-3.857-3.857h-.994a4.85 4.85 0 0 0 4.851 4.851zm24.67 0h-24.67v.994h24.67zm3.856-3.857a3.856 3.856 0 0 1-3.856 3.857v.994a4.85 4.85 0 0 0 4.851-4.851zm0-24.67v24.67h.995v-24.67zm-3.856-3.857a3.856 3.856 0 0 1 3.856 3.857h.995a4.85 4.85 0 0 0-4.851-4.851zm-24.67 0h24.67v-.994h-24.67zm0-119.99a4.85 4.85 0 0 0-4.851 4.851h.994a3.857 3.857 0 0 1 3.857-3.857zm24.67 0h-24.67v.994h24.67zm4.851 4.851a4.85 4.85 0 0 0-4.851-4.851v.994a3.856 3.856 0 0 1 3.856 3.857zm0 24.67v-24.67h-.995v24.67zm-4.851 4.851a4.85 4.85 0 0 0 4.851-4.851h-.995a3.856 3.856 0 0 1-3.856 3.856zm-24.67 0h24.67v-.995h-24.67zm-4.851-4.851a4.85 4.85 0 0 0 4.851 4.851v-.995a3.856 3.856 0 0 1-3.857-3.856zm0-24.67v24.67h.994v-24.67zm119.987 0a3.86 3.86 0 0 1 3.86-3.857v-.994a4.85 4.85 0 0 0-4.85 4.851zm0 24.67v-24.67h-.99v24.67zm3.86 3.856a3.86 3.86 0 0 1-3.86-3.856h-.99a4.85 4.85 0 0 0 4.85 4.851zm24.67 0h-24.67v.995h24.67zm3.86-3.856c0 2.13-1.73 3.856-3.86 3.856v.995a4.85 4.85 0 0 0 4.85-4.851zm0-24.67v24.67h.99v-24.67zm-3.86-3.857a3.86 3.86 0 0 1 3.86 3.857h.99a4.85 4.85 0 0 0-4.85-4.851zm-24.67 0h24.67v-.994h-24.67zm-59.934-.994a4.85 4.85 0 0 0-4.851 4.851h.995a3.856 3.856 0 0 1 3.856-3.857zm24.671 0h-24.671v.994h24.671zm4.851 4.851a4.85 4.85 0 0 0-4.851-4.851v.994a3.857 3.857 0 0 1 3.856 3.857zm0 24.67v-24.67h-.995v24.67zm-4.851 4.851a4.85 4.85 0 0 0 4.851-4.851h-.995a3.856 3.856 0 0 1-3.856 3.856zm-24.671 0h24.671v-.995h-24.671zm-4.851-4.851a4.85 4.85 0 0 0 4.851 4.851v-.995a3.856 3.856 0 0 1-3.856-3.856zm0-24.67v24.67h.995v-24.67zM932.876 580.35a4.85 4.85 0 0 0-4.851-4.851v.994a3.857 3.857 0 0 1 3.857 3.857zm0 24.67v-24.67h-.994v24.67zm-4.851 4.851a4.85 4.85 0 0 0 4.851-4.851h-.994a3.857 3.857 0 0 1-3.857 3.857zm-24.67 0h24.67v-.994h-24.67zm-4.851-4.851a4.85 4.85 0 0 0 4.851 4.851v-.994a3.857 3.857 0 0 1-3.857-3.857zm0-24.67v24.67h.994v-24.67zm4.851-4.851a4.85 4.85 0 0 0-4.851 4.851h.994a3.857 3.857 0 0 1 3.857-3.857zm24.67 0h-24.67v.994h24.67zm59.055.994a3.856 3.856 0 0 1 3.856 3.857h.995a4.85 4.85 0 0 0-4.851-4.851zm-24.671 0h24.671v-.994h-24.671zm-3.856 3.857a3.857 3.857 0 0 1 3.856-3.857v-.994a4.85 4.85 0 0 0-4.851 4.851zm0 24.67v-24.67h-.995v24.67zm3.856 3.857a3.857 3.857 0 0 1-3.856-3.857h-.995a4.85 4.85 0 0 0 4.851 4.851zm24.671 0h-24.671v.994h24.671zm3.856-3.857a3.856 3.856 0 0 1-3.856 3.857v.994a4.85 4.85 0 0 0 4.851-4.851zm0-24.67v24.67h.995v-24.67zm-58.06 59.496a4.85 4.85 0 0 0-4.851-4.851v.995a3.856 3.856 0 0 1 3.857 3.856zm0 24.67v-24.67h-.994v24.67zm-4.851 4.851a4.85 4.85 0 0 0 4.851-4.851h-.994a3.857 3.857 0 0 1-3.857 3.857zm-24.67 0h24.67v-.994h-24.67zm-4.851-4.851a4.85 4.85 0 0 0 4.851 4.851v-.994a3.857 3.857 0 0 1-3.857-3.857zm0-24.67v24.67h.994v-24.67zm4.851-4.851a4.85 4.85 0 0 0-4.851 4.851h.994a3.856 3.856 0 0 1 3.857-3.856zm24.67 0h-24.67v.995h24.67zm59.055.995a3.856 3.856 0 0 1 3.856 3.856h.995a4.85 4.85 0 0 0-4.851-4.851zm-24.671 0h24.671v-.995h-24.671zm-3.856 3.856a3.856 3.856 0 0 1 3.856-3.856v-.995a4.85 4.85 0 0 0-4.851 4.851zm0 24.67v-24.67h-.995v24.67zm3.856 3.857a3.857 3.857 0 0 1-3.856-3.857h-.995a4.85 4.85 0 0 0 4.851 4.851zm24.671 0h-24.671v.994h24.671zm3.856-3.857a3.856 3.856 0 0 1-3.856 3.857v.994a4.85 4.85 0 0 0 4.851-4.851zm0-24.67v24.67h.995v-24.67zm86.834-178.492c0-2.13 1.72-3.857 3.85-3.857v-.994a4.85 4.85 0 0 0-4.85 4.851zm0 24.67v-24.67h-1v24.67zm3.85 3.856a3.85 3.85 0 0 1-3.85-3.856h-1a4.85 4.85 0 0 0 4.85 4.851zm24.67 0h-24.67v.995h24.67zm3.86-3.856c0 2.13-1.73 3.856-3.86 3.856v.995a4.85 4.85 0 0 0 4.85-4.851zm0-24.67v24.67h.99v-24.67zm-3.86-3.857a3.86 3.86 0 0 1 3.86 3.857h.99a4.85 4.85 0 0 0-4.85-4.851zm-24.67 0h24.67v-.994h-24.67zm-59.27 177.498a4.85 4.85 0 0 0-4.85 4.851h.99c0-2.13 1.73-3.856 3.86-3.856zm24.67 0h-24.67v.995h24.67zm4.85 4.851a4.85 4.85 0 0 0-4.85-4.851v.995c2.13 0 3.86 1.726 3.86 3.856zm0 24.67v-24.67h-.99v24.67zm-4.85 4.851a4.85 4.85 0 0 0 4.85-4.851h-.99a3.86 3.86 0 0 1-3.86 3.857zm-24.67 0h24.67v-.994h-24.67zm-4.85-4.851a4.85 4.85 0 0 0 4.85 4.851v-.994a3.86 3.86 0 0 1-3.86-3.857zm0-24.67v24.67h.99v-24.67zm119.21-237.996c0-2.13 1.72-3.857 3.85-3.857v-.994a4.856 4.856 0 0 0-4.85 4.851zm0 24.67v-24.67h-1v24.67zm3.85 3.857a3.85 3.85 0 0 1-3.85-3.857h-1a4.856 4.856 0 0 0 4.85 4.851zm24.68 0h-24.68v.994h24.68zm3.85-3.857c0 2.13-1.73 3.857-3.85 3.857v.994c2.67 0 4.85-2.172 4.85-4.851zm0-24.67v24.67h1v-24.67zm-3.85-3.857c2.12 0 3.85 1.727 3.85 3.857h1a4.856 4.856 0 0 0-4.85-4.851zm-24.68 0h24.68v-.994h-24.68zm0-119.225a4.856 4.856 0 0 0-4.85 4.851h1a3.85 3.85 0 0 1 3.85-3.856zm24.68 0h-24.68v.995h24.68zm4.85 4.851a4.856 4.856 0 0 0-4.85-4.851v.995c2.12 0 3.85 1.726 3.85 3.856zm0 24.671v-24.671h-1v24.671zm-4.85 4.851c2.67 0 4.85-2.172 4.85-4.851h-1c0 2.13-1.73 3.856-3.85 3.856zm-24.68 0h24.68v-.995h-24.68zm-4.85-4.851a4.856 4.856 0 0 0 4.85 4.851v-.995a3.85 3.85 0 0 1-3.85-3.856zm0-24.671v24.671h1v-24.671zm94.88 296.731a4.85 4.85 0 0 0-4.85-4.851v.994a3.86 3.86 0 0 1 3.86 3.857zm0 24.67v-24.67h-.99v24.67zm-4.85 4.851a4.85 4.85 0 0 0 4.85-4.851h-.99a3.86 3.86 0 0 1-3.86 3.857zm-24.67 0h24.67v-.994h-24.67zm-4.85-4.851a4.85 4.85 0 0 0 4.85 4.851v-.994a3.86 3.86 0 0 1-3.86-3.857zm0-24.67v24.67h.99v-24.67zm4.85-4.851a4.85 4.85 0 0 0-4.85 4.851h.99a3.86 3.86 0 0 1 3.86-3.857zm24.67 0h-24.67v.994h24.67zm-202.82-59.496a4.85 4.85 0 0 0-4.85 4.851h.99a3.86 3.86 0 0 1 3.86-3.857zm24.67 0h-24.67v.994h24.67zm4.85 4.851a4.85 4.85 0 0 0-4.85-4.851v.994a3.86 3.86 0 0 1 3.86 3.857zm0 24.67v-24.67h-.99v24.67zm-4.85 4.851a4.85 4.85 0 0 0 4.85-4.851h-.99c0 2.13-1.73 3.856-3.86 3.856zm-24.67 0h24.67v-.995h-24.67zm-4.85-4.851a4.85 4.85 0 0 0 4.85 4.851v-.995a3.86 3.86 0 0 1-3.86-3.856zm0-24.67v24.67h.99v-24.67zm178.92 118.992c0-2.13 1.73-3.856 3.86-3.856v-.995a4.85 4.85 0 0 0-4.85 4.851zm0 24.67v-24.67h-.99v24.67zm3.86 3.857a3.86 3.86 0 0 1-3.86-3.857h-.99a4.85 4.85 0 0 0 4.85 4.851zm24.67 0h-24.67v.994h24.67zm3.86-3.857a3.86 3.86 0 0 1-3.86 3.857v.994a4.85 4.85 0 0 0 4.85-4.851zm0-24.67v24.67h.99v-24.67zm-3.86-3.856c2.13 0 3.86 1.726 3.86 3.856h.99a4.85 4.85 0 0 0-4.85-4.851zm-24.67 0h24.67v-.995h-24.67z" fill="#fff" fill-opacity=".1"/><g filter="url(#d)"><path d="M489 294.5h-64m-200 0h-64m66-119h-64m-69 239H30m592-212.746-65 65m-199-65-65 65M259 202v64.754M392 202v64.754M392 83.5v58.754M664.377 83.5v58.754M936.75 83.5v58.754M804.375 83.5v58.754M259.377 83.5v58.754M664.375 202v55.125m0 74v55.504M94 201.754l-65 65M94 507.5l-65-65m132 65 65-65m-197-120 65 65m808-66-65 65m200-65-65 65m141-65 65 65m-341 56 65 65m337-65 65 65M94 145.5l-65-65m592 214h-64m-200 0h-64m-200 0H29m742 0h-64m196 0h-64m196 0h-64m196 0h-64m196 0h-64" stroke="#F22" stroke-width="2.037"/><rect x="637" y="266.5" width="54" height="54" rx="4.899" fill="#F22"/><path d="M684.483 282.685h.356v.952h.262v-.952h.366v-.227h-.984zm2.138-.224-.363.576-.359-.576h-.233v1.179h.251v-.738l.28.435h.113l.285-.436v.739h.251v-1.179zm-25.167.226-4.263 4.263a.8.8 0 0 0-.231.556v.855a.393.393 0 0 1-.393.394h-11.811a.394.394 0 0 0-.393.394v5.511c0 .218.176.394.393.394h13.453a.8.8 0 0 0 .557-.231l4.262-4.262a.8.8 0 0 0 .231-.557v-.855c0-.217.176-.394.394-.394h18.109a.394.394 0 0 0 .394-.394v-5.511a.395.395 0 0 0-.394-.394H662.01a.8.8 0 0 0-.556.231" fill="#000" fill-opacity=".5"/><path d="m667.751 292.138-4.26 4.26a.8.8 0 0 0-.233.559v.854a.393.393 0 0 1-.393.393h-18.109a.394.394 0 0 0-.393.394v5.512c0 .217.176.393.393.393h19.752a.78.78 0 0 0 .556-.23l4.263-4.263a.8.8 0 0 0 .231-.557v-.855c0-.217.176-.394.394-.394h11.81a.394.394 0 0 0 .394-.393v-5.512a.394.394 0 0 0-.394-.393h-13.451a.8.8 0 0 0-.559.232z" fill="#000" fill-opacity=".5"/><rect x="505" y="276.5" width="36" height="36" rx="3.273" fill="#F22"/><path d="M536.715 287.294h.237v.636h.175v-.636h.245v-.152h-.657zm1.429-.149-.243.384-.239-.384h-.157v.787h.168v-.493l.187.291h.076l.19-.292v.494h.168v-.787zm-16.813.149-2.848 2.848a.53.53 0 0 0-.154.372v.571a.263.263 0 0 1-.263.263h-7.889a.263.263 0 0 0-.263.263v3.682c0 .145.117.263.263.263h8.986c.14 0 .274-.055.372-.154l2.848-2.848a.52.52 0 0 0 .154-.372v-.571c0-.145.118-.263.263-.263h12.097a.263.263 0 0 0 .263-.263v-3.682a.263.263 0 0 0-.263-.263h-13.194a.53.53 0 0 0-.372.154" fill="#000" fill-opacity=".5"/><path d="m525.538 293.608-2.846 2.846a.53.53 0 0 0-.156.373v.571a.263.263 0 0 1-.263.263h-12.096a.26.26 0 0 0-.263.263v3.681c0 .145.117.263.263.263h13.194c.14 0 .274-.055.372-.154l2.848-2.847a.53.53 0 0 0 .154-.372v-.571c0-.146.118-.263.263-.263h7.889a.263.263 0 0 0 .263-.263v-3.682a.263.263 0 0 0-.263-.263h-8.985a.53.53 0 0 0-.374.155" fill="#000" fill-opacity=".5"/><rect x="241" y="276.5" width="36" height="36" rx="3.273" fill="#F22"/><path d="M272.715 287.294h.237v.636h.175v-.636h.245v-.152h-.657zm1.429-.149-.243.384-.239-.384h-.157v.787h.168v-.493l.187.291h.076l.19-.292v.494h.168v-.787zm-16.813.149-2.848 2.848a.53.53 0 0 0-.154.372v.571a.263.263 0 0 1-.263.263h-7.889a.263.263 0 0 0-.263.263v3.682c0 .145.117.263.263.263h8.986c.14 0 .274-.055.372-.154l2.848-2.848a.52.52 0 0 0 .154-.372v-.571c0-.145.118-.263.263-.263h12.097a.263.263 0 0 0 .263-.263v-3.682a.263.263 0 0 0-.263-.263h-13.194a.53.53 0 0 0-.372.154" fill="#000" fill-opacity=".5"/><path d="m261.538 293.608-2.846 2.846a.53.53 0 0 0-.156.373v.571a.263.263 0 0 1-.263.263h-12.096a.26.26 0 0 0-.263.263v3.681c0 .145.117.263.263.263h13.194c.14 0 .274-.055.372-.154l2.848-2.847a.53.53 0 0 0 .154-.372v-.571c0-.146.118-.263.263-.263h7.889a.263.263 0 0 0 .263-.263v-3.682a.263.263 0 0 0-.263-.263h-8.985a.53.53 0 0 0-.374.155" fill="#000" fill-opacity=".5"/><rect x="109" y="396.5" width="36" height="36" rx="3.273" fill="#F22"/><path d="M140.715 407.294h.237v.636h.175v-.636h.245v-.152h-.657zm1.429-.149-.243.384-.239-.384h-.157v.787h.168v-.493l.187.291h.076l.19-.292v.494h.168v-.787zm-16.813.149-2.848 2.848a.53.53 0 0 0-.154.372v.571a.263.263 0 0 1-.263.263h-7.889a.263.263 0 0 0-.263.263v3.682c0 .145.117.263.263.263h8.986c.14 0 .274-.055.372-.154l2.848-2.848a.52.52 0 0 0 .154-.372v-.571c0-.145.118-.263.263-.263h12.097a.263.263 0 0 0 .263-.263v-3.682a.263.263 0 0 0-.263-.263h-13.194a.53.53 0 0 0-.372.154" fill="#000" fill-opacity=".5"/><path d="m129.538 413.608-2.846 2.846a.53.53 0 0 0-.156.373v.571a.263.263 0 0 1-.263.263h-12.096a.26.26 0 0 0-.263.263v3.681c0 .145.117.263.263.263h13.194c.14 0 .274-.055.372-.154l2.848-2.847a.53.53 0 0 0 .154-.372v-.571c0-.146.118-.263.263-.263h7.889a.263.263 0 0 0 .263-.263v-3.682a.263.263 0 0 0-.263-.263h-8.985a.53.53 0 0 0-.374.155" fill="#000" fill-opacity=".5"/><rect x="241" y="396.5" width="36" height="36" rx="3.273" fill="#F22"/><path d="M272.715 407.294h.237v.636h.175v-.636h.245v-.152h-.657zm1.429-.149-.243.384-.239-.384h-.157v.787h.168v-.493l.187.291h.076l.19-.292v.494h.168v-.787zm-16.813.149-2.848 2.848a.53.53 0 0 0-.154.372v.571a.263.263 0 0 1-.263.263h-7.889a.263.263 0 0 0-.263.263v3.682c0 .145.117.263.263.263h8.986c.14 0 .274-.055.372-.154l2.848-2.848a.52.52 0 0 0 .154-.372v-.571c0-.145.118-.263.263-.263h12.097a.263.263 0 0 0 .263-.263v-3.682a.263.263 0 0 0-.263-.263h-13.194a.53.53 0 0 0-.372.154" fill="#000" fill-opacity=".5"/><path d="m261.538 413.608-2.846 2.846a.53.53 0 0 0-.156.373v.571a.263.263 0 0 1-.263.263h-12.096a.26.26 0 0 0-.263.263v3.681c0 .145.117.263.263.263h13.194c.14 0 .274-.055.372-.154l2.848-2.847a.53.53 0 0 0 .154-.372v-.571c0-.146.118-.263.263-.263h7.889a.263.263 0 0 0 .263-.263v-3.682a.263.263 0 0 0-.263-.263h-8.985a.53.53 0 0 0-.374.155" fill="#000" fill-opacity=".5"/><rect x="374" y="396.5" width="36" height="36" rx="3.273" fill="#F22"/><path d="M405.715 407.294h.237v.636h.175v-.636h.245v-.152h-.657zm1.429-.149-.243.384-.239-.384h-.157v.787h.168v-.493l.187.291h.076l.19-.292v.494h.168v-.787zm-16.813.149-2.848 2.848a.53.53 0 0 0-.154.372v.571a.263.263 0 0 1-.263.263h-7.889a.263.263 0 0 0-.263.263v3.682c0 .145.117.263.263.263h8.986c.14 0 .274-.055.372-.154l2.848-2.848a.52.52 0 0 0 .154-.372v-.571c0-.145.118-.263.263-.263h12.097a.263.263 0 0 0 .263-.263v-3.682a.263.263 0 0 0-.263-.263h-13.194a.53.53 0 0 0-.372.154" fill="#000" fill-opacity=".5"/><path d="m394.538 413.608-2.846 2.846a.53.53 0 0 0-.156.373v.571a.263.263 0 0 1-.263.263h-12.096a.26.26 0 0 0-.263.263v3.681c0 .145.117.263.263.263h13.194c.14 0 .274-.055.372-.154l2.848-2.847a.53.53 0 0 0 .154-.372v-.571c0-.146.118-.263.263-.263h7.889a.263.263 0 0 0 .263-.263v-3.682a.263.263 0 0 0-.263-.263h-8.985a.53.53 0 0 0-.374.155" fill="#000" fill-opacity=".5"/><rect x="109" y="276.5" width="36" height="36" rx="3.273" fill="#F22"/><path d="M140.715 287.294h.237v.636h.175v-.636h.245v-.152h-.657zm1.429-.149-.243.384-.239-.384h-.157v.787h.168v-.493l.187.291h.076l.19-.292v.494h.168v-.787zm-16.813.149-2.848 2.848a.53.53 0 0 0-.154.372v.571a.263.263 0 0 1-.263.263h-7.889a.263.263 0 0 0-.263.263v3.682c0 .145.117.263.263.263h8.986c.14 0 .274-.055.372-.154l2.848-2.848a.52.52 0 0 0 .154-.372v-.571c0-.145.118-.263.263-.263h12.097a.263.263 0 0 0 .263-.263v-3.682a.263.263 0 0 0-.263-.263h-13.194a.53.53 0 0 0-.372.154" fill="#000" fill-opacity=".5"/><path d="m129.538 293.608-2.846 2.846a.53.53 0 0 0-.156.373v.571a.263.263 0 0 1-.263.263h-12.096a.26.26 0 0 0-.263.263v3.681c0 .145.117.263.263.263h13.194c.14 0 .274-.055.372-.154l2.848-2.847a.53.53 0 0 0 .154-.372v-.571c0-.146.118-.263.263-.263h7.889a.263.263 0 0 0 .263-.263v-3.682a.263.263 0 0 0-.263-.263h-8.985a.53.53 0 0 0-.374.155" fill="#000" fill-opacity=".5"/><rect x="109" y="156.5" width="36" height="36" rx="3.273" fill="#F22"/><path d="M140.715 167.294h.237v.636h.175v-.636h.245v-.152h-.657zm1.429-.149-.243.384-.239-.384h-.157v.787h.168v-.493l.187.291h.076l.19-.292v.494h.168v-.787zm-16.813.149-2.848 2.848a.53.53 0 0 0-.154.372v.571a.263.263 0 0 1-.263.263h-7.889a.263.263 0 0 0-.263.263v3.682c0 .145.117.263.263.263h8.986c.14 0 .274-.055.372-.154l2.848-2.848a.52.52 0 0 0 .154-.372v-.571c0-.145.118-.263.263-.263h12.097a.263.263 0 0 0 .263-.263v-3.682a.263.263 0 0 0-.263-.263h-13.194a.53.53 0 0 0-.372.154" fill="#000" fill-opacity=".5"/><path d="m129.538 173.608-2.846 2.846a.53.53 0 0 0-.156.373v.571a.263.263 0 0 1-.263.263h-12.096a.26.26 0 0 0-.263.263v3.681c0 .146.117.263.263.263h13.194c.14 0 .274-.055.372-.154l2.848-2.847a.53.53 0 0 0 .154-.372v-.571c0-.146.118-.263.263-.263h7.889a.263.263 0 0 0 .263-.263v-3.682a.263.263 0 0 0-.263-.263h-8.985a.53.53 0 0 0-.374.155" fill="#000" fill-opacity=".5"/><rect x="374" y="276.5" width="36" height="36" rx="3.273" fill="#F22"/><path d="M405.715 287.294h.237v.636h.175v-.636h.245v-.152h-.657zm1.429-.149-.243.384-.239-.384h-.157v.787h.168v-.493l.187.291h.076l.19-.292v.494h.168v-.787zm-16.813.149-2.848 2.848a.53.53 0 0 0-.154.372v.571a.263.263 0 0 1-.263.263h-7.889a.263.263 0 0 0-.263.263v3.682c0 .145.117.263.263.263h8.986c.14 0 .274-.055.372-.154l2.848-2.848a.52.52 0 0 0 .154-.372v-.571c0-.145.118-.263.263-.263h12.097a.263.263 0 0 0 .263-.263v-3.682a.263.263 0 0 0-.263-.263h-13.194a.53.53 0 0 0-.372.154" fill="#000" fill-opacity=".5"/><path d="m394.538 293.608-2.846 2.846a.53.53 0 0 0-.156.373v.571a.263.263 0 0 1-.263.263h-12.096a.26.26 0 0 0-.263.263v3.681c0 .145.117.263.263.263h13.194c.14 0 .274-.055.372-.154l2.848-2.847a.53.53 0 0 0 .154-.372v-.571c0-.146.118-.263.263-.263h7.889a.263.263 0 0 0 .263-.263v-3.682a.263.263 0 0 0-.263-.263h-8.985a.53.53 0 0 0-.374.155" fill="#000" fill-opacity=".5"/><rect x="374" y="156.5" width="36" height="36" rx="3.273" fill="#F22"/><path d="M405.715 167.294h.237v.636h.175v-.636h.245v-.152h-.657zm1.429-.149-.243.384-.239-.384h-.157v.787h.168v-.493l.187.291h.076l.19-.292v.494h.168v-.787zm-16.813.149-2.848 2.848a.53.53 0 0 0-.154.372v.571a.263.263 0 0 1-.263.263h-7.889a.263.263 0 0 0-.263.263v3.682c0 .145.117.263.263.263h8.986c.14 0 .274-.055.372-.154l2.848-2.848a.52.52 0 0 0 .154-.372v-.571c0-.145.118-.263.263-.263h12.097a.263.263 0 0 0 .263-.263v-3.682a.263.263 0 0 0-.263-.263h-13.194a.53.53 0 0 0-.372.154" fill="#000" fill-opacity=".5"/><path d="m394.538 173.608-2.846 2.846a.53.53 0 0 0-.156.373v.571a.263.263 0 0 1-.263.263h-12.096a.26.26 0 0 0-.263.263v3.681c0 .146.117.263.263.263h13.194c.14 0 .274-.055.372-.154l2.848-2.847a.53.53 0 0 0 .154-.372v-.571c0-.146.118-.263.263-.263h7.889a.263.263 0 0 0 .263-.263v-3.682a.263.263 0 0 0-.263-.263h-8.985a.53.53 0 0 0-.374.155" fill="#000" fill-opacity=".5"/><rect x="241" y="156.5" width="36" height="36" rx="3.273" fill="#F22"/><path d="M272.715 167.294h.237v.636h.175v-.636h.245v-.152h-.657zm1.429-.149-.243.384-.239-.384h-.157v.787h.168v-.493l.187.291h.076l.19-.292v.494h.168v-.787zm-16.813.149-2.848 2.848a.53.53 0 0 0-.154.372v.571a.263.263 0 0 1-.263.263h-7.889a.263.263 0 0 0-.263.263v3.682c0 .145.117.263.263.263h8.986c.14 0 .274-.055.372-.154l2.848-2.848a.52.52 0 0 0 .154-.372v-.571c0-.145.118-.263.263-.263h12.097a.263.263 0 0 0 .263-.263v-3.682a.263.263 0 0 0-.263-.263h-13.194a.53.53 0 0 0-.372.154" fill="#000" fill-opacity=".5"/><path d="m261.538 173.608-2.846 2.846a.53.53 0 0 0-.156.373v.571a.263.263 0 0 1-.263.263h-12.096a.26.26 0 0 0-.263.263v3.681c0 .146.117.263.263.263h13.194c.14 0 .274-.055.372-.154l2.848-2.847a.53.53 0 0 0 .154-.372v-.571c0-.146.118-.263.263-.263h7.889a.263.263 0 0 0 .263-.263v-3.682a.263.263 0 0 0-.263-.263h-8.985a.53.53 0 0 0-.374.155" fill="#000" fill-opacity=".5"/><rect x="645" y="156.5" width="36" height="36" rx="3.273" fill="#F22"/><path d="M676.715 167.294h.237v.636h.175v-.636h.245v-.152h-.657zm1.429-.149-.243.384-.239-.384h-.157v.787h.168v-.493l.187.291h.076l.19-.292v.494h.168v-.787zm-16.813.149-2.848 2.848a.53.53 0 0 0-.154.372v.571a.263.263 0 0 1-.263.263h-7.889a.263.263 0 0 0-.263.263v3.682c0 .145.117.263.263.263h8.986c.14 0 .274-.055.372-.154l2.848-2.848a.52.52 0 0 0 .154-.372v-.571c0-.145.118-.263.263-.263h12.097a.263.263 0 0 0 .263-.263v-3.682a.263.263 0 0 0-.263-.263h-13.194a.53.53 0 0 0-.372.154" fill="#000" fill-opacity=".5"/><path d="m665.538 173.608-2.846 2.846a.53.53 0 0 0-.156.373v.571a.263.263 0 0 1-.263.263h-12.096a.26.26 0 0 0-.263.263v3.681c0 .146.117.263.263.263h13.194c.14 0 .274-.055.372-.154l2.848-2.847a.53.53 0 0 0 .154-.372v-.571c0-.146.118-.263.263-.263h7.889a.263.263 0 0 0 .263-.263v-3.682a.263.263 0 0 0-.263-.263h-8.985a.53.53 0 0 0-.374.155" fill="#000" fill-opacity=".5"/><rect x="645" y="396.5" width="36" height="36" rx="3.273" fill="#F22"/><path d="M676.715 407.294h.237v.636h.175v-.636h.245v-.152h-.657zm1.429-.149-.243.384-.239-.384h-.157v.787h.168v-.493l.187.291h.076l.19-.292v.494h.168v-.787zm-16.813.149-2.848 2.848a.53.53 0 0 0-.154.372v.571a.263.263 0 0 1-.263.263h-7.889a.263.263 0 0 0-.263.263v3.682c0 .145.117.263.263.263h8.986c.14 0 .274-.055.372-.154l2.848-2.848a.52.52 0 0 0 .154-.372v-.571c0-.145.118-.263.263-.263h12.097a.263.263 0 0 0 .263-.263v-3.682a.263.263 0 0 0-.263-.263h-13.194a.53.53 0 0 0-.372.154" fill="#000" fill-opacity=".5"/><path d="m665.538 413.608-2.846 2.846a.53.53 0 0 0-.156.373v.571a.263.263 0 0 1-.263.263h-12.096a.26.26 0 0 0-.263.263v3.681c0 .145.117.263.263.263h13.194c.14 0 .274-.055.372-.154l2.848-2.847a.53.53 0 0 0 .154-.372v-.571c0-.146.118-.263.263-.263h7.889a.263.263 0 0 0 .263-.263v-3.682a.263.263 0 0 0-.263-.263h-8.985a.53.53 0 0 0-.374.155" fill="#000" fill-opacity=".5"/><rect x="919" y="276.5" width="36" height="36" rx="3.273" fill="#F22"/><path d="M950.715 287.294h.237v.636h.175v-.636h.245v-.152h-.657zm1.429-.149-.243.384-.239-.384h-.157v.787h.168v-.493l.187.291h.076l.19-.292v.494h.168v-.787zm-16.813.149-2.848 2.848a.53.53 0 0 0-.154.372v.571a.263.263 0 0 1-.263.263h-7.889a.263.263 0 0 0-.263.263v3.682c0 .145.117.263.263.263h8.986c.14 0 .274-.055.372-.154l2.848-2.848a.52.52 0 0 0 .154-.372v-.571c0-.145.118-.263.263-.263h12.097a.263.263 0 0 0 .263-.263v-3.682a.263.263 0 0 0-.263-.263h-13.194a.53.53 0 0 0-.372.154" fill="#000" fill-opacity=".5"/><path d="m939.538 293.608-2.846 2.846a.53.53 0 0 0-.156.373v.571a.263.263 0 0 1-.263.263h-12.096a.26.26 0 0 0-.263.263v3.681c0 .145.117.263.263.263h13.194c.14 0 .274-.055.372-.154l2.848-2.847a.53.53 0 0 0 .154-.372v-.571c0-.146.118-.263.263-.263h7.889a.263.263 0 0 0 .263-.263v-3.682a.263.263 0 0 0-.263-.263h-8.985a.53.53 0 0 0-.374.155" fill="#000" fill-opacity=".5"/><rect x="1051" y="276.5" width="36" height="36" rx="3.273" fill="#F22"/><path d="M1082.71 287.294h.24v.636h.18v-.636h.24v-.152h-.66zm1.43-.149-.24.384-.24-.384h-.16v.787h.17v-.493l.19.291h.08l.19-.292v.494h.16v-.787zm-16.81.149-2.85 2.848a.52.52 0 0 0-.15.372v.571c0 .145-.12.263-.26.263h-7.89c-.15 0-.27.118-.27.263v3.682c0 .145.12.263.27.263h8.98c.14 0 .28-.055.38-.154l2.84-2.848c.1-.099.16-.232.16-.372v-.571c0-.145.11-.263.26-.263h12.1c.14 0 .26-.118.26-.263v-3.682a.264.264 0 0 0-.26-.263h-13.2c-.14 0-.27.056-.37.154" fill="#000" fill-opacity=".5"/><path d="M1071.54 293.608c-1.09 1.087-1.76 1.759-2.85 2.846a.52.52 0 0 0-.15.373v.571c0 .145-.12.263-.27.263h-12.09c-.15 0-.27.117-.27.263v3.681c0 .145.12.263.27.263h13.19c.14 0 .27-.055.37-.154l2.85-2.847c.1-.099.15-.233.15-.372v-.571c0-.146.12-.263.27-.263h7.89c.14 0 .26-.118.26-.263v-3.682a.264.264 0 0 0-.26-.263h-8.99c-.14 0-.27.055-.37.155" fill="#000" fill-opacity=".5"/><rect x="1051" y="156.5" width="36" height="36" rx="3.273" fill="#F22"/><path d="M1082.71 167.294h.24v.636h.18v-.636h.24v-.152h-.66zm1.43-.149-.24.384-.24-.384h-.16v.787h.17v-.493l.19.291h.08l.19-.292v.494h.16v-.787zm-16.81.149-2.85 2.848a.52.52 0 0 0-.15.372v.571c0 .145-.12.263-.26.263h-7.89c-.15 0-.27.118-.27.263v3.682c0 .145.12.263.27.263h8.98c.14 0 .28-.055.38-.154l2.84-2.848c.1-.099.16-.232.16-.372v-.571c0-.145.11-.263.26-.263h12.1c.14 0 .26-.118.26-.263v-3.682a.264.264 0 0 0-.26-.263h-13.2c-.14 0-.27.056-.37.154" fill="#000" fill-opacity=".5"/><path d="M1071.54 173.608c-1.09 1.087-1.76 1.759-2.85 2.846a.52.52 0 0 0-.15.373v.571c0 .145-.12.263-.27.263h-12.09c-.15 0-.27.117-.27.263v3.681c0 .146.12.263.27.263h13.19c.14 0 .27-.055.37-.154l2.85-2.847c.1-.099.15-.233.15-.372v-.571c0-.146.12-.263.27-.263h7.89c.14 0 .26-.118.26-.263v-3.682a.264.264 0 0 0-.26-.263h-8.99c-.14 0-.27.056-.37.155" fill="#000" fill-opacity=".5"/><rect x="1183" y="276.5" width="36" height="36" rx="3.273" fill="#F22"/><path d="M1214.71 287.294h.24v.636h.18v-.636h.24v-.152h-.66zm1.43-.149-.24.384-.24-.384h-.16v.787h.17v-.493l.19.291h.08l.19-.292v.494h.16v-.787zm-16.81.149-2.85 2.848a.52.52 0 0 0-.15.372v.571c0 .145-.12.263-.26.263h-7.89c-.15 0-.27.118-.27.263v3.682c0 .145.12.263.27.263h8.98c.14 0 .28-.055.38-.154l2.84-2.848c.1-.099.16-.232.16-.372v-.571c0-.145.11-.263.26-.263h12.1c.14 0 .26-.118.26-.263v-3.682a.264.264 0 0 0-.26-.263h-13.2c-.14 0-.27.056-.37.154" fill="#000" fill-opacity=".5"/><path d="M1203.54 293.608c-1.09 1.087-1.76 1.759-2.85 2.846a.52.52 0 0 0-.15.373v.571c0 .145-.12.263-.27.263h-12.09c-.15 0-.27.117-.27.263v3.681c0 .145.12.263.27.263h13.19c.14 0 .27-.055.37-.154l2.85-2.847c.1-.099.15-.233.15-.372v-.571c0-.146.12-.263.27-.263h7.89c.14 0 .26-.118.26-.263v-3.682a.264.264 0 0 0-.26-.263h-8.99c-.14 0-.27.055-.37.155" fill="#000" fill-opacity=".5"/><rect x="785" y="396.5" width="36" height="36" rx="3.273" fill="#F22"/><path d="M816.715 407.294h.237v.636h.175v-.636h.245v-.152h-.657zm1.429-.149-.243.384-.239-.384h-.157v.787h.168v-.493l.187.291h.076l.19-.292v.494h.168v-.787zm-16.813.149-2.848 2.848a.53.53 0 0 0-.154.372v.571a.263.263 0 0 1-.263.263h-7.889a.263.263 0 0 0-.263.263v3.682c0 .145.117.263.263.263h8.986c.14 0 .274-.055.372-.154l2.848-2.848a.52.52 0 0 0 .154-.372v-.571c0-.145.118-.263.263-.263h12.097a.263.263 0 0 0 .263-.263v-3.682a.263.263 0 0 0-.263-.263h-13.194a.53.53 0 0 0-.372.154" fill="#000" fill-opacity=".5"/><path d="m805.538 413.608-2.846 2.846a.53.53 0 0 0-.156.373v.571a.263.263 0 0 1-.263.263h-12.096a.26.26 0 0 0-.263.263v3.681c0 .145.117.263.263.263h13.194c.14 0 .274-.055.372-.154l2.848-2.847a.53.53 0 0 0 .154-.372v-.571c0-.146.118-.263.263-.263h7.889a.263.263 0 0 0 .263-.263v-3.682a.263.263 0 0 0-.263-.263h-8.985a.53.53 0 0 0-.374.155" fill="#000" fill-opacity=".5"/><rect x="919" y="396.5" width="36" height="36" rx="3.273" fill="#F22"/><path d="M950.715 407.294h.237v.636h.175v-.636h.245v-.152h-.657zm1.429-.149-.243.384-.239-.384h-.157v.787h.168v-.493l.187.291h.076l.19-.292v.494h.168v-.787zm-16.813.149-2.848 2.848a.53.53 0 0 0-.154.372v.571a.263.263 0 0 1-.263.263h-7.889a.263.263 0 0 0-.263.263v3.682c0 .145.117.263.263.263h8.986c.14 0 .274-.055.372-.154l2.848-2.848a.52.52 0 0 0 .154-.372v-.571c0-.145.118-.263.263-.263h12.097a.263.263 0 0 0 .263-.263v-3.682a.263.263 0 0 0-.263-.263h-13.194a.53.53 0 0 0-.372.154" fill="#000" fill-opacity=".5"/><path d="m939.538 413.608-2.846 2.846a.53.53 0 0 0-.156.373v.571a.263.263 0 0 1-.263.263h-12.096a.26.26 0 0 0-.263.263v3.681c0 .145.117.263.263.263h13.194c.14 0 .274-.055.372-.154l2.848-2.847a.53.53 0 0 0 .154-.372v-.571c0-.146.118-.263.263-.263h7.889a.263.263 0 0 0 .263-.263v-3.682a.263.263 0 0 0-.263-.263h-8.985a.53.53 0 0 0-.374.155" fill="#000" fill-opacity=".5"/><rect x="1183" y="396.5" width="36" height="36" rx="3.273" fill="#F22"/><path d="M1214.71 407.294h.24v.636h.18v-.636h.24v-.152h-.66zm1.43-.149-.24.384-.24-.384h-.16v.787h.17v-.493l.19.291h.08l.19-.292v.494h.16v-.787zm-16.81.149-2.85 2.848a.52.52 0 0 0-.15.372v.571c0 .145-.12.263-.26.263h-7.89c-.15 0-.27.118-.27.263v3.682c0 .145.12.263.27.263h8.98c.14 0 .28-.055.38-.154l2.84-2.848c.1-.099.16-.232.16-.372v-.571c0-.145.11-.263.26-.263h12.1c.14 0 .26-.118.26-.263v-3.682a.264.264 0 0 0-.26-.263h-13.2c-.14 0-.27.056-.37.154" fill="#000" fill-opacity=".5"/><path d="M1203.54 413.608c-1.09 1.087-1.76 1.759-2.85 2.846a.52.52 0 0 0-.15.373v.571c0 .145-.12.263-.27.263h-12.09c-.15 0-.27.117-.27.263v3.681c0 .145.12.263.27.263h13.19c.14 0 .27-.055.37-.154l2.85-2.847c.1-.099.15-.233.15-.372v-.571c0-.146.12-.263.27-.263h7.89c.14 0 .26-.118.26-.263v-3.682a.264.264 0 0 0-.26-.263h-8.99c-.14 0-.27.055-.37.155" fill="#000" fill-opacity=".5"/><rect x="787" y="276.5" width="36" height="36" rx="3.273" fill="#F22"/><path d="M818.715 287.294h.237v.636h.175v-.636h.245v-.152h-.657zm1.429-.149-.243.384-.239-.384h-.157v.787h.168v-.493l.187.291h.076l.19-.292v.494h.168v-.787zm-16.813.149-2.848 2.848a.53.53 0 0 0-.154.372v.571a.263.263 0 0 1-.263.263h-7.889a.263.263 0 0 0-.263.263v3.682c0 .145.117.263.263.263h8.986c.14 0 .274-.055.372-.154l2.848-2.848a.52.52 0 0 0 .154-.372v-.571c0-.145.118-.263.263-.263h12.097a.263.263 0 0 0 .263-.263v-3.682a.263.263 0 0 0-.263-.263h-13.194a.53.53 0 0 0-.372.154" fill="#000" fill-opacity=".5"/><path d="m807.538 293.608-2.846 2.846a.53.53 0 0 0-.156.373v.571a.263.263 0 0 1-.263.263h-12.096a.26.26 0 0 0-.263.263v3.681c0 .145.117.263.263.263h13.194c.14 0 .274-.055.372-.154l2.848-2.847a.53.53 0 0 0 .154-.372v-.571c0-.146.118-.263.263-.263h7.889a.263.263 0 0 0 .263-.263v-3.682a.263.263 0 0 0-.263-.263h-8.985a.53.53 0 0 0-.374.155" fill="#000" fill-opacity=".5"/><rect x="787" y="156.5" width="36" height="36" rx="3.273" fill="#F22"/><path d="M818.715 167.294h.237v.636h.175v-.636h.245v-.152h-.657zm1.429-.149-.243.384-.239-.384h-.157v.787h.168v-.493l.187.291h.076l.19-.292v.494h.168v-.787zm-16.813.149-2.848 2.848a.53.53 0 0 0-.154.372v.571a.263.263 0 0 1-.263.263h-7.889a.263.263 0 0 0-.263.263v3.682c0 .145.117.263.263.263h8.986c.14 0 .274-.055.372-.154l2.848-2.848a.52.52 0 0 0 .154-.372v-.571c0-.145.118-.263.263-.263h12.097a.263.263 0 0 0 .263-.263v-3.682a.263.263 0 0 0-.263-.263h-13.194a.53.53 0 0 0-.372.154" fill="#000" fill-opacity=".5"/><path d="m807.538 173.608-2.846 2.846a.53.53 0 0 0-.156.373v.571a.263.263 0 0 1-.263.263h-12.096a.26.26 0 0 0-.263.263v3.681c0 .146.117.263.263.263h13.194c.14 0 .274-.055.372-.154l2.848-2.847a.53.53 0 0 0 .154-.372v-.571c0-.146.118-.263.263-.263h7.889a.263.263 0 0 0 .263-.263v-3.682a.263.263 0 0 0-.263-.263h-8.985a.53.53 0 0 0-.374.155" fill="#000" fill-opacity=".5"/><g clip-path="url(#e)"><rect x="223" y="-243.5" width="878" height="328" rx="5" fill="#000" fill-opacity=".5"/><path d="M232-79.5 57 95.5m189-175L71 95.5m189-175L85 95.5m189-175L99 95.5m189-175-175 175m189-175-175 175m189-175-175 175m189-175-175 175m189-175-175 175m189-175-175 175m189-175-175 175m189-175-175 175m189-175-175 175m189-175-175 175m189-175-175 175m189-175-175 175m189-175-175 175m189-175-175 175m189-175-175 175m189-175-175 175m189-175-175 175m189-175-175 175m189-175-175 175m189-175-175 175m189-175-175 175m189-175-175 175m189-175-175 175m189-175-175 175m189-175-175 175m189-175-175 175m189-175-175 175m189-175-175 175m189-175-175 175m189-175-175 175m189-175-175 175m189-175-175 175m189-175-175 175m189-175-175 175m189-175-175 175m189-175-175 175m189-175-175 175m189-175-175 175m189-175-175 175m189-175-175 175m189-175-175 175m189-175-175 175m189-175-175 175m189-175-175 175m189-175-175 175m189-175-175 175m189-175-175 175m189-175-175 175m189-175-175 175m189-175-175 175m189-175-175 175m189-175-175 175m189-175-175 175m189-175-175 175m189-175-175 175m189-175-175 175m189-175-175 175m189-175-175 175m189-175-175 175m189-175-175 175m189-175-175 175m189-175-175 175m189-175-175 175m189-175-175 175m189-175-175 175m189-175-175 175m189-175-175 175m189-175-175 175m189-175-175 175m189-175-175 175m189-175-175 175" opacity=".4" stroke="#F22" stroke-width="2.037"/></g><rect x="224" y="-242.5" width="876" height="326" rx="4" stroke="#F22" stroke-width="2"/></g></g><rect x=".5" y="1" width="1323" height="515" rx="11.5" stroke="#202020"/><defs><linearGradient id="b" x1="662" y1=".5" x2="662" y2="516.5" gradientUnits="userSpaceOnUse"><stop stop-color="#070707"/><stop offset="1" stop-color="#101010"/></linearGradient><linearGradient id="c" x1="434.348" y1="732.388" x2="434.348" y2="251.442" gradientUnits="userSpaceOnUse"><stop stop-color="#171717"/><stop offset="1" stop-color="#090909"/></linearGradient><clipPath id="a"><rect y=".5" width="1324" height="516" rx="12" fill="#fff"/></clipPath><clipPath id="e"><rect x="223" y="-243.5" width="878" height="328" rx="5" fill="#fff"/></clipPath><filter id="d" x="-33" y="-249.5" width="1347.72" height="816" filterUnits="userSpaceOnUse" color-interpolation-filters="sRGB"><feFlood flood-opacity="0" result="BackgroundImageFix"/><feColorMatrix in="SourceAlpha" values="0 0 0 0 0 0 0 0 0 0 0 0 0 0 0 0 0 0 127 0" result="hardAlpha"/><feOffset dy="4"/><feGaussianBlur stdDeviation="5"/><feComposite in2="hardAlpha" operator="out"/><feColorMatrix values="0 0 0 0 1 0 0 0 0 0.133333 0 0 0 0 0 0 0 0 0.3 0"/><feBlend in2="BackgroundImageFix" result="effect1_dropShadow_145_5709"/><feBlend in="SourceGraphic" in2="effect1_dropShadow_145_5709" result="shape"/></filter></defs></svg>