<svg width="1324" height="517" viewBox="0 0 1324 517" fill="none" xmlns="http://www.w3.org/2000/svg"><g clip-path="url(#a)"><rect y=".5" width="1324" height="516" rx="12" fill="url(#b)"/><path fill-rule="evenodd" clip-rule="evenodd" d="M20 25.854a4.354 4.354 0 0 1 4.354-4.354h24.67a4.354 4.354 0 0 1 4.354 4.354v24.67a4.354 4.354 0 0 1-4.354 4.354h-24.67A4.354 4.354 0 0 1 20 50.524zm297.496.765a4.354 4.354 0 0 1 4.354-4.353h24.67a4.354 4.354 0 0 1 4.354 4.353v24.67a4.354 4.354 0 0 1-4.354 4.354h-24.67a4.354 4.354 0 0 1-4.354-4.353zM202.854 80.24a4.354 4.354 0 0 0-4.354 4.353v24.67a4.354 4.354 0 0 0 4.354 4.354h24.67a4.354 4.354 0 0 0 4.354-4.354v-24.67a4.354 4.354 0 0 0-4.354-4.354zm118.996 0a4.354 4.354 0 0 0-4.354 4.353v24.67a4.354 4.354 0 0 0 4.354 4.354h24.67a4.354 4.354 0 0 0 4.354-4.354v-24.67a4.354 4.354 0 0 0-4.354-4.354zm54.685 4.353a4.354 4.354 0 0 1 4.354-4.354h24.67a4.354 4.354 0 0 1 4.354 4.354v24.67a4.354 4.354 0 0 1-4.354 4.354h-24.67a4.354 4.354 0 0 1-4.354-4.354zm63.178-4.354a4.354 4.354 0 0 0-4.354 4.354v24.67a4.354 4.354 0 0 0 4.354 4.354h24.671a4.353 4.353 0 0 0 4.353-4.354v-24.67a4.353 4.353 0 0 0-4.353-4.354zm54.557 4.354a4.353 4.353 0 0 1 4.353-4.354h24.671a4.353 4.353 0 0 1 4.353 4.354v24.67a4.353 4.353 0 0 1-4.353 4.354h-24.671a4.353 4.353 0 0 1-4.353-4.354zm66.353-4.354a4.353 4.353 0 0 0-4.353 4.354v24.67a4.353 4.353 0 0 0 4.353 4.354h24.671a4.353 4.353 0 0 0 4.353-4.354v-24.67a4.353 4.353 0 0 0-4.353-4.354zm-64.752 183.616a4.354 4.354 0 0 1 4.354-4.354h24.67a4.354 4.354 0 0 1 4.354 4.354v24.67a4.354 4.354 0 0 1-4.354 4.354h-24.67a4.354 4.354 0 0 1-4.354-4.354zm-209.404 55.142a4.353 4.353 0 0 1 4.353 4.354v24.67a4.353 4.353 0 0 1-4.353 4.354h-24.671a4.353 4.353 0 0 1-4.353-4.354v-24.67a4.353 4.353 0 0 1 4.353-4.354zm388.033 63.85a4.354 4.354 0 0 1 4.354-4.354h24.67a4.354 4.354 0 0 1 4.354 4.354v24.67a4.354 4.354 0 0 1-4.354 4.354h-24.67a4.354 4.354 0 0 1-4.354-4.354zM560.721 259.5a4.354 4.354 0 0 0-4.354 4.354v24.67a4.354 4.354 0 0 0 4.354 4.354h24.67a4.354 4.354 0 0 0 4.354-4.354v-24.67a4.354 4.354 0 0 0-4.354-4.354zm-328.842 63.85a4.354 4.354 0 0 0-4.354-4.354h-24.67a4.354 4.354 0 0 0-4.354 4.354v24.67a4.354 4.354 0 0 0 4.354 4.354h24.67a4.354 4.354 0 0 0 4.354-4.354zm506.479 55.142a4.354 4.354 0 0 0-4.354 4.354v24.67a4.354 4.354 0 0 0 4.354 4.354h24.67a4.354 4.354 0 0 0 4.354-4.354v-24.67a4.354 4.354 0 0 0-4.354-4.354zm-684.98 208.1a4.353 4.353 0 0 1-4.353 4.353h-24.67A4.353 4.353 0 0 1 20 586.592v-24.671a4.353 4.353 0 0 1 4.354-4.353h24.67a4.353 4.353 0 0 1 4.354 4.353zM321.85 140.496a4.354 4.354 0 0 0-4.354 4.354v24.67a4.354 4.354 0 0 0 4.354 4.354h24.67a4.354 4.354 0 0 0 4.354-4.354v-24.67a4.354 4.354 0 0 0-4.354-4.354zm238.871 0a4.354 4.354 0 0 0-4.354 4.354v24.67a4.354 4.354 0 0 0 4.354 4.354h24.67a4.354 4.354 0 0 0 4.354-4.354v-24.67a4.354 4.354 0 0 0-4.354-4.354zm54.47 64.272a4.354 4.354 0 0 1 4.354-4.354h24.671a4.353 4.353 0 0 1 4.353 4.354v24.67a4.353 4.353 0 0 1-4.353 4.354h-24.671a4.354 4.354 0 0 1-4.354-4.354zm-234.302-64.272a4.354 4.354 0 0 0-4.354 4.354v24.67a4.354 4.354 0 0 0 4.354 4.354h24.67a4.354 4.354 0 0 0 4.354-4.354v-24.67a4.354 4.354 0 0 0-4.354-4.354zm-4.354 63.858a4.354 4.354 0 0 1 4.354-4.354h24.67a4.354 4.354 0 0 1 4.354 4.354v24.67a4.354 4.354 0 0 1-4.354 4.354h-24.67a4.354 4.354 0 0 1-4.354-4.354zM439.713 200a4.354 4.354 0 0 0-4.354 4.354v24.67a4.354 4.354 0 0 0 4.354 4.354h24.671a4.353 4.353 0 0 0 4.353-4.354v-24.67a4.353 4.353 0 0 0-4.353-4.354zm-360.21 63.854a4.354 4.354 0 0 1 4.355-4.354h24.67a4.354 4.354 0 0 1 4.354 4.354v24.67a4.354 4.354 0 0 1-4.354 4.354h-24.67a4.354 4.354 0 0 1-4.354-4.354zm123.241-123.112a4.353 4.353 0 0 0-4.353 4.354v24.67a4.353 4.353 0 0 0 4.353 4.354h24.671a4.353 4.353 0 0 0 4.353-4.354v-24.67a4.353 4.353 0 0 0-4.353-4.354zm-4.353-113.877a4.353 4.353 0 0 1 4.353-4.353h24.671a4.353 4.353 0 0 1 4.353 4.353v24.67a4.353 4.353 0 0 1-4.353 4.355h-24.671a4.353 4.353 0 0 1-4.353-4.354zm241.322 113.877a4.354 4.354 0 0 0-4.354 4.354v24.67a4.354 4.354 0 0 0 4.354 4.354h24.671a4.353 4.353 0 0 0 4.353-4.354v-24.67a4.353 4.353 0 0 0-4.353-4.354zm56.158 64.276a4.354 4.354 0 0 1 4.354-4.354h24.67a4.354 4.354 0 0 1 4.354 4.354v24.67a4.354 4.354 0 0 1-4.354 4.354h-24.67a4.354 4.354 0 0 1-4.354-4.354zM83.858 437.996a4.354 4.354 0 0 0-4.354 4.354v24.67a4.354 4.354 0 0 0 4.353 4.354h24.671a4.354 4.354 0 0 0 4.354-4.354v-24.67a4.354 4.354 0 0 0-4.354-4.354zm624.021 89.088a4.354 4.354 0 0 1-4.354 4.354h-24.67a4.354 4.354 0 0 1-4.354-4.354v-24.671a4.353 4.353 0 0 1 4.354-4.353h24.67a4.353 4.353 0 0 1 4.354 4.353zm-4.354-208.088a4.354 4.354 0 0 1 4.354 4.354v24.67a4.354 4.354 0 0 1-4.354 4.354h-24.67a4.354 4.354 0 0 1-4.354-4.354v-24.67a4.354 4.354 0 0 1 4.354-4.354zM20 263.854a4.354 4.354 0 0 1 4.354-4.354h24.67a4.354 4.354 0 0 1 4.354 4.354v24.67a4.354 4.354 0 0 1-4.354 4.354h-24.67A4.354 4.354 0 0 1 20 288.524zm743.021 55.142a4.354 4.354 0 0 1 4.354 4.354v24.67a4.354 4.354 0 0 1-4.354 4.354h-24.67a4.354 4.354 0 0 1-4.354-4.354v-24.67a4.354 4.354 0 0 1 4.354-4.354zM198.5 382.846a4.354 4.354 0 0 1 4.354-4.354h24.67a4.354 4.354 0 0 1 4.354 4.354v24.67a4.354 4.354 0 0 1-4.354 4.354h-24.67a4.354 4.354 0 0 1-4.354-4.354zm564.521 55.15a4.354 4.354 0 0 1 4.354 4.354v24.67a4.354 4.354 0 0 1-4.354 4.354h-24.67a4.354 4.354 0 0 1-4.354-4.354v-24.67a4.354 4.354 0 0 1 4.354-4.354zM20 527.084a4.354 4.354 0 0 0 4.354 4.354h24.67a4.354 4.354 0 0 0 4.354-4.354v-24.671a4.353 4.353 0 0 0-4.354-4.353h-24.67A4.353 4.353 0 0 0 20 502.413zm4.354-386.588A4.354 4.354 0 0 0 20 144.85v24.67a4.354 4.354 0 0 0 4.354 4.354h24.67a4.354 4.354 0 0 0 4.354-4.354v-24.67a4.354 4.354 0 0 0-4.354-4.354zM143.35 21.5a4.354 4.354 0 0 0-4.354 4.354v24.67a4.354 4.354 0 0 0 4.354 4.354h24.67a4.354 4.354 0 0 0 4.354-4.354v-24.67a4.354 4.354 0 0 0-4.354-4.354zm-64.287 4.354a4.354 4.354 0 0 1 4.353-4.354h24.671a4.353 4.353 0 0 1 4.353 4.354v24.67a4.353 4.353 0 0 1-4.353 4.354h-24.67a4.354 4.354 0 0 1-4.355-4.354zM381.346 21.5a4.354 4.354 0 0 0-4.354 4.354v24.67a4.354 4.354 0 0 0 4.354 4.354h24.67a4.354 4.354 0 0 0 4.354-4.354v-24.67a4.354 4.354 0 0 0-4.354-4.354zm174.842 4.354a4.353 4.353 0 0 1 4.353-4.354h24.671a4.353 4.353 0 0 1 4.353 4.354v24.67a4.353 4.353 0 0 1-4.353 4.354h-24.671a4.353 4.353 0 0 1-4.353-4.354zm63.357 114.642a4.354 4.354 0 0 0-4.354 4.354v24.67a4.354 4.354 0 0 0 4.354 4.354h24.671a4.353 4.353 0 0 0 4.353-4.354v-24.67a4.353 4.353 0 0 0-4.353-4.354zM734.004 25.854a4.354 4.354 0 0 1 4.354-4.354h24.67a4.354 4.354 0 0 1 4.354 4.354v24.67a4.354 4.354 0 0 1-4.354 4.354h-24.67a4.354 4.354 0 0 1-4.354-4.354zm4.354 55.15a4.354 4.354 0 0 0-4.354 4.353v24.671a4.354 4.354 0 0 0 4.354 4.354h24.67a4.354 4.354 0 0 0 4.354-4.354v-24.67a4.354 4.354 0 0 0-4.354-4.354zm-4.354 63.846a4.354 4.354 0 0 1 4.354-4.354h24.67a4.354 4.354 0 0 1 4.354 4.354v24.67a4.354 4.354 0 0 1-4.354 4.354h-24.67a4.354 4.354 0 0 1-4.354-4.354zm4.354 114.65a4.354 4.354 0 0 0-4.354 4.354v24.67a4.354 4.354 0 0 0 4.354 4.354h24.67a4.354 4.354 0 0 0 4.354-4.354v-24.67a4.354 4.354 0 0 0-4.354-4.354zm-684.98 63.85a4.354 4.354 0 0 0-4.353-4.354h-24.67A4.354 4.354 0 0 0 20 323.35v24.67a4.354 4.354 0 0 0 4.354 4.354h24.67a4.354 4.354 0 0 0 4.354-4.354zm54.702-4.354a4.354 4.354 0 0 1 4.354 4.354v24.67a4.354 4.354 0 0 1-4.354 4.354H83.41a4.354 4.354 0 0 1-4.354-4.354v-24.67a4.354 4.354 0 0 1 4.353-4.354zm-54.701 63.85a4.354 4.354 0 0 0-4.354-4.354h-24.67A4.354 4.354 0 0 0 20 382.846v24.67a4.354 4.354 0 0 0 4.354 4.354h24.67a4.354 4.354 0 0 0 4.354-4.354zm54.701-4.354a4.354 4.354 0 0 1 4.354 4.354v24.67a4.354 4.354 0 0 1-4.354 4.354H83.41a4.354 4.354 0 0 1-4.354-4.354v-24.67a4.354 4.354 0 0 1 4.353-4.354zm90.19-174.138a4.353 4.353 0 0 1 4.353-4.354h24.671a4.353 4.353 0 0 1 4.353 4.354v24.67a4.353 4.353 0 0 1-4.353 4.354h-24.671a4.353 4.353 0 0 1-4.353-4.354zm-54.92 174.138a4.354 4.354 0 0 0-4.354 4.354v24.67a4.354 4.354 0 0 0 4.354 4.354h24.67a4.354 4.354 0 0 0 4.354-4.354v-24.67a4.354 4.354 0 0 0-4.354-4.354zM257.211 144.85a4.354 4.354 0 0 1 4.354-4.354h24.67a4.354 4.354 0 0 1 4.354 4.354v24.67a4.354 4.354 0 0 1-4.354 4.354h-24.67a4.354 4.354 0 0 1-4.354-4.354zm4.354-122.584a4.354 4.354 0 0 0-4.354 4.353v24.67a4.354 4.354 0 0 0 4.354 4.354h24.67a4.354 4.354 0 0 0 4.354-4.353V26.62a4.354 4.354 0 0 0-4.354-4.354zM495.871 144.85a4.354 4.354 0 0 1 4.354-4.354h24.67a4.354 4.354 0 0 1 4.354 4.354v24.67a4.354 4.354 0 0 1-4.354 4.354h-24.67a4.354 4.354 0 0 1-4.354-4.354zm64.85 55.564a4.354 4.354 0 0 0-4.354 4.354v24.67a4.354 4.354 0 0 0 4.354 4.354h24.67a4.354 4.354 0 0 0 4.354-4.354v-24.67a4.354 4.354 0 0 0-4.354-4.354zm-183.729 63.44a4.354 4.354 0 0 1 4.354-4.354h24.67a4.354 4.354 0 0 1 4.354 4.354v24.67a4.354 4.354 0 0 1-4.354 4.354h-24.67a4.354 4.354 0 0 1-4.354-4.354zm61.037-4.354a4.353 4.353 0 0 0-4.353 4.354v24.67a4.353 4.353 0 0 0 4.353 4.354H462.7a4.354 4.354 0 0 0 4.354-4.354v-24.67a4.354 4.354 0 0 0-4.354-4.354zm-27.654 63.85a4.354 4.354 0 0 0-4.354-4.354h-24.67a4.354 4.354 0 0 0-4.354 4.354v24.67a4.354 4.354 0 0 0 4.354 4.354h24.67a4.354 4.354 0 0 0 4.354-4.354zm-63.635-4.354a4.354 4.354 0 0 1 4.354 4.354v24.67a4.354 4.354 0 0 1-4.354 4.354h-24.67a4.354 4.354 0 0 1-4.354-4.354v-24.67a4.354 4.354 0 0 1 4.354-4.354zm122.459 124.928a4.354 4.354 0 0 0-4.353-4.354h-24.671a4.355 4.355 0 0 0-4.354 4.354v24.67a4.354 4.354 0 0 0 4.354 4.354h24.671a4.353 4.353 0 0 0 4.353-4.354zm90.655-65.432a4.354 4.354 0 0 0-4.354 4.354v24.67a4.354 4.354 0 0 0 4.354 4.354h24.67a4.354 4.354 0 0 0 4.354-4.354v-24.67a4.354 4.354 0 0 0-4.354-4.354zM139.566 263.854a4.354 4.354 0 0 1 4.354-4.354h24.671a4.353 4.353 0 0 1 4.353 4.354v24.67a4.353 4.353 0 0 1-4.353 4.354H143.92a4.354 4.354 0 0 1-4.354-4.354zm3.784 174.142a4.354 4.354 0 0 0-4.354 4.354v24.67a4.354 4.354 0 0 0 4.354 4.354h24.67a4.354 4.354 0 0 0 4.354-4.354v-24.67a4.354 4.354 0 0 0-4.354-4.354zm113.861 4.354a4.354 4.354 0 0 1 4.354-4.354h24.67a4.354 4.354 0 0 1 4.354 4.354v24.67a4.354 4.354 0 0 1-4.354 4.354h-24.67a4.354 4.354 0 0 1-4.354-4.354zm386.806 89.088a4.354 4.354 0 0 0 4.354-4.354v-24.671a4.353 4.353 0 0 0-4.354-4.353h-24.67a4.354 4.354 0 0 0-4.354 4.353v24.671a4.355 4.355 0 0 0 4.354 4.354zm4.784-208.088a4.354 4.354 0 0 0-4.354-4.354h-24.67a4.354 4.354 0 0 0-4.354 4.354v24.67a4.354 4.354 0 0 0 4.354 4.354h24.67a4.354 4.354 0 0 0 4.354-4.354zM321.85 378.492a4.354 4.354 0 0 0-4.354 4.354v24.67a4.354 4.354 0 0 0 4.354 4.354h24.67a4.354 4.354 0 0 0 4.354-4.354v-24.67a4.354 4.354 0 0 0-4.354-4.354zm326.525 63.858a4.354 4.354 0 0 0-4.354-4.354h-24.67a4.354 4.354 0 0 0-4.354 4.354v24.67a4.354 4.354 0 0 0 4.354 4.354h24.67a4.354 4.354 0 0 0 4.354-4.354zM143.35 531.438a4.354 4.354 0 0 1-4.354-4.354v-24.671a4.353 4.353 0 0 1 4.354-4.353h24.67a4.353 4.353 0 0 1 4.354 4.353v24.671a4.354 4.354 0 0 1-4.354 4.354zm233.185-4.354a4.354 4.354 0 0 0 4.354 4.354h24.67a4.354 4.354 0 0 0 4.354-4.354v-24.671a4.353 4.353 0 0 0-4.354-4.353h-24.67a4.353 4.353 0 0 0-4.354 4.353zm-114.97 4.354a4.354 4.354 0 0 1-4.354-4.354v-24.671a4.353 4.353 0 0 1 4.354-4.353h24.67a4.353 4.353 0 0 1 4.354 4.353v24.671a4.354 4.354 0 0 1-4.354 4.354zm233.185-4.354a4.354 4.354 0 0 0 4.354 4.354h24.67a4.354 4.354 0 0 0 4.354-4.354v-24.671a4.353 4.353 0 0 0-4.354-4.353h-24.67a4.353 4.353 0 0 0-4.354 4.353zM982.854 80.238a4.354 4.354 0 0 0-4.354 4.354v24.67a4.354 4.354 0 0 0 4.354 4.354h24.666c2.41 0 4.36-1.949 4.36-4.354v-24.67a4.356 4.356 0 0 0-4.36-4.354zm114.646 4.354a4.353 4.353 0 0 1 4.35-4.354h24.67c2.4 0 4.35 1.95 4.35 4.354v24.67a4.353 4.353 0 0 1-4.35 4.354h-24.67c-2.4 0-4.35-1.949-4.35-4.354zm63.39-4.354c-2.41 0-4.35 1.95-4.35 4.354v24.67a4.347 4.347 0 0 0 4.35 4.354h24.67c2.4 0 4.35-1.949 4.35-4.354v-24.67a4.353 4.353 0 0 0-4.35-4.354zm54.47 4.354a4.353 4.353 0 0 1 4.35-4.354h24.67c2.41 0 4.36 1.95 4.36 4.354v24.67a4.355 4.355 0 0 1-4.36 4.354h-24.67c-2.4 0-4.35-1.949-4.35-4.354zm63.26-4.354c-2.4 0-4.35 1.95-4.35 4.354v24.67a4.353 4.353 0 0 0 4.35 4.354h24.67c2.41 0 4.36-1.949 4.36-4.354v-24.67a4.356 4.356 0 0 0-4.36-4.354zm57.65 4.354a4.353 4.353 0 0 1 4.35-4.354h24.67c2.41 0 4.36 1.95 4.36 4.354v24.67a4.355 4.355 0 0 1-4.36 4.354h-24.67c-2.4 0-4.35-1.949-4.35-4.354zM1280.22 259.5c-2.4 0-4.35 1.949-4.35 4.354v24.67a4.353 4.353 0 0 0 4.35 4.354h24.68c2.4 0 4.35-1.949 4.35-4.354v-24.67a4.353 4.353 0 0 0-4.35-4.354zm-209.4 63.85a4.353 4.353 0 0 0-4.35-4.354h-24.67a4.355 4.355 0 0 0-4.36 4.354v24.67a4.355 4.355 0 0 0 4.36 4.354h24.67c2.4 0 4.35-1.949 4.35-4.354zm388.03 55.142c-2.4 0-4.35 1.949-4.35 4.354v24.67a4.353 4.353 0 0 0 4.35 4.354h24.67c2.41 0 4.36-1.949 4.36-4.354v-24.67a4.355 4.355 0 0 0-4.36-4.354zm-122.48-114.638a4.353 4.353 0 0 1 4.35-4.354h24.67c2.41 0 4.35 1.949 4.35 4.354v24.67a4.347 4.347 0 0 1-4.35 4.354h-24.67c-2.4 0-4.35-1.949-4.35-4.354zm-328.84 55.142c2.4 0 4.35 1.949 4.35 4.354v24.67a4.353 4.353 0 0 1-4.35 4.354h-24.675a4.354 4.354 0 0 1-4.354-4.354v-24.67a4.354 4.354 0 0 1 4.354-4.354zm506.47 63.85a4.355 4.355 0 0 1 4.36-4.354h24.67c2.4 0 4.35 1.949 4.35 4.354v24.67a4.353 4.353 0 0 1-4.35 4.354h-24.67a4.355 4.355 0 0 1-4.36-4.354zM829.025 590.945a4.353 4.353 0 0 0 4.354-4.353v-24.671a4.353 4.353 0 0 0-4.354-4.353h-24.67a4.353 4.353 0 0 0-4.354 4.353v24.671a4.353 4.353 0 0 0 4.354 4.353zM1097.5 144.85a4.353 4.353 0 0 1 4.35-4.354h24.67c2.4 0 4.35 1.949 4.35 4.354v24.67a4.353 4.353 0 0 1-4.35 4.354h-24.67c-2.4 0-4.35-1.949-4.35-4.354zm4.35-122.584c-2.4 0-4.35 1.949-4.35 4.353v24.67a4.353 4.353 0 0 0 4.35 4.354h24.67c2.4 0 4.35-1.949 4.35-4.353V26.62a4.353 4.353 0 0 0-4.35-4.354zm234.52 122.584a4.353 4.353 0 0 1 4.35-4.354h24.67c2.41 0 4.35 1.949 4.35 4.354v24.67a4.347 4.347 0 0 1-4.35 4.354h-24.67c-2.4 0-4.35-1.949-4.35-4.354zm63.18 55.564a4.355 4.355 0 0 0-4.36 4.354v24.67a4.355 4.355 0 0 0 4.36 4.354h24.67c2.4 0 4.35-1.949 4.35-4.354v-24.67a4.353 4.353 0 0 0-4.35-4.354zm-243.01-55.564a4.347 4.347 0 0 1 4.35-4.354h24.67c2.4 0 4.35 1.949 4.35 4.354v24.67a4.353 4.353 0 0 1-4.35 4.354h-24.67a4.347 4.347 0 0 1-4.35-4.354zm4.35 55.15a4.347 4.347 0 0 0-4.35 4.354v24.67a4.347 4.347 0 0 0 4.35 4.354h24.67c2.4 0 4.35-1.949 4.35-4.354v-24.67a4.353 4.353 0 0 0-4.35-4.354zm54.47 4.354a4.353 4.353 0 0 1 4.35-4.354h24.67c2.41 0 4.36 1.949 4.36 4.354v24.67a4.355 4.355 0 0 1-4.36 4.354h-24.67c-2.4 0-4.35-1.949-4.35-4.354zM863.858 259.5a4.354 4.354 0 0 0-4.354 4.354v24.67a4.354 4.354 0 0 0 4.354 4.354h24.67a4.354 4.354 0 0 0 4.354-4.354v-24.67a4.354 4.354 0 0 0-4.354-4.354zm114.533-114.404a4.353 4.353 0 0 1 4.353-4.354h24.666c2.41 0 4.36 1.949 4.36 4.354v24.67a4.355 4.355 0 0 1-4.36 4.354h-24.666a4.353 4.353 0 0 1-4.353-4.354zm4.353-122.584a4.353 4.353 0 0 0-4.353 4.353v24.67a4.353 4.353 0 0 0 4.353 4.355h24.666c2.41 0 4.36-1.95 4.36-4.354v-24.67a4.356 4.356 0 0 0-4.36-4.354zm232.616 122.584a4.353 4.353 0 0 1 4.35-4.354h24.67c2.41 0 4.36 1.949 4.36 4.354v24.67a4.355 4.355 0 0 1-4.36 4.354h-24.67c-2.4 0-4.35-1.949-4.35-4.354zm64.86 55.568c-2.4 0-4.35 1.949-4.35 4.354v24.67a4.353 4.353 0 0 0 4.35 4.354h24.68c2.4 0 4.35-1.949 4.35-4.354v-24.67a4.353 4.353 0 0 0-4.35-4.354zM859.504 442.35a4.354 4.354 0 0 1 4.354-4.354h24.67a4.354 4.354 0 0 1 4.354 4.354v24.67a4.354 4.354 0 0 1-4.354 4.354h-24.67a4.354 4.354 0 0 1-4.354-4.354zm624.026 89.088c2.4 0 4.35-1.95 4.35-4.354v-24.671a4.353 4.353 0 0 0-4.35-4.353h-24.68c-2.4 0-4.35 1.949-4.35 4.353v24.671a4.354 4.354 0 0 0 4.35 4.354zm4.35-208.088a4.353 4.353 0 0 0-4.35-4.354h-24.68c-2.4 0-4.35 1.949-4.35 4.354v24.67a4.353 4.353 0 0 0 4.35 4.354h24.68c2.4 0 4.35-1.949 4.35-4.354zM804.354 259.5a4.354 4.354 0 0 0-4.354 4.354v24.67a4.354 4.354 0 0 0 4.354 4.354h24.67a4.354 4.354 0 0 0 4.354-4.354v-24.67a4.354 4.354 0 0 0-4.354-4.354zm743.026 63.85a4.355 4.355 0 0 0-4.36-4.354h-24.67c-2.4 0-4.35 1.949-4.35 4.354v24.67a4.353 4.353 0 0 0 4.35 4.354h24.67c2.41 0 4.36-1.949 4.36-4.354zm-564.526 55.142a4.354 4.354 0 0 0-4.354 4.354v24.67a4.354 4.354 0 0 0 4.354 4.354h24.666c2.41 0 4.36-1.949 4.36-4.354v-24.67a4.355 4.355 0 0 0-4.36-4.354zm564.526 63.858a4.355 4.355 0 0 0-4.36-4.354h-24.67c-2.4 0-4.35 1.949-4.35 4.354v24.67a4.353 4.353 0 0 0 4.35 4.354h24.67c2.41 0 4.36-1.949 4.36-4.354zm-743.026 89.088a4.354 4.354 0 0 1-4.354-4.354v-24.671a4.353 4.353 0 0 1 4.354-4.353h24.67a4.353 4.353 0 0 1 4.354 4.353v24.671a4.354 4.354 0 0 1-4.354 4.354zM800 144.85a4.354 4.354 0 0 1 4.354-4.354h24.67a4.354 4.354 0 0 1 4.354 4.354v24.67a4.354 4.354 0 0 1-4.354 4.354h-24.67A4.354 4.354 0 0 1 800 169.52zm4.354-123.35A4.354 4.354 0 0 0 800 25.854v24.67a4.354 4.354 0 0 0 4.354 4.354h24.67a4.354 4.354 0 0 0 4.354-4.354v-24.67a4.354 4.354 0 0 0-4.354-4.354zm114.642 4.354a4.354 4.354 0 0 1 4.354-4.354h24.67a4.354 4.354 0 0 1 4.354 4.354v24.67a4.354 4.354 0 0 1-4.354 4.354h-24.67a4.354 4.354 0 0 1-4.354-4.354zm-55.58-4.354a4.354 4.354 0 0 0-4.354 4.354v24.67a4.354 4.354 0 0 0 4.354 4.354h24.671a4.353 4.353 0 0 0 4.353-4.354v-24.67a4.353 4.353 0 0 0-4.353-4.354zm293.574 4.354a4.356 4.356 0 0 1 4.36-4.354h24.67c2.4 0 4.35 1.95 4.35 4.354v24.67a4.353 4.353 0 0 1-4.35 4.354h-24.67c-2.41 0-4.36-1.95-4.36-4.354zm183.55-4.354c-2.4 0-4.35 1.95-4.35 4.354v24.67a4.353 4.353 0 0 0 4.35 4.354h24.67c2.41 0 4.36-1.95 4.36-4.354v-24.67a4.356 4.356 0 0 0-4.36-4.354zm54.65 123.35a4.355 4.355 0 0 1 4.36-4.354h24.67c2.4 0 4.35 1.949 4.35 4.354v24.67a4.353 4.353 0 0 1-4.35 4.354h-24.67a4.355 4.355 0 0 1-4.36-4.354zM1518.36 21.5c-2.41 0-4.36 1.95-4.36 4.354v24.67a4.356 4.356 0 0 0 4.36 4.354h24.67c2.4 0 4.35-1.95 4.35-4.354v-24.67a4.353 4.353 0 0 0-4.35-4.354zM1514 85.358a4.356 4.356 0 0 1 4.36-4.354h24.67c2.4 0 4.35 1.95 4.35 4.353v24.671a4.353 4.353 0 0 1-4.35 4.354h-24.67a4.355 4.355 0 0 1-4.36-4.354zm4.36 55.138a4.355 4.355 0 0 0-4.36 4.354v24.67a4.355 4.355 0 0 0 4.36 4.354h24.67c2.4 0 4.35-1.949 4.35-4.354v-24.67a4.353 4.353 0 0 0-4.35-4.354zM1514 263.854a4.355 4.355 0 0 1 4.36-4.354h24.67c2.4 0 4.35 1.949 4.35 4.354v24.67a4.353 4.353 0 0 1-4.35 4.354h-24.67a4.355 4.355 0 0 1-4.36-4.354zm-684.975 55.142a4.354 4.354 0 0 1 4.354 4.354v24.67a4.354 4.354 0 0 1-4.354 4.354h-24.67a4.354 4.354 0 0 1-4.354-4.354v-24.67a4.354 4.354 0 0 1 4.354-4.354zm63.409 4.354a4.354 4.354 0 0 0-4.354-4.354h-24.671a4.353 4.353 0 0 0-4.353 4.354v24.67a4.353 4.353 0 0 0 4.353 4.354h24.671a4.354 4.354 0 0 0 4.354-4.354zm-63.409 55.142a4.354 4.354 0 0 1 4.354 4.354v24.67a4.354 4.354 0 0 1-4.354 4.354h-24.67a4.354 4.354 0 0 1-4.354-4.354v-24.67a4.354 4.354 0 0 1 4.354-4.354zm63.409 4.354a4.354 4.354 0 0 0-4.354-4.354h-24.671a4.353 4.353 0 0 0-4.353 4.354v24.67a4.353 4.353 0 0 0 4.353 4.354h24.671a4.354 4.354 0 0 0 4.354-4.354zM982.623 200a4.353 4.353 0 0 0-4.353 4.354v24.67a4.353 4.353 0 0 0 4.353 4.354h24.667c2.41 0 4.36-1.949 4.36-4.354v-24.67a4.355 4.355 0 0 0-4.36-4.354zm-63.627 182.846a4.354 4.354 0 0 1 4.354-4.354h24.67a4.354 4.354 0 0 1 4.354 4.354v24.67a4.354 4.354 0 0 1-4.354 4.354h-24.67a4.354 4.354 0 0 1-4.354-4.354zm122.564-242.35c-2.4 0-4.35 1.949-4.35 4.354v24.67a4.353 4.353 0 0 0 4.35 4.354h24.68c2.4 0 4.35-1.949 4.35-4.354v-24.67a4.353 4.353 0 0 0-4.35-4.354zm-4.35-113.877a4.353 4.353 0 0 1 4.35-4.353h24.68c2.4 0 4.35 1.949 4.35 4.353v24.67a4.353 4.353 0 0 1-4.35 4.354h-24.68c-2.4 0-4.35-1.949-4.35-4.353zm243.01 113.877c-2.4 0-4.35 1.949-4.35 4.354v24.67a4.353 4.353 0 0 0 4.35 4.354h24.68c2.4 0 4.35-1.949 4.35-4.354v-24.67a4.353 4.353 0 0 0-4.35-4.354zm56.15 64.272a4.353 4.353 0 0 1 4.35-4.354h24.67c2.41 0 4.35 1.949 4.35 4.354v24.67a4.347 4.347 0 0 1-4.35 4.354h-24.67c-2.4 0-4.35-1.949-4.35-4.354zM1161.35 259.5a4.355 4.355 0 0 0-4.36 4.354v24.67a4.355 4.355 0 0 0 4.36 4.354h24.67c2.4 0 4.35-1.949 4.35-4.354v-24.67a4.353 4.353 0 0 0-4.35-4.354zm52.33 4.354a4.347 4.347 0 0 1 4.35-4.354h24.67c2.4 0 4.35 1.949 4.35 4.354v24.67a4.353 4.353 0 0 1-4.35 4.354h-24.67a4.347 4.347 0 0 1-4.35-4.354zm-27.66 55.142c2.41 0 4.36 1.949 4.36 4.354v24.67a4.355 4.355 0 0 1-4.36 4.354h-24.67c-2.4 0-4.35-1.949-4.35-4.354v-24.67a4.353 4.353 0 0 1 4.35-4.354zm-54.93 4.354a4.353 4.353 0 0 0-4.35-4.354h-24.67c-2.4 0-4.35 1.949-4.35 4.354v24.67a4.353 4.353 0 0 0 4.35 4.354h24.67c2.4 0 4.35-1.949 4.35-4.354zm113.76 116.22c2.4 0 4.35 1.95 4.35 4.354v24.67a4.353 4.353 0 0 1-4.35 4.354h-24.67a4.355 4.355 0 0 1-4.36-4.354v-24.67a4.356 4.356 0 0 1 4.36-4.354zm90.65-56.724a4.353 4.353 0 0 1 4.35-4.354h24.67c2.41 0 4.36 1.949 4.36 4.354v24.67a4.355 4.355 0 0 1-4.36 4.354h-24.67c-2.4 0-4.35-1.949-4.35-4.354zM923.92 259.5a4.354 4.354 0 0 0-4.354 4.354v24.67a4.354 4.354 0 0 0 4.354 4.354h24.671a4.353 4.353 0 0 0 4.353-4.354v-24.67a4.353 4.353 0 0 0-4.353-4.354zm-4.924 182.85a4.354 4.354 0 0 1 4.354-4.354h24.67a4.354 4.354 0 0 1 4.354 4.354v24.67a4.354 4.354 0 0 1-4.354 4.354h-24.67a4.354 4.354 0 0 1-4.354-4.354zm122.564-4.354c-2.4 0-4.35 1.949-4.35 4.354v24.67a4.353 4.353 0 0 0 4.35 4.354h24.68c2.4 0 4.35-1.949 4.35-4.354v-24.67a4.353 4.353 0 0 0-4.35-4.354zm386.81 89.088a4.354 4.354 0 0 1-4.35 4.354h-24.67c-2.41 0-4.36-1.95-4.36-4.354v-24.671a4.355 4.355 0 0 1 4.36-4.353h24.67c2.4 0 4.35 1.949 4.35 4.353zm-3.92-208.088c2.4 0 4.35 1.949 4.35 4.354v24.67a4.353 4.353 0 0 1-4.35 4.354h-24.67a4.355 4.355 0 0 1-4.36-4.354v-24.67a4.355 4.355 0 0 1 4.36-4.354zm-326.95 63.85a4.353 4.353 0 0 1 4.35-4.354h24.67c2.4 0 4.35 1.949 4.35 4.354v24.67a4.353 4.353 0 0 1-4.35 4.354h-24.67c-2.4 0-4.35-1.949-4.35-4.354zm326.52 55.15c2.41 0 4.36 1.949 4.36 4.354v24.67a4.355 4.355 0 0 1-4.36 4.354h-24.67c-2.4 0-4.35-1.949-4.35-4.354v-24.67a4.353 4.353 0 0 1 4.35-4.354zm-505.024 89.088a4.354 4.354 0 0 0 4.354 4.354h24.67a4.354 4.354 0 0 0 4.354-4.354v-24.671a4.353 4.353 0 0 0-4.354-4.353h-24.67a4.353 4.353 0 0 0-4.354 4.353zm241.894 4.354c-2.41 0-4.35-1.95-4.35-4.354v-24.671a4.347 4.347 0 0 1 4.35-4.353h24.67c2.4 0 4.35 1.949 4.35 4.353v24.671a4.354 4.354 0 0 1-4.35 4.354zm-123.68-4.354a4.354 4.354 0 0 0 4.35 4.354h24.68c2.4 0 4.35-1.95 4.35-4.354v-24.671a4.353 4.353 0 0 0-4.35-4.353h-24.68c-2.4 0-4.35 1.949-4.35 4.353zm241.89 4.354c-2.4 0-4.35-1.95-4.35-4.354v-24.671a4.353 4.353 0 0 1 4.35-4.353h24.67c2.41 0 4.36 1.949 4.36 4.353v24.671a4.356 4.356 0 0 1-4.36 4.354z" fill="#000" fill-opacity=".5"/><path d="M24.354 21.003a4.85 4.85 0 0 0-4.851 4.85h.994a3.856 3.856 0 0 1 3.857-3.856zm24.67 0h-24.67v.994h24.67zm4.851 4.85a4.85 4.85 0 0 0-4.85-4.85v.994a3.856 3.856 0 0 1 3.855 3.857zm0 24.671v-24.67h-.995v24.67zm-4.85 4.851a4.85 4.85 0 0 0 4.85-4.85h-.995a3.856 3.856 0 0 1-3.856 3.855zm-24.671 0h24.67v-.995h-24.67zm-4.851-4.85a4.85 4.85 0 0 0 4.85 4.85v-.995a3.856 3.856 0 0 1-3.856-3.856zm0-24.671v24.67h.994v-24.67zm302.347-4.086a4.85 4.85 0 0 0-4.851 4.851h.994a3.857 3.857 0 0 1 3.857-3.856zm24.67 0h-24.67v.995h24.67zm4.851 4.851a4.85 4.85 0 0 0-4.851-4.85v.994a3.857 3.857 0 0 1 3.857 3.856zm0 24.67V26.62h-.994v24.67zm-4.851 4.852a4.85 4.85 0 0 0 4.851-4.851h-.994a3.857 3.857 0 0 1-3.857 3.856zm-24.67 0h24.67v-.995h-24.67zm-4.851-4.851a4.85 4.85 0 0 0 4.851 4.85v-.994a3.857 3.857 0 0 1-3.857-3.856zm0-24.67v24.67h.994V26.62zM198.997 84.591a3.857 3.857 0 0 1 3.857-3.856v-.995a4.85 4.85 0 0 0-4.851 4.85zm0 24.67v-24.67h-.994v24.67zm3.857 3.857a3.857 3.857 0 0 1-3.857-3.857h-.994a4.85 4.85 0 0 0 4.851 4.851zm24.67 0h-24.67v.994h24.67zm3.856-3.857a3.856 3.856 0 0 1-3.856 3.857v.994a4.85 4.85 0 0 0 4.851-4.851zm0-24.67v24.67h.995v-24.67zm-3.856-3.856a3.856 3.856 0 0 1 3.856 3.856h.995a4.85 4.85 0 0 0-4.851-4.851zm-24.67 0h24.67v-.995h-24.67zm115.139 3.856a3.857 3.857 0 0 1 3.857-3.856v-.995a4.85 4.85 0 0 0-4.851 4.85zm0 24.67v-24.67h-.994v24.67zm3.857 3.857a3.857 3.857 0 0 1-3.857-3.857h-.994a4.85 4.85 0 0 0 4.851 4.851zm24.67 0h-24.67v.994h24.67zm3.857-3.857a3.857 3.857 0 0 1-3.857 3.857v.994a4.85 4.85 0 0 0 4.851-4.851zm0-24.67v24.67h.994v-24.67zm-3.857-3.856a3.857 3.857 0 0 1 3.857 3.856h.994a4.85 4.85 0 0 0-4.851-4.851zm-24.67 0h24.67v-.995h-24.67zm59.039-.995a4.85 4.85 0 0 0-4.851 4.85h.994a3.857 3.857 0 0 1 3.857-3.855zm24.67 0h-24.67v.995h24.67zm4.851 4.85a4.85 4.85 0 0 0-4.851-4.85v.995a3.857 3.857 0 0 1 3.857 3.856zm0 24.671v-24.67h-.994v24.67zm-4.851 4.851a4.85 4.85 0 0 0 4.851-4.851h-.994a3.857 3.857 0 0 1-3.857 3.857zm-24.67 0h24.67v-.994h-24.67zm-4.851-4.851a4.85 4.85 0 0 0 4.851 4.851v-.994a3.857 3.857 0 0 1-3.857-3.857zm0-24.67v24.67h.994v-24.67zm59.819 0a3.856 3.856 0 0 1 3.856-3.856v-.995a4.85 4.85 0 0 0-4.851 4.85zm0 24.67v-24.67h-.995v24.67zm3.856 3.857a3.856 3.856 0 0 1-3.856-3.857h-.995a4.85 4.85 0 0 0 4.851 4.851zm24.671 0h-24.671v.994h24.671zm3.856-3.857a3.857 3.857 0 0 1-3.856 3.857v.994a4.85 4.85 0 0 0 4.85-4.851zm0-24.67v24.67h.994v-24.67zm-3.856-3.856a3.857 3.857 0 0 1 3.856 3.856h.994a4.85 4.85 0 0 0-4.85-4.851zm-24.671 0h24.671v-.995h-24.671zm58.91-.995a4.85 4.85 0 0 0-4.851 4.85h.995a3.856 3.856 0 0 1 3.856-3.855zm24.671 0h-24.671v.995h24.671zm4.851 4.85a4.85 4.85 0 0 0-4.851-4.85v.995a3.857 3.857 0 0 1 3.856 3.856zm0 24.671v-24.67h-.995v24.67zm-4.851 4.851a4.85 4.85 0 0 0 4.851-4.851h-.995a3.857 3.857 0 0 1-3.856 3.857zm-24.671 0h24.671v-.994h-24.671zm-4.851-4.851a4.85 4.85 0 0 0 4.851 4.851v-.994a3.856 3.856 0 0 1-3.856-3.857zm0-24.67v24.67h.995v-24.67zm62.995 0a3.856 3.856 0 0 1 3.856-3.856v-.995a4.85 4.85 0 0 0-4.851 4.85zm0 24.67v-24.67h-.995v24.67zm3.856 3.857a3.856 3.856 0 0 1-3.856-3.857h-.995a4.85 4.85 0 0 0 4.851 4.851zm24.671 0h-24.671v.994h24.671zm3.856-3.857a3.857 3.857 0 0 1-3.856 3.857v.994a4.85 4.85 0 0 0 4.851-4.851zm0-24.67v24.67h.995v-24.67zm-3.856-3.856a3.857 3.857 0 0 1 3.856 3.856h.995a4.85 4.85 0 0 0-4.851-4.851zm-24.671 0h24.671v-.995h-24.671zm-60.398 178.267a4.85 4.85 0 0 0-4.851 4.851h.994a3.857 3.857 0 0 1 3.857-3.857zm24.67 0h-24.67v.994h24.67zm4.851 4.851a4.85 4.85 0 0 0-4.851-4.851v.994a3.857 3.857 0 0 1 3.857 3.857zm0 24.67v-24.67h-.994v24.67zm-4.851 4.851a4.85 4.85 0 0 0 4.851-4.851h-.994a3.856 3.856 0 0 1-3.857 3.856zm-24.67 0h24.67v-.995h-24.67zm-4.851-4.851a4.85 4.85 0 0 0 4.851 4.851v-.995a3.856 3.856 0 0 1-3.857-3.856zm0-24.67v24.67h.994v-24.67zM291.318 323.35a4.85 4.85 0 0 0-4.851-4.851v.994a3.857 3.857 0 0 1 3.856 3.857zm0 24.67v-24.67h-.995v24.67zm-4.851 4.851a4.85 4.85 0 0 0 4.851-4.851h-.995a3.857 3.857 0 0 1-3.856 3.857zm-24.671 0h24.671v-.994h-24.671zm-4.851-4.851a4.85 4.85 0 0 0 4.851 4.851v-.994a3.856 3.856 0 0 1-3.856-3.857zm0-24.67v24.67h.995v-24.67zm4.851-4.851a4.85 4.85 0 0 0-4.851 4.851h.995a3.856 3.856 0 0 1 3.856-3.857zm24.671 0h-24.671v.994h24.671zm392.387 59.496a4.85 4.85 0 0 0-4.851 4.851h.994a3.856 3.856 0 0 1 3.857-3.856zm24.67 0h-24.67v.995h24.67zm4.851 4.851a4.85 4.85 0 0 0-4.851-4.851v.995a3.856 3.856 0 0 1 3.856 3.856zm0 24.67v-24.67h-.995v24.67zm-4.851 4.851a4.85 4.85 0 0 0 4.851-4.851h-.995a3.856 3.856 0 0 1-3.856 3.857zm-24.67 0h24.67v-.994h-24.67zm-4.851-4.851a4.85 4.85 0 0 0 4.851 4.851v-.994a3.857 3.857 0 0 1-3.857-3.857zm0-24.67v24.67h.994v-24.67zM556.865 263.854a3.856 3.856 0 0 1 3.856-3.857v-.994a4.85 4.85 0 0 0-4.851 4.851zm0 24.67v-24.67h-.995v24.67zm3.856 3.856a3.856 3.856 0 0 1-3.856-3.856h-.995a4.85 4.85 0 0 0 4.851 4.851zm24.67 0h-24.67v.995h24.67zm3.857-3.856a3.856 3.856 0 0 1-3.857 3.856v.995a4.85 4.85 0 0 0 4.851-4.851zm0-24.67v24.67h.994v-24.67zm-3.857-3.857a3.857 3.857 0 0 1 3.857 3.857h.994a4.85 4.85 0 0 0-4.851-4.851zm-24.67 0h24.67v-.994h-24.67zm-333.196 59.496a3.857 3.857 0 0 1 3.857 3.857h.994a4.85 4.85 0 0 0-4.851-4.851zm-24.67 0h24.67v-.994h-24.67zm-3.857 3.857a3.857 3.857 0 0 1 3.857-3.857v-.994a4.85 4.85 0 0 0-4.851 4.851zm0 24.67v-24.67h-.994v24.67zm3.857 3.857a3.857 3.857 0 0 1-3.857-3.857h-.994a4.85 4.85 0 0 0 4.851 4.851zm24.67 0h-24.67v.994h24.67zm3.857-3.857a3.857 3.857 0 0 1-3.857 3.857v.994a4.85 4.85 0 0 0 4.851-4.851zm0-24.67v24.67h.994v-24.67zm503.119 59.496a3.856 3.856 0 0 1 3.857-3.856v-.995a4.85 4.85 0 0 0-4.851 4.851zm0 24.67v-24.67h-.994v24.67zm3.857 3.857a3.857 3.857 0 0 1-3.857-3.857h-.994a4.85 4.85 0 0 0 4.851 4.851zm24.67 0h-24.67v.994h24.67zm3.856-3.857a3.856 3.856 0 0 1-3.856 3.857v.994a4.85 4.85 0 0 0 4.851-4.851zm0-24.67v24.67h.995v-24.67zm-3.856-3.856a3.856 3.856 0 0 1 3.856 3.856h.995a4.85 4.85 0 0 0-4.851-4.851zm-24.67 0h24.67v-.995h-24.67zM49.025 591.443a4.85 4.85 0 0 0 4.851-4.851h-.994a3.857 3.857 0 0 1-3.857 3.856zm-24.67 0h24.67v-.995h-24.67zm-4.851-4.851a4.85 4.85 0 0 0 4.85 4.851v-.995a3.857 3.857 0 0 1-3.856-3.856zm0-24.671v24.671h.994v-24.671zm4.85-4.851a4.85 4.85 0 0 0-4.85 4.851h.994a3.856 3.856 0 0 1 3.857-3.856zm24.671 0h-24.67v.995h24.67zm4.851 4.851a4.85 4.85 0 0 0-4.85-4.851v.995a3.856 3.856 0 0 1 3.856 3.856zm0 24.671v-24.671h-.994v24.671zM317.993 144.85a3.857 3.857 0 0 1 3.857-3.857v-.994a4.85 4.85 0 0 0-4.851 4.851zm0 24.67v-24.67h-.994v24.67zm3.857 3.857a3.857 3.857 0 0 1-3.857-3.857h-.994a4.85 4.85 0 0 0 4.851 4.851zm24.67 0h-24.67v.994h24.67zm3.857-3.857a3.857 3.857 0 0 1-3.857 3.857v.994a4.85 4.85 0 0 0 4.851-4.851zm0-24.67v24.67h.994v-24.67zm-3.857-3.857a3.857 3.857 0 0 1 3.857 3.857h.994a4.85 4.85 0 0 0-4.851-4.851zm-24.67 0h24.67v-.994h-24.67zm235.015 3.857a3.856 3.856 0 0 1 3.856-3.857v-.994a4.85 4.85 0 0 0-4.851 4.851zm0 24.67v-24.67h-.995v24.67zm3.856 3.857a3.856 3.856 0 0 1-3.856-3.857h-.995a4.85 4.85 0 0 0 4.851 4.851zm24.67 0h-24.67v.994h24.67zm3.857-3.857a3.857 3.857 0 0 1-3.857 3.857v.994a4.85 4.85 0 0 0 4.851-4.851zm0-24.67v24.67h.994v-24.67zm-3.857-3.857a3.857 3.857 0 0 1 3.857 3.857h.994a4.85 4.85 0 0 0-4.851-4.851zm-24.67 0h24.67v-.994h-24.67zm58.824 58.924a4.85 4.85 0 0 0-4.851 4.851h.995a3.856 3.856 0 0 1 3.856-3.857zm24.671 0h-24.671v.994h24.671zm4.851 4.851a4.85 4.85 0 0 0-4.851-4.851v.994a3.857 3.857 0 0 1 3.856 3.857zm0 24.67v-24.67h-.995v24.67zm-4.851 4.851a4.85 4.85 0 0 0 4.851-4.851h-.995a3.857 3.857 0 0 1-3.856 3.857zm-24.671 0h24.671v-.994h-24.671zm-4.851-4.851a4.85 4.85 0 0 0 4.851 4.851v-.994a3.856 3.856 0 0 1-3.856-3.857zm0-24.67v24.67h.995v-24.67zM377.032 144.85a3.857 3.857 0 0 1 3.857-3.857v-.994a4.85 4.85 0 0 0-4.851 4.851zm0 24.67v-24.67h-.994v24.67zm3.857 3.857a3.857 3.857 0 0 1-3.857-3.857h-.994a4.85 4.85 0 0 0 4.851 4.851zm24.67 0h-24.67v.994h24.67zm3.857-3.857a3.857 3.857 0 0 1-3.857 3.857v.994a4.85 4.85 0 0 0 4.851-4.851zm0-24.67v24.67h.994v-24.67zm-3.857-3.857a3.857 3.857 0 0 1 3.857 3.857h.994a4.85 4.85 0 0 0-4.851-4.851zm-24.67 0h24.67v-.994h-24.67zm0 58.51a4.85 4.85 0 0 0-4.851 4.851h.994a3.857 3.857 0 0 1 3.857-3.857zm24.67 0h-24.67v.994h24.67zm4.851 4.851a4.85 4.85 0 0 0-4.851-4.851v.994a3.857 3.857 0 0 1 3.857 3.857zm0 24.67v-24.67h-.994v24.67zm-4.851 4.851a4.85 4.85 0 0 0 4.851-4.851h-.994a3.856 3.856 0 0 1-3.857 3.856zm-24.67 0h24.67v-.995h-24.67zm-4.851-4.851a4.85 4.85 0 0 0 4.851 4.851v-.995a3.856 3.856 0 0 1-3.857-3.856zm0-24.67v24.67h.994v-24.67zm59.819 0a3.856 3.856 0 0 1 3.856-3.857v-.994a4.85 4.85 0 0 0-4.851 4.851zm0 24.67v-24.67h-.995v24.67zm3.856 3.856a3.856 3.856 0 0 1-3.856-3.856h-.995a4.85 4.85 0 0 0 4.851 4.851zm24.671 0h-24.671v.995h24.671zm3.856-3.856a3.856 3.856 0 0 1-3.856 3.856v.995a4.85 4.85 0 0 0 4.85-4.851zm0-24.67v24.67h.994v-24.67zm-3.856-3.857a3.857 3.857 0 0 1 3.856 3.857h.994a4.85 4.85 0 0 0-4.85-4.851zm-24.671 0h24.671v-.994h-24.671zM83.858 259.003a4.85 4.85 0 0 0-4.851 4.851H80a3.857 3.857 0 0 1 3.856-3.857zm24.67 0h-24.67v.994h24.67zm4.851 4.851a4.85 4.85 0 0 0-4.851-4.851v.994a3.856 3.856 0 0 1 3.856 3.857zm0 24.67v-24.67h-.995v24.67zm-4.851 4.851a4.85 4.85 0 0 0 4.851-4.851h-.995a3.856 3.856 0 0 1-3.856 3.856zm-24.67 0h24.67v-.995h-24.67zm-4.851-4.851a4.85 4.85 0 0 0 4.85 4.851v-.995a3.856 3.856 0 0 1-3.856-3.856zm0-24.67v24.67H80v-24.67zm119.881-118.758a3.856 3.856 0 0 1 3.856-3.857v-.994a4.85 4.85 0 0 0-4.851 4.851zm0 24.67v-24.67h-.995v24.67zm3.856 3.857a3.856 3.856 0 0 1-3.856-3.857h-.995a4.85 4.85 0 0 0 4.851 4.851zm24.671 0h-24.671v.994h24.671zm3.856-3.857a3.856 3.856 0 0 1-3.856 3.857v.994a4.85 4.85 0 0 0 4.851-4.851zm0-24.67v24.67h.995v-24.67zm-3.856-3.857a3.856 3.856 0 0 1 3.856 3.857h.995a4.85 4.85 0 0 0-4.851-4.851zm-24.671 0h24.671v-.994h-24.671zm0-119.225a4.85 4.85 0 0 0-4.851 4.851h.995a3.856 3.856 0 0 1 3.856-3.856zm24.671 0h-24.671v.995h24.671zm4.851 4.851a4.85 4.85 0 0 0-4.851-4.85v.994a3.856 3.856 0 0 1 3.856 3.856zm0 24.67v-24.67h-.995v24.67zm-4.851 4.852a4.85 4.85 0 0 0 4.851-4.851h-.995a3.856 3.856 0 0 1-3.856 3.856zm-24.671 0h24.671v-.995h-24.671zm-4.851-4.851a4.85 4.85 0 0 0 4.851 4.85v-.994a3.856 3.856 0 0 1-3.856-3.856zm0-24.67v24.67h.995v-24.67zm237.964 118.23a3.856 3.856 0 0 1 3.856-3.857v-.994a4.85 4.85 0 0 0-4.851 4.851zm0 24.67v-24.67h-.995v24.67zm3.856 3.857a3.856 3.856 0 0 1-3.856-3.857h-.995a4.85 4.85 0 0 0 4.851 4.851zm24.671 0h-24.671v.994h24.671zm3.856-3.857a3.857 3.857 0 0 1-3.856 3.857v.994a4.85 4.85 0 0 0 4.85-4.851zm0-24.67v24.67h.994v-24.67zm-3.856-3.857a3.857 3.857 0 0 1 3.856 3.857h.994a4.85 4.85 0 0 0-4.85-4.851zm-24.671 0h24.671v-.994h-24.671zm60.512 58.928a4.85 4.85 0 0 0-4.851 4.851h.994a3.857 3.857 0 0 1 3.857-3.857zm24.67 0h-24.67v.994h24.67zm4.851 4.851a4.85 4.85 0 0 0-4.851-4.851v.994a3.857 3.857 0 0 1 3.857 3.857zm0 24.67v-24.67h-.994v24.67zm-4.851 4.851a4.85 4.85 0 0 0 4.851-4.851h-.994a3.857 3.857 0 0 1-3.857 3.857zm-24.67 0h24.67v-.994h-24.67zm-4.851-4.851a4.85 4.85 0 0 0 4.851 4.851v-.994a3.857 3.857 0 0 1-3.857-3.857zm0-24.67v24.67h.994v-24.67zM80.001 442.35a3.857 3.857 0 0 1 3.856-3.857v-.994a4.85 4.85 0 0 0-4.85 4.851zm0 24.67v-24.67h-.994v24.67zm3.856 3.857a3.857 3.857 0 0 1-3.856-3.857h-.994a4.85 4.85 0 0 0 4.85 4.851zm24.671 0h-24.67v.994h24.67zm3.856-3.857a3.856 3.856 0 0 1-3.856 3.857v.994a4.85 4.85 0 0 0 4.851-4.851zm0-24.67v24.67h.995v-24.67zm-3.856-3.857a3.856 3.856 0 0 1 3.856 3.857h.995a4.85 4.85 0 0 0-4.851-4.851zm-24.67 0h24.67v-.994h-24.67zm619.667 93.442a4.85 4.85 0 0 0 4.851-4.851h-.994a3.856 3.856 0 0 1-3.857 3.856zm-24.67 0h24.67v-.995h-24.67zm-4.851-4.851a4.85 4.85 0 0 0 4.851 4.851v-.995a3.856 3.856 0 0 1-3.857-3.856zm0-24.671v24.671h.994v-24.671zm4.851-4.851a4.85 4.85 0 0 0-4.851 4.851h.994a3.857 3.857 0 0 1 3.857-3.856zm24.67 0h-24.67v.995h24.67zm4.851 4.851a4.85 4.85 0 0 0-4.851-4.851v.995a3.857 3.857 0 0 1 3.857 3.856zm0 24.671v-24.671h-.994v24.671zm0-203.734a4.85 4.85 0 0 0-4.851-4.851v.994a3.857 3.857 0 0 1 3.857 3.857zm0 24.67v-24.67h-.994v24.67zm-4.851 4.851a4.85 4.85 0 0 0 4.851-4.851h-.994a3.857 3.857 0 0 1-3.857 3.857zm-24.67 0h24.67v-.994h-24.67zm-4.851-4.851a4.85 4.85 0 0 0 4.851 4.851v-.994a3.857 3.857 0 0 1-3.857-3.857zm0-24.67v24.67h.994v-24.67zm4.851-4.851a4.85 4.85 0 0 0-4.851 4.851h.994a3.857 3.857 0 0 1 3.857-3.857zm24.67 0h-24.67v.994h24.67zM24.354 259.003a4.85 4.85 0 0 0-4.851 4.851h.994a3.857 3.857 0 0 1 3.857-3.857zm24.67 0h-24.67v.994h24.67zm4.851 4.851a4.85 4.85 0 0 0-4.85-4.851v.994a3.857 3.857 0 0 1 3.855 3.857zm0 24.67v-24.67h-.995v24.67zm-4.85 4.851a4.85 4.85 0 0 0 4.85-4.851h-.995a3.856 3.856 0 0 1-3.856 3.856zm-24.671 0h24.67v-.995h-24.67zm-4.851-4.851a4.85 4.85 0 0 0 4.85 4.851v-.995a3.856 3.856 0 0 1-3.856-3.856zm0-24.67v24.67h.994v-24.67zm748.369 59.496a4.85 4.85 0 0 0-4.851-4.851v.994a3.857 3.857 0 0 1 3.857 3.857zm0 24.67v-24.67h-.994v24.67zm-4.851 4.851a4.85 4.85 0 0 0 4.851-4.851h-.994a3.857 3.857 0 0 1-3.857 3.857zm-24.67 0h24.67v-.994h-24.67zm-4.851-4.851a4.85 4.85 0 0 0 4.851 4.851v-.994a3.856 3.856 0 0 1-3.856-3.857zm0-24.67v24.67h.995v-24.67zm4.851-4.851a4.85 4.85 0 0 0-4.851 4.851h.995a3.856 3.856 0 0 1 3.856-3.857zm24.67 0h-24.67v.994h24.67zm-560.167 59.496a4.85 4.85 0 0 0-4.851 4.851h.994a3.856 3.856 0 0 1 3.857-3.856zm24.67 0h-24.67v.995h24.67zm4.851 4.851a4.85 4.85 0 0 0-4.851-4.851v.995a3.856 3.856 0 0 1 3.856 3.856zm0 24.67v-24.67h-.995v24.67zm-4.851 4.851a4.85 4.85 0 0 0 4.851-4.851h-.995a3.856 3.856 0 0 1-3.856 3.857zm-24.67 0h24.67v-.994h-24.67zm-4.851-4.851a4.85 4.85 0 0 0 4.851 4.851v-.994a3.857 3.857 0 0 1-3.857-3.857zm0-24.67v24.67h.994v-24.67zm569.869 59.504a4.85 4.85 0 0 0-4.851-4.851v.994a3.857 3.857 0 0 1 3.857 3.857zm0 24.67v-24.67h-.994v24.67zm-4.851 4.851a4.85 4.85 0 0 0 4.851-4.851h-.994a3.857 3.857 0 0 1-3.857 3.857zm-24.67 0h24.67v-.994h-24.67zm-4.851-4.851a4.85 4.85 0 0 0 4.851 4.851v-.994a3.856 3.856 0 0 1-3.856-3.857zm0-24.67v24.67h.995v-24.67zm4.851-4.851a4.85 4.85 0 0 0-4.851 4.851h.995a3.856 3.856 0 0 1 3.856-3.857zm24.67 0h-24.67v.994h24.67zM24.354 530.94a3.856 3.856 0 0 1-3.857-3.856h-.994a4.85 4.85 0 0 0 4.85 4.851zm24.67 0h-24.67v.995h24.67zm3.856-3.856a3.856 3.856 0 0 1-3.856 3.856v.995a4.85 4.85 0 0 0 4.851-4.851zm0-24.671v24.671h.995v-24.671zm-3.856-3.856a3.857 3.857 0 0 1 3.856 3.856h.995a4.85 4.85 0 0 0-4.85-4.851zm-24.67 0h24.67v-.995h-24.67zm-3.857 3.856a3.857 3.857 0 0 1 3.857-3.856v-.995a4.85 4.85 0 0 0-4.851 4.851zm0 24.671v-24.671h-.994v24.671zm0-382.234a3.857 3.857 0 0 1 3.857-3.857v-.994a4.85 4.85 0 0 0-4.851 4.851zm0 24.67v-24.67h-.994v24.67zm3.857 3.857a3.857 3.857 0 0 1-3.857-3.857h-.994a4.85 4.85 0 0 0 4.85 4.851zm24.67 0h-24.67v.994h24.67zm3.856-3.857a3.857 3.857 0 0 1-3.856 3.857v.994a4.85 4.85 0 0 0 4.851-4.851zm0-24.67v24.67h.995v-24.67zm-3.856-3.857a3.857 3.857 0 0 1 3.856 3.857h.995a4.85 4.85 0 0 0-4.85-4.851zm-24.67 0h24.67v-.994h-24.67zm115.139-115.14a3.857 3.857 0 0 1 3.857-3.856v-.994a4.85 4.85 0 0 0-4.851 4.85zm0 24.671v-24.67h-.994v24.67zm3.857 3.856a3.857 3.857 0 0 1-3.857-3.856h-.994a4.85 4.85 0 0 0 4.851 4.851zm24.67 0h-24.67v.995h24.67zm3.857-3.856a3.857 3.857 0 0 1-3.857 3.856v.995a4.85 4.85 0 0 0 4.851-4.85zm0-24.67v24.67h.994v-24.67zm-3.857-3.857a3.857 3.857 0 0 1 3.857 3.857h.994a4.85 4.85 0 0 0-4.851-4.851zm-24.67 0h24.67v-.994h-24.67zm-59.934-.994a4.85 4.85 0 0 0-4.85 4.85h.994a3.856 3.856 0 0 1 3.856-3.856zm24.671 0h-24.67v.994h24.67zm4.851 4.85a4.85 4.85 0 0 0-4.851-4.85v.994a3.857 3.857 0 0 1 3.856 3.857zm0 24.671v-24.67h-.995v24.67zm-4.851 4.851a4.85 4.85 0 0 0 4.851-4.85h-.995a3.857 3.857 0 0 1-3.856 3.855zm-24.67 0h24.67v-.995h-24.67zm-4.852-4.85a4.85 4.85 0 0 0 4.851 4.85v-.995a3.856 3.856 0 0 1-3.856-3.856zm0-24.671v24.67h.995v-24.67zm298.925 0a3.856 3.856 0 0 1 3.856-3.857v-.994a4.85 4.85 0 0 0-4.851 4.85zm0 24.67v-24.67h-.995v24.67zm3.856 3.856a3.856 3.856 0 0 1-3.856-3.856h-.995a4.85 4.85 0 0 0 4.851 4.851zm24.67 0h-24.67v.995h24.67zm3.857-3.856a3.857 3.857 0 0 1-3.857 3.856v.995a4.85 4.85 0 0 0 4.851-4.85zm0-24.67v24.67h.994v-24.67zm-3.857-3.857a3.857 3.857 0 0 1 3.857 3.857h.994a4.85 4.85 0 0 0-4.851-4.851zm-24.67 0h24.67v-.994h-24.67zm179.195-.994a4.85 4.85 0 0 0-4.851 4.85h.995a3.856 3.856 0 0 1 3.856-3.856zm24.671 0h-24.671v.994h24.671zm4.851 4.85a4.85 4.85 0 0 0-4.851-4.85v.994a3.857 3.857 0 0 1 3.856 3.857zm0 24.671v-24.67h-.995v24.67zm-4.851 4.851a4.85 4.85 0 0 0 4.851-4.85h-.995a3.857 3.857 0 0 1-3.856 3.855zm-24.671 0h24.671v-.995h-24.671zm-4.851-4.85a4.85 4.85 0 0 0 4.851 4.85v-.995a3.856 3.856 0 0 1-3.856-3.856zm0-24.671v24.67h.995v-24.67zm59.999 118.996a3.856 3.856 0 0 1 3.856-3.857v-.994a4.85 4.85 0 0 0-4.851 4.851zm0 24.67v-24.67h-.995v24.67zm3.856 3.857a3.856 3.856 0 0 1-3.856-3.857h-.995a4.85 4.85 0 0 0 4.851 4.851zm24.671 0h-24.671v.994h24.671zm3.856-3.857a3.857 3.857 0 0 1-3.856 3.857v.994a4.85 4.85 0 0 0 4.851-4.851zm0-24.67v24.67h.995v-24.67zm-3.856-3.857a3.857 3.857 0 0 1 3.856 3.857h.995a4.85 4.85 0 0 0-4.851-4.851zm-24.671 0h24.671v-.994h-24.671zm118.813-119.99a4.85 4.85 0 0 0-4.851 4.85h.994a3.857 3.857 0 0 1 3.857-3.856zm24.67 0h-24.67v.994h24.67zm4.851 4.85a4.85 4.85 0 0 0-4.851-4.85v.994a3.856 3.856 0 0 1 3.856 3.857zm0 24.671v-24.67h-.995v24.67zm-4.851 4.851a4.85 4.85 0 0 0 4.851-4.85h-.995a3.856 3.856 0 0 1-3.856 3.855zm-24.67 0h24.67v-.995h-24.67zm-4.851-4.85a4.85 4.85 0 0 0 4.851 4.85v-.995a3.857 3.857 0 0 1-3.857-3.856zm0-24.671v24.67h.994v-24.67zm.994 59.504a3.857 3.857 0 0 1 3.857-3.857v-.994a4.85 4.85 0 0 0-4.851 4.85zm0 24.67v-24.67h-.994v24.67zm3.857 3.856a3.856 3.856 0 0 1-3.857-3.856h-.994a4.85 4.85 0 0 0 4.851 4.851zm24.67 0h-24.67v.995h24.67zm3.856-3.856a3.856 3.856 0 0 1-3.856 3.856v.995a4.85 4.85 0 0 0 4.851-4.851zm0-24.67v24.67h.995v-24.67zm-3.856-3.857a3.856 3.856 0 0 1 3.856 3.856h.995a4.85 4.85 0 0 0-4.851-4.85zm-24.67 0h24.67v-.994h-24.67zm0 58.498a4.85 4.85 0 0 0-4.851 4.851h.994a3.857 3.857 0 0 1 3.857-3.857zm24.67 0h-24.67v.994h24.67zm4.851 4.851a4.85 4.85 0 0 0-4.851-4.851v.994a3.856 3.856 0 0 1 3.856 3.857zm0 24.67v-24.67h-.995v24.67zm-4.851 4.851a4.85 4.85 0 0 0 4.851-4.851h-.995a3.856 3.856 0 0 1-3.856 3.857zm-24.67 0h24.67v-.994h-24.67zm-4.851-4.851a4.85 4.85 0 0 0 4.851 4.851v-.994a3.857 3.857 0 0 1-3.857-3.857zm0-24.67v24.67h.994v-24.67zm.994 119.004a3.857 3.857 0 0 1 3.857-3.857v-.994a4.85 4.85 0 0 0-4.851 4.851zm0 24.67v-24.67h-.994v24.67zm3.857 3.856a3.856 3.856 0 0 1-3.857-3.856h-.994a4.85 4.85 0 0 0 4.851 4.851zm24.67 0h-24.67v.995h24.67zm3.856-3.856a3.856 3.856 0 0 1-3.856 3.856v.995a4.85 4.85 0 0 0 4.851-4.851zm0-24.67v24.67h.995v-24.67zm-3.856-3.857a3.856 3.856 0 0 1 3.856 3.857h.995a4.85 4.85 0 0 0-4.851-4.851zm-24.67 0h24.67v-.994h-24.67zM49.025 319.493a3.857 3.857 0 0 1 3.857 3.857h.994a4.85 4.85 0 0 0-4.85-4.851zm-24.67 0h24.67v-.994h-24.67zm-3.857 3.857a3.857 3.857 0 0 1 3.857-3.857v-.994a4.85 4.85 0 0 0-4.851 4.851zm0 24.67v-24.67h-.994v24.67zm3.857 3.857a3.857 3.857 0 0 1-3.857-3.857h-.994a4.85 4.85 0 0 0 4.85 4.851zm24.67 0h-24.67v.994h24.67zm3.857-3.857a3.857 3.857 0 0 1-3.857 3.857v.994a4.85 4.85 0 0 0 4.851-4.851zm0-24.67v24.67h.994v-24.67zm60.049 0a4.85 4.85 0 0 0-4.851-4.851v.994a3.856 3.856 0 0 1 3.856 3.857zm0 24.67v-24.67h-.995v24.67zm-4.851 4.851a4.85 4.85 0 0 0 4.851-4.851h-.995a3.856 3.856 0 0 1-3.856 3.857zm-24.67 0h24.67v-.994H83.41zm-4.852-4.851a4.85 4.85 0 0 0 4.851 4.851v-.994a3.857 3.857 0 0 1-3.856-3.857zm0-24.67v24.67h.995v-24.67zm4.851-4.851a4.85 4.85 0 0 0-4.85 4.851h.994a3.857 3.857 0 0 1 3.856-3.857zm24.671 0H83.41v.994h24.67zM49.025 378.99a3.856 3.856 0 0 1 3.857 3.856h.994a4.85 4.85 0 0 0-4.85-4.851zm-24.67 0h24.67v-.995h-24.67zm-3.857 3.856a3.856 3.856 0 0 1 3.857-3.856v-.995a4.85 4.85 0 0 0-4.851 4.851zm0 24.67v-24.67h-.994v24.67zm3.857 3.857a3.857 3.857 0 0 1-3.857-3.857h-.994a4.85 4.85 0 0 0 4.85 4.851zm24.67 0h-24.67v.994h24.67zm3.857-3.857a3.857 3.857 0 0 1-3.857 3.857v.994a4.85 4.85 0 0 0 4.851-4.851zm0-24.67v24.67h.994v-24.67zm60.049 0a4.85 4.85 0 0 0-4.851-4.851v.995a3.856 3.856 0 0 1 3.856 3.856zm0 24.67v-24.67h-.995v24.67zm-4.851 4.851a4.85 4.85 0 0 0 4.851-4.851h-.995a3.856 3.856 0 0 1-3.856 3.857zm-24.67 0h24.67v-.994H83.41zm-4.852-4.851a4.85 4.85 0 0 0 4.851 4.851v-.994a3.857 3.857 0 0 1-3.856-3.857zm0-24.67v24.67h.995v-24.67zm4.851-4.851a4.85 4.85 0 0 0-4.85 4.851h.994a3.856 3.856 0 0 1 3.856-3.856zm24.671 0H83.41v.995h24.67zm94.543-178.492a4.85 4.85 0 0 0-4.851 4.851h.995a3.856 3.856 0 0 1 3.856-3.857zm24.671 0h-24.671v.994h24.671zm4.851 4.851a4.85 4.85 0 0 0-4.851-4.851v.994a3.857 3.857 0 0 1 3.856 3.857zm0 24.67v-24.67h-.995v24.67zm-4.851 4.851a4.85 4.85 0 0 0 4.851-4.851h-.995a3.856 3.856 0 0 1-3.856 3.856zm-24.671 0h24.671v-.995h-24.671zm-4.851-4.851a4.85 4.85 0 0 0 4.851 4.851v-.995a3.856 3.856 0 0 1-3.856-3.856zm0-24.67v24.67h.995v-24.67zm-58.279 178.492a3.856 3.856 0 0 1 3.857-3.856v-.995a4.85 4.85 0 0 0-4.851 4.851zm0 24.67v-24.67h-.994v24.67zm3.857 3.857a3.857 3.857 0 0 1-3.857-3.857h-.994a4.85 4.85 0 0 0 4.851 4.851zm24.67 0h-24.67v.994h24.67zm3.857-3.857a3.857 3.857 0 0 1-3.857 3.857v.994a4.85 4.85 0 0 0 4.851-4.851zm0-24.67v24.67h.994v-24.67zm-3.857-3.856a3.856 3.856 0 0 1 3.857 3.856h.994a4.85 4.85 0 0 0-4.851-4.851zm-24.67 0h24.67v-.995h-24.67zm118.215-238.991a4.85 4.85 0 0 0-4.851 4.851h.994a3.857 3.857 0 0 1 3.857-3.857zm24.67 0h-24.67v.994h24.67zm4.851 4.851a4.85 4.85 0 0 0-4.851-4.851v.994a3.856 3.856 0 0 1 3.856 3.857zm0 24.67v-24.67h-.995v24.67zm-4.851 4.851a4.85 4.85 0 0 0 4.851-4.851h-.995a3.856 3.856 0 0 1-3.856 3.857zm-24.67 0h24.67v-.994h-24.67zm-4.851-4.851a4.85 4.85 0 0 0 4.851 4.851v-.994a3.857 3.857 0 0 1-3.857-3.857zm0-24.67v24.67h.994v-24.67zm.994-118.23a3.857 3.857 0 0 1 3.857-3.857v-.995a4.85 4.85 0 0 0-4.851 4.851zm0 24.67V26.62h-.994v24.67zm3.857 3.856a3.857 3.857 0 0 1-3.857-3.856h-.994a4.85 4.85 0 0 0 4.851 4.85zm24.67 0h-24.67v.995h24.67zm3.856-3.856a3.856 3.856 0 0 1-3.856 3.856v.995a4.85 4.85 0 0 0 4.851-4.851zm0-24.67v24.67h.995V26.62zm-3.856-3.857a3.856 3.856 0 0 1 3.856 3.856h.995a4.85 4.85 0 0 0-4.851-4.85zm-24.67 0h24.67v-.995h-24.67zm238.66 117.236a4.85 4.85 0 0 0-4.851 4.851h.994a3.857 3.857 0 0 1 3.857-3.857zm24.67 0h-24.67v.994h24.67zm4.851 4.851a4.85 4.85 0 0 0-4.851-4.851v.994a3.857 3.857 0 0 1 3.857 3.857zm0 24.67v-24.67h-.994v24.67zm-4.851 4.851a4.85 4.85 0 0 0 4.851-4.851h-.994a3.857 3.857 0 0 1-3.857 3.857zm-24.67 0h24.67v-.994h-24.67zm-4.851-4.851a4.85 4.85 0 0 0 4.851 4.851v-.994a3.857 3.857 0 0 1-3.857-3.857zm0-24.67v24.67h.994v-24.67zm61.491 59.918a3.856 3.856 0 0 1 3.856-3.857v-.994a4.85 4.85 0 0 0-4.851 4.851zm0 24.67v-24.67h-.995v24.67zm3.856 3.857a3.856 3.856 0 0 1-3.856-3.857h-.995a4.85 4.85 0 0 0 4.851 4.851zm24.67 0h-24.67v.994h24.67zm3.857-3.857a3.857 3.857 0 0 1-3.857 3.857v.994a4.85 4.85 0 0 0 4.851-4.851zm0-24.67v24.67h.994v-24.67zm-3.857-3.857a3.857 3.857 0 0 1 3.857 3.857h.994a4.85 4.85 0 0 0-4.851-4.851zm-24.67 0h24.67v-.994h-24.67zm-179.375 58.092a4.85 4.85 0 0 0-4.851 4.851h.995a3.856 3.856 0 0 1 3.856-3.857zm24.67 0h-24.67v.994h24.67zm4.851 4.851a4.85 4.85 0 0 0-4.851-4.851v.994a3.857 3.857 0 0 1 3.857 3.857zm0 24.67v-24.67h-.994v24.67zm-4.851 4.851a4.85 4.85 0 0 0 4.851-4.851h-.994a3.856 3.856 0 0 1-3.857 3.856zm-24.67 0h24.67v-.995h-24.67zm-4.851-4.851a4.85 4.85 0 0 0 4.851 4.851v-.995a3.856 3.856 0 0 1-3.856-3.856zm0-24.67v24.67h.995v-24.67zm57.678 0a3.857 3.857 0 0 1 3.856-3.857v-.994a4.85 4.85 0 0 0-4.851 4.851zm0 24.67v-24.67h-.995v24.67zm3.856 3.856a3.856 3.856 0 0 1-3.856-3.856h-.995a4.85 4.85 0 0 0 4.851 4.851zm24.671 0h-24.671v.995H462.7zm3.856-3.856a3.856 3.856 0 0 1-3.856 3.856v.995a4.85 4.85 0 0 0 4.851-4.851zm0-24.67v24.67h.995v-24.67zm-3.856-3.857a3.856 3.856 0 0 1 3.856 3.857h.995a4.85 4.85 0 0 0-4.851-4.851zm-24.671 0H462.7v-.994h-24.671zm-32.008 59.496a3.857 3.857 0 0 1 3.857 3.857h.994a4.85 4.85 0 0 0-4.851-4.851zm-24.67 0h24.67v-.994h-24.67zm-3.856 3.857a3.856 3.856 0 0 1 3.856-3.857v-.994a4.85 4.85 0 0 0-4.851 4.851zm0 24.67v-24.67h-.995v24.67zm3.856 3.857a3.856 3.856 0 0 1-3.856-3.857h-.995a4.85 4.85 0 0 0 4.851 4.851zm24.67 0h-24.67v.994h24.67zm3.857-3.857a3.857 3.857 0 0 1-3.857 3.857v.994a4.85 4.85 0 0 0 4.851-4.851zm0-24.67v24.67h.994v-24.67zm-58.287 0a4.85 4.85 0 0 0-4.851-4.851v.994a3.856 3.856 0 0 1 3.856 3.857zm0 24.67v-24.67h-.995v24.67zm-4.851 4.851a4.85 4.85 0 0 0 4.851-4.851h-.995a3.856 3.856 0 0 1-3.856 3.857zm-24.67 0h24.67v-.994h-24.67zm-4.851-4.851a4.85 4.85 0 0 0 4.851 4.851v-.994a3.857 3.857 0 0 1-3.857-3.857zm0-24.67v24.67h.994v-24.67zm4.851-4.851a4.85 4.85 0 0 0-4.851 4.851h.994a3.857 3.857 0 0 1 3.857-3.857zm24.67 0h-24.67v.994h24.67zm118.106 121.569a3.856 3.856 0 0 1 3.856 3.856h.995a4.85 4.85 0 0 0-4.851-4.851zm-24.671 0h24.671v-.995h-24.671zm-3.856 3.856a3.856 3.856 0 0 1 3.856-3.856v-.995a4.85 4.85 0 0 0-4.851 4.851zm0 24.67v-24.67h-.995v24.67zm3.856 3.857a3.856 3.856 0 0 1-3.856-3.857h-.995a4.85 4.85 0 0 0 4.851 4.851zm24.671 0h-24.671v.994h24.671zm3.856-3.857a3.857 3.857 0 0 1-3.856 3.857v.994a4.85 4.85 0 0 0 4.851-4.851zm0-24.67v24.67h.995v-24.67zm87.295-61.078a3.856 3.856 0 0 1 3.857-3.856v-.995a4.85 4.85 0 0 0-4.851 4.851zm0 24.67v-24.67h-.994v24.67zm3.857 3.857a3.857 3.857 0 0 1-3.857-3.857h-.994a4.85 4.85 0 0 0 4.851 4.851zm24.67 0h-24.67v.994h24.67zm3.856-3.857a3.856 3.856 0 0 1-3.856 3.857v.994a4.85 4.85 0 0 0 4.851-4.851zm0-24.67v24.67h.995v-24.67zm-3.856-3.856a3.856 3.856 0 0 1 3.856 3.856h.995a4.85 4.85 0 0 0-4.851-4.851zm-24.67 0h24.67v-.995h-24.67zM143.92 259.003a4.85 4.85 0 0 0-4.851 4.851h.995a3.856 3.856 0 0 1 3.856-3.857zm24.671 0H143.92v.994h24.671zm4.85 4.851a4.85 4.85 0 0 0-4.85-4.851v.994a3.857 3.857 0 0 1 3.856 3.857zm0 24.67v-24.67h-.994v24.67zm-4.85 4.851a4.85 4.85 0 0 0 4.85-4.851h-.994a3.856 3.856 0 0 1-3.856 3.856zm-24.671 0h24.671v-.995H143.92zm-4.851-4.851a4.85 4.85 0 0 0 4.851 4.851v-.995a3.856 3.856 0 0 1-3.856-3.856zm0-24.67v24.67h.995v-24.67zm.424 178.496a3.857 3.857 0 0 1 3.857-3.857v-.994a4.85 4.85 0 0 0-4.851 4.851zm0 24.67v-24.67h-.994v24.67zm3.857 3.857a3.857 3.857 0 0 1-3.857-3.857h-.994a4.85 4.85 0 0 0 4.851 4.851zm24.67 0h-24.67v.994h24.67zm3.857-3.857a3.857 3.857 0 0 1-3.857 3.857v.994a4.85 4.85 0 0 0 4.851-4.851zm0-24.67v24.67h.994v-24.67zm-3.857-3.857a3.857 3.857 0 0 1 3.857 3.857h.994a4.85 4.85 0 0 0-4.851-4.851zm-24.67 0h24.67v-.994h-24.67zm118.215-.994a4.85 4.85 0 0 0-4.851 4.851h.994a3.857 3.857 0 0 1 3.857-3.857zm24.67 0h-24.67v.994h24.67zm4.851 4.851a4.85 4.85 0 0 0-4.851-4.851v.994a3.856 3.856 0 0 1 3.856 3.857zm0 24.67v-24.67h-.995v24.67zm-4.851 4.851a4.85 4.85 0 0 0 4.851-4.851h-.995a3.856 3.856 0 0 1-3.856 3.857zm-24.67 0h24.67v-.994h-24.67zm-4.851-4.851a4.85 4.85 0 0 0 4.851 4.851v-.994a3.857 3.857 0 0 1-3.857-3.857zm0-24.67v24.67h.994v-24.67zm391.16 84.734a3.856 3.856 0 0 1-3.857 3.856v.995a4.85 4.85 0 0 0 4.851-4.851zm0-24.671v24.671h.994v-24.671zm-3.857-3.856a3.857 3.857 0 0 1 3.857 3.856h.994a4.85 4.85 0 0 0-4.851-4.851zm-24.67 0h24.67v-.995h-24.67zm-3.856 3.856a3.856 3.856 0 0 1 3.856-3.856v-.995a4.85 4.85 0 0 0-4.851 4.851zm0 24.671v-24.671h-.995v24.671zm3.856 3.856a3.856 3.856 0 0 1-3.856-3.856h-.995a4.85 4.85 0 0 0 4.851 4.851zm24.67 0h-24.67v.995h24.67zm.43-211.447a3.856 3.856 0 0 1 3.856 3.857h.995a4.85 4.85 0 0 0-4.851-4.851zm-24.67 0h24.67v-.994h-24.67zm-3.857 3.857a3.857 3.857 0 0 1 3.857-3.857v-.994a4.85 4.85 0 0 0-4.851 4.851zm0 24.67v-24.67h-.994v24.67zm3.857 3.857a3.857 3.857 0 0 1-3.857-3.857h-.994a4.85 4.85 0 0 0 4.851 4.851zm24.67 0h-24.67v.994h24.67zm3.856-3.857a3.856 3.856 0 0 1-3.856 3.857v.994a4.85 4.85 0 0 0 4.851-4.851zm0-24.67v24.67h.995v-24.67zm-330.31 59.496a3.856 3.856 0 0 1 3.857-3.856v-.995a4.85 4.85 0 0 0-4.851 4.851zm0 24.67v-24.67h-.994v24.67zm3.857 3.857a3.857 3.857 0 0 1-3.857-3.857h-.994a4.85 4.85 0 0 0 4.851 4.851zm24.67 0h-24.67v.994h24.67zm3.857-3.857a3.857 3.857 0 0 1-3.857 3.857v.994a4.85 4.85 0 0 0 4.851-4.851zm0-24.67v24.67h.994v-24.67zm-3.857-3.856a3.856 3.856 0 0 1 3.857 3.856h.994a4.85 4.85 0 0 0-4.851-4.851zm-24.67 0h24.67v-.995h-24.67zm322.171 59.503a3.857 3.857 0 0 1 3.857 3.857h.994a4.85 4.85 0 0 0-4.851-4.851zm-24.67 0h24.67v-.994h-24.67zm-3.856 3.857a3.856 3.856 0 0 1 3.856-3.857v-.994a4.85 4.85 0 0 0-4.851 4.851zm0 24.67v-24.67h-.995v24.67zm3.856 3.857a3.856 3.856 0 0 1-3.856-3.857h-.995a4.85 4.85 0 0 0 4.851 4.851zm24.67 0h-24.67v.994h24.67zm3.857-3.857a3.857 3.857 0 0 1-3.857 3.857v.994a4.85 4.85 0 0 0 4.851-4.851zm0-24.67v24.67h.994v-24.67zm-509.379 84.734a4.85 4.85 0 0 0 4.851 4.851v-.995a3.856 3.856 0 0 1-3.857-3.856zm0-24.671v24.671h.994v-24.671zm4.851-4.851a4.85 4.85 0 0 0-4.851 4.851h.994a3.857 3.857 0 0 1 3.857-3.856zm24.67 0h-24.67v.995h24.67zm4.851 4.851a4.85 4.85 0 0 0-4.851-4.851v.995a3.857 3.857 0 0 1 3.857 3.856zm0 24.671v-24.671h-.994v24.671zm-4.851 4.851a4.85 4.85 0 0 0 4.851-4.851h-.994a3.856 3.856 0 0 1-3.857 3.856zm-24.67 0h24.67v-.995h-24.67zm237.539-.995a3.856 3.856 0 0 1-3.857-3.856h-.994a4.85 4.85 0 0 0 4.851 4.851zm24.67 0h-24.67v.995h24.67zm3.857-3.856a3.856 3.856 0 0 1-3.857 3.856v.995a4.85 4.85 0 0 0 4.851-4.851zm0-24.671v24.671h.994v-24.671zm-3.857-3.856a3.857 3.857 0 0 1 3.857 3.856h.994a4.85 4.85 0 0 0-4.851-4.851zm-24.67 0h24.67v-.995h-24.67zm-3.857 3.856a3.857 3.857 0 0 1 3.857-3.856v-.995a4.85 4.85 0 0 0-4.851 4.851zm0 24.671v-24.671h-.994v24.671zm-120.318 0a4.85 4.85 0 0 0 4.851 4.851v-.995a3.856 3.856 0 0 1-3.857-3.856zm0-24.671v24.671h.994v-24.671zm4.851-4.851a4.85 4.85 0 0 0-4.851 4.851h.994a3.857 3.857 0 0 1 3.857-3.856zm24.67 0h-24.67v.995h24.67zm4.851 4.851a4.85 4.85 0 0 0-4.851-4.851v.995a3.856 3.856 0 0 1 3.856 3.856zm0 24.671v-24.671h-.995v24.671zm-4.851 4.851a4.85 4.85 0 0 0 4.851-4.851h-.995a3.856 3.856 0 0 1-3.856 3.856zm-24.67 0h24.67v-.995h-24.67zm237.539-.995a3.856 3.856 0 0 1-3.857-3.856h-.994a4.85 4.85 0 0 0 4.851 4.851zm24.67 0h-24.67v.995h24.67zm3.856-3.856a3.856 3.856 0 0 1-3.856 3.856v.995a4.85 4.85 0 0 0 4.851-4.851zm0-24.671v24.671h.995v-24.671zm-3.856-3.856a3.856 3.856 0 0 1 3.856 3.856h.995a4.85 4.85 0 0 0-4.851-4.851zm-24.67 0h24.67v-.995h-24.67zm-3.857 3.856a3.857 3.857 0 0 1 3.857-3.856v-.995a4.85 4.85 0 0 0-4.851 4.851zm0 24.671v-24.671h-.994v24.671zm483.75-442.492a3.857 3.857 0 0 1 3.857-3.856v-.995a4.85 4.85 0 0 0-4.851 4.85zm0 24.67v-24.67h-.994v24.67zm3.857 3.857a3.857 3.857 0 0 1-3.857-3.857h-.994a4.85 4.85 0 0 0 4.851 4.851zm24.666 0h-24.666v.994h24.666zm3.86-3.857a3.86 3.86 0 0 1-3.86 3.857v.994c2.68 0 4.86-2.171 4.86-4.851zm0-24.67v24.67h1v-24.67zm-3.86-3.856a3.86 3.86 0 0 1 3.86 3.856h1c0-2.68-2.18-4.851-4.86-4.851zm-24.666 0h24.666v-.995h-24.666zm118.996-.995a4.85 4.85 0 0 0-4.85 4.85h.99a3.86 3.86 0 0 1 3.86-3.855zm24.67 0h-24.67v.995h24.67zm4.85 4.85a4.85 4.85 0 0 0-4.85-4.85v.995a3.86 3.86 0 0 1 3.86 3.856zm0 24.671v-24.67h-.99v24.67zm-4.85 4.851c2.68 0 4.85-2.171 4.85-4.851h-.99a3.86 3.86 0 0 1-3.86 3.857zm-24.67 0h24.67v-.994h-24.67zm-4.85-4.851c0 2.68 2.17 4.851 4.85 4.851v-.994a3.86 3.86 0 0 1-3.86-3.857zm0-24.67v24.67h.99v-24.67zm60.03 0a3.86 3.86 0 0 1 3.86-3.856v-.995a4.85 4.85 0 0 0-4.85 4.85zm0 24.67v-24.67h-.99v24.67zm3.86 3.857a3.86 3.86 0 0 1-3.86-3.857h-.99c0 2.68 2.17 4.851 4.85 4.851zm24.67 0h-24.67v.994h24.67zm3.86-3.857a3.86 3.86 0 0 1-3.86 3.857v.994c2.68 0 4.85-2.171 4.85-4.851zm0-24.67v24.67h.99v-24.67zm-3.86-3.856a3.86 3.86 0 0 1 3.86 3.856h.99a4.85 4.85 0 0 0-4.85-4.851zm-24.67 0h24.67v-.995h-24.67zm58.82-.995a4.85 4.85 0 0 0-4.85 4.85h1a3.85 3.85 0 0 1 3.85-3.855zm24.67 0h-24.67v.995h24.67zm4.85 4.85a4.85 4.85 0 0 0-4.85-4.85v.995a3.86 3.86 0 0 1 3.86 3.856zm0 24.671v-24.67h-.99v24.67zm-4.85 4.851c2.68 0 4.85-2.171 4.85-4.851h-.99a3.86 3.86 0 0 1-3.86 3.857zm-24.67 0h24.67v-.994h-24.67zm-4.85-4.851c0 2.68 2.17 4.851 4.85 4.851v-.994a3.85 3.85 0 0 1-3.85-3.857zm0-24.67v24.67h1v-24.67zm59.91 0a3.85 3.85 0 0 1 3.85-3.856v-.995a4.85 4.85 0 0 0-4.85 4.85zm0 24.67v-24.67h-1v24.67zm3.85 3.857a3.85 3.85 0 0 1-3.85-3.857h-1c0 2.68 2.17 4.851 4.85 4.851zm24.67 0h-24.67v.994h24.67zm3.86-3.857a3.86 3.86 0 0 1-3.86 3.857v.994c2.68 0 4.85-2.171 4.85-4.851zm0-24.67v24.67h.99v-24.67zm-3.86-3.856a3.86 3.86 0 0 1 3.86 3.856h.99a4.85 4.85 0 0 0-4.85-4.851zm-24.67 0h24.67v-.995h-24.67zm62-.995a4.85 4.85 0 0 0-4.85 4.85h1a3.85 3.85 0 0 1 3.85-3.855zm24.67 0h-24.67v.995h24.67zm4.85 4.85a4.85 4.85 0 0 0-4.85-4.85v.995a3.86 3.86 0 0 1 3.86 3.856zm0 24.671v-24.67h-.99v24.67zm-4.85 4.851c2.68 0 4.85-2.171 4.85-4.851h-.99a3.86 3.86 0 0 1-3.86 3.857zm-24.67 0h24.67v-.994h-24.67zm-4.85-4.851c0 2.68 2.17 4.851 4.85 4.851v-.994a3.85 3.85 0 0 1-3.85-3.857zm0-24.67v24.67h1v-24.67zm-59.4 179.262c0-2.13 1.72-3.857 3.85-3.857v-.994a4.856 4.856 0 0 0-4.85 4.851zm0 24.67v-24.67h-1v24.67zm3.85 3.856a3.85 3.85 0 0 1-3.85-3.856h-1a4.856 4.856 0 0 0 4.85 4.851zm24.68 0h-24.68v.995h24.68zm3.85-3.856a3.85 3.85 0 0 1-3.85 3.856v.995c2.67 0 4.85-2.172 4.85-4.851zm0-24.67v24.67h1v-24.67zm-3.85-3.857c2.13 0 3.85 1.727 3.85 3.857h1a4.856 4.856 0 0 0-4.85-4.851zm-24.68 0h24.68v-.994h-24.68zm-213.75 59.496c2.13 0 3.85 1.727 3.85 3.857h1a4.85 4.85 0 0 0-4.85-4.851zm-24.67 0h24.67v-.994h-24.67zm-3.86 3.857a3.86 3.86 0 0 1 3.86-3.857v-.994a4.85 4.85 0 0 0-4.85 4.851zm0 24.67v-24.67h-.99v24.67zm3.86 3.857a3.86 3.86 0 0 1-3.86-3.857h-.99a4.85 4.85 0 0 0 4.85 4.851zm24.67 0h-24.67v.994h24.67zm3.85-3.857c0 2.13-1.72 3.857-3.85 3.857v.994a4.85 4.85 0 0 0 4.85-4.851zm0-24.67v24.67h1v-24.67zM1455 382.846a3.85 3.85 0 0 1 3.85-3.856v-.995a4.85 4.85 0 0 0-4.85 4.851zm0 24.67v-24.67h-1v24.67zm3.85 3.857a3.85 3.85 0 0 1-3.85-3.857h-1a4.85 4.85 0 0 0 4.85 4.851zm24.67 0h-24.67v.994h24.67zm3.86-3.857a3.86 3.86 0 0 1-3.86 3.857v.994c2.68 0 4.86-2.172 4.86-4.851zm0-24.67v24.67h1v-24.67zm-3.86-3.856c2.13 0 3.86 1.726 3.86 3.856h1a4.86 4.86 0 0 0-4.86-4.851zm-24.67 0h24.67v-.995h-24.67zm-118.13-119.987a4.85 4.85 0 0 0-4.85 4.851h.99a3.86 3.86 0 0 1 3.86-3.857zm24.67 0h-24.67v.994h24.67zm4.85 4.851a4.85 4.85 0 0 0-4.85-4.851v.994a3.86 3.86 0 0 1 3.86 3.857zm0 24.67v-24.67h-.99v24.67zm-4.85 4.851a4.85 4.85 0 0 0 4.85-4.851h-.99c0 2.13-1.73 3.856-3.86 3.856zm-24.67 0h24.67v-.995h-24.67zm-4.85-4.851a4.85 4.85 0 0 0 4.85 4.851v-.995a3.86 3.86 0 0 1-3.86-3.856zm0-24.67v24.67h.99v-24.67zm-323.49 59.496a4.856 4.856 0 0 0-4.85-4.851v.994c2.13 0 3.85 1.727 3.85 3.857zm0 24.67v-24.67h-1v24.67zm-4.85 4.851c2.67 0 4.85-2.172 4.85-4.851h-1c0 2.13-1.72 3.857-3.85 3.857zm-24.675 0h24.675v-.994h-24.675zm-4.851-4.851a4.85 4.85 0 0 0 4.851 4.851v-.994a3.857 3.857 0 0 1-3.857-3.857zm0-24.67v24.67h.994v-24.67zm4.851-4.851a4.85 4.85 0 0 0-4.851 4.851h.994a3.857 3.857 0 0 1 3.857-3.857zm24.675 0h-24.675v.994h24.675zm510.83 59.496a4.85 4.85 0 0 0-4.85 4.851h.99c0-2.13 1.73-3.856 3.86-3.856zm24.67 0h-24.67v.995h24.67zm4.85 4.851a4.85 4.85 0 0 0-4.85-4.851v.995a3.85 3.85 0 0 1 3.85 3.856zm0 24.67v-24.67h-1v24.67zm-4.85 4.851a4.85 4.85 0 0 0 4.85-4.851h-1c0 2.13-1.72 3.857-3.85 3.857zm-24.67 0h24.67v-.994h-24.67zm-4.85-4.851a4.85 4.85 0 0 0 4.85 4.851v-.994a3.86 3.86 0 0 1-3.86-3.857zm0-24.67v24.67h.99v-24.67zM832.882 586.592a3.857 3.857 0 0 1-3.857 3.856v.995a4.85 4.85 0 0 0 4.851-4.851zm0-24.671v24.671h.994v-24.671zm-3.857-3.856a3.856 3.856 0 0 1 3.857 3.856h.994a4.85 4.85 0 0 0-4.851-4.851zm-24.67 0h24.67v-.995h-24.67zm-3.857 3.856a3.856 3.856 0 0 1 3.857-3.856v-.995a4.85 4.85 0 0 0-4.851 4.851zm0 24.671v-24.671h-.994v24.671zm3.857 3.856a3.857 3.857 0 0 1-3.857-3.856h-.994a4.85 4.85 0 0 0 4.851 4.851zm24.67 0h-24.67v.995h24.67zm272.825-450.449a4.85 4.85 0 0 0-4.85 4.851h.99a3.86 3.86 0 0 1 3.86-3.857zm24.67 0h-24.67v.994h24.67zm4.85 4.851a4.85 4.85 0 0 0-4.85-4.851v.994a3.86 3.86 0 0 1 3.86 3.857zm0 24.67v-24.67h-.99v24.67zm-4.85 4.851a4.85 4.85 0 0 0 4.85-4.851h-.99a3.86 3.86 0 0 1-3.86 3.857zm-24.67 0h24.67v-.994h-24.67zm-4.85-4.851a4.85 4.85 0 0 0 4.85 4.851v-.994a3.86 3.86 0 0 1-3.86-3.857zm0-24.67v24.67h.99v-24.67zm.99-118.23a3.86 3.86 0 0 1 3.86-3.857v-.995a4.85 4.85 0 0 0-4.85 4.851zm0 24.67V26.62h-.99v24.67zm3.86 3.856a3.86 3.86 0 0 1-3.86-3.856h-.99a4.85 4.85 0 0 0 4.85 4.85zm24.67 0h-24.67v.995h24.67zm3.86-3.856a3.86 3.86 0 0 1-3.86 3.856v.995a4.85 4.85 0 0 0 4.85-4.851zm0-24.67v24.67h.99V26.62zm-3.86-3.857a3.86 3.86 0 0 1 3.86 3.856h.99a4.85 4.85 0 0 0-4.85-4.85zm-24.67 0h24.67v-.995h-24.67zm238.87 117.236a4.85 4.85 0 0 0-4.85 4.851h.99a3.86 3.86 0 0 1 3.86-3.857zm24.67 0h-24.67v.994h24.67zm4.85 4.851a4.85 4.85 0 0 0-4.85-4.851v.994a3.86 3.86 0 0 1 3.86 3.857zm0 24.67v-24.67h-.99v24.67zm-4.85 4.851a4.85 4.85 0 0 0 4.85-4.851h-.99a3.86 3.86 0 0 1-3.86 3.857zm-24.67 0h24.67v-.994h-24.67zm-4.85-4.851a4.85 4.85 0 0 0 4.85 4.851v-.994a3.86 3.86 0 0 1-3.86-3.857zm0-24.67v24.67h.99v-24.67zm59.82 59.918a3.86 3.86 0 0 1 3.86-3.857v-.994a4.86 4.86 0 0 0-4.86 4.851zm0 24.67v-24.67h-1v24.67zm3.86 3.857a3.86 3.86 0 0 1-3.86-3.857h-1a4.86 4.86 0 0 0 4.86 4.851zm24.67 0h-24.67v.994h24.67zm3.85-3.857c0 2.13-1.72 3.857-3.85 3.857v.994c2.67 0 4.85-2.172 4.85-4.851zm0-24.67v24.67h1v-24.67zm-3.85-3.857c2.13 0 3.85 1.727 3.85 3.857h1a4.856 4.856 0 0 0-4.85-4.851zm-24.67 0h24.67v-.994h-24.67zm-238.66-60.912a4.85 4.85 0 0 0-4.85 4.851h.99a3.86 3.86 0 0 1 3.86-3.857zm24.67 0h-24.67v.994h24.67zm4.85 4.851a4.85 4.85 0 0 0-4.85-4.851v.994a3.86 3.86 0 0 1 3.86 3.857zm0 24.67v-24.67h-.99v24.67zm-4.85 4.851a4.85 4.85 0 0 0 4.85-4.851h-.99a3.86 3.86 0 0 1-3.86 3.857zm-24.67 0h24.67v-.994h-24.67zm-4.85-4.851a4.85 4.85 0 0 0 4.85 4.851v-.994a3.86 3.86 0 0 1-3.86-3.857zm0-24.67v24.67h.99v-24.67zm.99 59.504a3.86 3.86 0 0 1 3.86-3.857v-.994a4.85 4.85 0 0 0-4.85 4.851zm0 24.67v-24.67h-.99v24.67zm3.86 3.856a3.86 3.86 0 0 1-3.86-3.856h-.99a4.85 4.85 0 0 0 4.85 4.851zm24.67 0h-24.67v.995h24.67zm3.86-3.856c0 2.13-1.73 3.856-3.86 3.856v.995a4.85 4.85 0 0 0 4.85-4.851zm0-24.67v24.67h.99v-24.67zm-3.86-3.857a3.86 3.86 0 0 1 3.86 3.857h.99a4.85 4.85 0 0 0-4.85-4.851zm-24.67 0h24.67v-.994h-24.67zm58.82-.994a4.85 4.85 0 0 0-4.85 4.851h1c0-2.13 1.72-3.857 3.85-3.857zm24.67 0h-24.67v.994h24.67zm4.85 4.851a4.85 4.85 0 0 0-4.85-4.851v.994a3.86 3.86 0 0 1 3.86 3.857zm0 24.67v-24.67h-.99v24.67zm-4.85 4.851a4.85 4.85 0 0 0 4.85-4.851h-.99c0 2.13-1.73 3.856-3.86 3.856zm-24.67 0h24.67v-.995h-24.67zm-4.85-4.851a4.85 4.85 0 0 0 4.85 4.851v-.995a3.85 3.85 0 0 1-3.85-3.856zm0-24.67v24.67h1v-24.67zm-354.859 59.5a3.857 3.857 0 0 1 3.857-3.857v-.994a4.85 4.85 0 0 0-4.851 4.851zm0 24.67v-24.67h-.994v24.67zm3.857 3.856a3.856 3.856 0 0 1-3.857-3.856h-.994a4.85 4.85 0 0 0 4.851 4.851zm24.67 0h-24.67v.995h24.67zm3.856-3.856a3.856 3.856 0 0 1-3.856 3.856v.995a4.85 4.85 0 0 0 4.851-4.851zm0-24.67v24.67h.995v-24.67zm-3.856-3.857a3.856 3.856 0 0 1 3.856 3.857h.995a4.85 4.85 0 0 0-4.851-4.851zm-24.67 0h24.67v-.994h-24.67zm118.886-119.752a4.85 4.85 0 0 0-4.851 4.851h.995a3.856 3.856 0 0 1 3.856-3.857zm24.666 0h-24.666v.994h24.666zm4.86 4.851a4.86 4.86 0 0 0-4.86-4.851v.994a3.86 3.86 0 0 1 3.86 3.857zm0 24.67v-24.67h-1v24.67zm-4.86 4.851c2.68 0 4.86-2.172 4.86-4.851h-1a3.86 3.86 0 0 1-3.86 3.857zm-24.666 0h24.666v-.994h-24.666zm-4.851-4.851a4.85 4.85 0 0 0 4.851 4.851v-.994a3.856 3.856 0 0 1-3.856-3.857zm0-24.67v24.67h.995v-24.67zm.995-118.23a3.856 3.856 0 0 1 3.856-3.857v-.995a4.85 4.85 0 0 0-4.851 4.851zm0 24.67v-24.67h-.995v24.67zm3.856 3.856a3.856 3.856 0 0 1-3.856-3.856h-.995a4.85 4.85 0 0 0 4.851 4.85zm24.666 0h-24.666v.995h24.666zm3.86-3.856a3.86 3.86 0 0 1-3.86 3.856v.995c2.68 0 4.86-2.172 4.86-4.851zm0-24.67v24.67h1v-24.67zm-3.86-3.857a3.86 3.86 0 0 1 3.86 3.856h1c0-2.679-2.18-4.85-4.86-4.85zm-24.666 0h24.666v-.995h-24.666zm236.966 117.236a4.85 4.85 0 0 0-4.85 4.851h1c0-2.13 1.72-3.857 3.85-3.857zm24.67 0h-24.67v.994h24.67zm4.85 4.851a4.85 4.85 0 0 0-4.85-4.851v.994a3.86 3.86 0 0 1 3.86 3.857zm0 24.67v-24.67h-.99v24.67zm-4.85 4.851a4.85 4.85 0 0 0 4.85-4.851h-.99a3.86 3.86 0 0 1-3.86 3.857zm-24.67 0h24.67v-.994h-24.67zm-4.85-4.851a4.85 4.85 0 0 0 4.85 4.851v-.994a3.85 3.85 0 0 1-3.85-3.857zm0-24.67v24.67h1v-24.67zm61.51 59.922c0-2.13 1.72-3.857 3.85-3.857v-.994a4.856 4.856 0 0 0-4.85 4.851zm0 24.67v-24.67h-1v24.67zm3.85 3.857a3.85 3.85 0 0 1-3.85-3.857h-1a4.856 4.856 0 0 0 4.85 4.851zm24.68 0h-24.68v.994h24.68zm3.85-3.857c0 2.13-1.72 3.857-3.85 3.857v.994c2.67 0 4.85-2.172 4.85-4.851zm0-24.67v24.67h1v-24.67zm-3.85-3.857c2.13 0 3.85 1.727 3.85 3.857h1a4.856 4.856 0 0 0-4.85-4.851zm-24.68 0h24.68v-.994h-24.68zM863.858 437.499a4.85 4.85 0 0 0-4.851 4.851h.994a3.857 3.857 0 0 1 3.857-3.857zm24.67 0h-24.67v.994h24.67zm4.851 4.851a4.85 4.85 0 0 0-4.851-4.851v.994a3.856 3.856 0 0 1 3.856 3.857zm0 24.67v-24.67h-.995v24.67zm-4.851 4.851a4.85 4.85 0 0 0 4.851-4.851h-.995a3.856 3.856 0 0 1-3.856 3.857zm-24.67 0h24.67v-.994h-24.67zm-4.851-4.851a4.85 4.85 0 0 0 4.851 4.851v-.994a3.857 3.857 0 0 1-3.857-3.857zm0-24.67v24.67h.994v-24.67zm628.373 84.734a3.85 3.85 0 0 1-3.85 3.856v.995c2.67 0 4.85-2.172 4.85-4.851zm0-24.671v24.671h1v-24.671zm-3.85-3.856c2.13 0 3.85 1.727 3.85 3.856h1a4.856 4.856 0 0 0-4.85-4.851zm-24.68 0h24.68v-.995h-24.68zm-3.85 3.856a3.85 3.85 0 0 1 3.85-3.856v-.995a4.856 4.856 0 0 0-4.85 4.851zm0 24.671v-24.671h-1v24.671zm3.85 3.856a3.85 3.85 0 0 1-3.85-3.856h-1a4.856 4.856 0 0 0 4.85 4.851zm24.68 0h-24.68v.995h24.68zm0-211.447c2.13 0 3.85 1.727 3.85 3.857h1a4.856 4.856 0 0 0-4.85-4.851zm-24.68 0h24.68v-.994h-24.68zm-3.85 3.857c0-2.13 1.72-3.857 3.85-3.857v-.994a4.856 4.856 0 0 0-4.85 4.851zm0 24.67v-24.67h-1v24.67zm3.85 3.857a3.85 3.85 0 0 1-3.85-3.857h-1a4.856 4.856 0 0 0 4.85 4.851zm24.68 0h-24.68v.994h24.68zm3.85-3.857c0 2.13-1.72 3.857-3.85 3.857v.994c2.67 0 4.85-2.172 4.85-4.851zm0-24.67v24.67h1v-24.67zm-686.883-59.496a3.857 3.857 0 0 1 3.857-3.857v-.994a4.85 4.85 0 0 0-4.851 4.851zm0 24.67v-24.67h-.994v24.67zm3.857 3.856a3.856 3.856 0 0 1-3.857-3.856h-.994a4.85 4.85 0 0 0 4.851 4.851zm24.67 0h-24.67v.995h24.67zm3.856-3.856a3.856 3.856 0 0 1-3.856 3.856v.995a4.85 4.85 0 0 0 4.851-4.851zm0-24.67v24.67h.995v-24.67zm-3.856-3.857a3.856 3.856 0 0 1 3.856 3.857h.995a4.85 4.85 0 0 0-4.851-4.851zm-24.67 0h24.67v-.994h-24.67zm738.666 59.496a3.86 3.86 0 0 1 3.86 3.857h.99a4.85 4.85 0 0 0-4.85-4.851zm-24.67 0h24.67v-.994h-24.67zm-3.86 3.857a3.86 3.86 0 0 1 3.86-3.857v-.994a4.85 4.85 0 0 0-4.85 4.851zm0 24.67v-24.67h-.99v24.67zm3.86 3.857a3.86 3.86 0 0 1-3.86-3.857h-.99a4.85 4.85 0 0 0 4.85 4.851zm24.67 0h-24.67v.994h24.67zm3.86-3.857a3.86 3.86 0 0 1-3.86 3.857v.994a4.85 4.85 0 0 0 4.85-4.851zm0-24.67v24.67h.99v-24.67zm-567.883 59.496a3.856 3.856 0 0 1 3.857-3.856v-.995a4.85 4.85 0 0 0-4.851 4.851zm0 24.67v-24.67h-.994v24.67zm3.857 3.857a3.857 3.857 0 0 1-3.857-3.857h-.994a4.85 4.85 0 0 0 4.851 4.851zm24.666 0h-24.666v.994h24.666zm3.86-3.857a3.86 3.86 0 0 1-3.86 3.857v.994c2.68 0 4.86-2.172 4.86-4.851zm0-24.67v24.67h1v-24.67zm-3.86-3.856c2.13 0 3.86 1.726 3.86 3.856h1a4.86 4.86 0 0 0-4.86-4.851zm-24.666 0h24.666v-.995h-24.666zm560.166 59.503a3.86 3.86 0 0 1 3.86 3.857h.99a4.85 4.85 0 0 0-4.85-4.851zm-24.67 0h24.67v-.994h-24.67zm-3.86 3.857a3.86 3.86 0 0 1 3.86-3.857v-.994a4.85 4.85 0 0 0-4.85 4.851zm0 24.67v-24.67h-.99v24.67zm3.86 3.857a3.86 3.86 0 0 1-3.86-3.857h-.99a4.85 4.85 0 0 0 4.85 4.851zm24.67 0h-24.67v.994h24.67zm3.86-3.857a3.86 3.86 0 0 1-3.86 3.857v.994a4.85 4.85 0 0 0 4.85-4.851zm0-24.67v24.67h.99v-24.67zm-747.377 84.734a4.85 4.85 0 0 0 4.851 4.851v-.995a3.856 3.856 0 0 1-3.857-3.856zm0-24.671v24.671h.994v-24.671zm4.851-4.851a4.85 4.85 0 0 0-4.851 4.851h.994a3.857 3.857 0 0 1 3.857-3.856zm24.67 0h-24.67v.995h24.67zm4.851 4.851a4.85 4.85 0 0 0-4.851-4.851v.995a3.856 3.856 0 0 1 3.856 3.856zm0 24.671v-24.671h-.995v24.671zm-4.851 4.851a4.85 4.85 0 0 0 4.851-4.851h-.995a3.856 3.856 0 0 1-3.856 3.856zm-24.67 0h24.67v-.995h-24.67zm0-391.936a4.85 4.85 0 0 0-4.851 4.851h.994a3.857 3.857 0 0 1 3.857-3.857zm24.67 0h-24.67v.994h24.67zm4.851 4.851a4.85 4.85 0 0 0-4.851-4.851v.994a3.856 3.856 0 0 1 3.856 3.857zm0 24.67v-24.67h-.995v24.67zm-4.851 4.851a4.85 4.85 0 0 0 4.851-4.851h-.995a3.856 3.856 0 0 1-3.856 3.857zm-24.67 0h24.67v-.994h-24.67zm-4.851-4.851a4.85 4.85 0 0 0 4.851 4.851v-.994a3.857 3.857 0 0 1-3.857-3.857zm0-24.67v24.67h.994v-24.67zm.994-118.996a3.857 3.857 0 0 1 3.857-3.857v-.994a4.85 4.85 0 0 0-4.851 4.85zm0 24.67v-24.67h-.994v24.67zm3.857 3.856a3.857 3.857 0 0 1-3.857-3.856h-.994a4.85 4.85 0 0 0 4.851 4.851zm24.67 0h-24.67v.995h24.67zm3.856-3.856a3.856 3.856 0 0 1-3.856 3.856v.995a4.85 4.85 0 0 0 4.851-4.85zm0-24.67v24.67h.995v-24.67zm-3.856-3.857a3.856 3.856 0 0 1 3.856 3.857h.995a4.85 4.85 0 0 0-4.851-4.851zm-24.67 0h24.67v-.994h-24.67zm118.996-.994a4.85 4.85 0 0 0-4.851 4.85h.994a3.857 3.857 0 0 1 3.857-3.856zm24.67 0h-24.67v.994h24.67zm4.851 4.85a4.85 4.85 0 0 0-4.851-4.85v.994a3.857 3.857 0 0 1 3.857 3.857zm0 24.671v-24.67h-.994v24.67zm-4.851 4.851a4.85 4.85 0 0 0 4.851-4.85h-.994a3.857 3.857 0 0 1-3.857 3.855zm-24.67 0h24.67v-.995h-24.67zm-4.851-4.85a4.85 4.85 0 0 0 4.851 4.85v-.995a3.857 3.857 0 0 1-3.857-3.856zm0-24.671v24.67h.994v-24.67zm-58.939 0a3.856 3.856 0 0 1 3.856-3.857v-.994a4.85 4.85 0 0 0-4.851 4.85zm0 24.67v-24.67h-.995v24.67zm3.856 3.856a3.856 3.856 0 0 1-3.856-3.856h-.995a4.85 4.85 0 0 0 4.851 4.851zm24.671 0h-24.671v.995h24.671zm3.856-3.856a3.857 3.857 0 0 1-3.856 3.856v.995a4.85 4.85 0 0 0 4.851-4.85zm0-24.67v24.67h.995v-24.67zm-3.856-3.857a3.857 3.857 0 0 1 3.856 3.857h.995a4.85 4.85 0 0 0-4.851-4.851zm-24.671 0h24.671v-.994h-24.671zm297.934-.994a4.86 4.86 0 0 0-4.86 4.85h1a3.86 3.86 0 0 1 3.86-3.856zm24.67 0h-24.67v.994h24.67zm4.85 4.85a4.85 4.85 0 0 0-4.85-4.85v.994a3.85 3.85 0 0 1 3.85 3.857zm0 24.671v-24.67h-1v24.67zm-4.85 4.851a4.85 4.85 0 0 0 4.85-4.85h-1a3.85 3.85 0 0 1-3.85 3.855zm-24.67 0h24.67v-.995h-24.67zm-4.86-4.85c0 2.678 2.18 4.85 4.86 4.85v-.995a3.86 3.86 0 0 1-3.86-3.856zm0-24.671v24.67h1v-24.67zm180.19 0a3.86 3.86 0 0 1 3.86-3.857v-.994a4.85 4.85 0 0 0-4.85 4.85zm0 24.67v-24.67h-.99v24.67zm3.86 3.856a3.86 3.86 0 0 1-3.86-3.856h-.99a4.85 4.85 0 0 0 4.85 4.851zm24.67 0h-24.67v.995h24.67zm3.86-3.856a3.86 3.86 0 0 1-3.86 3.856v.995a4.85 4.85 0 0 0 4.85-4.85zm0-24.67v24.67h.99v-24.67zm-3.86-3.857a3.86 3.86 0 0 1 3.86 3.857h.99a4.85 4.85 0 0 0-4.85-4.851zm-24.67 0h24.67v-.994h-24.67zM1399.55 140a4.86 4.86 0 0 0-4.86 4.851h1a3.86 3.86 0 0 1 3.86-3.857zm24.67 0h-24.67v.994h24.67zm4.85 4.851a4.856 4.856 0 0 0-4.85-4.851v.994c2.13 0 3.85 1.727 3.85 3.857zm0 24.67v-24.67h-1v24.67zm-4.85 4.851c2.67 0 4.85-2.172 4.85-4.851h-1c0 2.13-1.72 3.857-3.85 3.857zm-24.67 0h24.67v-.994h-24.67zm-4.86-4.851a4.86 4.86 0 0 0 4.86 4.851v-.994a3.86 3.86 0 0 1-3.86-3.857zm0-24.67v24.67h1v-24.67zM1514.5 25.854a3.86 3.86 0 0 1 3.86-3.857v-.994a4.85 4.85 0 0 0-4.85 4.85zm0 24.67v-24.67h-.99v24.67zm3.86 3.856a3.86 3.86 0 0 1-3.86-3.856h-.99a4.85 4.85 0 0 0 4.85 4.851zm24.67 0h-24.67v.995h24.67zm3.85-3.856a3.85 3.85 0 0 1-3.85 3.856v.995a4.85 4.85 0 0 0 4.85-4.85zm0-24.67v24.67h1v-24.67zm-3.85-3.857a3.85 3.85 0 0 1 3.85 3.857h1a4.85 4.85 0 0 0-4.85-4.851zm-24.67 0h24.67v-.994h-24.67zm0 58.51a4.85 4.85 0 0 0-4.85 4.85h.99a3.86 3.86 0 0 1 3.86-3.856zm24.67 0h-24.67v.994h24.67zm4.85 4.85a4.85 4.85 0 0 0-4.85-4.85v.994a3.85 3.85 0 0 1 3.85 3.856zm0 24.671v-24.67h-1v24.67zm-4.85 4.851a4.85 4.85 0 0 0 4.85-4.851h-1a3.85 3.85 0 0 1-3.85 3.856zm-24.67 0h24.67v-.995h-24.67zm-4.85-4.851a4.85 4.85 0 0 0 4.85 4.851v-.995a3.86 3.86 0 0 1-3.86-3.856zm0-24.67v24.67h.99v-24.67zm.99 59.492a3.86 3.86 0 0 1 3.86-3.857v-.994a4.85 4.85 0 0 0-4.85 4.851zm0 24.67v-24.67h-.99v24.67zm3.86 3.857a3.86 3.86 0 0 1-3.86-3.857h-.99a4.85 4.85 0 0 0 4.85 4.851zm24.67 0h-24.67v.994h24.67zm3.85-3.857c0 2.13-1.72 3.857-3.85 3.857v.994a4.85 4.85 0 0 0 4.85-4.851zm0-24.67v24.67h1v-24.67zm-3.85-3.857c2.13 0 3.85 1.727 3.85 3.857h1a4.85 4.85 0 0 0-4.85-4.851zm-24.67 0h24.67v-.994h-24.67zm0 118.01a4.85 4.85 0 0 0-4.85 4.851h.99a3.86 3.86 0 0 1 3.86-3.857zm24.67 0h-24.67v.994h24.67zm4.85 4.851a4.85 4.85 0 0 0-4.85-4.851v.994c2.13 0 3.85 1.727 3.85 3.857zm0 24.67v-24.67h-1v24.67zm-4.85 4.851a4.85 4.85 0 0 0 4.85-4.851h-1a3.85 3.85 0 0 1-3.85 3.856zm-24.67 0h24.67v-.995h-24.67zm-4.85-4.851a4.85 4.85 0 0 0 4.85 4.851v-.995a3.86 3.86 0 0 1-3.86-3.856zm0-24.67v24.67h.99v-24.67zM833.876 323.35a4.85 4.85 0 0 0-4.851-4.851v.994a3.857 3.857 0 0 1 3.857 3.857zm0 24.67v-24.67h-.994v24.67zm-4.851 4.851a4.85 4.85 0 0 0 4.851-4.851h-.994a3.857 3.857 0 0 1-3.857 3.857zm-24.67 0h24.67v-.994h-24.67zm-4.851-4.851a4.85 4.85 0 0 0 4.851 4.851v-.994a3.857 3.857 0 0 1-3.857-3.857zm0-24.67v24.67h.994v-24.67zm4.851-4.851a4.85 4.85 0 0 0-4.851 4.851h.994a3.857 3.857 0 0 1 3.857-3.857zm24.67 0h-24.67v.994h24.67zm59.055.994a3.856 3.856 0 0 1 3.856 3.857h.995a4.85 4.85 0 0 0-4.851-4.851zm-24.671 0h24.671v-.994h-24.671zm-3.856 3.857a3.857 3.857 0 0 1 3.856-3.857v-.994a4.85 4.85 0 0 0-4.851 4.851zm0 24.67v-24.67h-.995v24.67zm3.856 3.857a3.857 3.857 0 0 1-3.856-3.857h-.995a4.85 4.85 0 0 0 4.851 4.851zm24.671 0h-24.671v.994h24.671zm3.856-3.857a3.856 3.856 0 0 1-3.856 3.857v.994a4.85 4.85 0 0 0 4.851-4.851zm0-24.67v24.67h.995v-24.67zm-58.06 59.496a4.85 4.85 0 0 0-4.851-4.851v.995a3.856 3.856 0 0 1 3.857 3.856zm0 24.67v-24.67h-.994v24.67zm-4.851 4.851a4.85 4.85 0 0 0 4.851-4.851h-.994a3.857 3.857 0 0 1-3.857 3.857zm-24.67 0h24.67v-.994h-24.67zm-4.851-4.851a4.85 4.85 0 0 0 4.851 4.851v-.994a3.857 3.857 0 0 1-3.857-3.857zm0-24.67v24.67h.994v-24.67zm4.851-4.851a4.85 4.85 0 0 0-4.851 4.851h.994a3.856 3.856 0 0 1 3.857-3.856zm24.67 0h-24.67v.995h24.67zm59.055.995a3.856 3.856 0 0 1 3.856 3.856h.995a4.85 4.85 0 0 0-4.851-4.851zm-24.671 0h24.671v-.995h-24.671zm-3.856 3.856a3.856 3.856 0 0 1 3.856-3.856v-.995a4.85 4.85 0 0 0-4.851 4.851zm0 24.67v-24.67h-.995v24.67zm3.856 3.857a3.857 3.857 0 0 1-3.856-3.857h-.995a4.85 4.85 0 0 0 4.851 4.851zm24.671 0h-24.671v.994h24.671zm3.856-3.857a3.856 3.856 0 0 1-3.856 3.857v.994a4.85 4.85 0 0 0 4.851-4.851zm0-24.67v24.67h.995v-24.67zm86.831-178.492a3.856 3.856 0 0 1 3.856-3.857v-.994a4.85 4.85 0 0 0-4.851 4.851zm0 24.67v-24.67h-.995v24.67zm3.856 3.856a3.856 3.856 0 0 1-3.856-3.856h-.995a4.85 4.85 0 0 0 4.851 4.851zm24.667 0h-24.667v.995h24.667zm3.86-3.856c0 2.13-1.73 3.856-3.86 3.856v.995a4.85 4.85 0 0 0 4.85-4.851zm0-24.67v24.67h.99v-24.67zm-3.86-3.857a3.86 3.86 0 0 1 3.86 3.857h.99a4.85 4.85 0 0 0-4.85-4.851zm-24.667 0h24.667v-.994h-24.667zM923.35 377.995a4.85 4.85 0 0 0-4.851 4.851h.994a3.856 3.856 0 0 1 3.857-3.856zm24.67 0h-24.67v.995h24.67zm4.851 4.851a4.85 4.85 0 0 0-4.851-4.851v.995a3.856 3.856 0 0 1 3.857 3.856zm0 24.67v-24.67h-.994v24.67zm-4.851 4.851a4.85 4.85 0 0 0 4.851-4.851h-.994a3.857 3.857 0 0 1-3.857 3.857zm-24.67 0h24.67v-.994h-24.67zm-4.851-4.851a4.85 4.85 0 0 0 4.851 4.851v-.994a3.857 3.857 0 0 1-3.857-3.857zm0-24.67v24.67h.994v-24.67zM1037.71 144.85c0-2.13 1.72-3.857 3.85-3.857v-.994a4.856 4.856 0 0 0-4.85 4.851zm0 24.67v-24.67h-1v24.67zm3.85 3.857a3.85 3.85 0 0 1-3.85-3.857h-1a4.856 4.856 0 0 0 4.85 4.851zm24.68 0h-24.68v.994h24.68zm3.85-3.857c0 2.13-1.73 3.857-3.85 3.857v.994c2.67 0 4.85-2.172 4.85-4.851zm0-24.67v24.67h1v-24.67zm-3.85-3.857c2.12 0 3.85 1.727 3.85 3.857h1a4.856 4.856 0 0 0-4.85-4.851zm-24.68 0h24.68v-.994h-24.68zm0-119.225a4.856 4.856 0 0 0-4.85 4.851h1a3.85 3.85 0 0 1 3.85-3.856zm24.68 0h-24.68v.995h24.68zm4.85 4.851c0-2.679-2.18-4.85-4.85-4.85v.994c2.12 0 3.85 1.726 3.85 3.856zm0 24.67V26.62h-1v24.67zm-4.85 4.852c2.67 0 4.85-2.172 4.85-4.851h-1c0 2.13-1.73 3.856-3.85 3.856zm-24.68 0h24.68v-.995h-24.68zm-4.85-4.851c0 2.679 2.18 4.85 4.85 4.85v-.994a3.85 3.85 0 0 1-3.85-3.856zm0-24.67v24.67h1V26.62zm239.66 118.23c0-2.13 1.72-3.857 3.85-3.857v-.994a4.856 4.856 0 0 0-4.85 4.851zm0 24.67v-24.67h-1v24.67zm3.85 3.857a3.85 3.85 0 0 1-3.85-3.857h-1a4.856 4.856 0 0 0 4.85 4.851zm24.68 0h-24.68v.994h24.68zm3.85-3.857c0 2.13-1.72 3.857-3.85 3.857v.994c2.67 0 4.85-2.172 4.85-4.851zm0-24.67v24.67h1v-24.67zm-3.85-3.857c2.13 0 3.85 1.727 3.85 3.857h1a4.856 4.856 0 0 0-4.85-4.851zm-24.68 0h24.68v-.994h-24.68zm60.5 58.924a4.85 4.85 0 0 0-4.85 4.851h.99a3.86 3.86 0 0 1 3.86-3.857zm24.67 0h-24.67v.994h24.67zm4.85 4.851a4.85 4.85 0 0 0-4.85-4.851v.994a3.86 3.86 0 0 1 3.86 3.857zm0 24.67v-24.67h-.99v24.67zm-4.85 4.851a4.85 4.85 0 0 0 4.85-4.851h-.99a3.86 3.86 0 0 1-3.86 3.857zm-24.67 0h24.67v-.994h-24.67zm-4.85-4.851a4.85 4.85 0 0 0 4.85 4.851v-.994a3.86 3.86 0 0 1-3.86-3.857zm0-24.67v24.67h.99v-24.67zm-178.38 59.086a3.86 3.86 0 0 1 3.86-3.857v-.994a4.86 4.86 0 0 0-4.86 4.851zm0 24.67v-24.67h-1v24.67zm3.86 3.856a3.86 3.86 0 0 1-3.86-3.856h-1a4.86 4.86 0 0 0 4.86 4.851zm24.67 0h-24.67v.995h24.67zm3.85-3.856a3.85 3.85 0 0 1-3.85 3.856v.995a4.85 4.85 0 0 0 4.85-4.851zm0-24.67v24.67h1v-24.67zm-3.85-3.857c2.13 0 3.85 1.727 3.85 3.857h1a4.85 4.85 0 0 0-4.85-4.851zm-24.67 0h24.67v-.994h-24.67zm56.68-.994a4.85 4.85 0 0 0-4.85 4.851h.99a3.86 3.86 0 0 1 3.86-3.857zm24.67 0h-24.67v.994h24.67zm4.85 4.851a4.85 4.85 0 0 0-4.85-4.851v.994a3.86 3.86 0 0 1 3.86 3.857zm0 24.67v-24.67h-.99v24.67zm-4.85 4.851a4.85 4.85 0 0 0 4.85-4.851h-.99c0 2.13-1.73 3.856-3.86 3.856zm-24.67 0h24.67v-.995h-24.67zm-4.85-4.851a4.85 4.85 0 0 0 4.85 4.851v-.995a3.86 3.86 0 0 1-3.86-3.856zm0-24.67v24.67h.99v-24.67zm-22.31 59.496a4.85 4.85 0 0 0-4.85-4.851v.994a3.86 3.86 0 0 1 3.86 3.857zm0 24.67v-24.67h-.99v24.67zm-4.85 4.851a4.85 4.85 0 0 0 4.85-4.851h-.99a3.86 3.86 0 0 1-3.86 3.857zm-24.67 0h24.67v-.994h-24.67zm-4.85-4.851a4.85 4.85 0 0 0 4.85 4.851v-.994a3.86 3.86 0 0 1-3.86-3.857zm0-24.67v24.67h.99v-24.67zm4.85-4.851a4.85 4.85 0 0 0-4.85 4.851h.99a3.86 3.86 0 0 1 3.86-3.857zm24.67 0h-24.67v.994h24.67zm-59.28.994a3.86 3.86 0 0 1 3.86 3.857h.99a4.85 4.85 0 0 0-4.85-4.851zm-24.67 0h24.67v-.994h-24.67zm-3.86 3.857a3.86 3.86 0 0 1 3.86-3.857v-.994a4.85 4.85 0 0 0-4.85 4.851zm0 24.67v-24.67h-.99v24.67zm3.86 3.857a3.86 3.86 0 0 1-3.86-3.857h-.99a4.85 4.85 0 0 0 4.85 4.851zm24.67 0h-24.67v.994h24.67zm3.86-3.857a3.86 3.86 0 0 1-3.86 3.857v.994a4.85 4.85 0 0 0 4.85-4.851zm0-24.67v24.67h.99v-24.67zm119.1 120.574a4.856 4.856 0 0 0-4.85-4.851v.995a3.85 3.85 0 0 1 3.85 3.856zm0 24.67v-24.67h-1v24.67zm-4.85 4.851c2.67 0 4.85-2.171 4.85-4.851h-1c0 2.13-1.72 3.857-3.85 3.857zm-24.67 0h24.67v-.994h-24.67zm-4.86-4.851c0 2.68 2.18 4.851 4.86 4.851v-.994a3.86 3.86 0 0 1-3.86-3.857zm0-24.67v24.67h1v-24.67zm4.86-4.851a4.86 4.86 0 0 0-4.86 4.851h1c0-2.13 1.73-3.856 3.86-3.856zm24.67 0h-24.67v.995h24.67zm95-61.078a4.85 4.85 0 0 0-4.85 4.851h1a3.85 3.85 0 0 1 3.85-3.856zm24.67 0h-24.67v.995h24.67zm4.86 4.851a4.86 4.86 0 0 0-4.86-4.851v.995c2.13 0 3.86 1.726 3.86 3.856zm0 24.67v-24.67h-1v24.67zm-4.86 4.851c2.68 0 4.86-2.172 4.86-4.851h-1a3.86 3.86 0 0 1-3.86 3.857zm-24.67 0h24.67v-.994h-24.67zm-4.85-4.851a4.85 4.85 0 0 0 4.85 4.851v-.994a3.85 3.85 0 0 1-3.85-3.857zm0-24.67v24.67h1v-24.67zM920.064 263.854a3.856 3.856 0 0 1 3.856-3.857v-.994a4.85 4.85 0 0 0-4.851 4.851zm0 24.67v-24.67h-.995v24.67zm3.856 3.856a3.856 3.856 0 0 1-3.856-3.856h-.995a4.85 4.85 0 0 0 4.851 4.851zm24.671 0H923.92v.995h24.671zm3.856-3.856a3.856 3.856 0 0 1-3.856 3.856v.995a4.85 4.85 0 0 0 4.851-4.851zm0-24.67v24.67h.995v-24.67zm-3.856-3.857a3.857 3.857 0 0 1 3.856 3.857h.995a4.85 4.85 0 0 0-4.851-4.851zm-24.671 0h24.671v-.994H923.92zm-.57 177.502a4.85 4.85 0 0 0-4.851 4.851h.994a3.857 3.857 0 0 1 3.857-3.857zm24.67 0h-24.67v.994h24.67zm4.851 4.851a4.85 4.85 0 0 0-4.851-4.851v.994a3.857 3.857 0 0 1 3.857 3.857zm0 24.67v-24.67h-.994v24.67zm-4.851 4.851a4.85 4.85 0 0 0 4.851-4.851h-.994a3.857 3.857 0 0 1-3.857 3.857zm-24.67 0h24.67v-.994h-24.67zm-4.851-4.851a4.85 4.85 0 0 0 4.851 4.851v-.994a3.857 3.857 0 0 1-3.857-3.857zm0-24.67v24.67h.994v-24.67zm119.211 0c0-2.13 1.72-3.857 3.85-3.857v-.994a4.856 4.856 0 0 0-4.85 4.851zm0 24.67v-24.67h-1v24.67zm3.85 3.857a3.85 3.85 0 0 1-3.85-3.857h-1a4.856 4.856 0 0 0 4.85 4.851zm24.68 0h-24.68v.994h24.68zm3.85-3.857c0 2.13-1.73 3.857-3.85 3.857v.994c2.67 0 4.85-2.172 4.85-4.851zm0-24.67v24.67h1v-24.67zm-3.85-3.857c2.12 0 3.85 1.727 3.85 3.857h1a4.856 4.856 0 0 0-4.85-4.851zm-24.68 0h24.68v-.994h-24.68zm382.46 93.442a4.85 4.85 0 0 0 4.85-4.851h-1a3.85 3.85 0 0 1-3.85 3.856zm-24.67 0h24.67v-.995h-24.67zm-4.85-4.851a4.85 4.85 0 0 0 4.85 4.851v-.995a3.86 3.86 0 0 1-3.86-3.856zm0-24.671v24.671h.99v-24.671zm4.85-4.851a4.85 4.85 0 0 0-4.85 4.851h.99a3.86 3.86 0 0 1 3.86-3.856zm24.67 0h-24.67v.995h24.67zm4.85 4.851a4.85 4.85 0 0 0-4.85-4.851v.995c2.13 0 3.85 1.727 3.85 3.856zm0 24.671v-24.671h-1v24.671zm.43-203.734a4.85 4.85 0 0 0-4.85-4.851v.994c2.13 0 3.85 1.727 3.85 3.857zm0 24.67v-24.67h-1v24.67zm-4.85 4.851a4.85 4.85 0 0 0 4.85-4.851h-1c0 2.13-1.72 3.857-3.85 3.857zm-24.67 0h24.67v-.994h-24.67zm-4.85-4.851a4.85 4.85 0 0 0 4.85 4.851v-.994a3.86 3.86 0 0 1-3.86-3.857zm0-24.67v24.67h.99v-24.67zm4.85-4.851a4.85 4.85 0 0 0-4.85 4.851h.99a3.86 3.86 0 0 1 3.86-3.857zm24.67 0h-24.67v.994h24.67zm-322.6 59.496a4.85 4.85 0 0 0-4.85 4.851h.99c0-2.13 1.73-3.856 3.86-3.856zm24.67 0h-24.67v.995h24.67zm4.85 4.851a4.85 4.85 0 0 0-4.85-4.851v.995c2.13 0 3.86 1.726 3.86 3.856zm0 24.67v-24.67h-.99v24.67zm-4.85 4.851a4.85 4.85 0 0 0 4.85-4.851h-.99a3.86 3.86 0 0 1-3.86 3.857zm-24.67 0h24.67v-.994h-24.67zm-4.85-4.851a4.85 4.85 0 0 0 4.85 4.851v-.994a3.86 3.86 0 0 1-3.86-3.857zm0-24.67v24.67h.99v-24.67zm331.87 59.504a4.85 4.85 0 0 0-4.85-4.851v.994a3.86 3.86 0 0 1 3.86 3.857zm0 24.67v-24.67h-.99v24.67zm-4.85 4.851a4.85 4.85 0 0 0 4.85-4.851h-.99a3.86 3.86 0 0 1-3.86 3.857zm-24.67 0h24.67v-.994h-24.67zm-4.85-4.851a4.85 4.85 0 0 0 4.85 4.851v-.994a3.86 3.86 0 0 1-3.86-3.857zm0-24.67v24.67h.99v-24.67zm4.85-4.851a4.85 4.85 0 0 0-4.85 4.851h.99a3.86 3.86 0 0 1 3.86-3.857zm24.67 0h-24.67v.994h24.67zM923.35 530.94a3.856 3.856 0 0 1-3.857-3.856h-.994a4.85 4.85 0 0 0 4.851 4.851zm24.67 0h-24.67v.995h24.67zm3.857-3.856a3.856 3.856 0 0 1-3.857 3.856v.995a4.85 4.85 0 0 0 4.851-4.851zm0-24.671v24.671h.994v-24.671zm-3.857-3.856a3.857 3.857 0 0 1 3.857 3.856h.994a4.85 4.85 0 0 0-4.851-4.851zm-24.67 0h24.67v-.995h-24.67zm-3.857 3.856a3.857 3.857 0 0 1 3.857-3.856v-.995a4.85 4.85 0 0 0-4.851 4.851zm0 24.671v-24.671h-.994v24.671zm236.547 0a4.85 4.85 0 0 0 4.85 4.851v-.995a3.86 3.86 0 0 1-3.86-3.856zm0-24.671v24.671h.99v-24.671zm4.85-4.851a4.85 4.85 0 0 0-4.85 4.851h.99a3.86 3.86 0 0 1 3.86-3.856zm24.67 0h-24.67v.995h24.67zm4.85 4.851a4.85 4.85 0 0 0-4.85-4.851v.995a3.86 3.86 0 0 1 3.86 3.856zm0 24.671v-24.671h-.99v24.671zm-4.85 4.851a4.85 4.85 0 0 0 4.85-4.851h-.99c0 2.13-1.73 3.856-3.86 3.856zm-24.67 0h24.67v-.995h-24.67zm-119.33-.995a3.85 3.85 0 0 1-3.85-3.856h-1a4.856 4.856 0 0 0 4.85 4.851zm24.68 0h-24.68v.995h24.68zm3.85-3.856c0 2.13-1.73 3.856-3.85 3.856v.995c2.67 0 4.85-2.172 4.85-4.851zm0-24.671v24.671h1v-24.671zm-3.85-3.856c2.12 0 3.85 1.727 3.85 3.856h1a4.856 4.856 0 0 0-4.85-4.851zm-24.68 0h24.68v-.995h-24.68zm-3.85 3.856a3.85 3.85 0 0 1 3.85-3.856v-.995a4.856 4.856 0 0 0-4.85 4.851zm0 24.671v-24.671h-1v24.671zm236.54 0a4.85 4.85 0 0 0 4.85 4.851v-.995a3.85 3.85 0 0 1-3.85-3.856zm0-24.671v24.671h1v-24.671zm4.85-4.851a4.85 4.85 0 0 0-4.85 4.851h1a3.85 3.85 0 0 1 3.85-3.856zm24.67 0h-24.67v.995h24.67zm4.86 4.851a4.86 4.86 0 0 0-4.86-4.851v.995a3.86 3.86 0 0 1 3.86 3.856zm0 24.671v-24.671h-1v24.671zm-4.86 4.851c2.68 0 4.86-2.172 4.86-4.851h-1c0 2.13-1.73 3.856-3.86 3.856zm-24.67 0h24.67v-.995h-24.67z" fill="#fff" fill-opacity=".1"/><rect x="849.909" y="89.5" width="260.967" height="86.052" rx="3.866" fill="url(#c)"/><rect x="849.909" y="89.5" width="260.967" height="86.052" rx="3.866" stroke="url(#d)" stroke-width="2"/><path d="M943.02 144.526v-25.2h4.248l8.532 17.028 8.496-17.028h4.284v25.2h-3.6v-18.9l-7.812 15.372h-2.772l-7.776-15.336v18.864zm36.737.432q-2.556 0-4.608-1.188-2.016-1.188-3.204-3.312-1.152-2.16-1.152-4.968 0-2.88 1.188-5.004 1.188-2.16 3.24-3.348t4.608-1.188q2.592 0 4.608 1.188t3.168 3.312q1.188 2.124 1.188 5.004t-1.188 5.004a8.34 8.34 0 0 1-3.204 3.312q-2.052 1.188-4.644 1.188m0-3.096q1.476 0 2.664-.72 1.224-.72 1.944-2.124.756-1.44.756-3.564t-.72-3.528q-.72-1.44-1.944-2.16a4.97 4.97 0 0 0-2.628-.72q-1.44 0-2.664.72t-1.98 2.16q-.72 1.404-.72 3.528t.72 3.564q.756 1.404 1.944 2.124 1.224.72 2.628.72m11.111 2.664v-18.144h3.24l.324 3.42a6.4 6.4 0 0 1 1.584-2.052 6.9 6.9 0 0 1 2.268-1.332q1.332-.468 3.026-.468v3.816h-1.3q-1.113 0-2.122.288a4.55 4.55 0 0 0-1.8.9q-.756.648-1.188 1.764t-.432 2.772v9.036zm19.232.432c-1.73 0-3.26-.396-4.61-1.188-1.34-.792-2.4-1.896-3.17-3.312q-1.11-2.124-1.11-4.932 0-2.88 1.11-5.004c.77-1.44 1.83-2.556 3.17-3.348q2.025-1.224 4.68-1.224c1.78 0 3.3.396 4.57 1.188a8.14 8.14 0 0 1 2.96 3.168c.69 1.296 1.04 2.736 1.04 4.32 0 .24-.01.504-.04.792q0 .396-.03.9h-14.83v-2.556h11.3c-.07-1.512-.58-2.688-1.51-3.528-.94-.864-2.1-1.296-3.49-1.296q-1.485 0-2.7.684-1.23.648-1.98 1.944-.72 1.26-.72 3.204v1.008q0 2.016.72 3.42.75 1.368 1.98 2.088c.81.456 1.7.684 2.66.684 1.15 0 2.1-.252 2.84-.756.75-.504 1.3-1.188 1.66-2.052h3.6a8 8 0 0 1-1.58 2.988 8 8 0 0 1-2.78 2.052c-1.08.504-2.32.756-3.74.756" fill="#fff"/><rect x="638.107" y="160.893" width="260.967" height="86.052" rx="3.866" fill="url(#e)"/><rect x="638.107" y="160.893" width="260.967" height="86.052" rx="3.866" stroke="url(#f)" stroke-width="2"/><path d="m731.17 215.919-9.36-25.2h3.888l7.632 21.456 7.704-21.456h3.816l-9.36 25.2zm18.58.432q-2.232 0-3.708-.756t-2.196-2.016a5.6 5.6 0 0 1-.72-2.772q0-1.8.936-3.06.936-1.296 2.664-1.98t4.14-.684h4.716q0-1.584-.468-2.628t-1.404-1.548q-.9-.54-2.304-.54-1.62 0-2.772.792-1.152.756-1.44 2.268h-3.6q.216-1.908 1.296-3.24 1.116-1.368 2.844-2.088a9.1 9.1 0 0 1 3.672-.756q2.556 0 4.284.9t2.592 2.556q.9 1.62.9 3.888v11.232h-3.132l-.288-3.06q-.396.72-.936 1.368t-1.296 1.116a5.7 5.7 0 0 1-1.692.72q-.936.288-2.088.288m.684-2.916q1.152 0 2.088-.468a4.8 4.8 0 0 0 1.584-1.26 5.5 5.5 0 0 0 1.008-1.836 7.2 7.2 0 0 0 .396-2.124v-.108h-4.284q-1.548 0-2.52.396-.936.36-1.368 1.008t-.432 1.512q0 .9.396 1.548.432.612 1.224.972t1.908.36m17.843 2.916q-2.124 0-3.708-.864-1.548-.864-2.412-2.592-.828-1.728-.828-4.356v-10.764h3.6v10.368q0 2.556 1.116 3.852t3.204 1.296q1.404 0 2.52-.684 1.152-.684 1.8-1.98t.648-3.168v-9.684h3.6v18.144h-3.204l-.252-3.096a6.14 6.14 0 0 1-2.412 2.592q-1.584.936-3.672.936m12.309-.432v-25.92h3.6v25.92zm13.835 0q-1.692 0-2.952-.54t-1.944-1.8-.684-3.42v-9.324h-3.132v-3.06h3.132l.432-4.536h3.168v4.536h5.148v3.06h-5.148v9.36q0 1.548.648 2.124.648.54 2.232.54h2.088v3.06zm11.997.432q-2.304 0-4.032-.756t-2.736-2.124-1.224-3.204h3.672q.18.864.684 1.584.54.72 1.44 1.152.936.432 2.196.432 1.188 0 1.944-.324.792-.36 1.152-.936.36-.612.36-1.296 0-1.008-.504-1.512-.468-.54-1.44-.828-.936-.324-2.268-.576a20 20 0 0 1-2.448-.576 10.5 10.5 0 0 1-2.088-.972 4.6 4.6 0 0 1-1.44-1.44q-.54-.9-.54-2.196 0-1.548.828-2.772.828-1.26 2.34-1.944 1.548-.72 3.636-.72 3.024 0 4.86 1.44t2.16 4.068h-3.492q-.144-1.224-1.08-1.872-.936-.684-2.484-.684t-2.376.612-.828 1.62q0 .648.468 1.152t1.368.864q.936.324 2.268.612 1.908.36 3.42.9t2.412 1.584.9 2.988q.036 1.692-.864 2.988-.864 1.296-2.484 2.016-1.584.72-3.78.72" fill="#fff"/><rect x="422.736" y="233.477" width="260.967" height="86.052" rx="3.866" fill="url(#g)"/><rect x="422.736" y="233.477" width="260.967" height="86.052" rx="3.866" stroke="url(#h)" stroke-width="2"/><path d="M507.591 288.936q-2.772 0-4.86-.972-2.088-1.008-3.24-2.808t-1.152-4.212h3.78a5.6 5.6 0 0 0 .648 2.52q.648 1.116 1.836 1.8 1.224.648 2.988.648 1.512 0 2.592-.504 1.116-.504 1.692-1.368.576-.9.576-2.052 0-1.332-.612-2.196t-1.656-1.404q-1.008-.576-2.376-1.008-1.332-.432-2.808-.936-2.988-.972-4.464-2.52-1.44-1.548-1.44-4.032 0-2.124 1.008-3.672 1.008-1.584 2.808-2.448 1.836-.9 4.32-.9 2.448 0 4.284.9t2.88 2.484 1.044 3.708h-3.816q0-.972-.504-1.908t-1.512-1.512q-1.008-.612-2.484-.612-1.224-.036-2.196.396t-1.512 1.26-.54 1.98.468 1.872q.504.684 1.44 1.188t2.16.936q1.26.396 2.772.9 1.872.612 3.312 1.512 1.476.864 2.304 2.268.864 1.368.864 3.528a6.67 6.67 0 0 1-.972 3.492q-.972 1.62-2.88 2.664-1.908 1.008-4.752 1.008m17.997-.432q-1.692 0-2.952-.54t-1.944-1.8-.684-3.42v-9.324h-3.132v-3.06h3.132l.432-4.536h3.168v4.536h5.148v3.06h-5.148v9.36q0 1.548.648 2.124.648.54 2.232.54h2.088v3.06zm10.99.432q-2.232 0-3.708-.756t-2.196-2.016a5.6 5.6 0 0 1-.72-2.772q0-1.8.936-3.06.936-1.296 2.664-1.98t4.14-.684h4.716q0-1.584-.468-2.628t-1.404-1.548q-.9-.54-2.304-.54-1.62 0-2.772.792-1.152.756-1.44 2.268h-3.6q.216-1.908 1.296-3.24 1.116-1.368 2.844-2.088a9.1 9.1 0 0 1 3.672-.756q2.556 0 4.284.9t2.592 2.556q.9 1.62.9 3.888v11.232h-3.132l-.288-3.06q-.396.72-.936 1.368t-1.296 1.116a5.7 5.7 0 0 1-1.692.72q-.936.288-2.088.288m.684-2.916q1.152 0 2.088-.468a4.8 4.8 0 0 0 1.584-1.26 5.5 5.5 0 0 0 1.008-1.836 7.2 7.2 0 0 0 .396-2.124v-.108h-4.284q-1.548 0-2.52.396-.936.36-1.368 1.008t-.432 1.512q0 .9.396 1.548.432.612 1.224.972t1.908.36m22.595 2.484-8.352-9.936 7.56-8.208h4.356l-9 9.612v-2.7l9.972 11.232zm-11.412 0v-25.92h3.6v25.92zm17.077 0V270.36h3.6v18.144zm1.836-21.564q-1.044 0-1.728-.648-.648-.648-.648-1.656 0-.972.648-1.584.684-.648 1.728-.648 1.008 0 1.692.648.684.612.684 1.584 0 1.008-.684 1.656t-1.692.648m4.752 21.564V270.36h3.24l.216 3.096a6.43 6.43 0 0 1 2.448-2.556q1.584-.972 3.636-.972 2.16 0 3.708.864t2.412 2.628q.864 1.728.864 4.356v10.728h-3.6v-10.368q0-2.52-1.116-3.816t-3.24-1.296q-1.404 0-2.52.684-1.116.648-1.8 1.944-.648 1.296-.648 3.168v9.684zm26.349 8.352q-2.484 0-4.392-.648-1.908-.612-2.952-1.908t-1.044-3.168q0-.972.432-1.98.432-.972 1.404-1.872t2.628-1.62l2.016 1.62q-1.836.684-2.484 1.62-.612.972-.612 1.872 0 1.08.648 1.8t1.764 1.08q1.152.36 2.592.36 1.404 0 2.448-.396t1.62-1.116.576-1.692q0-1.152-.864-1.944-.864-.756-3.312-.9-2.052-.144-3.492-.396-1.404-.252-2.412-.612a9 9 0 0 1-1.656-.792 7.3 7.3 0 0 1-1.116-.9v-.828l3.6-3.708 2.916 1.008-3.924 3.636.756-1.62q.396.252.756.504.36.216.972.396t1.656.324a55 55 0 0 0 2.736.288q2.448.18 3.924.864 1.512.684 2.196 1.836t.684 2.736q0 1.548-.864 2.952-.828 1.404-2.628 2.304-1.764.9-4.572.9m0-13.932q-2.304 0-3.924-.864-1.584-.864-2.448-2.34-.828-1.476-.828-3.276 0-1.836.828-3.276.864-1.476 2.484-2.34 1.62-.9 3.888-.9t3.852.9q1.62.864 2.448 2.34.864 1.44.864 3.276 0 1.8-.864 3.276-.828 1.476-2.448 2.34-1.584.864-3.852.864m0-2.88q1.764 0 2.808-.9 1.044-.936 1.044-2.7t-1.044-2.664q-1.044-.936-2.808-.936t-2.844.936q-1.08.9-1.08 2.664t1.08 2.7q1.08.9 2.844.9m2.952-6.84-.864-2.844h7.452v2.484z" fill="#fff"/><rect x="212.125" y="306.062" width="260.967" height="86.052" rx="3.866" fill="url(#i)"/><rect x="212.125" y="306.062" width="260.967" height="86.052" rx="3.866" stroke="url(#j)" stroke-width="2"/><path d="M284.236 361.088v-25.2h3.6v22.356h11.52v2.844zm24.396.432q-2.592 0-4.608-1.188t-3.168-3.312q-1.116-2.124-1.116-4.932 0-2.88 1.116-5.004 1.152-2.16 3.168-3.348 2.016-1.224 4.68-1.224t4.572 1.188a8.15 8.15 0 0 1 2.952 3.168q1.044 1.944 1.044 4.32 0 .36-.036.792 0 .396-.036.9h-14.832v-2.556h11.304q-.108-2.268-1.512-3.528-1.404-1.296-3.492-1.296a5.44 5.44 0 0 0-2.7.684q-1.224.648-1.98 1.944-.72 1.26-.72 3.204v1.008q0 2.016.72 3.42.756 1.368 1.98 2.088a5.37 5.37 0 0 0 2.664.684q1.728 0 2.844-.756a4.5 4.5 0 0 0 1.656-2.052h3.6a8 8 0 0 1-1.584 2.988q-1.116 1.296-2.772 2.052-1.62.756-3.744.756m10.479-.432v-18.144h3.24l.216 3.096a6.43 6.43 0 0 1 2.448-2.556q1.584-.972 3.636-.972 2.16 0 3.708.864t2.412 2.628q.864 1.728.864 4.356v10.728h-3.6V350.72q0-2.52-1.116-3.816t-3.24-1.296q-1.404 0-2.52.684-1.116.648-1.8 1.944-.648 1.296-.648 3.168v9.684zm27.033.432q-2.592 0-4.572-1.224a8.77 8.77 0 0 1-3.096-3.384q-1.08-2.16-1.08-4.896 0-2.772 1.08-4.896 1.116-2.124 3.096-3.348 2.016-1.26 4.608-1.26 2.124 0 3.744.864a6 6 0 0 1 2.52 2.376v-10.584h3.6v25.92h-3.204l-.396-2.808a7.7 7.7 0 0 1-1.404 1.584q-.864.72-2.088 1.188t-2.808.468m.576-3.132q1.692 0 2.988-.792t1.98-2.232q.72-1.44.72-3.348t-.72-3.312q-.684-1.44-1.98-2.232-1.296-.828-2.988-.828-1.62 0-2.916.828-1.296.792-2.016 2.232-.72 1.404-.72 3.312t.72 3.348 2.016 2.232 2.916.792m12.339 2.7v-18.144h3.6v18.144zm1.836-21.564q-1.044 0-1.728-.648-.648-.648-.648-1.656 0-.972.648-1.584.684-.648 1.728-.648 1.008 0 1.692.648.684.612.684 1.584 0 1.008-.684 1.656t-1.692.648m4.752 21.564v-18.144h3.24l.216 3.096a6.43 6.43 0 0 1 2.448-2.556q1.584-.972 3.636-.972 2.16 0 3.708.864t2.412 2.628q.864 1.728.864 4.356v10.728h-3.6V350.72q0-2.52-1.116-3.816t-3.24-1.296q-1.404 0-2.52.684-1.116.648-1.8 1.944-.648 1.296-.648 3.168v9.684zm26.349 8.352q-2.484 0-4.392-.648-1.908-.612-2.952-1.908t-1.044-3.168q0-.972.432-1.98.432-.972 1.404-1.872t2.628-1.62l2.016 1.62q-1.836.684-2.484 1.62-.612.972-.612 1.872 0 1.08.648 1.8t1.764 1.08q1.152.36 2.592.36 1.404 0 2.448-.396t1.62-1.116.576-1.692q0-1.152-.864-1.944-.864-.756-3.312-.9-2.052-.144-3.492-.396-1.404-.252-2.412-.612a9 9 0 0 1-1.656-.792 7.3 7.3 0 0 1-1.116-.9v-.828l3.6-3.708 2.916 1.008-3.924 3.636.756-1.62q.396.252.756.504.36.216.972.396t1.656.324a55 55 0 0 0 2.736.288q2.448.18 3.924.864 1.512.684 2.196 1.836t.684 2.736q0 1.548-.864 2.952-.828 1.404-2.628 2.304-1.764.9-4.572.9m0-13.932q-2.304 0-3.924-.864-1.584-.864-2.448-2.34-.828-1.476-.828-3.276 0-1.836.828-3.276.864-1.476 2.484-2.34 1.62-.9 3.888-.9t3.852.9q1.62.864 2.448 2.34.864 1.44.864 3.276 0 1.8-.864 3.276-.828 1.476-2.448 2.34-1.584.864-3.852.864m0-2.88q1.764 0 2.808-.9 1.044-.936 1.044-2.7t-1.044-2.664q-1.044-.936-2.808-.936t-2.844.936q-1.08.9-1.08 2.664t1.08 2.7q1.08.9 2.844.9m2.952-6.84-.864-2.844h7.452v2.484z" fill="#fff"/><g filter="url(#k)" stroke="#F22" stroke-width="5"><path d="M342.73 715.104V431.908m-16.187-.242 15.948-15.947 15.947 15.947m181.101-70.199 15.948-15.947 15.947 15.947m-16.426 291.047V360.99m197.519-70.918 15.948-15.947 15.948 15.947m-16.427 351.731v-346.26m197.52-81.627 15.947-15.947 15.948 15.947m-16.426 415.391V219.388"/></g></g><rect x=".5" y="1" width="1323" height="515" rx="11.5" stroke="#202020"/><defs><linearGradient id="b" x1="662" y1=".5" x2="662" y2="516.5" gradientUnits="userSpaceOnUse"><stop stop-color="#070707"/><stop offset="1" stop-color="#101010"/></linearGradient><linearGradient id="c" x1="894.271" y1="79.066" x2="932.32" y2="192.998" gradientUnits="userSpaceOnUse"><stop stop-color="#111"/><stop offset="1" stop-color="#191919"/></linearGradient><linearGradient id="d" x1="887.697" y1="234.206" x2="817.648" y2="65.163" gradientUnits="userSpaceOnUse"><stop stop-color="#2D2D2D"/><stop offset="1" stop-color="#6E6E6E"/></linearGradient><linearGradient id="e" x1="682.469" y1="150.459" x2="719.088" y2="260.109" gradientUnits="userSpaceOnUse"><stop stop-color="#111"/><stop offset="1" stop-color="#191919"/></linearGradient><linearGradient id="f" x1="675.895" y1="305.599" x2="605.846" y2="136.556" gradientUnits="userSpaceOnUse"><stop stop-color="#2D2D2D"/><stop offset="1" stop-color="#6E6E6E"/></linearGradient><linearGradient id="g" x1="467.098" y1="223.043" x2="514.621" y2="365.343" gradientUnits="userSpaceOnUse"><stop stop-color="#111"/><stop offset="1" stop-color="#191919"/></linearGradient><linearGradient id="h" x1="430.283" y1="386.569" x2="387.015" y2="202.833" gradientUnits="userSpaceOnUse"><stop stop-color="#2D2D2D"/><stop offset="1" stop-color="#6E6E6E"/></linearGradient><linearGradient id="i" x1="256.487" y1="295.627" x2="301.508" y2="430.434" gradientUnits="userSpaceOnUse"><stop stop-color="#111"/><stop offset="1" stop-color="#191919"/></linearGradient><linearGradient id="j" x1="249.913" y1="437.735" x2="215.798" y2="292.867" gradientUnits="userSpaceOnUse"><stop stop-color="#2D2D2D"/><stop offset="1" stop-color="#6E6E6E"/></linearGradient><clipPath id="a"><rect y=".5" width="1324" height="516" rx="12" fill="#fff"/></clipPath><filter id="k" x="309.775" y="183.433" width="704.403" height="550.67" filterUnits="userSpaceOnUse" color-interpolation-filters="sRGB"><feFlood flood-opacity="0" result="BackgroundImageFix"/><feColorMatrix in="SourceAlpha" values="0 0 0 0 0 0 0 0 0 0 0 0 0 0 0 0 0 0 127 0" result="hardAlpha"/><feOffset dy="4"/><feGaussianBlur stdDeviation="7.5"/><feComposite in2="hardAlpha" operator="out"/><feColorMatrix values="0 0 0 0 1 0 0 0 0 0.133333 0 0 0 0 0.133333 0 0 0 1 0"/><feBlend in2="BackgroundImageFix" result="effect1_dropShadow_145_5203"/><feBlend in="SourceGraphic" in2="effect1_dropShadow_145_5203" result="shape"/></filter></defs></svg>