<svg xmlns="http://www.w3.org/2000/svg" width="632" height="223" fill="none" xmlns:v="https://vecta.io/nano"><path d="M23.76 8.232V48.84L21.6 51h-3.384l-2.16-2.16V8.232H7.56L5.4 6.072V2.688L7.56.528h24.696l2.16 2.232v3.312l-2.16 2.16H23.76zM70.613.528l2.16 2.232v46.08L70.613 51h-3.384l-2.16-2.16V31.776l-2.232-2.16h-9.144l-2.232 2.16V48.84L49.301 51h-3.384l-2.16-2.16V2.76l2.16-2.232h3.384l2.16 2.232v16.92l2.232 2.232h9.144l2.232-2.232V2.76l2.16-2.232h3.384zM108.97 51H84.274l-2.16-2.16V2.76L84.274.6h24.696l2.16 2.16v3.312l-2.16 2.232H92.05l-2.232 2.16v9.288l2.232 2.16h6.984l2.16 2.232v3.312l-2.16 2.16H92.05l-2.232 2.232v9.216l2.232 2.232h16.92l2.16 2.16v3.384L108.97 51zm28.061-13.032l2.16-2.232h3.384l2.16 2.232v3.096l2.232 2.232h9.144l2.232-2.232v-9.216l-2.232-2.232h-12.384l-6.696-6.696V7.296L143.727.6h15.624l6.696 6.696v6.336l-2.16 2.16h-3.384l-2.16-2.16v-3.168l-2.232-2.16h-9.144l-2.232 2.16v9.288l2.232 2.16h12.384l6.696 6.696v15.696L159.351 51h-15.624l-6.696-6.696v-6.336zM202.244 51h-24.696l-2.16-2.16V2.76l2.16-2.16h24.696l2.16 2.16v3.312l-2.16 2.232h-16.92l-2.232 2.16v9.288l2.232 2.16h6.984l2.16 2.232v3.312l-2.16 2.16h-6.984l-2.232 2.232v9.216l2.232 2.232h16.92l2.16 2.16v3.384l-2.16 2.16zm40.516-6.696L236.064 51H220.44l-6.696-6.696V2.688l2.232-2.16h3.312l2.232 2.16-.072 38.376 2.232 2.232h9.144l2.232-2.232v-2.52l2.232-2.232h3.312l2.232 2.16-.072 5.832zM257.716 51h-3.384l-2.16-2.16V2.76l2.16-2.16h24.696l2.16 2.16v3.312l-2.16 2.232h-16.92l-2.232 2.16v9.288l2.232 2.16h6.984l2.16 2.232v3.312l-2.16 2.16h-6.984l-2.232 2.232V48.84l-2.16 2.16zm59.596-24.12l2.232 2.16v3.312l-2.232 2.232h-24.624l-2.16-2.232V29.04l2.16-2.16h24.624zm19.277 14.184l2.16 2.232h9.216l2.16-2.232v-7.056l2.232-2.16h3.312l2.232 2.16v10.296L351.133 51h-15.552l-6.696-6.696V7.296L335.581.6h15.552l6.768 6.696V17.52l-2.232 2.232h-3.312l-2.232-2.232v-7.056l-2.16-2.16h-9.216l-2.16 2.16v30.6zM367.242 2.76L369.474.6h3.312l2.16 2.16v38.304l2.232 2.232h9.144l2.232-2.232V2.76l2.16-2.16h3.384l2.16 2.16v41.544L389.562 51h-15.624l-6.696-6.696V2.76zm38.357 35.208l2.16-2.232h3.384l2.16 2.232v3.096l2.232 2.232h9.144l2.232-2.232v-9.216l-2.232-2.232h-12.384l-6.696-6.696V7.296L412.295.6h15.624l6.696 6.696v6.336l-2.16 2.16h-3.384l-2.16-2.16v-3.168l-2.232-2.16h-9.144l-2.232 2.16v9.288l2.232 2.16h12.384l6.696 6.696v15.696L427.919 51h-15.624l-6.696-6.696v-6.336zm56.717-29.736V48.84l-2.16 2.16h-3.384l-2.16-2.16V8.232h-8.496l-2.16-2.16V2.688l2.16-2.16h24.696l2.16 2.232v3.312l-2.16 2.16h-8.496zm49.013-.936v37.008L504.633 51h-15.552l-6.768-6.696V7.296L489.081.6h15.552l6.696 6.696zm-19.08 1.008l-2.16 2.16v3.096l13.536 13.536V10.464l-2.16-2.16h-9.216zm9.216 34.992l2.16-2.232V38.04l-13.536-13.608v16.632l2.16 2.232h9.216zm48.221 1.008L542.918 51H522.83l-2.16-2.16V2.76L522.83.6h20.088l6.768 6.696v37.008zm-19.152-36l-2.16 2.16v30.6l2.16 2.232h9.216l2.16-2.232v-30.6l-2.16-2.16h-9.216zm36.197 6.048l6.84 6.768 6.768-6.768V2.76l2.16-2.16h3.384l2.16 2.16v14.76l-10.656 10.656V48.84l-2.16 2.16h-3.384l-2.16-2.16V28.176L559.027 17.52V2.76l2.16-2.16h3.384l2.16 2.16v11.592zM13.104 127.064l2.16 2.232h9.216l2.16-2.232v-7.056l2.232-2.16h3.312l2.232 2.16v10.296L27.648 137H12.096L5.4 130.304V93.296l6.696-6.696h15.552l6.768 6.696v10.224l-2.232 2.232h-3.312l-2.232-2.232v-7.056l-2.16-2.16h-9.216l-2.16 2.16v30.6zm59.669-33.768v37.008L66.077 137H50.525l-6.768-6.696V93.296l6.768-6.696h15.552l6.696 6.696zm-19.08 1.008l-2.16 2.16v3.096l13.536 13.536V96.464l-2.16-2.16h-9.216zm9.216 34.992l2.16-2.232v-3.024l-13.536-13.608v16.632l2.16 2.232h9.216zm46.061-42.768l2.16 2.232v46.08l-2.16 2.16h-3.312l-2.232-2.16v-4.032l-13.608-22.896v26.928l-2.16 2.16h-3.384l-2.16-2.16V88.76l2.16-2.232h3.384l2.16 2.232v3.96l13.608 22.824V88.76l2.232-2.232h3.312zm11.501 37.44l2.16-2.232h3.384l2.16 2.232v3.096l2.232 2.232h9.144l2.232-2.232v-9.216l-2.232-2.232h-12.384l-6.696-6.696V93.296l6.696-6.696h15.624l6.696 6.696v6.336l-2.16 2.16h-3.384l-2.16-2.16v-3.168l-2.232-2.16h-9.144l-2.232 2.16v9.288l2.232 2.16h12.384l6.696 6.696v15.696L142.791 137h-15.624l-6.696-6.696v-6.336zM185.684 137h-24.696l-2.16-2.16V88.76l2.16-2.16h24.696l2.16 2.16v3.312l-2.16 2.232h-16.92l-2.232 2.16v9.288l2.232 2.16h6.984l2.16 2.232v3.312l-2.16 2.16h-6.984l-2.232 2.232v9.216l2.232 2.232h16.92l2.16 2.16v3.384l-2.16 2.16zm38.356-50.472l2.16 2.232v46.08l-2.16 2.16h-3.312l-2.232-2.16v-4.032l-13.608-22.896v26.928l-2.16 2.16h-3.384l-2.16-2.16V88.76l2.16-2.232h3.384l2.16 2.232v3.96l13.608 22.824V88.76l2.232-2.232h3.312zm11.501 37.44l2.16-2.232h3.384l2.16 2.232v3.096l2.232 2.232h9.144l2.232-2.232v-9.216l-2.232-2.232h-12.384l-6.696-6.696V93.296l6.696-6.696h15.624l6.696 6.696v6.336l-2.16 2.16h-3.384l-2.16-2.16v-3.168l-2.232-2.16h-9.144l-2.232 2.16v9.288l2.232 2.16h12.384l6.696 6.696v15.696L257.861 137h-15.624l-6.696-6.696v-6.336zm38.357-35.208l2.232-2.16h3.312l2.16 2.16v38.304l2.232 2.232h9.144l2.232-2.232V88.76l2.16-2.16h3.384l2.16 2.16v41.544L296.218 137h-15.624l-6.696-6.696V88.76zm38.357 35.208l2.16-2.232h3.384l2.16 2.232v3.096l2.232 2.232h9.144l2.232-2.232v-9.216l-2.232-2.232h-12.384l-6.696-6.696V93.296l6.696-6.696h15.624l6.696 6.696v6.336l-2.16 2.16h-3.384l-2.16-2.16v-3.168l-2.232-2.16h-9.144l-2.232 2.16v9.288l2.232 2.16h12.384l6.696 6.696v15.696L334.575 137h-15.624l-6.696-6.696v-6.336zm83.933 6.336L389.492 137h-15.624l-6.696-6.696V88.688l2.232-2.16h3.312l2.232 2.16-.072 38.376 2.232 2.232h9.144l2.232-2.232v-2.52l2.232-2.232h3.312l2.232 2.16-.072 5.832zM412.295 86.6h15.624l6.696 6.696v41.544l-2.16 2.16h-3.384l-2.16-2.16v-16.992l-2.232-2.232h-9.144l-2.232 2.232v16.992l-2.16 2.16h-3.384l-2.16-2.16V93.296l6.696-6.696zm3.24 7.704l-2.232 2.16v9.288l2.232 2.16h9.144l2.232-2.16v-9.288l-2.232-2.16h-9.144zm36.125 6.048l6.84 6.768 6.768-6.768V88.76l2.16-2.16h3.384l2.16 2.16v14.76l-10.656 10.656v20.664l-2.16 2.16h-3.384l-2.16-2.16v-20.664l-10.656-10.656V88.76l2.16-2.16h3.384l2.16 2.16v11.592zM509.169 137h-24.696l-2.16-2.16V88.76l2.16-2.16h24.696l2.16 2.16v3.312l-2.16 2.232h-16.92l-2.232 2.16v9.288l2.232 2.16h6.984l2.16 2.232v3.312l-2.16 2.16h-6.984l-2.232 2.232v9.216l2.232 2.232h16.92l2.16 2.16v3.384l-2.16 2.16zm40.517-28.08l-2.88 2.808 2.88 2.88v20.232l-2.232 2.16h-3.312l-2.232-2.16v-17.064l-2.16-2.16h-9.216l-2.16 2.16v17.064l-2.232 2.16h-3.312l-2.16-2.16V88.76l2.16-2.232h20.088l6.768 6.696v15.696zm-21.312-3.24l2.16 2.232h9.216l2.16-2.232v-9.216l-2.16-2.232h-9.216l-2.16 2.232v9.216zM34.416 179.296v37.008L27.72 223H12.168L5.4 216.304v-37.008l6.768-6.696H27.72l6.696 6.696zm-19.08 1.008l-2.16 2.16v3.096l13.536 13.536v-16.632l-2.16-2.16h-9.216zm9.216 34.992l2.16-2.232v-3.024l-13.536-13.608v16.632l2.16 2.232h9.216zm46.061-42.768l2.16 2.232v46.08l-2.16 2.16h-3.312l-2.232-2.16v-4.032l-13.608-22.896v26.928l-2.16 2.16h-3.384l-2.16-2.16v-46.08l2.16-2.232h3.384l2.16 2.232v3.96l13.608 22.824V174.76l2.232-2.232h3.312z" fill="#fff"/><path d="M148 197.599h119.145m3.243-16.137L286.926 198l-16.538 16.538" stroke="#ffa800" stroke-width="7"/><path d="M393.462 197.8l2.88 2.808v15.696L389.646 223h-20.16l-2.16-2.16v-46.08l2.16-2.16h20.16l6.696 6.696v15.624l-2.88 2.88zm-16.2-17.496l-2.232 2.16v9.288l2.232 2.16h9.144l2.232-2.16v-9.288l-2.232-2.16h-9.144zm0 21.312l-2.232 2.232v9.216l2.232 2.232h9.144l2.232-2.232v-9.216l-2.232-2.232h-9.144zm46.853-21.384v35.064h8.424l2.16 2.16v3.384l-2.16 2.16h-23.976-.648l-2.232-2.16v-3.384l2.232-2.16h8.424v-35.064h-8.424l-2.232-2.16v-3.312l2.232-2.232h24.624l2.16 2.232v3.312l-2.16 2.16h-8.424zm38.285 0v40.608l-2.16 2.16h-3.384l-2.16-2.16v-40.608H446.2l-2.16-2.16v-3.384l2.16-2.16h24.696l2.16 2.232v3.312l-2.16 2.16H462.4zm27.701 32.832l2.16 2.232h9.216l2.16-2.232v-7.056l2.232-2.16h3.312l2.232 2.16v10.296L504.645 223h-15.552l-6.696-6.696v-37.008l6.696-6.696h15.552l6.768 6.696v10.224l-2.232 2.232h-3.312l-2.232-2.232v-7.056l-2.16-2.16h-9.216l-2.16 2.16v30.6zm59.669-33.768v37.008L543.074 223h-15.552l-6.768-6.696v-37.008l6.768-6.696h15.552l6.696 6.696zm-19.08 1.008l-2.16 2.16v3.096l13.536 13.536v-16.632l-2.16-2.16h-9.216zm9.216 34.992l2.16-2.232v-3.024l-13.536-13.608v16.632l2.16 2.232h9.216zm37.637-35.064v35.064h8.424l2.16 2.16v3.384l-2.16 2.16h-23.976-.648l-2.232-2.16v-3.384l2.232-2.16h8.424v-35.064h-8.424l-2.232-2.16v-3.312l2.232-2.232h24.624l2.16 2.232v3.312l-2.16 2.16h-8.424zm46.781-7.704l2.16 2.232v46.08l-2.16 2.16h-3.312l-2.232-2.16v-4.032l-13.608-22.896v26.928l-2.16 2.16h-3.384l-2.16-2.16v-46.08l2.16-2.232h3.384l2.16 2.232v3.96l13.608 22.824V174.76l2.232-2.232h3.312z" fill="#ffa800"/></svg>