<svg width="632" height="223" viewBox="0 0 632 223" fill="none" xmlns="http://www.w3.org/2000/svg">
<path d="M23.76 8.232V48.84L21.6 51H18.216L16.056 48.84V8.232H7.56L5.4 6.072V2.688L7.56 0.527997H32.256L34.416 2.76V6.072L32.256 8.232H23.76ZM70.6129 0.527997L72.7729 2.76V48.84L70.6129 51H67.2289L65.0689 48.84V31.776L62.8369 29.616H53.6929L51.4609 31.776V48.84L49.3009 51H45.9169L43.7569 48.84V2.76L45.9169 0.527997H49.3009L51.4609 2.76V19.68L53.6929 21.912H62.8369L65.0689 19.68V2.76L67.2289 0.527997H70.6129ZM108.97 51H84.2738L82.1138 48.84V2.76L84.2738 0.599997H108.97L111.13 2.76V6.072L108.97 8.304H92.0498L89.8178 10.464V19.752L92.0498 21.912H99.0338L101.194 24.144V27.456L99.0338 29.616H92.0498L89.8178 31.848V41.064L92.0498 43.296H108.97L111.13 45.456V48.84L108.97 51ZM137.031 37.968L139.191 35.736H142.575L144.735 37.968V41.064L146.967 43.296H156.111L158.343 41.064V31.848L156.111 29.616H143.727L137.031 22.92V7.296L143.727 0.599997H159.351L166.047 7.296V13.632L163.887 15.792H160.503L158.343 13.632V10.464L156.111 8.304H146.967L144.735 10.464V19.752L146.967 21.912H159.351L166.047 28.608V44.304L159.351 51H143.727L137.031 44.304V37.968ZM202.244 51H177.548L175.388 48.84V2.76L177.548 0.599997H202.244L204.404 2.76V6.072L202.244 8.304H185.324L183.092 10.464V19.752L185.324 21.912H192.308L194.468 24.144V27.456L192.308 29.616H185.324L183.092 31.848V41.064L185.324 43.296H202.244L204.404 45.456V48.84L202.244 51ZM242.76 44.304L236.064 51H220.44L213.744 44.304V2.688L215.976 0.527997H219.288L221.52 2.688L221.448 41.064L223.68 43.296H232.824L235.056 41.064V38.544L237.288 36.312H240.6L242.832 38.472L242.76 44.304ZM257.716 51H254.332L252.172 48.84V2.76L254.332 0.599997H279.028L281.188 2.76V6.072L279.028 8.304H262.108L259.876 10.464V19.752L262.108 21.912H269.092L271.252 24.144V27.456L269.092 29.616H262.108L259.876 31.848V48.84L257.716 51ZM317.312 26.88L319.544 29.04V32.352L317.312 34.584H292.688L290.528 32.352V29.04L292.688 26.88H317.312ZM336.589 41.064L338.749 43.296H347.965L350.125 41.064V34.008L352.357 31.848H355.669L357.901 34.008V44.304L351.133 51H335.581L328.885 44.304V7.296L335.581 0.599997H351.133L357.901 7.296V17.52L355.669 19.752H352.357L350.125 17.52V10.464L347.965 8.304H338.749L336.589 10.464V41.064ZM367.242 2.76L369.474 0.599997H372.786L374.946 2.76V41.064L377.178 43.296H386.322L388.554 41.064V2.76L390.714 0.599997H394.098L396.258 2.76V44.304L389.562 51H373.938L367.242 44.304V2.76ZM405.599 37.968L407.759 35.736H411.143L413.303 37.968V41.064L415.535 43.296H424.679L426.911 41.064V31.848L424.679 29.616H412.295L405.599 22.92V7.296L412.295 0.599997H427.919L434.615 7.296V13.632L432.455 15.792H429.071L426.911 13.632V10.464L424.679 8.304H415.535L413.303 10.464V19.752L415.535 21.912H427.919L434.615 28.608V44.304L427.919 51H412.295L405.599 44.304V37.968ZM462.316 8.232V48.84L460.156 51H456.772L454.612 48.84V8.232H446.116L443.956 6.072V2.688L446.116 0.527997H470.812L472.972 2.76V6.072L470.812 8.232H462.316ZM511.329 7.296V44.304L504.633 51H489.081L482.313 44.304V7.296L489.081 0.599997H504.633L511.329 7.296ZM492.249 8.304L490.089 10.464V13.56L503.625 27.096V10.464L501.465 8.304H492.249ZM501.465 43.296L503.625 41.064V38.04L490.089 24.432V41.064L492.249 43.296H501.465ZM549.686 44.304L542.918 51H522.83L520.67 48.84V2.76L522.83 0.599997H542.918L549.686 7.296V44.304ZM530.534 8.304L528.374 10.464V41.064L530.534 43.296H539.75L541.91 41.064V10.464L539.75 8.304H530.534ZM566.731 14.352L573.571 21.12L580.339 14.352V2.76L582.499 0.599997H585.883L588.043 2.76V17.52L577.387 28.176V48.84L575.227 51H571.843L569.683 48.84V28.176L559.027 17.52V2.76L561.187 0.599997H564.571L566.731 2.76V14.352ZM13.104 127.064L15.264 129.296H24.48L26.64 127.064V120.008L28.872 117.848H32.184L34.416 120.008V130.304L27.648 137H12.096L5.4 130.304V93.296L12.096 86.6H27.648L34.416 93.296V103.52L32.184 105.752H28.872L26.64 103.52V96.464L24.48 94.304H15.264L13.104 96.464V127.064ZM72.7729 93.296V130.304L66.0769 137H50.5249L43.7569 130.304V93.296L50.5249 86.6H66.0769L72.7729 93.296ZM53.6929 94.304L51.5329 96.464V99.56L65.0689 113.096V96.464L62.9089 94.304H53.6929ZM62.9089 129.296L65.0689 127.064V124.04L51.5329 110.432V127.064L53.6929 129.296H62.9089ZM108.97 86.528L111.13 88.76V134.84L108.97 137H105.658L103.426 134.84V130.808L89.8178 107.912V134.84L87.6578 137H84.2738L82.1138 134.84V88.76L84.2738 86.528H87.6578L89.8178 88.76V92.72L103.426 115.544V88.76L105.658 86.528H108.97ZM120.471 123.968L122.631 121.736H126.015L128.175 123.968V127.064L130.407 129.296H139.551L141.783 127.064V117.848L139.551 115.616H127.167L120.471 108.92V93.296L127.167 86.6H142.791L149.487 93.296V99.632L147.327 101.792H143.943L141.783 99.632V96.464L139.551 94.304H130.407L128.175 96.464V105.752L130.407 107.912H142.791L149.487 114.608V130.304L142.791 137H127.167L120.471 130.304V123.968ZM185.684 137H160.988L158.828 134.84V88.76L160.988 86.6H185.684L187.844 88.76V92.072L185.684 94.304H168.764L166.532 96.464V105.752L168.764 107.912H175.748L177.908 110.144V113.456L175.748 115.616H168.764L166.532 117.848V127.064L168.764 129.296H185.684L187.844 131.456V134.84L185.684 137ZM224.04 86.528L226.2 88.76V134.84L224.04 137H220.728L218.496 134.84V130.808L204.888 107.912V134.84L202.728 137H199.344L197.184 134.84V88.76L199.344 86.528H202.728L204.888 88.76V92.72L218.496 115.544V88.76L220.728 86.528H224.04ZM235.541 123.968L237.701 121.736H241.085L243.245 123.968V127.064L245.477 129.296H254.621L256.853 127.064V117.848L254.621 115.616H242.237L235.541 108.92V93.296L242.237 86.6H257.861L264.557 93.296V99.632L262.397 101.792H259.013L256.853 99.632V96.464L254.621 94.304H245.477L243.245 96.464V105.752L245.477 107.912H257.861L264.557 114.608V130.304L257.861 137H242.237L235.541 130.304V123.968ZM273.898 88.76L276.13 86.6H279.442L281.602 88.76V127.064L283.834 129.296H292.978L295.21 127.064V88.76L297.37 86.6H300.754L302.914 88.76V130.304L296.218 137H280.594L273.898 130.304V88.76ZM312.255 123.968L314.415 121.736H317.799L319.959 123.968V127.064L322.191 129.296H331.335L333.567 127.064V117.848L331.335 115.616H318.951L312.255 108.92V93.296L318.951 86.6H334.575L341.271 93.296V99.632L339.111 101.792H335.727L333.567 99.632V96.464L331.335 94.304H322.191L319.959 96.464V105.752L322.191 107.912H334.575L341.271 114.608V130.304L334.575 137H318.951L312.255 130.304V123.968ZM396.188 130.304L389.492 137H373.868L367.172 130.304V88.688L369.404 86.528H372.716L374.948 88.688L374.876 127.064L377.108 129.296H386.252L388.484 127.064V124.544L390.716 122.312H394.028L396.26 124.472L396.188 130.304ZM412.295 86.6H427.919L434.615 93.296V134.84L432.455 137H429.071L426.911 134.84V117.848L424.679 115.616H415.535L413.303 117.848V134.84L411.143 137H407.759L405.599 134.84V93.296L412.295 86.6ZM415.535 94.304L413.303 96.464V105.752L415.535 107.912H424.679L426.911 105.752V96.464L424.679 94.304H415.535ZM451.66 100.352L458.5 107.12L465.268 100.352V88.76L467.428 86.6H470.812L472.972 88.76V103.52L462.316 114.176V134.84L460.156 137H456.772L454.612 134.84V114.176L443.956 103.52V88.76L446.116 86.6H449.5L451.66 88.76V100.352ZM509.169 137H484.473L482.313 134.84V88.76L484.473 86.6H509.169L511.329 88.76V92.072L509.169 94.304H492.249L490.017 96.464V105.752L492.249 107.912H499.233L501.393 110.144V113.456L499.233 115.616H492.249L490.017 117.848V127.064L492.249 129.296H509.169L511.329 131.456V134.84L509.169 137ZM549.686 108.92L546.806 111.728L549.686 114.608V134.84L547.454 137H544.142L541.91 134.84V117.776L539.75 115.616H530.534L528.374 117.776V134.84L526.142 137H522.83L520.67 134.84V88.76L522.83 86.528H542.918L549.686 93.224V108.92ZM528.374 105.68L530.534 107.912H539.75L541.91 105.68V96.464L539.75 94.232H530.534L528.374 96.464V105.68ZM34.416 179.296V216.304L27.72 223H12.168L5.4 216.304V179.296L12.168 172.6H27.72L34.416 179.296ZM15.336 180.304L13.176 182.464V185.56L26.712 199.096V182.464L24.552 180.304H15.336ZM24.552 215.296L26.712 213.064V210.04L13.176 196.432V213.064L15.336 215.296H24.552ZM70.6129 172.528L72.7729 174.76V220.84L70.6129 223H67.3009L65.0689 220.84V216.808L51.4609 193.912V220.84L49.3009 223H45.9169L43.7569 220.84V174.76L45.9169 172.528H49.3009L51.4609 174.76V178.72L65.0689 201.544V174.76L67.3009 172.528H70.6129Z" fill="white"/>
<path d="M148 197.599L267.145 197.599" stroke="#FFA800" stroke-width="7"/>
<path d="M270.388 181.462L286.926 198L270.388 214.538" stroke="#FFA800" stroke-width="7"/>
<path d="M393.462 197.8L396.342 200.608V216.304L389.646 223H369.486L367.326 220.84V174.76L369.486 172.6H389.646L396.342 179.296V194.92L393.462 197.8ZM377.262 180.304L375.03 182.464V191.752L377.262 193.912H386.406L388.638 191.752V182.464L386.406 180.304H377.262ZM377.262 201.616L375.03 203.848V213.064L377.262 215.296H386.406L388.638 213.064V203.848L386.406 201.616H377.262ZM424.115 180.232V215.296H432.539L434.699 217.456V220.84L432.539 223H408.563H407.915L405.683 220.84V217.456L407.915 215.296H416.339V180.232H407.915L405.683 178.072V174.76L407.915 172.528H432.539L434.699 174.76V178.072L432.539 180.232H424.115ZM462.4 180.232V220.84L460.24 223H456.856L454.696 220.84V180.232H446.2L444.04 178.072V174.688L446.2 172.528H470.896L473.056 174.76V178.072L470.896 180.232H462.4ZM490.101 213.064L492.261 215.296H501.477L503.637 213.064V206.008L505.869 203.848H509.181L511.413 206.008V216.304L504.645 223H489.093L482.397 216.304V179.296L489.093 172.6H504.645L511.413 179.296V189.52L509.181 191.752H505.869L503.637 189.52V182.464L501.477 180.304H492.261L490.101 182.464V213.064ZM549.77 179.296V216.304L543.074 223H527.522L520.754 216.304V179.296L527.522 172.6H543.074L549.77 179.296ZM530.69 180.304L528.53 182.464V185.56L542.066 199.096V182.464L539.906 180.304H530.69ZM539.906 215.296L542.066 213.064V210.04L528.53 196.432V213.064L530.69 215.296H539.906ZM577.543 180.232V215.296H585.967L588.127 217.456V220.84L585.967 223H561.991H561.343L559.111 220.84V217.456L561.343 215.296H569.767V180.232H561.343L559.111 178.072V174.76L561.343 172.528H585.967L588.127 174.76V178.072L585.967 180.232H577.543ZM624.324 172.528L626.484 174.76V220.84L624.324 223H621.012L618.78 220.84V216.808L605.172 193.912V220.84L603.012 223H599.628L597.468 220.84V174.76L599.628 172.528H603.012L605.172 174.76V178.72L618.78 201.544V174.76L621.012 172.528H624.324Z" fill="#FFA800"/>
</svg>
