<svg xmlns="http://www.w3.org/2000/svg" width="554" height="428" fill="none" xmlns:v="https://vecta.io/nano"><path d="M32.609 29.426h-8.457V69.85L22.002 72h-3.369l-2.15-2.15V29.426H8.026l-2.15-2.15v-3.369l2.15-2.15h24.584l2.15 2.222v3.297l-2.15 2.15zm40.333-5.447V69.85L70.792 72h-3.369l-2.15-2.15V52.863l-2.222-2.15h-9.102l-2.222 2.15V69.85L49.577 72h-3.369l-2.15-2.15V23.979l2.15-2.222h3.369l2.15 2.222v16.843l2.222 2.222h9.102l2.222-2.222V23.979l2.15-2.222h3.369l2.15 2.222zm38.183 45.871l-2.15 2.15H84.391l-2.15-2.15V23.979l2.15-2.15h24.584l2.15 2.15v3.297l-2.15 2.222H92.132l-2.222 2.15v9.246l2.222 2.15h6.952l2.15 2.222v3.297l-2.15 2.15h-6.952l-2.222 2.222v9.174l2.222 2.222h16.843l2.15 2.15v3.369zM5.875 151.334v-6.307l2.15-2.222h3.369l2.15 2.222v3.082l2.222 2.222h9.103l2.222-2.222v-9.174l-2.222-2.222H12.541l-6.666-6.665v-15.553l6.666-6.666h15.553l6.666 6.666v6.307l-2.15 2.15h-3.369l-2.15-2.15v-3.154l-2.222-2.15h-9.103l-2.222 2.15v9.246l2.222 2.15h12.328l6.666 6.666v15.624L28.094 158H12.541l-6.666-6.666zm67.067 4.516l-2.15 2.15H46.208l-2.15-2.15v-45.871l2.15-2.15h24.584l2.15 2.15v3.297l-2.15 2.222H53.949l-2.222 2.15v9.246l2.222 2.15h6.952l2.15 2.222v3.297l-2.15 2.15h-6.952l-2.222 2.222v9.174l2.222 2.222h16.843l2.15 2.15v3.369zm38.255-10.321l-.072 5.805-6.666 6.666H88.906l-6.666-6.666v-41.427l2.222-2.15h3.297l2.222 2.15-.072 38.202 2.222 2.222h9.102l2.222-2.222v-2.508l2.222-2.222h3.297l2.222 2.15zm16.965 10.321l-2.15 2.15h-3.368l-2.151-2.15v-45.871l2.151-2.15h24.583l2.151 2.15v3.297l-2.151 2.222h-16.843l-2.222 2.15v9.246l2.222 2.15h6.953l2.15 2.222v3.297l-2.15 2.15h-6.953l-2.222 2.222v16.915zm32.664-21.86h24.512l2.222 2.15v3.297l-2.222 2.222h-24.512l-2.15-2.222v-3.297l2.15-2.15zm43.702-16.342v30.461l2.15 2.222h9.174l2.15-2.222v-7.024l2.222-2.15h3.297l2.222 2.15v10.249L219.006 158h-15.482l-6.665-6.666v-36.839l6.665-6.666h15.482l6.737 6.666v10.177l-2.222 2.222h-3.297l-2.222-2.222v-7.024l-2.15-2.15h-9.174l-2.15 2.15zm30.513 33.686v-41.355l2.222-2.15h3.297l2.15 2.15v38.13l2.222 2.222h9.103l2.221-2.222v-38.13l2.151-2.15h3.368l2.15 2.15v41.355L257.26 158h-15.553l-6.666-6.666zm38.183 0v-6.307l2.15-2.222h3.369l2.15 2.222v3.082l2.222 2.222h9.102l2.222-2.222v-9.174l-2.222-2.222h-12.328l-6.665-6.665v-15.553l6.665-6.666h15.553l6.666 6.666v6.307l-2.15 2.15h-3.369l-2.15-2.15v-3.154l-2.222-2.15h-9.102l-2.222 2.15v9.246l2.222 2.15h12.327l6.666 6.666v15.624L295.442 158h-15.553l-6.665-6.666zm64.917-35.908h-8.458v40.424l-2.15 2.15h-3.369l-2.15-2.15v-40.424h-8.457l-2.15-2.15v-3.369l2.15-2.15h24.584l2.15 2.222v3.297l-2.15 2.15zm40.332 35.908L371.808 158h-15.482l-6.737-6.666v-36.839l6.737-6.666h15.482l6.665 6.666v36.839zm-21.143-33.686v3.082l13.474 13.475v-16.557l-2.15-2.15h-9.174l-2.15 2.15zm13.474 30.461v-3.01l-13.474-13.546v16.556l2.15 2.222h9.174l2.15-2.222zm45.852-33.614v36.839L409.919 158h-19.997l-2.15-2.15v-45.871l2.15-2.15h19.997l6.737 6.666zm-9.891 1.003h-9.174l-2.15 2.15v30.461l2.15 2.222h9.174l2.15-2.222v-30.461l-2.15-2.15zm26.858-5.519v11.539l6.809 6.738 6.738-6.738v-11.539l2.15-2.15h3.368l2.151 2.15v14.693l-10.608 10.608v20.57l-2.15 2.15h-3.369l-2.15-2.15v-20.57l-10.608-10.608v-14.693l2.151-2.15h3.368l2.15 2.15zM13.545 203.648v30.461l2.15 2.222h9.174l2.15-2.222v-7.024l2.222-2.15h3.297l2.222 2.15v10.249L28.022 244H12.541l-6.666-6.666v-36.839l6.666-6.666h15.481l6.737 6.666v10.177l-2.222 2.222h-3.297l-2.222-2.222v-7.024l-2.15-2.15h-9.174l-2.15 2.15zm59.398 33.686L66.277 244H50.795l-6.737-6.666v-36.839l6.737-6.666h15.481l6.666 6.666v36.839zm-21.144-33.686v3.082l13.475 13.475v-16.557l-2.15-2.15h-9.174l-2.15 2.15zm13.475 30.461v-3.01l-13.475-13.546v16.556l2.15 2.222h9.174l2.15-2.222zm45.852-38.13v45.871l-2.15 2.15h-3.297l-2.222-2.15v-4.014L89.91 215.044v26.806L87.76 244h-3.369l-2.15-2.15v-45.871l2.15-2.222h3.369l2.15 2.222v3.942l13.546 22.72v-26.662l2.222-2.222h3.297l2.15 2.222zm9.298 41.355v-6.307l2.151-2.222h3.368l2.15 2.222v3.082l2.222 2.222h9.103l2.222-2.222v-9.174l-2.222-2.222h-12.328l-6.666-6.665v-15.553l6.666-6.666h15.553l6.666 6.666v6.307l-2.151 2.15h-3.368l-2.15-2.15v-3.154l-2.222-2.15h-9.103l-2.222 2.15v9.246l2.222 2.15h12.328l6.666 6.666v15.624L142.642 244h-15.553l-6.666-6.666zm67.067 4.516l-2.15 2.15h-24.584l-2.15-2.15v-45.871l2.15-2.15h24.584l2.15 2.15v3.297l-2.15 2.222h-16.843l-2.222 2.15v9.246l2.222 2.15h6.952l2.15 2.222v3.297l-2.15 2.15h-6.952l-2.222 2.222v9.174l2.222 2.222h16.843l2.15 2.15v3.369zm38.183-45.871v45.871l-2.15 2.15h-3.297l-2.222-2.15v-4.014l-13.546-22.792v26.806l-2.151 2.15h-3.368l-2.15-2.15v-45.871l2.15-2.222h3.368l2.151 2.222v3.942l13.546 22.72v-26.662l2.222-2.222h3.297l2.15 2.222zm9.298 41.355v-6.307l2.15-2.222h3.369l2.15 2.222v3.082l2.222 2.222h9.103l2.221-2.222v-9.174l-2.221-2.222h-12.328l-6.666-6.665v-15.553l6.666-6.666h15.553l6.665 6.666v6.307l-2.15 2.15h-3.368l-2.151-2.15v-3.154l-2.221-2.15h-9.103l-2.222 2.15v9.246l2.222 2.15h12.328l6.665 6.666v15.624L257.19 244h-15.553l-6.666-6.666zm38.183 0v-41.355l2.222-2.15h3.297l2.15 2.15v38.13l2.222 2.222h9.102l2.222-2.222v-38.13l2.15-2.15h3.369l2.15 2.15v41.355L295.373 244h-15.554l-6.665-6.666zm38.183 0v-6.307l2.15-2.222h3.368l2.151 2.222v3.082l2.221 2.222h9.103l2.222-2.222v-9.174l-2.222-2.222h-12.328l-6.665-6.665v-15.553l6.665-6.666h15.553l6.666 6.666v6.307l-2.15 2.15h-3.369l-2.15-2.15v-3.154l-2.222-2.15h-9.103l-2.221 2.15v9.246l2.221 2.15h12.328l6.666 6.666v15.624L333.555 244h-15.553l-6.665-6.666zm83.623-5.805l-.072 5.805-6.665 6.666H372.67l-6.666-6.666v-41.427l2.222-2.15h3.297l2.222 2.15-.072 38.202 2.222 2.222h9.102l2.222-2.222v-2.508l2.222-2.222h3.297l2.222 2.15zm9.297-31.034l6.665-6.666h15.553l6.666 6.666v41.355l-2.15 2.15h-3.369l-2.15-2.15v-16.915l-2.222-2.222h-9.103l-2.221 2.222v16.915l-2.151 2.15h-3.368l-2.15-2.15v-41.355zm18.993 1.003h-9.103l-2.221 2.15v9.246l2.221 2.15h9.103l2.222-2.15v-9.246l-2.222-2.15zm26.858-5.519v11.539l6.809 6.738 6.737-6.738v-11.539l2.151-2.15h3.368l2.15 2.15v14.693l-10.607 10.608v20.57l-2.15 2.15h-3.369l-2.15-2.15v-20.57l-10.608-10.608v-14.693l2.15-2.15h3.369l2.15 2.15zm59.398 45.871l-2.15 2.15h-24.584l-2.15-2.15v-45.871l2.15-2.15h24.584l2.15 2.15v3.297l-2.15 2.222h-16.843l-2.222 2.15v9.246l2.222 2.15h6.952l2.15 2.222v3.297l-2.15 2.15h-6.952l-2.222 2.222v9.174l2.222 2.222h16.843l2.15 2.15v3.369zm38.183-41.427v15.625l-2.867 2.795 2.867 2.867v20.14l-2.222 2.15h-3.297l-2.222-2.15v-16.987l-2.15-2.15h-9.174l-2.151 2.15v16.987l-2.221 2.15h-3.297l-2.151-2.15v-45.871l2.151-2.222h19.996l6.738 6.666zm-21.216 3.225v9.174l2.151 2.222h9.174l2.15-2.222v-9.174l-2.15-2.222h-9.174l-2.151 2.222zM34.76 323.334L28.094 330H12.613l-6.737-6.666v-36.839l6.737-6.666h15.481l6.666 6.666v36.839zm-21.144-33.686v3.082l13.475 13.475v-16.557l-2.15-2.15h-9.174l-2.15 2.15zm13.475 30.461v-3.01l-13.475-13.546v16.556l2.15 2.222h9.174l2.15-2.222zm45.852-38.13v45.871l-2.15 2.15h-3.297l-2.222-2.15v-4.014l-13.546-22.792v26.806l-2.15 2.15h-3.369l-2.15-2.15v-45.871l2.15-2.222h3.369l2.15 2.222v3.942l13.546 22.72v-26.662l2.222-2.222h3.297l2.15 2.222z" fill="#fff"/><path d="M222.893 395.75l2.867 2.796v15.624l-6.666 6.666h-20.068l-2.151-2.15v-45.871l2.151-2.15h20.068l6.666 6.665v15.553l-2.867 2.867zm-16.127-17.416l-2.222 2.15v9.246l2.222 2.15h9.103l2.222-2.15v-9.246l-2.222-2.15h-9.103zm0 21.215l-2.222 2.222v9.174l2.222 2.222h9.103l2.222-2.222v-9.174l-2.222-2.222h-9.103zm46.64-21.287v34.905h8.386l2.15 2.15v3.369l-2.15 2.15h-23.867-.645l-2.222-2.15v-3.369l2.222-2.15h8.386v-34.905h-8.386l-2.222-2.15v-3.297l2.222-2.222h24.512l2.15 2.222v3.297l-2.15 2.15h-8.386zm38.111 0v40.424l-2.15 2.15h-3.368l-2.151-2.15v-40.424h-8.457l-2.15-2.15v-3.369l2.15-2.15h24.584l2.15 2.222v3.297l-2.15 2.15h-8.458zm27.575 32.683l2.151 2.222h9.174l2.15-2.222v-7.024l2.222-2.15h3.297l2.222 2.15v10.249l-6.738 6.666h-15.481l-6.666-6.666v-36.84l6.666-6.665h15.481l6.738 6.665v10.178l-2.222 2.222h-3.297l-2.222-2.222v-7.024l-2.15-2.15h-9.174l-2.151 2.15v30.461zm59.398-33.615v36.84l-6.665 6.666h-15.482l-6.737-6.666v-36.84l6.737-6.665h15.482l6.665 6.665zm-18.993 1.004l-2.15 2.15v3.082l13.474 13.475v-16.557l-2.15-2.15h-9.174zm9.174 34.833l2.15-2.222v-3.01l-13.474-13.546v16.556l2.15 2.222h9.174zm37.466-34.905v34.905h8.386l2.15 2.15v3.369l-2.15 2.15h-23.867-.645l-2.222-2.15v-3.369l2.222-2.15h8.385v-34.905h-8.385l-2.222-2.15v-3.297l2.222-2.222h24.512l2.15 2.222v3.297l-2.15 2.15h-8.386zm46.568-7.669l2.15 2.222v45.871l-2.15 2.15h-3.297l-2.222-2.15v-4.014L433.64 391.88v26.806l-2.15 2.15h-3.369l-2.15-2.15v-45.871l2.15-2.222h3.369l2.15 2.222v3.942l13.546 22.72v-26.662l2.222-2.222h3.297z" fill="#ffa800"/><path d="M5.5 392.137h119.145M127.889 376l16.538 16.538-16.538 16.538" stroke="#ffa800" stroke-width="6.528"/></svg>