<svg xmlns="http://www.w3.org/2000/svg" width="374" height="177" fill="none" xmlns:v="https://vecta.io/nano"><path d="M5.142 31.777l12.541 12.541c.436.436 1.029.684 1.646.684h2.512A1.16 1.16 0 0 1 23 46.161v70.306a1.16 1.16 0 0 0 1.159 1.159h16.224a1.16 1.16 0 0 0 1.159-1.159V41.324a2.31 2.31 0 0 0-.679-1.639L28.315 27.137c-.436-.436-1.024-.679-1.639-.679h-2.517A1.16 1.16 0 0 1 23 25.299V2.533a1.16 1.16 0 0 0-1.159-1.159H5.617a1.16 1.16 0 0 0-1.159 1.159v27.596a2.32 2.32 0 0 0 .684 1.646v.002z" fill="#f22"/><g fill="#fff"><path d="M105.436 118.968c-8.31 0-15.744-1.421-22.304-4.264-6.451-2.843-11.589-6.997-15.416-12.464-3.717-5.467-5.631-12.081-5.74-19.844h23.452c.109 3.389.984 6.451 2.624 9.184s3.881 4.92 6.724 6.56c2.952 1.531 6.45 2.296 10.496 2.296 3.498 0 6.505-.547 9.02-1.64 2.624-1.203 4.646-2.843 6.068-4.92s2.132-4.537 2.132-7.38c0-3.28-.82-6.013-2.46-8.2-1.531-2.187-3.718-4.045-6.56-5.576-2.734-1.531-5.959-2.897-9.676-4.1l-11.48-4.1c-9.075-2.952-16.017-6.888-20.828-11.808-4.701-4.92-7.052-11.425-7.052-19.516 0-6.888 1.64-12.792 4.92-17.712 3.389-4.92 8.036-8.692 13.94-11.316S95.924.232 103.468.232c7.762 0 14.541 1.367 20.336 4.1 5.904 2.624 10.55 6.451 13.94 11.48 3.498 5.029 5.302 10.933 5.412 17.712H119.54c-.11-2.515-.875-4.865-2.296-7.052-1.312-2.296-3.171-4.1-5.576-5.412-2.406-1.421-5.248-2.132-8.528-2.132-2.843-.109-5.467.328-7.872 1.312-2.296.984-4.155 2.46-5.576 4.428-1.312 1.859-1.968 4.209-1.968 7.052 0 2.733.656 5.029 1.968 6.888 1.421 1.859 3.335 3.499 5.74 4.92 2.405 1.312 5.248 2.569 8.528 3.772l10.66 3.444c5.685 1.968 10.933 4.319 15.744 7.052 4.81 2.624 8.637 6.068 11.48 10.332s4.264 9.895 4.264 16.892a31.27 31.27 0 0 1-4.756 16.728c-3.171 5.139-7.763 9.293-13.776 12.464-5.904 3.171-13.284 4.756-22.14 4.756zm97.828 0c-11.48 0-21.375-2.46-29.684-7.38-8.2-5.029-14.541-11.972-19.024-20.828-4.373-8.965-6.56-19.297-6.56-30.996s2.187-22.031 6.56-30.996c4.483-8.965 10.824-15.963 19.024-20.992 8.309-5.029 18.204-7.544 29.684-7.544 13.885 0 25.256 3.444 34.112 10.332s14.377 16.619 16.564 29.192h-24.108c-1.421-6.123-4.428-10.879-9.02-14.268-4.483-3.499-10.387-5.248-17.712-5.248-6.779 0-12.628 1.64-17.548 4.92-4.811 3.171-8.528 7.708-11.152 13.612-2.624 5.795-3.936 12.792-3.936 20.992 0 8.091 1.312 15.088 3.936 20.992s6.341 10.441 11.152 13.612c4.92 3.171 10.769 4.756 17.548 4.756 7.325 0 13.229-1.585 17.712-4.756 4.483-3.28 7.435-7.817 8.856-13.612h24.272c-2.187 11.917-7.708 21.265-16.564 28.044s-20.227 10.168-34.112 10.168zm107.958 0c-11.48 0-21.374-2.46-29.684-7.38-8.2-5.029-14.541-11.972-19.024-20.828-4.373-8.965-6.56-19.297-6.56-30.996s2.187-22.031 6.56-30.996c4.483-8.965 10.824-15.963 19.024-20.992 8.31-5.029 18.204-7.544 29.684-7.544 13.886 0 25.256 3.444 34.112 10.332s14.378 16.619 16.564 29.192H337.79c-1.421-6.123-4.428-10.879-9.02-14.268-4.482-3.499-10.386-5.248-17.712-5.248-6.778 0-12.628 1.64-17.548 4.92-4.81 3.171-8.528 7.708-11.152 13.612-2.624 5.795-3.936 12.792-3.936 20.992 0 8.091 1.312 15.088 3.936 20.992s6.342 10.441 11.152 13.612c4.92 3.171 10.77 4.756 17.548 4.756 7.326 0 13.23-1.585 17.712-4.756 4.483-3.28 7.435-7.817 8.856-13.612h24.272c-2.186 11.917-7.708 21.265-16.564 28.044s-20.226 10.168-34.112 10.168z"/><path d="M11.513 168.058c-1.848 0-3.468-.324-4.86-.972-1.392-.672-2.472-1.608-3.24-2.808s-1.152-2.604-1.152-4.212h3.78a5.61 5.61 0 0 0 .648 2.52c.432.744 1.044 1.344 1.836 1.8.816.432 1.812.648 2.988.648 1.008 0 1.872-.168 2.592-.504.744-.336 1.308-.792 1.692-1.368.384-.6.576-1.284.576-2.052 0-.888-.204-1.62-.612-2.196s-.96-1.044-1.656-1.404c-.672-.384-1.464-.72-2.376-1.008l-2.808-.936c-1.992-.648-3.48-1.488-4.464-2.52-.96-1.032-1.44-2.376-1.44-4.032 0-1.416.336-2.64 1.008-3.672.672-1.056 1.608-1.872 2.808-2.448 1.224-.6 2.664-.9 4.32-.9 1.632 0 3.06.3 4.284.9s2.184 1.428 2.88 2.484 1.044 2.292 1.044 3.708h-3.816c0-.648-.168-1.284-.504-1.908s-.84-1.128-1.512-1.512c-.672-.408-1.5-.612-2.484-.612-.816-.024-1.548.108-2.196.396s-1.152.708-1.512 1.26-.54 1.212-.54 1.98.156 1.392.468 1.872c.336.456.816.852 1.44 1.188s1.344.648 2.16.936l2.772.9c1.248.408 2.352.912 3.312 1.512.984.576 1.752 1.332 2.304 2.268.576.912.864 2.088.864 3.528a6.67 6.67 0 0 1-.972 3.492c-.648 1.08-1.608 1.968-2.88 2.664-1.272.672-2.856 1.008-4.752 1.008zm18.753 0c-1.728 0-3.264-.396-4.608-1.188s-2.4-1.896-3.168-3.312c-.744-1.416-1.116-3.06-1.116-4.932 0-1.92.372-3.588 1.116-5.004.768-1.44 1.824-2.556 3.168-3.348 1.344-.816 2.904-1.224 4.68-1.224s3.3.396 4.572 1.188 2.256 1.848 2.952 3.168c.696 1.296 1.044 2.736 1.044 4.32l-.036.792-.036.9H24.002v-2.556h11.304c-.072-1.512-.576-2.688-1.512-3.528-.936-.864-2.1-1.296-3.492-1.296a5.44 5.44 0 0 0-2.7.684c-.816.432-1.476 1.08-1.98 1.944-.48.84-.72 1.908-.72 3.204v1.008c0 1.344.24 2.484.72 3.42.504.912 1.164 1.608 1.98 2.088a5.37 5.37 0 0 0 2.664.684c1.152 0 2.1-.252 2.844-.756s1.296-1.188 1.656-2.052h3.6c-.312 1.104-.84 2.1-1.584 2.988-.744.864-1.668 1.548-2.772 2.052-1.08.504-2.328.756-3.744.756zm10.48-.432v-25.92h3.6v25.92h-3.6zm7.355 0v-20.592c0-1.248.204-2.268.612-3.06a3.85 3.85 0 0 1 1.872-1.728c.816-.36 1.8-.54 2.952-.54h2.124v3.06h-1.548c-.864 0-1.488.18-1.872.54-.36.336-.54.936-.54 1.8v20.52h-3.6zm-2.664-15.084v-3.06h10.62v3.06h-10.62zm12.334 5.976v-3.024h14.544v3.024H57.77zm25.875 9.54c-1.752 0-3.312-.396-4.68-1.188a8.86 8.86 0 0 1-3.24-3.348c-.768-1.416-1.152-3.06-1.152-4.932 0-1.896.384-3.552 1.152-4.968.792-1.44 1.872-2.556 3.24-3.348 1.368-.816 2.928-1.224 4.68-1.224 2.208 0 4.056.576 5.544 1.728s2.436 2.712 2.844 4.68H88.29c-.24-1.056-.792-1.872-1.656-2.448-.84-.576-1.848-.864-3.024-.864-.96 0-1.848.252-2.664.756-.816.48-1.476 1.2-1.98 2.16-.48.936-.72 2.1-.72 3.492 0 1.032.144 1.956.432 2.772.288.792.672 1.464 1.152 2.016.504.552 1.08.972 1.728 1.26.648.264 1.332.396 2.052.396.792 0 1.5-.12 2.124-.36.648-.264 1.188-.648 1.62-1.152a4.05 4.05 0 0 0 .936-1.8h3.744c-.408 1.92-1.356 3.468-2.844 4.644-1.488 1.152-3.336 1.728-5.544 1.728zm17.1 0c-1.416 0-2.652-.288-3.708-.864-1.032-.576-1.836-1.44-2.412-2.592-.552-1.152-.828-2.604-.828-4.356v-10.764h3.6v10.368c0 1.704.372 2.988 1.116 3.852s1.812 1.296 3.204 1.296c.936 0 1.776-.228 2.52-.684.768-.456 1.368-1.116 1.8-1.98s.648-1.92.648-3.168v-9.684h3.6v18.144h-3.204l-.252-3.096c-.552 1.104-1.356 1.968-2.412 2.592s-2.28.936-3.672.936zm19.329 0c-1.536 0-2.88-.252-4.032-.756s-2.064-1.212-2.736-2.124-1.08-1.98-1.224-3.204h3.672a4.24 4.24 0 0 0 .684 1.584c.36.48.84.864 1.44 1.152.624.288 1.356.432 2.196.432.792 0 1.44-.108 1.944-.324.528-.24.912-.552 1.152-.936.24-.408.36-.84.36-1.296 0-.672-.168-1.176-.504-1.512-.312-.36-.792-.636-1.44-.828-.624-.216-1.38-.408-2.268-.576-.84-.144-1.656-.336-2.448-.576-.768-.264-1.464-.588-2.088-.972-.6-.384-1.08-.864-1.44-1.44-.36-.6-.54-1.332-.54-2.196 0-1.032.276-1.956.828-2.772.552-.84 1.332-1.488 2.34-1.944 1.032-.48 2.244-.72 3.636-.72 2.016 0 3.636.48 4.86 1.44s1.944 2.316 2.16 4.068h-3.492c-.096-.816-.456-1.44-1.08-1.872-.624-.456-1.452-.684-2.484-.684s-1.824.204-2.376.612-.828.948-.828 1.62c0 .432.156.816.468 1.152s.768.624 1.368.864c.624.216 1.38.42 2.268.612 1.272.24 2.412.54 3.42.9s1.812.888 2.412 1.584.9 1.692.9 2.988c.024 1.128-.264 2.124-.864 2.988-.576.864-1.404 1.536-2.484 2.016-1.056.48-2.316.72-3.78.72zm15.955-.432c-1.128 0-2.112-.18-2.952-.54s-1.488-.96-1.944-1.8-.684-1.98-.684-3.42v-9.324h-3.132v-3.06h3.132l.432-4.536h3.168v4.536h5.148v3.06h-5.148v9.36c0 1.032.216 1.74.648 2.124.432.36 1.176.54 2.232.54h2.088v3.06h-2.988zm12.766.432c-1.704 0-3.24-.396-4.608-1.188-1.344-.792-2.412-1.896-3.204-3.312-.768-1.44-1.152-3.096-1.152-4.968 0-1.92.396-3.588 1.188-5.004.792-1.44 1.872-2.556 3.24-3.348s2.904-1.188 4.608-1.188c1.728 0 3.264.396 4.608 1.188s2.4 1.896 3.168 3.312c.792 1.416 1.188 3.084 1.188 5.004s-.396 3.588-1.188 5.004c-.768 1.416-1.836 2.52-3.204 3.312s-2.916 1.188-4.644 1.188zm0-3.096c.984 0 1.872-.24 2.664-.72.816-.48 1.464-1.188 1.944-2.124.504-.96.756-2.148.756-3.564s-.24-2.592-.72-3.528c-.48-.96-1.128-1.68-1.944-2.16-.792-.48-1.668-.72-2.628-.72a5.16 5.16 0 0 0-2.664.72c-.816.48-1.476 1.2-1.98 2.16-.48.936-.72 2.112-.72 3.528s.24 2.604.72 3.564c.504.936 1.152 1.644 1.944 2.124.816.48 1.692.72 2.628.72zm19.175 3.096c-1.728 0-3.252-.408-4.572-1.224-1.32-.84-2.352-1.968-3.096-3.384-.72-1.44-1.08-3.072-1.08-4.896 0-1.848.36-3.48 1.08-4.896.744-1.416 1.776-2.532 3.096-3.348 1.344-.84 2.88-1.26 4.608-1.26 1.416 0 2.664.288 3.744.864a6.02 6.02 0 0 1 2.52 2.376v-10.584h3.6v25.92h-3.204l-.396-2.808c-.36.552-.828 1.08-1.404 1.584-.576.48-1.272.876-2.088 1.188s-1.752.468-2.808.468zm.576-3.132c1.128 0 2.124-.264 2.988-.792s1.524-1.272 1.98-2.232c.48-.96.72-2.076.72-3.348s-.24-2.376-.72-3.312c-.456-.96-1.116-1.704-1.98-2.232-.864-.552-1.86-.828-2.988-.828a5.3 5.3 0 0 0-2.916.828c-.864.528-1.536 1.272-2.016 2.232-.48.936-.72 2.04-.72 3.312s.24 2.388.72 3.348 1.152 1.704 2.016 2.232 1.836.792 2.916.792zm14.175 10.62l4.428-9.936h-1.044l-7.164-16.128h3.888l5.688 13.176 5.724-13.176h3.78l-11.52 26.064h-3.78zm34.601-7.488c-2.472 0-4.608-.54-6.408-1.62-1.776-1.104-3.156-2.628-4.14-4.572-.96-1.968-1.44-4.248-1.44-6.84 0-2.568.48-4.836 1.44-6.804.984-1.968 2.364-3.492 4.14-4.572 1.8-1.104 3.936-1.656 6.408-1.656 2.952 0 5.34.708 7.164 2.124 1.848 1.416 3.024 3.408 3.528 5.976h-3.96c-.36-1.488-1.104-2.676-2.232-3.564-1.104-.888-2.604-1.332-4.5-1.332-1.704 0-3.18.396-4.428 1.188s-2.208 1.92-2.88 3.384-1.008 3.216-1.008 5.256.336 3.804 1.008 5.292c.672 1.464 1.632 2.592 2.88 3.384 1.248.768 2.724 1.152 4.428 1.152 1.896 0 3.396-.42 4.5-1.26 1.128-.864 1.872-2.028 2.232-3.492h3.96c-.504 2.496-1.68 4.452-3.528 5.868-1.824 1.392-4.212 2.088-7.164 2.088zm20.939 0c-1.704 0-3.24-.396-4.608-1.188-1.344-.792-2.412-1.896-3.204-3.312-.768-1.44-1.152-3.096-1.152-4.968 0-1.92.396-3.588 1.188-5.004.792-1.44 1.872-2.556 3.24-3.348s2.904-1.188 4.608-1.188c1.728 0 3.264.396 4.608 1.188s2.4 1.896 3.168 3.312c.792 1.416 1.188 3.084 1.188 5.004s-.396 3.588-1.188 5.004c-.768 1.416-1.836 2.52-3.204 3.312s-2.916 1.188-4.644 1.188zm0-3.096c.984 0 1.872-.24 2.664-.72.816-.48 1.464-1.188 1.944-2.124.504-.96.756-2.148.756-3.564s-.24-2.592-.72-3.528c-.48-.96-1.128-1.68-1.944-2.16-.792-.48-1.668-.72-2.628-.72a5.16 5.16 0 0 0-2.664.72c-.816.48-1.476 1.2-1.98 2.16-.48.936-.72 2.112-.72 3.528s.24 2.604.72 3.564c.504.936 1.152 1.644 1.944 2.124.816.48 1.692.72 2.628.72zm11.111 2.664v-18.144h3.24l.216 3.096a6.43 6.43 0 0 1 2.448-2.556c1.056-.648 2.268-.972 3.636-.972 1.44 0 2.676.288 3.708.864s1.836 1.452 2.412 2.628c.576 1.152.864 2.604.864 4.356v10.728h-3.6v-10.368c0-1.68-.372-2.952-1.116-3.816s-1.824-1.296-3.24-1.296c-.936 0-1.776.228-2.52.684-.744.432-1.344 1.08-1.8 1.944-.432.864-.648 1.92-.648 3.168v9.684h-3.6zm25.988.432c-1.536 0-2.88-.252-4.032-.756s-2.064-1.212-2.736-2.124-1.08-1.98-1.224-3.204h3.672a4.24 4.24 0 0 0 .684 1.584c.36.48.84.864 1.44 1.152.624.288 1.356.432 2.196.432.792 0 1.44-.108 1.944-.324.528-.24.912-.552 1.152-.936.24-.408.36-.84.36-1.296 0-.672-.168-1.176-.504-1.512-.312-.36-.792-.636-1.44-.828-.624-.216-1.38-.408-2.268-.576-.84-.144-1.656-.336-2.448-.576-.768-.264-1.464-.588-2.088-.972-.6-.384-1.08-.864-1.44-1.44-.36-.6-.54-1.332-.54-2.196 0-1.032.276-1.956.828-2.772.552-.84 1.332-1.488 2.34-1.944 1.032-.48 2.244-.72 3.636-.72 2.016 0 3.636.48 4.86 1.44s1.944 2.316 2.16 4.068h-3.492c-.096-.816-.456-1.44-1.08-1.872-.624-.456-1.452-.684-2.484-.684s-1.824.204-2.376.612-.828.948-.828 1.62c0 .432.156.816.468 1.152s.768.624 1.368.864c.624.216 1.38.42 2.268.612 1.272.24 2.412.54 3.42.9s1.812.888 2.412 1.584.9 1.692.9 2.988c.024 1.128-.264 2.124-.864 2.988-.576.864-1.404 1.536-2.484 2.016-1.056.48-2.316.72-3.78.72zm17.415 0c-1.728 0-3.264-.396-4.608-1.188s-2.4-1.896-3.168-3.312c-.744-1.416-1.116-3.06-1.116-4.932 0-1.92.372-3.588 1.116-5.004.768-1.44 1.824-2.556 3.168-3.348 1.344-.816 2.904-1.224 4.68-1.224s3.3.396 4.572 1.188 2.256 1.848 2.952 3.168c.696 1.296 1.044 2.736 1.044 4.32l-.036.792-.036.9h-14.832v-2.556h11.304c-.072-1.512-.576-2.688-1.512-3.528-.936-.864-2.1-1.296-3.492-1.296a5.44 5.44 0 0 0-2.7.684c-.816.432-1.476 1.08-1.98 1.944-.48.84-.72 1.908-.72 3.204v1.008c0 1.344.24 2.484.72 3.42.504.912 1.164 1.608 1.98 2.088a5.37 5.37 0 0 0 2.664.684c1.152 0 2.1-.252 2.844-.756s1.296-1.188 1.656-2.052h3.6c-.312 1.104-.84 2.1-1.584 2.988-.744.864-1.668 1.548-2.772 2.052-1.08.504-2.328.756-3.744.756zm10.48-.432v-18.144h3.24l.216 3.096a6.43 6.43 0 0 1 2.448-2.556c1.056-.648 2.268-.972 3.636-.972 1.44 0 2.676.288 3.708.864s1.836 1.452 2.412 2.628c.576 1.152.864 2.604.864 4.356v10.728h-3.6v-10.368c0-1.68-.372-2.952-1.116-3.816s-1.824-1.296-3.24-1.296c-.936 0-1.776.228-2.52.684-.744.432-1.344 1.08-1.8 1.944-.432.864-.648 1.92-.648 3.168v9.684h-3.6zm25.989.432c-1.536 0-2.88-.252-4.032-.756s-2.064-1.212-2.736-2.124-1.08-1.98-1.224-3.204h3.672a4.24 4.24 0 0 0 .684 1.584c.36.48.84.864 1.44 1.152.624.288 1.356.432 2.196.432.792 0 1.44-.108 1.944-.324.528-.24.912-.552 1.152-.936.24-.408.36-.84.36-1.296 0-.672-.168-1.176-.504-1.512-.312-.36-.792-.636-1.44-.828-.624-.216-1.38-.408-2.268-.576-.84-.144-1.656-.336-2.448-.576-.768-.264-1.464-.588-2.088-.972-.6-.384-1.08-.864-1.44-1.44-.36-.6-.54-1.332-.54-2.196 0-1.032.276-1.956.828-2.772.552-.84 1.332-1.488 2.34-1.944 1.032-.48 2.244-.72 3.636-.72 2.016 0 3.636.48 4.86 1.44s1.944 2.316 2.16 4.068h-3.492c-.096-.816-.456-1.44-1.08-1.872-.624-.456-1.452-.684-2.484-.684s-1.824.204-2.376.612-.828.948-.828 1.62c0 .432.156.816.468 1.152s.768.624 1.368.864c.624.216 1.38.42 2.268.612 1.272.24 2.412.54 3.42.9s1.812.888 2.412 1.584.9 1.692.9 2.988c.024 1.128-.264 2.124-.864 2.988-.576.864-1.404 1.536-2.484 2.016-1.056.48-2.316.72-3.78.72zm15.866 0c-1.416 0-2.652-.288-3.708-.864-1.032-.576-1.836-1.44-2.412-2.592-.552-1.152-.828-2.604-.828-4.356v-10.764h3.6v10.368c0 1.704.372 2.988 1.116 3.852s1.812 1.296 3.204 1.296c.936 0 1.776-.228 2.52-.684.768-.456 1.368-1.116 1.8-1.98s.648-1.92.648-3.168v-9.684h3.6v18.144h-3.204l-.252-3.096c-.552 1.104-1.356 1.968-2.412 2.592s-2.28.936-3.672.936zm19.329 0c-1.536 0-2.88-.252-4.032-.756s-2.064-1.212-2.736-2.124-1.08-1.98-1.224-3.204h3.672a4.24 4.24 0 0 0 .684 1.584c.36.48.84.864 1.44 1.152.624.288 1.356.432 2.196.432.792 0 1.44-.108 1.944-.324.528-.24.912-.552 1.152-.936.24-.408.36-.84.36-1.296 0-.672-.168-1.176-.504-1.512-.312-.36-.792-.636-1.44-.828-.624-.216-1.38-.408-2.268-.576-.84-.144-1.656-.336-2.448-.576-.768-.264-1.464-.588-2.088-.972-.6-.384-1.08-.864-1.44-1.44-.36-.6-.54-1.332-.54-2.196 0-1.032.276-1.956.828-2.772.552-.84 1.332-1.488 2.34-1.944 1.032-.48 2.244-.72 3.636-.72 2.016 0 3.636.48 4.86 1.44s1.944 2.316 2.16 4.068H367.5c-.096-.816-.456-1.44-1.08-1.872-.624-.456-1.452-.684-2.484-.684s-1.824.204-2.376.612-.828.948-.828 1.62c0 .432.156.816.468 1.152s.768.624 1.368.864c.624.216 1.38.42 2.268.612 1.272.24 2.412.54 3.42.9s1.812.888 2.412 1.584.9 1.692.9 2.988c.024 1.128-.264 2.124-.864 2.988-.576.864-1.404 1.536-2.484 2.016-1.056.48-2.316.72-3.78.72z" fill-opacity=".25"/></g></svg>