<svg width="3840" height="931" viewBox="0 0 3840 931" fill="none" xmlns="http://www.w3.org/2000/svg"><path fill="#1E1E1E" d="M0 0h3840v931H0z"/><g clip-path="url(#a)"><path fill="#000" d="M0-7513h3840V931H0z"/><g clip-path="url(#b)"><g opacity=".5" stroke="#fff" stroke-opacity=".5" stroke-width="1.431"><path d="m2598.97 1025.84-201.73 202.01c-7 7.01-16.47 10.93-26.34 10.93h-40.47c-10.28 0-18.63 8.36-18.63 18.66v515.93c0 10.29-8.34 18.65-18.63 18.65h-260.82c-10.29 0-18.63-8.36-18.63-18.65V1179.6c0-9.88 3.91-19.4 10.91-26.38l201.73-202.005a37.2 37.2 0 0 1 26.35-10.933h40.46c10.29 0 18.63-8.358 18.63-18.656V19.692c0-10.298 8.35-18.656 18.63-18.656h260.83c10.28 0 18.63 8.358 18.63 18.656V999.46c0 9.89-3.91 19.4-10.92 26.38Z"/><path d="m2228.29 852.904-201.73 202.006c-7 7.02-16.47 10.93-26.34 10.93h-40.47c-10.28 0-18.63 8.36-18.63 18.66v688.87c0 10.29-8.34 18.65-18.63 18.65h-260.82c-10.29 0-18.63-8.36-18.63-18.65v-766.7c0-9.89 3.91-19.405 10.91-26.382l201.73-202.008a37.2 37.2 0 0 1 26.35-10.933h40.46c10.29 0 18.63-8.358 18.63-18.656v-729c0-10.297 8.35-18.655 18.63-18.655h260.83c10.28 0 18.63 8.358 18.63 18.656v806.832c0 9.888-3.91 19.402-10.92 26.38Z"/><path d="m1857.59 680.945-201.73 202.008a37.2 37.2 0 0 1-26.34 10.933h-40.46c-10.29 0-18.64 8.358-18.64 18.656v860.828c0 10.29-8.34 18.65-18.63 18.65h-260.82c-10.29 0-18.63-8.36-18.63-18.65V834.709c0-9.888 3.91-19.403 10.92-26.38l201.73-202.008a37.17 37.17 0 0 1 26.34-10.933h40.46c10.29 0 18.63-8.358 18.63-18.656V19.692c0-10.298 8.35-18.656 18.64-18.656h260.82c10.29 0 18.63 8.358 18.63 18.656v634.873c0 9.888-3.91 19.403-10.92 26.38Z"/><path d="m1486.9 512.373-201.73 202.008a37.2 37.2 0 0 1-26.34 10.933h-40.47c-10.28 0-18.63 8.358-18.63 18.656v1029.4c0 10.29-8.34 18.65-18.63 18.65H920.277c-10.284 0-18.631-8.36-18.631-18.65V666.137c0-9.888 3.913-19.403 10.918-26.38l201.726-202.009a37.22 37.22 0 0 1 26.35-10.932h40.46c10.29 0 18.63-8.358 18.63-18.656V19.692c0-10.298 8.35-18.656 18.63-18.656h260.83c10.28 0 18.63 8.358 18.63 18.656v466.301c0 9.888-3.91 19.402-10.92 26.38Z"/><path d="M1116.21 339.746 914.479 541.754a37.2 37.2 0 0 1-26.343 10.933h-40.465c-10.284 0-18.631 8.358-18.631 18.656V1773.37c0 10.29-8.346 18.65-18.63 18.65H549.583c-10.284 0-18.63-8.36-18.63-18.65V493.51c0-9.888 3.912-19.403 10.917-26.38l201.731-202.008a37.2 37.2 0 0 1 26.343-10.933h40.466c10.284 0 18.63-8.358 18.63-18.656V19.692c0-10.298 8.347-18.656 18.631-18.656H1108.5c10.28 0 18.63 8.358 18.63 18.656v293.674c0 9.888-3.91 19.403-10.92 26.38Z"/><path d="M745.518 171.226 543.787 373.234a37.2 37.2 0 0 1-26.343 10.933h-40.466c-10.284 0-18.63 8.358-18.63 18.656V1773.37c0 10.29-8.347 18.65-18.631 18.65H178.891c-10.284 0-18.63-8.36-18.63-18.65V324.99c0-9.888 3.912-19.402 10.917-26.38L372.909 96.602a37.2 37.2 0 0 1 26.343-10.933h40.465c10.284 0 18.631-8.358 18.631-18.656V19.692c0-10.298 8.346-18.656 18.63-18.656h260.826c10.284 0 18.631 8.358 18.631 18.656v125.155c0 9.887-3.912 19.402-10.917 26.379ZM2969.66 1196l-201.73 202.01a37.15 37.15 0 0 1-26.34 10.93h-40.46c-10.29 0-18.63 8.36-18.63 18.66v345.77c0 10.29-8.35 18.65-18.64 18.65h-260.82c-10.29 0-18.63-8.36-18.63-18.65v-423.6c0-9.89 3.91-19.41 10.92-26.38l201.73-202.01c7-7.02 16.47-10.93 26.34-10.93h40.46c10.29 0 18.64-8.36 18.64-18.66V19.692c0-10.298 8.34-18.656 18.63-18.656h260.82c10.29 0 18.63 8.358 18.63 18.656V1169.62c0 9.89-3.91 19.41-10.92 26.38Z"/><path d="m3340.36 1370.73-201.73 202.01a37.2 37.2 0 0 1-26.35 10.93h-40.46c-10.29 0-18.63 8.36-18.63 18.66v171.04c0 10.29-8.35 18.65-18.63 18.65h-260.83c-10.28 0-18.63-8.36-18.63-18.65V1524.5c0-9.89 3.91-19.41 10.92-26.38l201.73-202.01c7-7.02 16.47-10.93 26.34-10.93h40.47c10.28 0 18.63-8.36 18.63-18.66V19.692c0-10.298 8.34-18.656 18.63-18.656h260.82c10.29 0 18.63 8.358 18.63 18.656V1344.35c0 9.89-3.91 19.41-10.91 26.38Z"/><path d="m3711.05 1541.8-201.73 202.01a37.23 37.23 0 0 1-26.34 10.93h-40.47c-10.28 0-18.63 8.36-18.63 18.65v-.02c0 10.29-8.35 18.65-18.63 18.65h-260.83c-10.28 0-18.63-8.36-18.63-18.65v-77.81c0-9.89 3.92-19.4 10.92-26.38l201.73-202.01a37.23 37.23 0 0 1 26.34-10.93h40.47c10.28 0 18.63-8.36 18.63-18.66V19.692c0-10.298 8.35-18.656 18.63-18.656h260.83c10.28 0 18.63 8.358 18.63 18.656V1515.42c0 9.89-3.92 19.4-10.92 26.38Z"/></g><path d="M1446.89 271.006v-.002a10.7 10.7 0 0 1 7.59-3.143h75.38c2.76 0 5.01 2.244 5.01 5.008v45.782a5.015 5.015 0 0 1-5.01 5.008h-80.83v110.433c0 2.843-1.13 5.568-3.15 7.586l-50.52 50.521v.001a10.7 10.7 0 0 1-7.59 3.143h-75.38c-2.76 0-5-2.244-5-5.008v-45.782a5.005 5.005 0 0 1 5-5.007h74.4c3.55 0 6.44-2.885 6.44-6.439V329.113c0-2.844 1.12-5.569 3.14-7.587zm-134.5-3.145h74.4c2.77 0 5.01 2.242 5.01 5.008v45.782a5.007 5.007 0 0 1-5.01 5.008h-74.4c-2.76 0-5-2.242-5-5.008v-45.782a5.005 5.005 0 0 1 5-5.008Zm217.47 227.482h-79.4v-55.797h79.4c2.76 0 5.01 2.243 5.01 5.007v45.782a5.015 5.015 0 0 1-5.01 5.008Zm-252.52-222.477v217.469a5.01 5.01 0 0 1-5.01 5.008h-45.78a5.015 5.015 0 0 1-5.01-5.008V330.097a6.436 6.436 0 0 0-6.43-6.438h-103a6.44 6.44 0 0 0-6.44 6.438v160.238a5.01 5.01 0 0 1-5.01 5.008h-45.78a5.015 5.015 0 0 1-5.01-5.008V326.743c0-1.334.52-2.605 1.46-3.545l53.87-53.872.01-.002a5.03 5.03 0 0 1 3.54-1.463h163.6c2.76 0 5 2.244 4.99 5.005Zm-405.591 50.793h-74.396a5.01 5.01 0 0 1-5.008-5.008v-45.782a5.01 5.01 0 0 1 5.008-5.008h217.467c2.76 0 5.01 2.244 5.01 5.008v45.782a5.015 5.015 0 0 1-5.01 5.008h-74.397a6.44 6.44 0 0 0-6.438 6.438v103.01a6.44 6.44 0 0 0 6.438 6.439h74.397c2.76 0 5.01 2.243 5.01 5.007v45.782a5.015 5.015 0 0 1-5.01 5.008H797.353a5.01 5.01 0 0 1-5.008-5.008v-45.782a5.01 5.01 0 0 1 5.008-5.007h74.396a6.44 6.44 0 0 0 6.438-6.439v-103.01a6.44 6.44 0 0 0-6.438-6.438ZM538.184 439.666l-.471.467.471-.467a10.73 10.73 0 0 1-3.101-7.543V272.869a5.01 5.01 0 0 1 5.008-5.008h45.782a5.01 5.01 0 0 1 5.008 5.008v160.238a6.44 6.44 0 0 0 6.438 6.439h159.975a5.01 5.01 0 0 1 5.007 5.007v45.782a5.01 5.01 0 0 1-5.007 5.008H597.731a10.73 10.73 0 0 1-7.629-3.187h-.001zm-206.962-168.66.002-.002a10.7 10.7 0 0 1 7.584-3.143h161.223a5.01 5.01 0 0 1 5.008 5.008v45.782a5.01 5.01 0 0 1-5.008 5.008H339.793a6.44 6.44 0 0 0-6.438 6.438v16.413a6.44 6.44 0 0 0 6.438 6.438h160.215a5.01 5.01 0 0 1 5.008 5.008v45.782a5.01 5.01 0 0 1-5.008 5.007H339.793a6.44 6.44 0 0 0-6.438 6.439v17.912a6.44 6.44 0 0 0 6.438 6.438h160.238a5.01 5.01 0 0 1 5.008 5.008v45.782a5.01 5.01 0 0 1-5.008 5.007H338.808a10.77 10.77 0 0 1-7.587-3.145l-50.52-50.508-.001-.001a10.7 10.7 0 0 1-3.143-7.585V329.113c0-2.844 1.127-5.569 3.144-7.587zm-83.733 104.873v.482a5.01 5.01 0 0 1-4.984 4.526h-50.779v-50.79a6.44 6.44 0 0 0-6.438-6.438H75.84v52.22a6.44 6.44 0 0 0 6.438 6.439H186.25c2.843 0 5.568 1.126 7.586 3.144l50.521 50.52.001.002a10.7 10.7 0 0 1 3.143 7.585v46.766a5.01 5.01 0 0 1-5.008 5.008h-45.771a5.01 5.01 0 0 1-5.007-5.008v-45.782a6.44 6.44 0 0 0-6.438-6.438H82.267a6.44 6.44 0 0 0-6.439 6.438v45.782a5.01 5.01 0 0 1-5.007 5.008H25.038a5.01 5.01 0 0 1-5.007-5.008V272.869a5.01 5.01 0 0 1 5.007-5.008h161.2c2.844 0 5.569 1.127 7.586 3.145l50.521 50.52.002.002a10.7 10.7 0 0 1 3.142 7.585z" fill="#000" stroke="#909090" stroke-width="1.431"/><path opacity=".5" d="M1646.21 762.885s12.43-2.519 16.91-7.005l160.45-160.637a23.86 23.86 0 0 0 7-16.921v-64.776h-.16c0-11.57 9.36-20.936 20.92-20.936l2021.58-.006v-854.968l-1536.76.004s-12.42 2.518-16.9 7.005l-160.46 160.637a23.9 23.9 0 0 0-7 16.921h.16v64.776c0 11.569-9.36 20.935-20.91 20.935L-.715-92.646v855.52z" fill="url(#c)"/><path d="M1646.21 1239.31s12.43-2.52 16.91-7.01l160.45-160.63c4.49-4.49 7-10.55 7-16.93v-64.771h-.16c0-11.57 9.36-20.935 20.92-20.935l2021.58-.007V-199.261l-1536.76.003s-12.42 2.519-16.9 7.005L2158.79-31.616a23.9 23.9 0 0 0-7 16.922h.16V50.08c0 11.57-9.36 20.936-20.91 20.936L-.715 70.457V1239.3z" fill="url(#d)"/><path d="m1811.02 391.703-186.63 186.643a34.45 34.45 0 0 0-10.1 24.373v37.439c0 9.515-7.72 17.237-17.23 17.237h-4475.78c-9.51 0-17.23 7.723-17.23 17.238v241.318c0 9.515 7.72 17.237 17.23 17.237h4547.69c9.13 0 17.92-3.62 24.37-10.101l186.63-186.643a34.45 34.45 0 0 0 10.1-24.373v-37.439c0-9.515 7.72-17.237 17.23-17.237l4201.36 9.515c9.51 0 17.24-7.722 17.24-17.237V408.355c0-9.515-7.73-17.237-17.24-17.237l-4273.27-9.516c-9.13 0-17.92 3.62-24.37 10.101" fill="#F22"/><path d="m2087.02 804.41-186.63 186.642a34.45 34.45 0 0 0-10.1 24.378v37.43c0 9.52-7.72 17.24-17.24 17.24h-4751.92c-9.51 0-17.23 7.72-17.23 17.24v241.32c0 9.51 7.72 17.23 17.23 17.23h4823.83c9.13 0 17.92-3.62 24.37-10.1l186.63-186.64a34.45 34.45 0 0 0 10.1-24.37v-37.44c0-9.52 7.72-17.24 17.23-17.24l3924.15 9.52c9.51 0 17.23-7.73 17.23-17.24V821.061c0-9.515-7.72-17.237-17.23-17.237l-3996.05-9.515c-9.14 0-17.93 3.619-24.37 10.101" fill="#F22"/></g></g><defs><linearGradient id="c" x1="1659.25" y1="940.292" x2="1659.25" y2="199.904" gradientUnits="userSpaceOnUse"><stop stop-color="#F22"/><stop offset="1" stop-color="#991515" stop-opacity="0"/></linearGradient><linearGradient id="d" x1="1659.25" y1="1235.01" x2="1659.25" y2="183.451" gradientUnits="userSpaceOnUse"><stop stop-color="#F22"/><stop offset="1" stop-color="#991515" stop-opacity="0"/></linearGradient><clipPath id="a"><path fill="#fff" d="M0-7513h3840V931H0z"/></clipPath><clipPath id="b"><path fill="#fff" d="M-.715-596.997h3840v1528h-3840z"/></clipPath></defs></svg>