<svg width="2700" height="636" viewBox="0 0 2700 636" fill="none" xmlns="http://www.w3.org/2000/svg"><path fill="#1E1E1E" d="M0 0h2700v636H0z"/><g clip-path="url(#a)"><path fill="#000" d="M0-5364h2700V636H0z"/><g clip-path="url(#b)"><g opacity=".5"><path d="m1809.07 717.294-141 141.196a26 26 0 0 1-18.41 7.641h-28.28c-7.19 0-13.03 5.842-13.03 13.04v360.609c0 7.2-5.83 13.04-13.02 13.04h-182.3c-7.19 0-13.03-5.84-13.03-13.04V824.769c0-6.911 2.74-13.562 7.63-18.439l141.01-141.195a26 26 0 0 1 18.41-7.642h28.28c7.19 0 13.02-5.841 13.02-13.039V14.039c0-7.198 5.84-13.04 13.03-13.04h182.3c7.19 0 13.02 5.842 13.02 13.04v684.817c0 6.911-2.73 13.561-7.63 18.438Z" stroke="#fff" stroke-opacity=".5"/><path d="m1549.98 596.42-141 141.195a26 26 0 0 1-18.41 7.641h-28.28c-7.19 0-13.03 5.842-13.03 13.04v481.484c0 7.2-5.83 13.04-13.02 13.04h-182.3c-7.19 0-13.03-5.84-13.03-13.04V703.894c0-6.911 2.74-13.561 7.63-18.438l141.01-141.196a26 26 0 0 1 18.41-7.641h28.28c7.19 0 13.02-5.842 13.02-13.04V14.039c0-7.198 5.84-13.04 13.03-13.04h182.3c7.19 0 13.03 5.842 13.03 13.04v563.942c0 6.911-2.74 13.562-7.64 18.439Z" stroke="#fff" stroke-opacity=".5"/><path d="m1290.88 476.228-141 141.195a26 26 0 0 1-18.41 7.641h-28.29c-7.18 0-13.02 5.842-13.02 13.04v601.676c0 7.2-5.83 13.04-13.02 13.04H894.833c-7.188 0-13.022-5.84-13.022-13.04V583.702c0-6.911 2.735-13.561 7.631-18.438l140.998-141.196a26 26 0 0 1 18.42-7.641h28.28c7.19 0 13.02-5.842 13.02-13.04V14.039c0-7.198 5.84-13.04 13.02-13.04h182.31c7.19 0 13.02 5.842 13.02 13.04v443.75c0 6.911-2.73 13.562-7.63 18.439Z" stroke="#fff" stroke-opacity=".5"/><path d="M1031.78 358.403 890.782 499.598a26 26 0 0 1-18.413 7.641h-28.284c-7.188 0-13.022 5.842-13.022 13.04v719.501c0 7.2-5.834 13.04-13.022 13.04H635.734c-7.188 0-13.021-5.84-13.021-13.04V465.877c0-6.911 2.734-13.561 7.63-18.438l141.002-141.196a26 26 0 0 1 18.413-7.641h28.283c7.188 0 13.022-5.842 13.022-13.04V14.039c0-7.198 5.834-13.04 13.022-13.04h182.305c7.19 0 13.02 5.842 13.02 13.04v325.925c0 6.911-2.73 13.562-7.63 18.439Z" stroke="#fff" stroke-opacity=".5"/><path d="M772.684 237.744 631.683 378.939a26 26 0 0 1-18.413 7.641h-28.284c-7.188 0-13.021 5.842-13.021 13.04v840.16c0 7.2-5.834 13.04-13.022 13.04H376.636c-7.188 0-13.022-5.84-13.022-13.04V345.218c0-6.911 2.735-13.561 7.631-18.438l141.001-141.196a26 26 0 0 1 18.413-7.641h28.284c7.188 0 13.022-5.842 13.022-13.04l-.001-150.864c0-7.198 5.834-13.04 13.022-13.04h182.307c7.188 0 13.022 5.842 13.022 13.04v205.266c0 6.912-2.735 13.562-7.631 18.439Z" stroke="#fff" stroke-opacity=".5"/><path d="M513.586 119.955 372.584 261.151a26 26 0 0 1-18.413 7.641h-28.283c-7.188 0-13.022 5.842-13.022 13.04v957.948c0 7.2-5.834 13.04-13.022 13.04H117.537c-7.188 0-13.022-5.84-13.022-13.04V227.43c0-6.911 2.735-13.562 7.631-18.439L253.148 67.796a26 26 0 0 1 18.412-7.641h28.284c7.188 0 13.022-5.842 13.022-13.04V14.039C312.866 6.841 318.7 1 325.888 1h182.307c7.188 0 13.021 5.842 13.021 13.04l.001 87.478c0 6.911-2.735 13.561-7.631 18.438ZM2068.17 836.231l-141 141.196a26 26 0 0 1-18.41 7.641h-28.29c-7.18 0-13.02 5.842-13.02 13.04v241.672c0 7.2-5.83 13.04-13.02 13.04h-182.31c-7.18 0-13.02-5.84-13.02-13.04V943.706c0-6.911 2.74-13.562 7.63-18.439l141-141.195a26.03 26.03 0 0 1 18.42-7.641h28.28c7.19 0 13.02-5.842 13.02-13.04V14.039c0-7.198 5.84-13.04 13.02-13.04h182.31c7.19 0 13.02 5.842 13.02 13.04v803.754c0 6.911-2.73 13.561-7.63 18.438Z" stroke="#fff" stroke-opacity=".5"/><path d="m2327.27 958.361-141 141.199c-4.9 4.9-11.51 7.64-18.41 7.64h-28.29c-7.19 0-13.02 5.84-13.02 13.04v119.54c0 7.2-5.83 13.04-13.02 13.04h-182.31c-7.19 0-13.02-5.84-13.02-13.04v-173.94c0-6.92 2.74-13.57 7.63-18.44l141-141.198a26 26 0 0 1 18.42-7.642h28.28c7.19 0 13.02-5.842 13.02-13.04V14.04c0-7.199 5.83-13.04 13.02-13.04h182.31c7.19 0 13.02 5.841 13.02 13.04v925.883c0 6.911-2.73 13.561-7.63 18.438Z" stroke="#fff" stroke-opacity=".5"/><path d="m2586.37 1077.93-141 141.19a25.98 25.98 0 0 1-18.42 7.64h-28.28c-7.19 0-13.02 5.85-13.02 13.04v-.02c0 7.2-5.83 13.04-13.02 13.04h-182.31c-7.19 0-13.02-5.84-13.02-13.04v-54.38c0-6.91 2.73-13.56 7.63-18.44l141-141.19c4.9-4.91 11.51-7.64 18.41-7.64h28.29c7.19 0 13.02-5.85 13.02-13.04V14.04c0-7.199 5.83-13.04 13.02-13.04h182.31c7.19 0 13.02 5.841 13.02 13.04v1045.45c0 6.91-2.73 13.56-7.63 18.44Z" stroke="#fff" stroke-opacity=".5"/><path d="M1228.41 225.419v-.001a6.55 6.55 0 0 1 4.63-1.918h46.43a3.03 3.03 0 0 1 3.03 3.025v28.2a3.03 3.03 0 0 1-3.03 3.025h-49.85v68.081c0 1.736-.68 3.4-1.91 4.631l-31.12 31.119v.001a6.55 6.55 0 0 1-4.63 1.918h-46.44a3.03 3.03 0 0 1-3.02-3.025v-28.2c0-1.67 1.36-3.025 3.02-3.025h45.83c2.22 0 4.03-1.803 4.03-4.025v-64.056c0-1.736.68-3.399 1.91-4.631zm-82.89-1.919h45.83a3.03 3.03 0 0 1 3.03 3.025v28.2a3.03 3.03 0 0 1-3.03 3.025h-45.83a3.02 3.02 0 0 1-3.02-3.025v-28.2a3.02 3.02 0 0 1 3.02-3.025Zm133.95 140h-48.85v-34.25h48.85a3.03 3.03 0 0 1 3.03 3.025v28.2a3.03 3.03 0 0 1-3.03 3.025ZM1123.5 226.523v133.952a3.03 3.03 0 0 1-3.03 3.025h-28.2a3.02 3.02 0 0 1-3.02-3.025v-98.7c0-2.222-1.8-4.025-4.03-4.025h-63.44a4.025 4.025 0 0 0-4.03 4.025v98.7c0 1.67-1.35 3.025-3.02 3.025h-28.205a3.026 3.026 0 0 1-3.025-3.025V259.709c0-.806.315-1.574.883-2.142l33.187-33.182v-.001a3.05 3.05 0 0 1 2.14-.884h100.77c1.67 0 3.03 1.355 3.02 3.023ZM874.35 257.75h-45.825a3.026 3.026 0 0 1-3.025-3.025v-28.2a3.026 3.026 0 0 1 3.025-3.025h133.95a3.026 3.026 0 0 1 3.025 3.025v28.2a3.026 3.026 0 0 1-3.025 3.025H916.65a4.026 4.026 0 0 0-4.025 4.025v63.45a4.026 4.026 0 0 0 4.025 4.025h45.825a3.026 3.026 0 0 1 3.025 3.025v28.2a3.026 3.026 0 0 1-3.025 3.025h-133.95a3.026 3.026 0 0 1-3.025-3.025v-28.2a3.026 3.026 0 0 1 3.025-3.025h45.825a4.026 4.026 0 0 0 4.025-4.025v-63.45a4.026 4.026 0 0 0-4.025-4.025Zm-205.955 71.473-.355.352.355-.352a6.55 6.55 0 0 1-1.895-4.604v-98.094a3.03 3.03 0 0 1 3.029-3.025h28.233a3.03 3.03 0 0 1 3.029 3.025v98.7a4.03 4.03 0 0 0 4.029 4.025h98.651a3.03 3.03 0 0 1 3.029 3.025v28.2a3.03 3.03 0 0 1-3.029 3.025h-98.397a6.56 6.56 0 0 1-4.663-1.946zM858.538 66.42l.001-.002a6.53 6.53 0 0 1 4.63-1.918h99.306a3.026 3.026 0 0 1 3.025 3.025v28.202a3.026 3.026 0 0 1-3.025 3.025h-98.7a4.026 4.026 0 0 0-4.025 4.025v10.11a4.026 4.026 0 0 0 4.025 4.025h98.686a3.027 3.027 0 0 1 3.025 3.026v28.201a3.026 3.026 0 0 1-3.025 3.025h-98.686a4.026 4.026 0 0 0-4.025 4.025v11.034a4.026 4.026 0 0 0 4.025 4.025h98.7a3.026 3.026 0 0 1 3.025 3.025v28.202a3.026 3.026 0 0 1-3.025 3.025h-99.306a6.57 6.57 0 0 1-4.631-1.92h-.001l-31.118-31.113h-.001a6.53 6.53 0 0 1-1.918-4.631v-64.665c0-1.736.688-3.4 1.919-4.631zm-52.052 64.555v.294a3.026 3.026 0 0 1-3.011 2.731h-31.218v-31.225a4.026 4.026 0 0 0-4.025-4.025h-67.475v32.225a4.026 4.026 0 0 0 4.025 4.025h64.042c1.736 0 3.399.688 4.631 1.919l31.119 31.119.001.001a6.53 6.53 0 0 1 1.918 4.63v28.806a3.026 3.026 0 0 1-3.025 3.025h-28.193a3.026 3.026 0 0 1-3.025-3.025v-28.2a4.026 4.026 0 0 0-4.025-4.025h-63.45a4.026 4.026 0 0 0-4.025 4.025v28.2a3.026 3.026 0 0 1-3.025 3.025h-28.2a3.026 3.026 0 0 1-3.025-3.025V67.525a3.026 3.026 0 0 1 3.025-3.025h99.292c1.736 0 3.399.688 4.631 1.92l31.119 31.118h.001a6.53 6.53 0 0 1 1.918 4.631z" fill="#000" stroke="#909090"/></g><path opacity=".5" d="M1143.13 533.5s8.69-1.76 11.82-4.896l112.15-112.279a16.7 16.7 0 0 0 4.89-11.827v-45.276h-.11c0-8.086 6.54-14.633 14.62-14.633l1413-.004v-597.587l-1074.13.003s-8.68 1.76-11.81 4.896L1501.4-135.825a16.7 16.7 0 0 0-4.89 11.828h.11v45.275c0 8.087-6.54 14.633-14.61 14.633L-8-64.479v597.971z" fill="url(#c)"/><path d="M1143.13 866.5s8.69-1.76 11.82-4.896l112.15-112.279a16.7 16.7 0 0 0 4.89-11.827v-45.276h-.11c0-8.086 6.54-14.633 14.62-14.633l1413-.004V-139l-1074.13.002s-8.68 1.761-11.81 4.896L1501.4-21.823a16.7 16.7 0 0 0-4.89 11.828h.11V35.28c0 8.087-6.54 14.633-14.61 14.633L-8 49.522v816.97z" fill="url(#d)"/><path d="m1289.08 274.06-130.44 130.456a24.07 24.07 0 0 0-7.06 17.036v26.168c0 6.65-5.4 12.048-12.05 12.048h-3128.38c-6.65 0-12.05 5.397-12.05 12.048v168.672c0 6.65 5.4 12.048 12.05 12.048l3178.64-.001c6.39 0 12.53-2.53 17.04-7.06l130.44-130.455a24.08 24.08 0 0 0 7.06-17.036v-26.168c0-6.651 5.4-12.048 12.05-12.048l2936.57 6.65c6.65 0 12.05-5.397 12.05-12.048V285.699c0-6.651-5.4-12.048-12.05-12.048L1306.12 267c-6.39 0-12.53 2.53-17.04 7.06" fill="#F22"/><path d="M1481.99 562.525 1351.55 692.98a24.08 24.08 0 0 0-7.06 17.036v26.168c0 6.651-5.4 12.048-12.05 12.048h-3321.39c-6.65 0-12.05 5.398-12.05 12.048v168.672c0 6.65 5.4 12.048 12.05 12.048H1382.7c6.39 0 12.53-2.53 17.03-7.06l130.45-130.456a24.07 24.07 0 0 0 7.06-17.036V760.28c0-6.65 5.4-12.048 12.05-12.048l2742.81 6.651c6.65 0 12.04-5.397 12.04-12.048V574.163c0-6.65-5.39-12.047-12.04-12.047l-2793.07-6.652c-6.39 0-12.53 2.531-17.04 7.061" fill="#F22"/></g></g><defs><linearGradient id="c" x1="1152.25" y1="657.5" x2="1152.25" y2="140" gradientUnits="userSpaceOnUse"><stop stop-color="#F22"/><stop offset="1" stop-color="#991515" stop-opacity="0"/></linearGradient><linearGradient id="d" x1="1152.25" y1="863.499" x2="1152.25" y2="128.5" gradientUnits="userSpaceOnUse"><stop stop-color="#F22"/><stop offset="1" stop-color="#991515" stop-opacity="0"/></linearGradient><clipPath id="a"><path fill="#fff" d="M0-5364h2700V636H0z"/></clipPath><clipPath id="b"><path fill="#fff" d="M-8-417h2715V651H-8z"/></clipPath></defs></svg>