<svg width="409" height="83" viewBox="0 0 409 83" fill="none" xmlns="http://www.w3.org/2000/svg"><path d="M29.901 33.398v-25.2h8.532q2.988 0 4.896 1.008t2.808 2.7q.936 1.656.936 3.78a7.74 7.74 0 0 1-.936 3.744q-.9 1.692-2.844 2.736-1.944 1.008-4.968 1.008h-4.824v10.224zm13.248 0-5.436-11.196h3.96l5.652 11.196zm-9.648-12.96h4.68q2.664 0 3.924-1.296 1.26-1.332 1.26-3.384 0-2.088-1.224-3.312t-3.96-1.224h-4.68zm23.01 13.392q-2.59 0-4.607-1.188-2.016-1.188-3.168-3.312-1.116-2.124-1.116-4.932 0-2.88 1.116-5.004 1.152-2.16 3.168-3.348 2.016-1.224 4.68-1.224t4.572 1.188a8.15 8.15 0 0 1 2.952 3.168q1.044 1.944 1.044 4.32 0 .36-.036.792 0 .396-.036.9H50.248v-2.556h11.304q-.108-2.268-1.512-3.528-1.404-1.296-3.492-1.296a5.44 5.44 0 0 0-2.7.684q-1.224.648-1.98 1.944-.72 1.26-.72 3.204v1.008q0 2.016.72 3.42.756 1.368 1.98 2.088a5.37 5.37 0 0 0 2.664.684q1.728 0 2.844-.756a4.5 4.5 0 0 0 1.656-2.052h3.6a8 8 0 0 1-1.584 2.988q-1.116 1.296-2.772 2.052-1.62.756-3.744.756m10.48-.432V7.478h3.6v25.92zm6.635 0V15.254h3.6v18.144zm1.836-21.564q-1.044 0-1.728-.648-.648-.648-.648-1.656 0-.972.648-1.584.684-.648 1.728-.648 1.008 0 1.692.648.684.612.684 1.584 0 1.008-.684 1.656t-1.692.648m4.752 21.564V15.254h3.24l.216 3.096a6.43 6.43 0 0 1 2.448-2.556q1.584-.972 3.636-.972 2.16 0 3.708.864t2.412 2.628q.864 1.728.864 4.356v10.728h-3.6V23.03q0-2.52-1.116-3.816t-3.24-1.296q-1.404 0-2.52.684-1.116.648-1.8 1.944-.648 1.296-.648 3.168v9.684zm30.381 0-8.352-9.936 7.56-8.208h4.356l-9 9.612v-2.7l9.972 11.232zm-11.412 0V7.478h3.6v25.92zm23.875 0V15.254h3.24l.216 3.096a6.43 6.43 0 0 1 2.448-2.556q1.584-.972 3.636-.972 2.16 0 3.708.864t2.412 2.628q.864 1.728.864 4.356v10.728h-3.6V23.03q0-2.52-1.116-3.816t-3.24-1.296q-1.404 0-2.52.684-1.116.648-1.8 1.944-.648 1.296-.648 3.168v9.684zm24.981.432q-2.232 0-3.708-.756t-2.196-2.016a5.6 5.6 0 0 1-.72-2.772q0-1.8.936-3.06.936-1.296 2.664-1.98t4.14-.684h4.716q0-1.584-.468-2.628T152 18.386q-.9-.54-2.304-.54-1.62 0-2.772.792-1.152.756-1.44 2.268h-3.6q.216-1.908 1.296-3.24 1.116-1.368 2.844-2.088a9.1 9.1 0 0 1 3.672-.756q2.556 0 4.284.9t2.592 2.556q.9 1.62.9 3.888v11.232h-3.132l-.288-3.06q-.396.72-.936 1.368t-1.296 1.116a5.7 5.7 0 0 1-1.692.72q-.936.288-2.088.288m.684-2.916q1.152 0 2.088-.468a4.8 4.8 0 0 0 1.584-1.26 5.5 5.5 0 0 0 1.008-1.836 7.2 7.2 0 0 0 .396-2.124v-.108h-4.284q-1.548 0-2.52.396-.936.36-1.368 1.008t-.432 1.512q0 .9.396 1.548.432.612 1.224.972t1.908.36m18.249 2.484q-1.692 0-2.952-.54t-1.944-1.8-.684-3.42v-9.324h-3.132v-3.06h3.132l.432-4.536h3.168v4.536h5.148v3.06h-5.148v9.36q0 1.548.648 2.124.648.54 2.232.54h2.088v3.06zm5.23 0V15.254h3.6v18.144zm1.836-21.564q-1.044 0-1.728-.648-.648-.648-.648-1.656 0-.972.648-1.584.684-.648 1.728-.648 1.008 0 1.692.648.684.612.684 1.584 0 1.008-.684 1.656t-1.692.648m9.9 21.564-6.804-18.144h3.78l5.148 14.688 5.184-14.688h3.708l-6.768 18.144zm19.427.432q-2.592 0-4.608-1.188t-3.168-3.312q-1.116-2.124-1.116-4.932 0-2.88 1.116-5.004 1.152-2.16 3.168-3.348 2.016-1.224 4.68-1.224t4.572 1.188a8.15 8.15 0 0 1 2.952 3.168q1.044 1.944 1.044 4.32 0 .36-.036.792 0 .396-.036.9h-14.832v-2.556h11.304q-.108-2.268-1.512-3.528-1.404-1.296-3.492-1.296a5.44 5.44 0 0 0-2.7.684q-1.224.648-1.98 1.944-.72 1.26-.72 3.204v1.008q0 2.016.72 3.42.756 1.368 1.98 2.088a5.37 5.37 0 0 0 2.664.684q1.728 0 2.844-.756a4.5 4.5 0 0 0 1.656-2.052h3.6a8 8 0 0 1-1.584 2.988q-1.116 1.296-2.772 2.052-1.62.756-3.744.756m-165.256 41q-2.628 0-4.68-1.188a8.86 8.86 0 0 1-3.24-3.348q-1.152-2.124-1.152-4.932 0-2.844 1.152-4.968 1.188-2.16 3.24-3.348 2.052-1.224 4.68-1.224 3.312 0 5.544 1.728t2.844 4.68h-3.744q-.36-1.584-1.656-2.448-1.26-.864-3.024-.864-1.44 0-2.664.756-1.224.72-1.98 2.16-.72 1.404-.72 3.492 0 1.548.432 2.772.432 1.188 1.152 2.016.756.828 1.728 1.26a5.4 5.4 0 0 0 2.052.396q1.188 0 2.124-.36a4.2 4.2 0 0 0 1.62-1.152 4.05 4.05 0 0 0 .936-1.8h3.744q-.612 2.88-2.844 4.644-2.232 1.728-5.544 1.728m18.72 0q-2.556 0-4.607-1.188-2.016-1.188-3.204-3.312-1.152-2.16-1.152-4.968 0-2.88 1.188-5.004 1.188-2.16 3.24-3.348t4.608-1.188q2.592 0 4.608 1.188t3.168 3.312q1.188 2.124 1.188 5.004t-1.188 5.004a8.34 8.34 0 0 1-3.204 3.312q-2.052 1.188-4.644 1.188m0-3.096q1.477 0 2.665-.72 1.224-.72 1.944-2.124.756-1.44.756-3.564t-.72-3.528q-.72-1.44-1.944-2.16a4.97 4.97 0 0 0-2.628-.72q-1.44 0-2.664.72t-1.98 2.16q-.72 1.404-.72 3.528t.72 3.564q.756 1.404 1.944 2.124 1.224.72 2.628.72m11.327-6.444v-3.024h14.545v3.024zm27.388 9.54q-1.476 0-2.7-.432a6.7 6.7 0 0 1-2.088-1.116 7 7 0 0 1-1.512-1.656l-.36 2.772h-3.24v-25.92h3.6v10.62q.864-1.368 2.412-2.304 1.584-.972 3.888-.972 2.592 0 4.572 1.26 1.98 1.224 3.06 3.384 1.116 2.124 1.116 4.896 0 2.7-1.116 4.86-1.08 2.16-3.06 3.384t-4.572 1.224m-.576-3.132q1.656 0 2.916-.792 1.296-.792 2.016-2.232.756-1.44.756-3.348t-.756-3.312q-.72-1.44-2.016-2.232-1.26-.828-2.916-.828-1.692 0-2.988.828-1.26.792-1.98 2.232-.72 1.404-.72 3.312t.72 3.348 1.98 2.232q1.296.792 2.988.792m18.027 3.132q-2.124 0-3.708-.864-1.548-.864-2.412-2.592-.828-1.728-.828-4.356V56.254h3.6v10.368q0 2.556 1.116 3.852t3.204 1.296q1.404 0 2.52-.684 1.152-.684 1.8-1.98t.648-3.168v-9.684h3.6v18.144h-3.204l-.252-3.096a6.14 6.14 0 0 1-2.412 2.592q-1.584.936-3.672.936m12.561-.432V56.254h3.6v18.144zm1.836-21.564q-1.044 0-1.728-.648-.648-.648-.648-1.656 0-.972.648-1.584.684-.648 1.728-.648 1.008 0 1.692.648.684.612.684 1.584 0 1.008-.684 1.656t-1.692.648m4.752 21.564v-25.92h3.6v25.92zm14.447.432q-2.592 0-4.572-1.224a8.77 8.77 0 0 1-3.096-3.384q-1.08-2.16-1.08-4.896 0-2.772 1.08-4.896 1.116-2.124 3.096-3.348 2.016-1.26 4.608-1.26 2.124 0 3.744.864a6 6 0 0 1 2.52 2.376V48.478h3.6v25.92h-3.204l-.396-2.808a7.7 7.7 0 0 1-1.404 1.584q-.864.72-2.088 1.188t-2.808.468m.576-3.132q1.692 0 2.988-.792t1.98-2.232q.72-1.44.72-3.348t-.72-3.312q-.684-1.44-1.98-2.232-1.296-.828-2.988-.828-1.62 0-2.916.828-1.296.792-2.016 2.232-.72 1.404-.72 3.312t.72 3.348 2.016 2.232 2.916.792m19.138 2.7V56.254h3.24l.216 3.096a6.43 6.43 0 0 1 2.448-2.556q1.584-.972 3.636-.972 2.16 0 3.708.864t2.412 2.628q.864 1.728.864 4.356v10.728h-3.6V64.03q0-2.52-1.116-3.816t-3.24-1.296q-1.404 0-2.52.684-1.116.648-1.8 1.944-.648 1.296-.648 3.168v9.684zm24.981.432q-2.232 0-3.708-.756t-2.196-2.016a5.6 5.6 0 0 1-.72-2.772q0-1.8.936-3.06.936-1.296 2.664-1.98t4.14-.684h4.716q0-1.584-.468-2.628t-1.404-1.548q-.9-.54-2.304-.54-1.62 0-2.772.792-1.152.756-1.44 2.268h-3.6q.216-1.908 1.296-3.24 1.116-1.368 2.844-2.088a9.1 9.1 0 0 1 3.672-.756q2.556 0 4.284.9t2.592 2.556q.9 1.62.9 3.888v11.232h-3.132l-.288-3.06q-.396.72-.936 1.368t-1.296 1.116a5.7 5.7 0 0 1-1.692.72q-.936.288-2.088.288m.684-2.916q1.152 0 2.088-.468a4.8 4.8 0 0 0 1.584-1.26 5.5 5.5 0 0 0 1.008-1.836 7.2 7.2 0 0 0 .396-2.124v-.108h-4.284q-1.548 0-2.52.396-.936.36-1.368 1.008t-.432 1.512q0 .9.396 1.548.432.612 1.224.972t1.908.36m18.248 2.484q-1.692 0-2.952-.54t-1.944-1.8-.684-3.42v-9.324h-3.132v-3.06h3.132l.432-4.536h3.168v4.536h5.148v3.06h-5.148v9.36q0 1.548.648 2.124.648.54 2.232.54h2.088v3.06zm5.23 0V56.254h3.6v18.144zm1.836-21.564q-1.044 0-1.728-.648-.648-.648-.648-1.656 0-.972.648-1.584.684-.648 1.728-.648 1.008 0 1.692.648.684.612.684 1.584 0 1.008-.684 1.656t-1.692.648m9.9 21.564-6.804-18.144h3.78l5.148 14.688 5.184-14.688h3.708l-6.768 18.144zm19.427.432q-2.592 0-4.608-1.188t-3.168-3.312q-1.116-2.124-1.116-4.932 0-2.88 1.116-5.004 1.152-2.16 3.168-3.348 2.016-1.224 4.68-1.224t4.572 1.188a8.15 8.15 0 0 1 2.952 3.168q1.044 1.944 1.044 4.32 0 .36-.036.792 0 .396-.036.9H240.35v-2.556h11.304q-.108-2.268-1.512-3.528-1.404-1.296-3.492-1.296a5.44 5.44 0 0 0-2.7.684q-1.224.648-1.98 1.944-.72 1.26-.72 3.204v1.008q0 2.016.72 3.42.756 1.368 1.98 2.088a5.37 5.37 0 0 0 2.664.684q1.728 0 2.844-.756a4.5 4.5 0 0 0 1.656-2.052h3.6a8 8 0 0 1-1.584 2.988q-1.116 1.296-2.772 2.052-1.62.756-3.744.756m25.739 0q-2.592 0-4.608-1.188t-3.168-3.312q-1.116-2.124-1.116-4.932 0-2.88 1.116-5.004 1.152-2.16 3.168-3.348 2.016-1.224 4.68-1.224t4.572 1.188a8.15 8.15 0 0 1 2.952 3.168q1.044 1.944 1.044 4.32 0 .36-.036.792 0 .396-.036.9h-14.832v-2.556h11.304q-.108-2.268-1.512-3.528-1.404-1.296-3.492-1.296a5.44 5.44 0 0 0-2.7.684q-1.224.648-1.98 1.944-.72 1.26-.72 3.204v1.008q0 2.016.72 3.42.756 1.368 1.98 2.088a5.37 5.37 0 0 0 2.664.684q1.728 0 2.844-.756a4.5 4.5 0 0 0 1.656-2.052h3.6a8 8 0 0 1-1.584 2.988q-1.116 1.296-2.772 2.052-1.62.756-3.744.756m18.868 0q-2.628 0-4.68-1.188a8.86 8.86 0 0 1-3.24-3.348q-1.152-2.124-1.152-4.932 0-2.844 1.152-4.968 1.188-2.16 3.24-3.348 2.052-1.224 4.68-1.224 3.312 0 5.544 1.728t2.844 4.68h-3.744q-.36-1.584-1.656-2.448-1.26-.864-3.024-.864-1.44 0-2.664.756-1.224.72-1.98 2.16-.72 1.404-.72 3.492 0 1.548.432 2.772.432 1.188 1.152 2.016.756.828 1.728 1.26a5.4 5.4 0 0 0 2.052.396q1.188 0 2.124-.36a4.2 4.2 0 0 0 1.62-1.152 4.05 4.05 0 0 0 .936-1.8h3.744q-.612 2.88-2.844 4.644-2.232 1.728-5.544 1.728m18.72 0q-2.556 0-4.608-1.188-2.016-1.188-3.204-3.312-1.152-2.16-1.152-4.968 0-2.88 1.188-5.004 1.188-2.16 3.24-3.348t4.608-1.188q2.592 0 4.608 1.188t3.168 3.312q1.188 2.124 1.188 5.004t-1.188 5.004a8.34 8.34 0 0 1-3.204 3.312q-2.052 1.188-4.644 1.188m0-3.096q1.476 0 2.664-.72 1.224-.72 1.944-2.124.756-1.44.756-3.564t-.72-3.528q-.72-1.44-1.944-2.16a4.97 4.97 0 0 0-2.628-.72q-1.44 0-2.664.72t-1.98 2.16q-.72 1.404-.72 3.528t.72 3.564q.756 1.404 1.944 2.124 1.224.72 2.628.72m11.111 2.664V56.254h3.24l.216 3.096a6.43 6.43 0 0 1 2.448-2.556q1.584-.972 3.636-.972 2.16 0 3.708.864t2.412 2.628q.864 1.728.864 4.356v10.728h-3.6V64.03q0-2.52-1.116-3.816t-3.24-1.296q-1.404 0-2.52.684-1.116.648-1.8 1.944-.648 1.296-.648 3.168v9.684zm27.249.432q-2.556 0-4.608-1.188-2.016-1.188-3.204-3.312-1.152-2.16-1.152-4.968 0-2.88 1.188-5.004 1.188-2.16 3.24-3.348t4.608-1.188q2.592 0 4.608 1.188t3.168 3.312q1.188 2.124 1.188 5.004t-1.188 5.004a8.34 8.34 0 0 1-3.204 3.312q-2.052 1.188-4.644 1.188m0-3.096q1.476 0 2.664-.72 1.224-.72 1.944-2.124.756-1.44.756-3.564t-.72-3.528q-.72-1.44-1.944-2.16a4.97 4.97 0 0 0-2.628-.72q-1.44 0-2.664.72t-1.98 2.16q-.72 1.404-.72 3.528t.72 3.564q.756 1.404 1.944 2.124 1.224.72 2.628.72m11.11 2.664V56.254h3.24l.252 2.556a6.13 6.13 0 0 1 2.304-2.196q1.44-.792 3.24-.792 1.368 0 2.484.396a5.6 5.6 0 0 1 1.98 1.116 5.8 5.8 0 0 1 1.404 1.872 6.96 6.96 0 0 1 2.592-2.484 7.2 7.2 0 0 1 3.492-.9q2.196 0 3.78.9 1.584.864 2.412 2.628.828 1.728.828 4.32v10.728h-3.564V64.03q0-2.52-1.044-3.816-1.008-1.296-2.988-1.296-1.332 0-2.376.684t-1.656 1.98q-.576 1.296-.576 3.168v9.648h-3.6V64.03q0-2.52-1.044-3.816-1.008-1.296-2.988-1.296-1.26 0-2.304.684t-1.656 1.98-.612 3.168v9.648zm32.026 7.92 4.428-9.936h-1.044l-7.164-16.128h3.888l5.688 13.176 5.724-13.176h3.78l-11.52 26.064zm15.122-7.74q-1.044 0-1.728-.648a2.28 2.28 0 0 1-.648-1.62q0-.972.648-1.62.684-.684 1.728-.684t1.692.684q.648.648.648 1.62 0 .936-.648 1.62-.648.648-1.692.648M11.682 27.468l2.239-2.416a.46.46 0 0 0 .12-.316v-.485c0-.123.093-.223.207-.223h6.203c.115 0 .207-.1.207-.223v-3.124c0-.123-.092-.223-.207-.223h-7.065a.4.4 0 0 0-.292.13l-2.24 2.417a.47.47 0 0 0-.12.316v.484c0 .123-.093.223-.207.223H1.016c-.115 0-.207.1-.207.224v3.124c0 .123.092.223.207.223h10.373c.11 0 .215-.047.293-.13" fill="#fff"/><path d="m8.374 22.111 2.238-2.415a.47.47 0 0 0 .122-.317v-.484c0-.123.092-.223.207-.223h9.51c.115 0 .207-.1.207-.223v-3.125c0-.123-.092-.223-.207-.223H10.078a.4.4 0 0 0-.293.131L7.546 17.65a.46.46 0 0 0-.12.315v.485c0 .123-.093.223-.208.223H1.016c-.115 0-.207.1-.207.223v3.125c0 .123.092.223.207.223H8.08a.4.4 0 0 0 .294-.132" fill="#fff"/><path fill-rule="evenodd" clip-rule="evenodd" d="M219.325 31.976c-.103 0-.172-.069-.172-.172v-1.66l-.001-1.514c0-.082.066-.147.147-.147h3.216V10.89a.184.184 0 0 0-.184-.184h-3.032a.147.147 0 0 1-.147-.147V7.47c0-.104.069-.173.172-.173h3.191l.005-2.49h4.073v2.49h4.25v-2.49h3.671v2.655c3.412.67 5.266 3.325 5.266 6.53 0 2.151-.912 3.889-2.375 4.956-.103.069-.086.155.018.224 1.979 1.17 3.166 3.218 3.166 5.782 0 3.43-2.018 6.251-6.077 6.887v2.704h-3.671v-2.57h-4.248v2.57h-4.078v-2.57zm13.382-3.493c2.186 0 3.786-1.6 3.786-3.786s-1.6-3.769-3.786-3.769h-5.942c-.103 0-.172.069-.172.172v7.21c0 .104.069.173.172.173zm-.55-10.704c2.048 0 3.527-1.497 3.527-3.545s-1.479-3.528-3.527-3.528h-5.392c-.103 0-.172.069-.172.172v6.729c0 .103.069.172.172.172z" fill="#FF8C22"/></svg>