<svg width="562" height="112" viewBox="0 0 562 112" fill="none" xmlns="http://www.w3.org/2000/svg"><path d="M39.408 44V10.4h11.568q3.984 0 6.528 1.344 2.592 1.344 3.84 3.648 1.248 2.256 1.248 5.04 0 3.12-1.68 5.664-1.632 2.544-5.136 3.648L62.928 44h-5.904l-6.528-13.536h-6V44zm5.088-17.376h6.192q3.456 0 5.04-1.68 1.632-1.68 1.632-4.368t-1.584-4.272q-1.584-1.632-5.136-1.632h-6.144zm30.726 17.952q-3.504 0-6.24-1.536-2.688-1.584-4.224-4.368t-1.536-6.48q0-3.744 1.488-6.576 1.536-2.832 4.224-4.416 2.736-1.584 6.336-1.584 3.504 0 6.096 1.584 2.592 1.536 4.032 4.128t1.44 5.712q0 .48-.048 1.056 0 .528-.048 1.2H68.214q.24 3.456 2.256 5.28 2.064 1.776 4.752 1.776 2.16 0 3.6-.96a6.06 6.06 0 0 0 2.208-2.688h5.088q-.96 3.36-3.84 5.616-2.832 2.256-7.056 2.256m0-20.784q-2.544 0-4.512 1.536-1.968 1.488-2.4 4.512h13.44q-.144-2.784-1.968-4.416t-4.56-1.632M89.237 44V9.44h5.088V44zm11.532-28.32q-1.44 0-2.4-.864-.913-.912-.912-2.256 0-1.344.912-2.208.96-.912 2.4-.912t2.352.912q.96.864.96 2.208t-.96 2.256q-.912.864-2.352.864M98.225 44V20.192h5.088V44zm8.924 0V20.192h4.512l.384 4.176a8.2 8.2 0 0 1 3.216-3.456q2.16-1.296 4.944-1.296 4.32 0 6.768 2.688 2.496 2.688 2.496 8.016V44h-5.04V30.848q0-6.912-5.664-6.912-2.832 0-4.704 2.016-1.824 2.016-1.824 5.76V44zm25.433 0V9.44h5.088v20.592l9.12-9.84h6.096l-10.128 10.8L154.374 44h-6.432L137.67 31.808V44zm32.068 0V20.192h4.512l.384 4.176a8.2 8.2 0 0 1 3.216-3.456q2.16-1.296 4.944-1.296 4.32 0 6.768 2.688 2.496 2.688 2.496 8.016V44h-5.04V30.848q0-6.912-5.664-6.912-2.832 0-4.704 2.016-1.824 2.016-1.824 5.76V44zm33.496.576q-3.024 0-4.992-1.008t-2.928-2.64a7.23 7.23 0 0 1-.96-3.648q0-3.456 2.688-5.472t7.68-2.016h6.24v-.432q0-2.784-1.536-4.176-1.488-1.392-3.888-1.392-2.112 0-3.696 1.056-1.536 1.008-1.872 3.024h-5.088q.24-2.592 1.728-4.416 1.536-1.872 3.84-2.832 2.352-1.008 5.136-1.008 4.992 0 7.728 2.64 2.736 2.592 2.736 7.104V44h-4.416l-.432-4.08q-1.008 1.968-2.928 3.312t-5.04 1.344m1.008-4.128q2.064 0 3.456-.96a6.6 6.6 0 0 0 2.208-2.64q.816-1.632 1.008-3.6h-5.664q-3.024 0-4.32 1.056-1.248 1.056-1.248 2.64 0 1.632 1.2 2.592 1.248.912 3.36.912M223.53 44q-3.504 0-5.568-1.68-2.064-1.728-2.064-6.096v-11.76h-4.08v-4.272h4.08l.624-6.048h4.464v6.048h6.72v4.272h-6.72v11.76q0 1.968.816 2.736.864.72 2.928.72h2.736V44zm9.422-28.32q-1.44 0-2.4-.864-.912-.912-.912-2.256t.912-2.208q.96-.912 2.4-.912t2.352.912q.96.864.96 2.208t-.96 2.256q-.912.864-2.352.864M230.408 44V20.192h5.088V44zm15.597 0-8.928-23.808h5.328l6.624 18.96 6.624-18.96h5.28L252.053 44zm26.146.576q-3.504 0-6.24-1.536-2.688-1.584-4.224-4.368t-1.536-6.48q0-3.744 1.488-6.576 1.536-2.832 4.224-4.416 2.736-1.584 6.336-1.584 3.504 0 6.096 1.584 2.592 1.536 4.032 4.128t1.44 5.712q0 .48-.048 1.056 0 .528-.048 1.2h-18.528q.24 3.456 2.256 5.28 2.064 1.776 4.752 1.776 2.16 0 3.6-.96a6.06 6.06 0 0 0 2.208-2.688h5.088q-.96 3.36-3.84 5.616-2.832 2.256-7.056 2.256m0-20.784q-2.544 0-4.512 1.536-1.968 1.488-2.4 4.512h13.44q-.144-2.784-1.968-4.416t-4.56-1.632M50.496 100.576q-3.504 0-6.288-1.584a11.56 11.56 0 0 1-4.32-4.368q-1.536-2.832-1.536-6.528t1.536-6.48q1.584-2.832 4.32-4.416 2.784-1.584 6.288-1.584 4.416 0 7.392 2.304 3.024 2.304 3.888 6.24h-5.328q-.48-1.968-2.112-3.072t-3.84-1.104q-1.872 0-3.456.96-1.584.912-2.544 2.736-.96 1.776-.96 4.416t.96 4.464q.96 1.776 2.544 2.736t3.456.96q2.208 0 3.84-1.104t2.112-3.12h5.328q-.816 3.84-3.84 6.192t-7.44 2.352m25.054 0q-3.408 0-6.144-1.536-2.688-1.584-4.272-4.368-1.584-2.832-1.584-6.576t1.584-6.528q1.632-2.832 4.368-4.368 2.736-1.584 6.096-1.584 3.408 0 6.096 1.584 2.736 1.536 4.32 4.368 1.632 2.784 1.632 6.528t-1.632 6.576a11.56 11.56 0 0 1-4.32 4.368q-2.736 1.536-6.144 1.536m0-4.368a6.46 6.46 0 0 0 3.36-.912q1.584-.912 2.544-2.688.96-1.824.96-4.512t-.96-4.464q-.912-1.824-2.496-2.736a6.46 6.46 0 0 0-3.36-.912 6.7 6.7 0 0 0-3.408.912q-1.536.912-2.496 2.736-.96 1.776-.96 4.464t.96 4.512q.96 1.776 2.496 2.688a6.46 6.46 0 0 0 3.36.912m14.239-8.016V83.92h19.535v4.272zm35.929 12.384q-2.784 0-4.944-1.104a8.5 8.5 0 0 1-3.36-3.12l-.528 3.648h-4.56V65.44h5.088v14.448q1.152-1.68 3.168-2.976t5.184-1.296q3.456 0 6.096 1.632t4.128 4.464q1.536 2.832 1.536 6.432t-1.536 6.432q-1.488 2.784-4.128 4.416-2.64 1.584-6.144 1.584m-.864-4.416q3.264 0 5.376-2.208 2.112-2.256 2.112-5.856 0-2.352-.96-4.176t-2.64-2.832q-1.68-1.056-3.888-1.056-3.264 0-5.376 2.256-2.064 2.256-2.064 5.808 0 3.6 2.064 5.856 2.112 2.208 5.376 2.208m24.079 4.416q-4.32 0-6.816-2.688-2.448-2.688-2.448-8.016v-13.68h5.088v13.152q0 6.912 5.664 6.912 2.832 0 4.656-2.016t1.824-5.76V76.192h5.088V100h-4.512l-.384-4.176q-1.104 2.208-3.264 3.504-2.112 1.248-4.896 1.248m19.529-28.896q-1.44 0-2.4-.864-.912-.912-.912-2.256t.912-2.208q.96-.912 2.4-.912t2.352.912q.96.864.96 2.208t-.96 2.256q-.912.864-2.352.864M165.918 100V76.192h5.088V100zm8.924 0V65.44h5.088V100zm19.499.576q-3.456 0-6.096-1.632t-4.128-4.464-1.488-6.432 1.488-6.384q1.488-2.832 4.128-4.416 2.688-1.632 6.144-1.632 2.832 0 4.944 1.104 2.16 1.104 3.36 3.12v-14.4h5.088V100h-4.56l-.528-3.696q-1.152 1.68-3.168 2.976t-5.184 1.296m.912-4.416q3.264 0 5.328-2.256 2.112-2.256 2.112-5.808 0-3.6-2.112-5.808-2.064-2.256-5.328-2.256t-5.376 2.256q-2.112 2.208-2.112 5.808 0 2.352.96 4.176t2.64 2.88q1.728 1.008 3.888 1.008m25.469 3.84V66.4h12.672q5.232 0 7.92 2.448t2.688 6.144q0 3.216-1.728 5.136a8.7 8.7 0 0 1-4.176 2.544 8.1 8.1 0 0 1 3.408 1.536 8.05 8.05 0 0 1 2.4 2.88q.864 1.728.864 3.744 0 2.592-1.296 4.704-1.248 2.064-3.696 3.264t-6 1.2zm5.088-19.2h6.96q2.928 0 4.464-1.344 1.536-1.392 1.536-3.792 0-2.352-1.536-3.744-1.488-1.392-4.56-1.392h-6.864zm0 15.024h7.296q3.072 0 4.752-1.44 1.728-1.44 1.728-4.032t-1.776-4.08q-1.776-1.536-4.8-1.536h-7.2zm24.345-24.144q-1.44 0-2.4-.864-.912-.912-.912-2.256t.912-2.208q.96-.912 2.4-.912t2.352.912q.96.864.96 2.208t-.96 2.256q-.912.864-2.352.864M247.611 100V76.192h5.088V100zm18.909 0q-3.504 0-5.568-1.68-2.064-1.728-2.064-6.096v-11.76h-4.08v-4.272h4.08l.624-6.048h4.464v6.048h6.72v4.272h-6.72v11.76q0 1.968.816 2.736.864.72 2.928.72h2.736V100zm17.213.576q-3.504 0-6.288-1.584a11.56 11.56 0 0 1-4.32-4.368q-1.536-2.832-1.536-6.528t1.536-6.48q1.584-2.832 4.32-4.416 2.784-1.584 6.288-1.584 4.416 0 7.392 2.304 3.024 2.304 3.888 6.24h-5.328q-.48-1.968-2.112-3.072t-3.84-1.104q-1.872 0-3.456.96-1.584.912-2.544 2.736-.96 1.776-.96 4.416t.96 4.464q.96 1.776 2.544 2.736t3.456.96q2.208 0 3.84-1.104t2.112-3.12h5.328q-.816 3.84-3.84 6.192t-7.44 2.352m25.054 0q-3.408 0-6.144-1.536-2.688-1.584-4.272-4.368-1.584-2.832-1.584-6.576t1.584-6.528q1.632-2.832 4.368-4.368 2.736-1.584 6.096-1.584 3.408 0 6.096 1.584 2.736 1.536 4.32 4.368 1.632 2.784 1.632 6.528t-1.632 6.576a11.56 11.56 0 0 1-4.32 4.368q-2.736 1.536-6.144 1.536m0-4.368a6.46 6.46 0 0 0 3.36-.912q1.584-.912 2.544-2.688.96-1.824.96-4.512t-.96-4.464q-.912-1.824-2.496-2.736a6.46 6.46 0 0 0-3.36-.912 6.7 6.7 0 0 0-3.408.912q-1.536.912-2.496 2.736-.96 1.776-.96 4.464t.96 4.512q.96 1.776 2.496 2.688a6.46 6.46 0 0 0 3.36.912m17.598-24.528q-1.44 0-2.4-.864-.912-.912-.912-2.256t.912-2.208q.96-.912 2.4-.912t2.352.912q.96.864.96 2.208t-.96 2.256q-.912.864-2.352.864M323.841 100V76.192h5.088V100zm8.925 0V76.192h4.512l.384 4.176a8.2 8.2 0 0 1 3.216-3.456q2.16-1.296 4.944-1.296 4.32 0 6.768 2.688 2.496 2.688 2.496 8.016V100h-5.04V86.848q0-6.912-5.664-6.912-2.832 0-4.704 2.016-1.824 2.016-1.824 5.76V100zm45.782.576q-3.504 0-6.24-1.536-2.688-1.584-4.224-4.368t-1.536-6.48q0-3.744 1.488-6.576 1.536-2.832 4.224-4.416 2.736-1.584 6.336-1.584 3.504 0 6.096 1.584 2.592 1.536 4.032 4.128t1.44 5.712q0 .48-.048 1.056 0 .528-.048 1.2H371.54q.24 3.456 2.256 5.28 2.064 1.776 4.752 1.776 2.16 0 3.6-.96a6.06 6.06 0 0 0 2.208-2.688h5.088q-.96 3.36-3.84 5.616-2.832 2.256-7.056 2.256m0-20.784q-2.544 0-4.512 1.536-1.968 1.488-2.4 4.512h13.44q-.144-2.784-1.968-4.416t-4.56-1.632m25.296 20.784q-3.504 0-6.288-1.584a11.56 11.56 0 0 1-4.32-4.368q-1.536-2.832-1.536-6.528t1.536-6.48q1.584-2.832 4.32-4.416 2.784-1.584 6.288-1.584 4.416 0 7.392 2.304 3.024 2.304 3.888 6.24h-5.328q-.48-1.968-2.112-3.072t-3.84-1.104q-1.872 0-3.456.96-1.584.912-2.544 2.736-.96 1.776-.96 4.416t.96 4.464q.96 1.776 2.544 2.736t3.456.96q2.208 0 3.84-1.104t2.112-3.12h5.328q-.816 3.84-3.84 6.192t-7.44 2.352m25.054 0q-3.408 0-6.144-1.536-2.688-1.584-4.272-4.368-1.584-2.832-1.584-6.576t1.584-6.528q1.632-2.832 4.368-4.368 2.736-1.584 6.096-1.584 3.408 0 6.096 1.584 2.736 1.536 4.32 4.368 1.632 2.784 1.632 6.528t-1.632 6.576a11.56 11.56 0 0 1-4.32 4.368q-2.736 1.536-6.144 1.536m0-4.368a6.46 6.46 0 0 0 3.36-.912q1.584-.912 2.544-2.688.96-1.824.96-4.512t-.96-4.464q-.912-1.824-2.496-2.736a6.46 6.46 0 0 0-3.36-.912 6.7 6.7 0 0 0-3.408.912q-1.536.912-2.496 2.736-.96 1.776-.96 4.464t.96 4.512q.96 1.776 2.496 2.688a6.46 6.46 0 0 0 3.36.912M443.616 100V76.192h4.512l.384 4.176a8.2 8.2 0 0 1 3.216-3.456q2.16-1.296 4.944-1.296 4.32 0 6.768 2.688 2.496 2.688 2.496 8.016V100h-5.04V86.848q0-6.912-5.664-6.912-2.832 0-4.704 2.016-1.824 2.016-1.824 5.76V100zm36.568.576q-3.408 0-6.144-1.536-2.688-1.584-4.272-4.368-1.584-2.832-1.584-6.576t1.584-6.528q1.632-2.832 4.368-4.368 2.736-1.584 6.096-1.584 3.408 0 6.096 1.584 2.736 1.536 4.32 4.368 1.632 2.784 1.632 6.528t-1.632 6.576a11.56 11.56 0 0 1-4.32 4.368q-2.736 1.536-6.144 1.536m0-4.368a6.46 6.46 0 0 0 3.36-.912q1.584-.912 2.544-2.688.96-1.824.96-4.512t-.96-4.464q-.912-1.824-2.496-2.736a6.46 6.46 0 0 0-3.36-.912 6.7 6.7 0 0 0-3.408.912q-1.536.912-2.496 2.736-.96 1.776-.96 4.464t.96 4.512q.96 1.776 2.496 2.688a6.46 6.46 0 0 0 3.36.912M494.903 100V76.192h4.512l.432 3.36a8.4 8.4 0 0 1 3.024-2.88q1.92-1.056 4.416-1.056 5.664 0 7.872 4.464a9.4 9.4 0 0 1 3.456-3.264 9.8 9.8 0 0 1 4.752-1.2q4.464 0 7.008 2.688t2.544 8.016V100h-5.088V86.848q0-6.912-5.28-6.912-2.688 0-4.416 2.016-1.68 2.016-1.68 5.76V100h-5.088V86.848q0-6.912-5.328-6.912-2.64 0-4.368 2.016-1.68 2.016-1.68 5.76V100zm43.123 10.56 5.712-12.528h-1.392l-9.408-21.84h5.52l7.296 17.616 7.632-17.616h5.376l-15.36 34.368zm20.492-10.272q-1.44 0-2.4-.912-.912-.96-.912-2.256 0-1.344.912-2.256.96-.96 2.4-.96t2.352.96q.912.912.912 2.256 0 1.296-.912 2.256-.912.912-2.352.912M14.79 36.822l3.045-3.287a.63.63 0 0 0 .165-.43v-.658c0-.168.126-.304.281-.304h8.438c.155 0 .281-.136.281-.304v-4.25c0-.167-.126-.303-.281-.303h-9.611a.54.54 0 0 0-.398.178l-3.045 3.287a.63.63 0 0 0-.165.429v.66c0 .167-.126.303-.281.303H.28c-.155 0-.281.136-.281.303v4.25c0 .168.126.304.281.304h14.111a.54.54 0 0 0 .398-.178" fill="#fff"/><path d="m10.29 29.535 3.045-3.285a.64.64 0 0 0 .166-.431v-.658c0-.168.126-.304.28-.304H26.72c.155 0 .281-.136.281-.303v-4.25c0-.168-.126-.304-.281-.304H12.608a.54.54 0 0 0-.398.178l-3.045 3.287a.63.63 0 0 0-.165.43v.659c0 .167-.126.303-.281.303H.28c-.155 0-.281.136-.281.304v4.25c0 .167.126.303.281.303h9.61c.15 0 .294-.064.4-.179" fill="#fff"/><path fill-rule="evenodd" clip-rule="evenodd" d="M297.235 42.954c-.141 0-.234-.094-.234-.234v-2.26L297 38.403c0-.11.09-.2.2-.2h4.374V14.27a.25.25 0 0 0-.25-.25H297.2a.2.2 0 0 1-.2-.2v-4.2c0-.14.094-.235.234-.235h4.34L301.58 6h5.541v3.387h5.781V6h4.994v3.61c4.64.913 7.163 4.524 7.163 8.882 0 2.927-1.241 5.29-3.231 6.742-.14.094-.117.21.024.304 2.692 1.592 4.307 4.378 4.307 7.865 0 4.668-2.745 8.504-8.266 9.368v3.678h-4.994v-3.495h-5.778v3.495h-5.547v-3.495zm18.203-4.752c2.973 0 5.15-2.177 5.15-5.15 0-2.972-2.177-5.126-5.15-5.126h-8.083c-.14 0-.234.093-.234.234v9.808c0 .14.094.234.234.234zm-.749-14.56c2.786 0 4.799-2.036 4.799-4.822s-2.013-4.799-4.799-4.799h-7.334c-.14 0-.234.094-.234.234v9.153c0 .14.094.234.234.234z" fill="#FF8C22"/></svg>