<svg width="396" height="86" viewBox="0 0 396 86" fill="none" xmlns="http://www.w3.org/2000/svg">
<path d="M10.9873 76.432C9.23531 76.432 7.66331 76.036 6.27131 75.244C4.90331 74.452 3.82331 73.36 3.03131 71.968C2.26331 70.552 1.87931 68.92 1.87931 67.072C1.87931 65.224 2.26331 63.604 3.03131 62.212C3.82331 60.796 4.90331 59.692 6.27131 58.9C7.66331 58.108 9.23531 57.712 10.9873 57.712C13.1953 57.712 15.0433 58.288 16.5313 59.44C18.0433 60.592 19.0153 62.152 19.4473 64.12H15.4513C15.2113 63.136 14.6833 62.368 13.8673 61.816C13.0513 61.264 12.0913 60.988 10.9873 60.988C10.0513 60.988 9.18731 61.228 8.39531 61.708C7.60331 62.164 6.96731 62.848 6.48731 63.76C6.00731 64.648 5.76731 65.752 5.76731 67.072C5.76731 68.392 6.00731 69.508 6.48731 70.42C6.96731 71.308 7.60331 71.992 8.39531 72.472C9.18731 72.952 10.0513 73.192 10.9873 73.192C12.0913 73.192 13.0513 72.916 13.8673 72.364C14.6833 71.812 15.2113 71.032 15.4513 70.024H19.4473C19.0393 71.944 18.0793 73.492 16.5673 74.668C15.0553 75.844 13.1953 76.432 10.9873 76.432ZM29.7779 76.432C28.0739 76.432 26.5379 76.048 25.1699 75.28C23.8259 74.488 22.7579 73.396 21.9659 72.004C21.1739 70.588 20.7779 68.944 20.7779 67.072C20.7779 65.2 21.1739 63.568 21.9659 62.176C22.7819 60.76 23.8739 59.668 25.2419 58.9C26.6099 58.108 28.1339 57.712 29.8139 57.712C31.5179 57.712 33.0419 58.108 34.3859 58.9C35.7539 59.668 36.8339 60.76 37.6259 62.176C38.4419 63.568 38.8499 65.2 38.8499 67.072C38.8499 68.944 38.4419 70.588 37.6259 72.004C36.8339 73.396 35.7539 74.488 34.3859 75.28C33.0179 76.048 31.4819 76.432 29.7779 76.432ZM29.7779 73.156C30.6899 73.156 31.5299 72.928 32.2979 72.472C33.0899 72.016 33.7259 71.344 34.2059 70.456C34.6859 69.544 34.9259 68.416 34.9259 67.072C34.9259 65.728 34.6859 64.612 34.2059 63.724C33.7499 62.812 33.1259 62.128 32.3339 61.672C31.5659 61.216 30.7259 60.988 29.8139 60.988C28.9019 60.988 28.0499 61.216 27.2579 61.672C26.4899 62.128 25.8659 62.812 25.3859 63.724C24.9059 64.612 24.6659 65.728 24.6659 67.072C24.6659 68.416 24.9059 69.544 25.3859 70.456C25.8659 71.344 26.4899 72.016 27.2579 72.472C28.0259 72.928 28.8659 73.156 29.7779 73.156ZM40.4567 67.144V63.94H55.1087V67.144H40.4567ZM67.4038 76.432C66.0118 76.432 64.7758 76.156 63.6958 75.604C62.6398 75.052 61.7998 74.272 61.1758 73.264L60.7798 76H57.3598V50.08H61.1758V60.916C61.7518 60.076 62.5438 59.332 63.5518 58.684C64.5598 58.036 65.8558 57.712 67.4398 57.712C69.1678 57.712 70.6918 58.12 72.0118 58.936C73.3318 59.752 74.3638 60.868 75.1078 62.284C75.8758 63.7 76.2598 65.308 76.2598 67.108C76.2598 68.908 75.8758 70.516 75.1078 71.932C74.3638 73.324 73.3318 74.428 72.0118 75.244C70.6918 76.036 69.1558 76.432 67.4038 76.432ZM66.7558 73.12C68.3878 73.12 69.7318 72.568 70.7878 71.464C71.8438 70.336 72.3718 68.872 72.3718 67.072C72.3718 65.896 72.1318 64.852 71.6518 63.94C71.1718 63.028 70.5118 62.32 69.6718 61.816C68.8318 61.288 67.8598 61.024 66.7558 61.024C65.1238 61.024 63.7798 61.588 62.7238 62.716C61.6918 63.844 61.1758 65.296 61.1758 67.072C61.1758 68.872 61.6918 70.336 62.7238 71.464C63.7798 72.568 65.1238 73.12 66.7558 73.12ZM84.8152 76.432C82.6552 76.432 80.9512 75.76 79.7032 74.416C78.4792 73.072 77.8672 71.068 77.8672 68.404V58.144H81.6832V68.008C81.6832 71.464 83.0992 73.192 85.9312 73.192C87.3472 73.192 88.5112 72.688 89.4232 71.68C90.3352 70.672 90.7912 69.232 90.7912 67.36V58.144H94.6072V76H91.2232L90.9352 72.868C90.3832 73.972 89.5672 74.848 88.4872 75.496C87.4312 76.12 86.2072 76.432 84.8152 76.432ZM99.4615 54.76C98.7415 54.76 98.1415 54.544 97.6615 54.112C97.2055 53.656 96.9775 53.092 96.9775 52.42C96.9775 51.748 97.2055 51.196 97.6615 50.764C98.1415 50.308 98.7415 50.08 99.4615 50.08C100.182 50.08 100.77 50.308 101.226 50.764C101.706 51.196 101.946 51.748 101.946 52.42C101.946 53.092 101.706 53.656 101.226 54.112C100.77 54.544 100.182 54.76 99.4615 54.76ZM97.5535 76V58.144H101.37V76H97.5535ZM104.247 76V50.08H108.063V76H104.247ZM118.871 76.432C117.143 76.432 115.619 76.024 114.299 75.208C112.979 74.392 111.947 73.276 111.203 71.86C110.459 70.444 110.087 68.836 110.087 67.036C110.087 65.236 110.459 63.64 111.203 62.248C111.947 60.832 112.979 59.728 114.299 58.936C115.643 58.12 117.179 57.712 118.907 57.712C120.323 57.712 121.559 57.988 122.615 58.54C123.695 59.092 124.535 59.872 125.135 60.88V50.08H128.951V76H125.531L125.135 73.228C124.559 74.068 123.767 74.812 122.759 75.46C121.751 76.108 120.455 76.432 118.871 76.432ZM119.555 73.12C121.187 73.12 122.519 72.556 123.551 71.428C124.607 70.3 125.135 68.848 125.135 67.072C125.135 65.272 124.607 63.82 123.551 62.716C122.519 61.588 121.187 61.024 119.555 61.024C117.923 61.024 116.579 61.588 115.523 62.716C114.467 63.82 113.939 65.272 113.939 67.072C113.939 68.248 114.179 69.292 114.659 70.204C115.139 71.116 115.799 71.836 116.639 72.364C117.503 72.868 118.475 73.12 119.555 73.12ZM138.657 76V50.8H148.161C150.777 50.8 152.757 51.412 154.101 52.636C155.445 53.86 156.117 55.396 156.117 57.244C156.117 58.852 155.685 60.136 154.821 61.096C153.957 62.032 152.913 62.668 151.689 63.004C152.649 63.196 153.501 63.58 154.245 64.156C155.013 64.732 155.613 65.452 156.045 66.316C156.477 67.18 156.693 68.116 156.693 69.124C156.693 70.42 156.369 71.596 155.721 72.652C155.097 73.684 154.173 74.5 152.949 75.1C151.725 75.7 150.225 76 148.449 76H138.657ZM142.473 61.6H147.693C149.157 61.6 150.273 61.264 151.041 60.592C151.809 59.896 152.193 58.948 152.193 57.748C152.193 56.572 151.809 55.636 151.041 54.94C150.297 54.244 149.157 53.896 147.621 53.896H142.473V61.6ZM142.473 72.868H147.945C149.481 72.868 150.669 72.508 151.509 71.788C152.373 71.068 152.805 70.06 152.805 68.764C152.805 67.468 152.361 66.448 151.473 65.704C150.585 64.936 149.385 64.552 147.873 64.552H142.473V72.868ZM160.732 54.76C160.012 54.76 159.412 54.544 158.932 54.112C158.476 53.656 158.248 53.092 158.248 52.42C158.248 51.748 158.476 51.196 158.932 50.764C159.412 50.308 160.012 50.08 160.732 50.08C161.452 50.08 162.04 50.308 162.496 50.764C162.976 51.196 163.216 51.748 163.216 52.42C163.216 53.092 162.976 53.656 162.496 54.112C162.04 54.544 161.452 54.76 160.732 54.76ZM158.824 76V58.144H162.64V76H158.824ZM173.005 76C171.253 76 169.861 75.58 168.829 74.74C167.797 73.876 167.281 72.352 167.281 70.168V61.348H164.221V58.144H167.281L167.749 53.608H171.097V58.144H176.137V61.348H171.097V70.168C171.097 71.152 171.301 71.836 171.709 72.22C172.141 72.58 172.873 72.76 173.905 72.76H175.957V76H173.005ZM185.915 76.432C184.163 76.432 182.591 76.036 181.199 75.244C179.831 74.452 178.751 73.36 177.959 71.968C177.191 70.552 176.807 68.92 176.807 67.072C176.807 65.224 177.191 63.604 177.959 62.212C178.751 60.796 179.831 59.692 181.199 58.9C182.591 58.108 184.163 57.712 185.915 57.712C188.123 57.712 189.971 58.288 191.459 59.44C192.971 60.592 193.943 62.152 194.375 64.12H190.379C190.139 63.136 189.611 62.368 188.795 61.816C187.979 61.264 187.019 60.988 185.915 60.988C184.979 60.988 184.115 61.228 183.323 61.708C182.531 62.164 181.895 62.848 181.415 63.76C180.935 64.648 180.695 65.752 180.695 67.072C180.695 68.392 180.935 69.508 181.415 70.42C181.895 71.308 182.531 71.992 183.323 72.472C184.115 72.952 184.979 73.192 185.915 73.192C187.019 73.192 187.979 72.916 188.795 72.364C189.611 71.812 190.139 71.032 190.379 70.024H194.375C193.967 71.944 193.007 73.492 191.495 74.668C189.983 75.844 188.123 76.432 185.915 76.432ZM204.706 76.432C203.002 76.432 201.466 76.048 200.098 75.28C198.754 74.488 197.686 73.396 196.894 72.004C196.102 70.588 195.706 68.944 195.706 67.072C195.706 65.2 196.102 63.568 196.894 62.176C197.71 60.76 198.802 59.668 200.17 58.9C201.538 58.108 203.062 57.712 204.742 57.712C206.446 57.712 207.97 58.108 209.314 58.9C210.682 59.668 211.762 60.76 212.554 62.176C213.37 63.568 213.778 65.2 213.778 67.072C213.778 68.944 213.37 70.588 212.554 72.004C211.762 73.396 210.682 74.488 209.314 75.28C207.946 76.048 206.41 76.432 204.706 76.432ZM204.706 73.156C205.618 73.156 206.458 72.928 207.226 72.472C208.018 72.016 208.654 71.344 209.134 70.456C209.614 69.544 209.854 68.416 209.854 67.072C209.854 65.728 209.614 64.612 209.134 63.724C208.678 62.812 208.054 62.128 207.262 61.672C206.494 61.216 205.654 60.988 204.742 60.988C203.83 60.988 202.978 61.216 202.186 61.672C201.418 62.128 200.794 62.812 200.314 63.724C199.834 64.612 199.594 65.728 199.594 67.072C199.594 68.416 199.834 69.544 200.314 70.456C200.794 71.344 201.418 72.016 202.186 72.472C202.954 72.928 203.794 73.156 204.706 73.156ZM217.904 54.76C217.184 54.76 216.584 54.544 216.104 54.112C215.648 53.656 215.42 53.092 215.42 52.42C215.42 51.748 215.648 51.196 216.104 50.764C216.584 50.308 217.184 50.08 217.904 50.08C218.624 50.08 219.212 50.308 219.668 50.764C220.148 51.196 220.388 51.748 220.388 52.42C220.388 53.092 220.148 53.656 219.668 54.112C219.212 54.544 218.624 54.76 217.904 54.76ZM215.996 76V58.144H219.812V76H215.996ZM222.69 76V58.144H226.074L226.362 61.276C226.914 60.172 227.718 59.308 228.774 58.684C229.854 58.036 231.09 57.712 232.482 57.712C234.642 57.712 236.334 58.384 237.558 59.728C238.806 61.072 239.43 63.076 239.43 65.74V76H235.65V66.136C235.65 62.68 234.234 60.952 231.402 60.952C229.986 60.952 228.81 61.456 227.874 62.464C226.962 63.472 226.506 64.912 226.506 66.784V76H222.69ZM257.026 76.432C255.274 76.432 253.714 76.048 252.346 75.28C251.002 74.488 249.946 73.396 249.178 72.004C248.41 70.612 248.026 68.992 248.026 67.144C248.026 65.272 248.398 63.628 249.142 62.212C249.91 60.796 250.966 59.692 252.31 58.9C253.678 58.108 255.262 57.712 257.062 57.712C258.814 57.712 260.338 58.108 261.634 58.9C262.93 59.668 263.938 60.7 264.658 61.996C265.378 63.292 265.738 64.72 265.738 66.28C265.738 66.52 265.726 66.784 265.702 67.072C265.702 67.336 265.69 67.636 265.666 67.972H251.77C251.89 69.7 252.454 71.02 253.462 71.932C254.494 72.82 255.682 73.264 257.026 73.264C258.106 73.264 259.006 73.024 259.726 72.544C260.47 72.04 261.022 71.368 261.382 70.528H265.198C264.718 72.208 263.758 73.612 262.318 74.74C260.902 75.868 259.138 76.432 257.026 76.432ZM257.026 60.844C255.754 60.844 254.626 61.228 253.642 61.996C252.658 62.74 252.058 63.868 251.842 65.38H261.922C261.85 63.988 261.358 62.884 260.446 62.068C259.534 61.252 258.394 60.844 257.026 60.844ZM275.998 76.432C274.246 76.432 272.674 76.036 271.282 75.244C269.914 74.452 268.834 73.36 268.042 71.968C267.274 70.552 266.89 68.92 266.89 67.072C266.89 65.224 267.274 63.604 268.042 62.212C268.834 60.796 269.914 59.692 271.282 58.9C272.674 58.108 274.246 57.712 275.998 57.712C278.206 57.712 280.054 58.288 281.542 59.44C283.054 60.592 284.026 62.152 284.458 64.12H280.462C280.222 63.136 279.694 62.368 278.878 61.816C278.062 61.264 277.102 60.988 275.998 60.988C275.062 60.988 274.198 61.228 273.406 61.708C272.614 62.164 271.978 62.848 271.498 63.76C271.018 64.648 270.778 65.752 270.778 67.072C270.778 68.392 271.018 69.508 271.498 70.42C271.978 71.308 272.614 71.992 273.406 72.472C274.198 72.952 275.062 73.192 275.998 73.192C277.102 73.192 278.062 72.916 278.878 72.364C279.694 71.812 280.222 71.032 280.462 70.024H284.458C284.05 71.944 283.09 73.492 281.578 74.668C280.066 75.844 278.206 76.432 275.998 76.432ZM294.789 76.432C293.085 76.432 291.549 76.048 290.181 75.28C288.837 74.488 287.769 73.396 286.977 72.004C286.185 70.588 285.789 68.944 285.789 67.072C285.789 65.2 286.185 63.568 286.977 62.176C287.793 60.76 288.885 59.668 290.253 58.9C291.621 58.108 293.145 57.712 294.825 57.712C296.529 57.712 298.053 58.108 299.397 58.9C300.765 59.668 301.845 60.76 302.637 62.176C303.453 63.568 303.861 65.2 303.861 67.072C303.861 68.944 303.453 70.588 302.637 72.004C301.845 73.396 300.765 74.488 299.397 75.28C298.029 76.048 296.493 76.432 294.789 76.432ZM294.789 73.156C295.701 73.156 296.541 72.928 297.309 72.472C298.101 72.016 298.737 71.344 299.217 70.456C299.697 69.544 299.937 68.416 299.937 67.072C299.937 65.728 299.697 64.612 299.217 63.724C298.761 62.812 298.137 62.128 297.345 61.672C296.577 61.216 295.737 60.988 294.825 60.988C293.913 60.988 293.061 61.216 292.269 61.672C291.501 62.128 290.877 62.812 290.397 63.724C289.917 64.612 289.677 65.728 289.677 67.072C289.677 68.416 289.917 69.544 290.397 70.456C290.877 71.344 291.501 72.016 292.269 72.472C293.037 72.928 293.877 73.156 294.789 73.156ZM305.827 76V58.144H309.211L309.499 61.276C310.051 60.172 310.855 59.308 311.911 58.684C312.991 58.036 314.227 57.712 315.619 57.712C317.779 57.712 319.471 58.384 320.695 59.728C321.943 61.072 322.567 63.076 322.567 65.74V76H318.787V66.136C318.787 62.68 317.371 60.952 314.539 60.952C313.123 60.952 311.947 61.456 311.011 62.464C310.099 63.472 309.643 64.912 309.643 66.784V76H305.827ZM333.254 76.432C331.55 76.432 330.014 76.048 328.646 75.28C327.302 74.488 326.234 73.396 325.442 72.004C324.65 70.588 324.254 68.944 324.254 67.072C324.254 65.2 324.65 63.568 325.442 62.176C326.258 60.76 327.35 59.668 328.718 58.9C330.086 58.108 331.61 57.712 333.29 57.712C334.994 57.712 336.518 58.108 337.862 58.9C339.23 59.668 340.31 60.76 341.102 62.176C341.918 63.568 342.326 65.2 342.326 67.072C342.326 68.944 341.918 70.588 341.102 72.004C340.31 73.396 339.23 74.488 337.862 75.28C336.494 76.048 334.958 76.432 333.254 76.432ZM333.254 73.156C334.166 73.156 335.006 72.928 335.774 72.472C336.566 72.016 337.202 71.344 337.682 70.456C338.162 69.544 338.402 68.416 338.402 67.072C338.402 65.728 338.162 64.612 337.682 63.724C337.226 62.812 336.602 62.128 335.81 61.672C335.042 61.216 334.202 60.988 333.29 60.988C332.378 60.988 331.526 61.216 330.734 61.672C329.966 62.128 329.342 62.812 328.862 63.724C328.382 64.612 328.142 65.728 328.142 67.072C328.142 68.416 328.382 69.544 328.862 70.456C329.342 71.344 329.966 72.016 330.734 72.472C331.502 72.928 332.342 73.156 333.254 73.156ZM344.292 76V58.144H347.676L348 60.664C348.576 59.752 349.332 59.032 350.268 58.504C351.228 57.976 352.332 57.712 353.58 57.712C356.412 57.712 358.38 58.828 359.484 61.06C360.132 60.028 360.996 59.212 362.076 58.612C363.18 58.012 364.368 57.712 365.64 57.712C367.872 57.712 369.624 58.384 370.896 59.728C372.168 61.072 372.804 63.076 372.804 65.74V76H368.988V66.136C368.988 62.68 367.668 60.952 365.028 60.952C363.684 60.952 362.58 61.456 361.716 62.464C360.876 63.472 360.456 64.912 360.456 66.784V76H356.64V66.136C356.64 62.68 355.308 60.952 352.644 60.952C351.324 60.952 350.232 61.456 349.368 62.464C348.528 63.472 348.108 64.912 348.108 66.784V76H344.292ZM376.635 83.92L380.919 74.524H379.875L372.819 58.144H376.959L382.431 71.356L388.155 58.144H392.187L380.667 83.92H376.635ZM392.004 76.216C391.284 76.216 390.684 75.988 390.204 75.532C389.748 75.052 389.52 74.488 389.52 73.84C389.52 73.168 389.748 72.604 390.204 72.148C390.684 71.668 391.284 71.428 392.004 71.428C392.724 71.428 393.312 71.668 393.768 72.148C394.224 72.604 394.452 73.168 394.452 73.84C394.452 74.488 394.224 75.052 393.768 75.532C393.312 75.988 392.724 76.216 392.004 76.216Z" fill="white"/>
<path d="M81.7526 29.1131L84.1726 26.5011C84.2566 26.4104 84.3036 26.2879 84.3036 26.16L84.3036 25.6361C84.3036 25.5029 84.4037 25.3948 84.5271 25.3948L91.2319 25.3948C91.3552 25.3948 91.4554 25.2868 91.4554 25.1536L91.4554 21.7764C91.4554 21.6433 91.3552 21.5352 91.2319 21.5352L83.5947 21.5352C83.4762 21.5352 83.3622 21.5859 83.2786 21.6766L80.8586 24.2886C80.7746 24.3793 80.7277 24.5018 80.7277 24.6297L80.7277 25.1536C80.7277 25.2868 80.6276 25.3948 80.5042 25.3948L70.2235 25.3948C70.1001 25.3948 70 25.5029 70 25.6361L70 29.0132C70 29.1464 70.1001 29.2545 70.2235 29.2545L81.4366 29.2545C81.5551 29.2545 81.669 29.2038 81.7526 29.1131Z" fill="white"/>
<path d="M78.1776 23.3225C79.1011 22.3257 79.6728 21.7087 80.5963 20.7119C80.6803 20.6212 80.7281 20.4977 80.7281 20.3694L80.7281 19.8464C80.7281 19.7132 80.8283 19.6052 80.9516 19.6052L91.2319 19.6052C91.3552 19.6052 91.4554 19.4971 91.4554 19.3639L91.4554 15.9868C91.4554 15.8536 91.3552 15.7455 91.2319 15.7455L80.0188 15.7455C79.9003 15.7455 79.7863 15.7962 79.7027 15.8869L77.2828 18.4989C77.1987 18.5896 77.1518 18.7121 77.1518 18.84L77.1518 19.3639C77.1518 19.4971 77.0517 19.6052 76.9283 19.6052L70.2235 19.6052C70.1001 19.6052 70 19.7132 70 19.8464L70 23.2236C70 23.3567 70.1001 23.4648 70.2235 23.4648L77.8598 23.4648C77.9787 23.4648 78.0936 23.4136 78.1776 23.3225Z" fill="white"/>
<path d="M106.442 35V9.8H114.974C116.966 9.8 118.598 10.136 119.87 10.808C121.142 11.48 122.078 12.38 122.678 13.508C123.302 14.612 123.614 15.872 123.614 17.288C123.614 18.632 123.302 19.88 122.678 21.032C122.078 22.16 121.13 23.072 119.834 23.768C118.538 24.44 116.882 24.776 114.866 24.776H110.042V35H106.442ZM119.69 35L114.254 23.804H118.214L123.866 35H119.69ZM110.042 22.04H114.722C116.498 22.04 117.806 21.608 118.646 20.744C119.486 19.856 119.906 18.728 119.906 17.36C119.906 15.968 119.498 14.864 118.682 14.048C117.866 13.232 116.546 12.824 114.722 12.824H110.042V22.04ZM133.052 35.432C131.324 35.432 129.788 35.036 128.444 34.244C127.1 33.452 126.044 32.348 125.276 30.932C124.532 29.516 124.16 27.872 124.16 26C124.16 24.08 124.532 22.412 125.276 20.996C126.044 19.556 127.1 18.44 128.444 17.648C129.788 16.832 131.348 16.424 133.124 16.424C134.9 16.424 136.424 16.82 137.696 17.612C138.968 18.404 139.952 19.46 140.648 20.78C141.344 22.076 141.692 23.516 141.692 25.1C141.692 25.34 141.68 25.604 141.656 25.892C141.656 26.156 141.644 26.456 141.62 26.792H126.788V24.236H138.092C138.02 22.724 137.516 21.548 136.58 20.708C135.644 19.844 134.48 19.412 133.088 19.412C132.104 19.412 131.204 19.64 130.388 20.096C129.572 20.528 128.912 21.176 128.408 22.04C127.928 22.88 127.688 23.948 127.688 25.244V26.252C127.688 27.596 127.928 28.736 128.408 29.672C128.912 30.584 129.572 31.28 130.388 31.76C131.204 32.216 132.092 32.444 133.052 32.444C134.204 32.444 135.152 32.192 135.896 31.688C136.64 31.184 137.192 30.5 137.552 29.636H141.152C140.84 30.74 140.312 31.736 139.568 32.624C138.824 33.488 137.9 34.172 136.796 34.676C135.716 35.18 134.468 35.432 133.052 35.432ZM143.532 35V9.08H147.132V35H143.532ZM150.167 35V16.856H153.767V35H150.167ZM152.003 13.436C151.307 13.436 150.731 13.22 150.275 12.788C149.843 12.356 149.627 11.804 149.627 11.132C149.627 10.484 149.843 9.956 150.275 9.548C150.731 9.116 151.307 8.9 152.003 8.9C152.675 8.9 153.239 9.116 153.695 9.548C154.151 9.956 154.379 10.484 154.379 11.132C154.379 11.804 154.151 12.356 153.695 12.788C153.239 13.22 152.675 13.436 152.003 13.436ZM156.755 35V16.856H159.995L160.211 19.952C160.787 18.872 161.603 18.02 162.659 17.396C163.715 16.748 164.927 16.424 166.295 16.424C167.735 16.424 168.971 16.712 170.003 17.288C171.035 17.864 171.839 18.74 172.415 19.916C172.991 21.068 173.279 22.52 173.279 24.272V35H169.679V24.632C169.679 22.952 169.307 21.68 168.563 20.816C167.819 19.952 166.739 19.52 165.323 19.52C164.387 19.52 163.547 19.748 162.803 20.204C162.059 20.636 161.459 21.284 161.003 22.148C160.571 23.012 160.355 24.068 160.355 25.316V35H156.755ZM187.136 35L178.784 25.064L186.344 16.856H190.7L181.7 26.468V23.768L191.672 35H187.136ZM175.724 35V9.08H179.324V35H175.724ZM199.599 35V16.856H202.839L203.055 19.952C203.631 18.872 204.447 18.02 205.503 17.396C206.559 16.748 207.771 16.424 209.139 16.424C210.579 16.424 211.815 16.712 212.847 17.288C213.879 17.864 214.683 18.74 215.259 19.916C215.835 21.068 216.123 22.52 216.123 24.272V35H212.523V24.632C212.523 22.952 212.151 21.68 211.407 20.816C210.663 19.952 209.583 19.52 208.167 19.52C207.231 19.52 206.391 19.748 205.647 20.204C204.903 20.636 204.303 21.284 203.847 22.148C203.415 23.012 203.199 24.068 203.199 25.316V35H199.599ZM224.58 35.432C223.092 35.432 221.856 35.18 220.872 34.676C219.888 34.172 219.156 33.5 218.676 32.66C218.196 31.796 217.956 30.872 217.956 29.888C217.956 28.688 218.268 27.668 218.892 26.828C219.516 25.964 220.404 25.304 221.556 24.848C222.708 24.392 224.088 24.164 225.696 24.164H230.412C230.412 23.108 230.256 22.232 229.944 21.536C229.632 20.84 229.164 20.324 228.54 19.988C227.94 19.628 227.172 19.448 226.236 19.448C225.156 19.448 224.232 19.712 223.464 20.24C222.696 20.744 222.216 21.5 222.024 22.508H218.424C218.568 21.236 219 20.156 219.72 19.268C220.464 18.356 221.412 17.66 222.564 17.18C223.716 16.676 224.94 16.424 226.236 16.424C227.94 16.424 229.368 16.724 230.52 17.324C231.672 17.924 232.536 18.776 233.112 19.88C233.712 20.96 234.012 22.256 234.012 23.768V35H230.88L230.592 31.94C230.328 32.42 230.016 32.876 229.656 33.308C229.296 33.74 228.864 34.112 228.36 34.424C227.88 34.736 227.316 34.976 226.668 35.144C226.044 35.336 225.348 35.432 224.58 35.432ZM225.264 32.516C226.032 32.516 226.728 32.36 227.352 32.048C227.976 31.736 228.504 31.316 228.936 30.788C229.392 30.236 229.728 29.624 229.944 28.952C230.184 28.256 230.316 27.548 230.34 26.828V26.72H226.056C225.024 26.72 224.184 26.852 223.536 27.116C222.912 27.356 222.456 27.692 222.168 28.124C221.88 28.556 221.736 29.06 221.736 29.636C221.736 30.236 221.868 30.752 222.132 31.184C222.42 31.592 222.828 31.916 223.356 32.156C223.884 32.396 224.52 32.516 225.264 32.516ZM243.512 35C242.384 35 241.4 34.82 240.56 34.46C239.72 34.1 239.072 33.5 238.616 32.66C238.16 31.82 237.932 30.68 237.932 29.24V19.916H234.8V16.856H237.932L238.364 12.32H241.532V16.856H246.68V19.916H241.532V29.276C241.532 30.308 241.748 31.016 242.18 31.4C242.612 31.76 243.356 31.94 244.412 31.94H246.5V35H243.512ZM248.742 35V16.856H252.342V35H248.742ZM250.578 13.436C249.882 13.436 249.306 13.22 248.85 12.788C248.418 12.356 248.202 11.804 248.202 11.132C248.202 10.484 248.418 9.956 248.85 9.548C249.306 9.116 249.882 8.9 250.578 8.9C251.25 8.9 251.814 9.116 252.27 9.548C252.726 9.956 252.954 10.484 252.954 11.132C252.954 11.804 252.726 12.356 252.27 12.788C251.814 13.22 251.25 13.436 250.578 13.436ZM260.478 35L253.674 16.856H257.454L262.602 31.544L267.786 16.856H271.494L264.726 35H260.478ZM279.905 35.432C278.177 35.432 276.641 35.036 275.297 34.244C273.953 33.452 272.897 32.348 272.129 30.932C271.385 29.516 271.013 27.872 271.013 26C271.013 24.08 271.385 22.412 272.129 20.996C272.897 19.556 273.953 18.44 275.297 17.648C276.641 16.832 278.201 16.424 279.977 16.424C281.753 16.424 283.277 16.82 284.549 17.612C285.821 18.404 286.805 19.46 287.501 20.78C288.197 22.076 288.545 23.516 288.545 25.1C288.545 25.34 288.533 25.604 288.509 25.892C288.509 26.156 288.497 26.456 288.473 26.792H273.641V24.236H284.945C284.873 22.724 284.369 21.548 283.433 20.708C282.497 19.844 281.333 19.412 279.941 19.412C278.957 19.412 278.057 19.64 277.241 20.096C276.425 20.528 275.765 21.176 275.261 22.04C274.781 22.88 274.541 23.948 274.541 25.244V26.252C274.541 27.596 274.781 28.736 275.261 29.672C275.765 30.584 276.425 31.28 277.241 31.76C278.057 32.216 278.945 32.444 279.905 32.444C281.057 32.444 282.005 32.192 282.749 31.688C283.493 31.184 284.045 30.5 284.405 29.636H288.005C287.693 30.74 287.165 31.736 286.421 32.624C285.677 33.488 284.753 34.172 283.649 34.676C282.569 35.18 281.321 35.432 279.905 35.432Z" fill="white"/>
<path fill-rule="evenodd" clip-rule="evenodd" d="M302.641 35.695C302.53 35.695 302.456 35.6212 302.456 35.5104V33.7286L302.455 32.1469C302.455 32.0364 302.545 31.9468 302.655 31.9468H306.063V28.9834V22.4564V15.9294V13.1236C306.063 12.9856 305.951 12.8736 305.813 12.8736H302.655C302.545 12.8736 302.455 12.7841 302.455 12.6736V10.2702V9.40243C302.455 9.29165 302.529 9.21779 302.64 9.21779H306.063L306.068 6.54668L310.439 6.54659V9.21779L314.999 9.2179V6.54659L318.938 6.54659V9.39391C322.598 10.1141 324.588 12.9622 324.588 16.4004C324.588 18.7084 323.609 20.5732 322.04 21.718C321.929 21.7919 321.947 21.8842 322.058 21.958C324.181 23.2136 325.455 25.4108 325.455 28.1619C325.455 31.8433 323.29 34.8695 318.935 35.5513V38.4534H314.996V35.6952H312.843L310.439 35.695V38.4522H306.063V35.695H302.641ZM316.999 31.947C319.344 31.947 321.061 30.2299 321.061 27.8849C321.061 25.54 319.344 23.8413 316.999 23.8413L310.624 23.8412C310.513 23.8412 310.439 23.9151 310.439 24.0258V31.7622C310.439 31.873 310.513 31.9468 310.624 31.9468L316.999 31.947ZM316.408 20.4625C318.605 20.4625 320.193 18.8561 320.193 16.6589C320.193 14.4617 318.605 12.8738 316.408 12.8738L310.624 12.8736C310.513 12.8736 310.439 12.9475 310.439 13.0583V20.2777C310.439 20.3885 310.513 20.4623 310.624 20.4623L316.408 20.4625Z" fill="#FF8C22"/>
</svg>
