
<svg viewBox="0 0 171 197" fill="none" xmlns="http://www.w3.org/2000/svg">
<path fill-rule="evenodd" clip-rule="evenodd" d="M145.376 157.686H132.762C132.226 157.686 131.792 158.12 131.792 158.656V166.418C131.792 166.954 132.226 167.389 132.762 167.389H145.376C145.912 167.389 146.346 166.954 146.346 166.418V158.656C146.346 158.12 145.912 157.686 145.376 157.686ZM156.049 196.497H169.633C170.169 196.497 170.603 196.063 170.603 195.527V187.765C170.603 187.229 170.169 186.794 169.633 186.794H156.049V196.497ZM146.915 166.82L155.48 158.254C155.843 157.889 156.338 157.686 156.852 157.686H169.633C170.169 157.686 170.603 158.12 170.603 158.656V166.418C170.603 166.954 170.169 167.389 169.633 167.389H156.049V185.991C156.049 186.505 155.845 186.998 155.48 187.363L146.915 195.929C146.552 196.294 146.057 196.497 145.543 196.497H132.762C132.226 196.497 131.792 196.063 131.792 195.527V187.765C131.792 187.229 132.226 186.794 132.762 186.794H145.376C145.911 186.794 146.346 186.36 146.346 185.824V168.192C146.346 167.678 146.55 167.185 146.915 166.82Z" fill="white"/>
<path d="M125.973 157.686H98.236C97.9779 157.686 97.7315 157.788 97.5491 157.969L88.4147 167.103C88.2323 167.286 88.1313 167.532 88.1313 167.79V195.527C88.1313 196.063 88.566 196.497 89.1016 196.497H96.864C97.3996 196.497 97.8343 196.063 97.8343 195.527V168.359C97.8343 167.823 98.269 167.389 98.8046 167.389H116.268C116.804 167.389 117.238 167.823 117.238 168.359V195.527C117.238 196.063 117.673 196.497 118.209 196.497H125.971C126.507 196.497 126.941 196.063 126.941 195.527V158.656C126.943 158.12 126.509 157.686 125.973 157.686Z" fill="white"/>
<path d="M45.4376 167.389H58.0514C58.587 167.389 59.0217 167.823 59.0217 168.359V185.824C59.0217 186.36 58.587 186.794 58.0514 186.794H45.4376C44.902 186.794 44.4673 187.229 44.4673 187.765V195.527C44.4673 196.063 44.902 196.497 45.4376 196.497H82.3089C82.8445 196.497 83.2792 196.063 83.2792 195.527V187.765C83.2792 187.229 82.8445 186.794 82.3089 186.794H69.695C69.1594 186.794 68.7247 186.36 68.7247 185.824V168.359C68.7247 167.823 69.1594 167.389 69.695 167.389H82.3089C82.8445 167.389 83.2792 166.954 83.2792 166.418V158.656C83.2792 158.12 82.8445 157.686 82.3089 157.686H45.4376C44.902 157.686 44.4673 158.12 44.4673 158.656V166.418C44.4673 166.954 44.902 167.389 45.4376 167.389Z" fill="white"/>
<path d="M9.53394 157.686H1.77157C1.23596 157.686 0.80127 158.12 0.80127 158.656V185.657C0.80127 186.168 1.00309 186.659 1.3621 187.022L10.1646 195.921C10.5295 196.29 11.0263 196.497 11.5444 196.497H38.5982C39.1338 196.497 39.5685 196.063 39.5685 195.527V187.765C39.5685 187.229 39.1338 186.794 38.5982 186.794H11.4745C10.9389 186.794 10.5042 186.36 10.5042 185.824V158.656C10.5042 158.12 10.0695 157.686 9.53394 157.686Z" fill="white"/>
<path d="M83.2792 117.903V110.14C83.2792 109.605 82.8445 109.17 82.3089 109.17H54.9737C54.4594 109.17 53.9645 109.374 53.6017 109.739L45.0359 118.304C44.671 118.669 44.4673 119.162 44.4673 119.676V137.475C44.4673 137.99 44.671 138.485 45.0359 138.847L53.6017 147.411C53.9665 147.774 54.4594 147.98 54.9737 147.98H82.3089C82.8445 147.98 83.2792 147.545 83.2792 147.01V139.247C83.2792 138.712 82.8445 138.277 82.3089 138.277H55.1406C54.6049 138.277 54.1703 137.842 54.1703 137.307V134.27C54.1703 133.734 54.6049 133.299 55.1406 133.299H82.305C82.8406 133.299 83.2753 132.865 83.2753 132.329V124.567C83.2753 124.031 82.8406 123.596 82.305 123.596H55.1406C54.6049 123.596 54.1703 123.162 54.1703 122.626V119.843C54.1703 119.308 54.6049 118.873 55.1406 118.873H82.3089C82.8445 118.873 83.2792 118.438 83.2792 117.903Z" fill="white"/>
<path d="M39.6093 127.606V119.676C39.6093 119.162 39.4055 118.667 39.0407 118.304L30.4749 109.739C30.1101 109.374 29.6172 109.17 29.1029 109.17H1.77157C1.23596 109.17 0.80127 109.605 0.80127 110.14V147.012C0.80127 147.547 1.23596 147.982 1.77157 147.982H9.53394C10.0695 147.982 10.5042 147.547 10.5042 147.012V139.249C10.5042 138.714 10.9389 138.279 11.4745 138.279H28.9399C29.4755 138.279 29.9102 138.714 29.9102 139.249V147.012C29.9102 147.547 30.3449 147.982 30.8805 147.982H38.6409C39.1765 147.982 39.6112 147.547 39.6112 147.012V139.082C39.6112 138.568 39.4074 138.073 39.0426 137.71L30.4768 129.144C30.112 128.78 29.6191 128.576 29.1048 128.576H11.4765C10.9409 128.576 10.5062 128.141 10.5062 127.606V118.873H28.9418C29.4774 118.873 29.9121 119.308 29.9121 119.843V128.576H38.6429C39.1785 128.576 39.6132 128.141 39.6132 127.606H39.6093Z" fill="white"/>
<path d="M99.7007 1.05497H100.578V3.39921H101.222V1.05497H102.124V0.494141H99.7007V1.05497Z" fill="white"/>
<path d="M104.969 0.501953L104.072 1.92053L103.189 0.501953H102.613V3.40702H103.232V1.58869L103.923 2.65989H104.2L104.903 1.5848V3.40702H105.522V0.501953H104.971H104.969Z" fill="white"/>
<path d="M42.9321 1.06273L32.4257 11.5691C32.0609 11.9339 31.8571 12.4269 31.8571 12.9411V15.0486C31.8571 15.5842 31.4224 16.0189 30.8868 16.0189H1.77791C1.24231 16.0189 0.807617 16.4536 0.807617 16.9892V30.5733C0.807617 31.109 1.24231 31.5436 1.77791 31.5436H34.9349C35.4492 31.5436 35.944 31.3399 36.3069 30.9751L46.8133 20.4687C47.1781 20.1038 47.3819 19.6109 47.3819 19.0967V16.9892C47.3819 16.4536 47.8166 16.0189 48.3522 16.0189H92.9858C93.5214 16.0189 93.9561 15.5842 93.9561 15.0486V1.46444C93.9561 0.928834 93.5214 0.494141 92.9858 0.494141H44.3041C43.7898 0.494141 43.295 0.697903 42.9321 1.06273Z" fill="white"/>
<path d="M58.453 24.3576C54.4437 28.3669 51.9617 30.8489 47.9524 34.8582C47.5876 35.223 47.3799 35.7198 47.3799 36.236V38.3396C47.3799 38.8752 46.9452 39.3099 46.4096 39.3099H1.77791C1.24231 39.3099 0.807617 39.7446 0.807617 40.2802V53.8644C0.807617 54.4 1.24231 54.8347 1.77791 54.8347H50.4597C50.9739 54.8347 51.4688 54.6309 51.8316 54.2661L62.338 43.7597C62.7029 43.3949 62.9066 42.9019 62.9066 42.3877V40.2802C62.9066 39.7446 63.3413 39.3099 63.8769 39.3099H92.9858C93.5214 39.3099 93.9561 38.8752 93.9561 38.3396V24.7555C93.9561 24.2198 93.5214 23.7852 92.9858 23.7852H59.8327C59.3165 23.7852 58.8197 23.9909 58.4549 24.3576H58.453Z" fill="white"/>
</svg>
