
<svg viewBox="0 0 170 24" fill="none" xmlns="http://www.w3.org/2000/svg">
<path fill-rule="evenodd" clip-rule="evenodd" d="M100.836 2.4179V0.268655C100.836 0.120358 100.716 0 100.567 0H92.9988C92.8565 0 92.7194 0.0564172 92.619 0.157432L90.2473 2.52912C90.1463 2.63014 90.0898 2.76661 90.0898 2.909V7.83721C90.0898 7.9796 90.1463 8.11661 90.2473 8.21709L92.619 10.5882C92.72 10.6887 92.8565 10.7457 92.9988 10.7457H100.567C100.716 10.7457 100.836 10.6253 100.836 10.477V8.32777C100.836 8.17948 100.716 8.05912 100.567 8.05912H93.0451C92.8968 8.05912 92.7764 7.93876 92.7764 7.79046V6.94957C92.7764 6.80128 92.8968 6.68092 93.0451 6.68092H100.566C100.715 6.68092 100.835 6.56056 100.835 6.41226V4.26302C100.835 4.11473 100.715 3.99437 100.566 3.99437H93.0451C92.8968 3.99437 92.7764 3.87401 92.7764 3.72571V2.95521C92.7764 2.80691 92.8968 2.68655 93.0451 2.68655H100.567C100.716 2.68655 100.836 2.56619 100.836 2.4179ZM90.3585 15.9405H93.851C93.9993 15.9405 94.1197 16.0608 94.1197 16.2091V21.0449C94.1197 21.1932 93.9993 21.3136 93.851 21.3136H90.3585C90.2102 21.3136 90.0898 21.4339 90.0898 21.5822V23.7315C90.0898 23.8798 90.2102 24.0001 90.3585 24.0001H100.567C100.716 24.0001 100.836 23.8798 100.836 23.7315V21.5822C100.836 21.4339 100.716 21.3136 100.567 21.3136H97.0749C96.9266 21.3136 96.8062 21.1932 96.8062 21.0449V16.2091C96.8062 16.0608 96.9266 15.9405 97.0749 15.9405H100.567C100.716 15.9405 100.836 15.8201 100.836 15.6718V13.5226C100.836 13.3743 100.716 13.2539 100.567 13.2539H90.3585C90.2102 13.2539 90.0898 13.3743 90.0898 13.5226V15.6718C90.0898 15.8201 90.2102 15.9405 90.3585 15.9405ZM104.977 13.2539H112.657C112.806 13.2539 112.926 13.3743 112.925 13.5226V23.7315C112.925 23.8798 112.805 24.0001 112.657 24.0001H110.507C110.359 24.0001 110.239 23.8798 110.239 23.7315V16.2091C110.239 16.0608 110.118 15.9405 109.97 15.9405H105.135C104.987 15.9405 104.866 16.0608 104.866 16.2091V23.7315C104.866 23.8798 104.746 24.0001 104.598 24.0001H102.448C102.3 24.0001 102.18 23.8798 102.18 23.7315V16.0517C102.18 15.9802 102.208 15.912 102.258 15.8615L104.787 13.3324C104.838 13.2824 104.906 13.2539 104.977 13.2539ZM114.538 13.2539H118.031C118.179 13.2539 118.299 13.3742 118.299 13.5226V15.6718C118.299 15.8202 118.179 15.9405 118.031 15.9405H114.538C114.39 15.9405 114.27 15.8202 114.27 15.6718V13.5226C114.27 13.3742 114.39 13.2539 114.538 13.2539ZM124.747 24.0001H120.986V21.3136H124.747C124.895 21.3136 125.016 21.4339 125.016 21.5822V23.7315C125.016 23.8798 124.895 24.0001 124.747 24.0001ZM120.828 13.4113L118.457 15.783C118.356 15.884 118.299 16.0205 118.299 16.1629V21.0449C118.299 21.1932 118.179 21.3136 118.031 21.3136H114.538C114.39 21.3136 114.27 21.4339 114.27 21.5822V23.7315C114.27 23.8798 114.39 24.0001 114.538 24.0001H118.077C118.219 24.0001 118.356 23.9437 118.457 23.8427L120.828 21.471C120.929 21.37 120.986 21.2335 120.986 21.0911V15.9405H124.747C124.895 15.9405 125.016 15.8201 125.016 15.6718V13.5226C125.016 13.3743 124.895 13.2539 124.747 13.2539H121.208C121.066 13.2539 120.929 13.3103 120.828 13.4113ZM78.2687 13.254H80.4179C80.5662 13.254 80.6866 13.3744 80.6866 13.5227V21.045C80.6866 21.1933 80.8069 21.3137 80.9552 21.3137H88.4652C88.6135 21.3137 88.7339 21.434 88.7339 21.5823V23.7316C88.7339 23.8799 88.6135 24.0002 88.4652 24.0002H80.9746C80.8311 24.0002 80.6935 23.9427 80.5925 23.8406L78.1553 21.3765C78.0559 21.2761 78 21.1401 78 20.9988V13.5227C78 13.3744 78.1204 13.254 78.2687 13.254ZM88.7451 2.909V5.10445H88.7462C88.7462 5.25275 88.6259 5.3731 88.4776 5.3731H86.0602V2.95521C86.0602 2.80691 85.9398 2.68655 85.7915 2.68655H80.6871V5.10445C80.6871 5.25275 80.8074 5.3731 80.9557 5.3731H85.8367C85.9791 5.3731 86.1155 5.42952 86.2166 5.53054L88.5882 7.90223C88.6893 8.0027 88.7457 8.13972 88.7457 8.2821V10.4776C88.7457 10.6259 88.6253 10.7462 88.477 10.7462H86.3283C86.18 10.7462 86.0597 10.6259 86.0597 10.4776V8.32831C86.0597 8.18001 85.9393 8.05966 85.791 8.05966H80.9552C80.8069 8.05966 80.6866 8.18001 80.6866 8.32831V10.4776C80.6866 10.6259 80.5662 10.7462 80.4179 10.7462H78.2687C78.1204 10.7462 78 10.6259 78 10.4776V0.268655C78 0.120358 78.1204 0 78.2687 0H85.8361C85.9785 0 86.115 0.0564172 86.216 0.157432L88.5877 2.52912C88.6887 2.6296 88.7451 2.76661 88.7451 2.909Z" fill="white"/>
<path d="M43.6797 0.247714H44.0671V1.28314H44.3517V0.247714H44.7503V0H43.6797V0.247714Z" fill="white"/>
<path d="M46.0074 0.00292969L45.6114 0.629501L45.2214 0.00292969H44.9668V1.28607H45.2402V0.48293L45.5454 0.956072H45.6679L45.9782 0.481215V1.28607H46.2517V0.00292969H46.0082H46.0074Z" fill="white"/>
<path d="M18.606 0.251143L13.9654 4.89172C13.8043 5.05286 13.7143 5.27057 13.7143 5.49771V6.42857C13.7143 6.66514 13.5223 6.85714 13.2857 6.85714H0.428571C0.192 6.85714 0 7.04914 0 7.28572V13.2857C0 13.5223 0.192 13.7143 0.428571 13.7143H15.0737C15.3009 13.7143 15.5194 13.6243 15.6797 13.4631L20.3203 8.82257C20.4814 8.66143 20.5714 8.44372 20.5714 8.21657V7.28572C20.5714 7.04914 20.7634 6.85714 21 6.85714H40.7143C40.9509 6.85714 41.1429 6.66514 41.1429 6.42857V0.428571C41.1429 0.192 40.9509 0 40.7143 0H19.212C18.9849 0 18.7663 0.09 18.606 0.251143Z" fill="white"/>
<path d="M25.4614 10.539C23.6906 12.3098 22.5943 13.4061 20.8234 15.177C20.6623 15.3381 20.5706 15.5576 20.5706 15.7856V16.7147C20.5706 16.9513 20.3786 17.1433 20.142 17.1433H0.428571C0.192 17.1433 0 17.3353 0 17.5718V23.5718C0 23.8084 0.192 24.0004 0.428571 24.0004H21.9309C22.158 24.0004 22.3766 23.9104 22.5369 23.7493L27.1774 19.1087C27.3386 18.9476 27.4286 18.7298 27.4286 18.5027V17.5718C27.4286 17.3353 27.6206 17.1433 27.8571 17.1433H40.7143C40.9509 17.1433 41.1429 16.9513 41.1429 16.7147V10.7147C41.1429 10.4781 40.9509 10.2861 40.7143 10.2861H26.0709C25.8429 10.2861 25.6234 10.377 25.4623 10.539H25.4614Z" fill="white"/>
</svg>
