<svg xmlns="http://www.w3.org/2000/svg" width="89" height="30" fill="#fff" xmlns:v="https://vecta.io/nano"><path d="M35.319 4.572v-.074c0-2.082 1.524-3.569 3.606-3.569 2.101 0 3.607 1.413 3.607 3.514v.074c0 2.082-1.431 3.606-3.607 3.606-2.212.019-3.606-1.506-3.606-3.551zm5.54-.019v-.074c0-1.357-.725-2.287-1.952-2.287-1.208 0-1.952.892-1.952 2.305v.074c0 1.431.818 2.305 1.971 2.305 1.19 0 1.933-.911 1.933-2.324zm2.713-3.513h1.283c.074 0 .149.056.149.149v2.863l2.398-2.956c.019-.037.074-.056.111-.056h1.394c.074 0 .13.093.074.167L46.36 4.349l2.77 3.532c.056.056 0 .167-.074.167h-1.562c-.037 0-.093-.019-.111-.056l-2.361-3.086V7.88c0 .074-.056.149-.149.149H43.59c-.074 0-.149-.056-.149-.149V1.188c-.037-.074.037-.149.13-.149zm8.237 3.364l-1.915-3.216c-.037-.074 0-.186.112-.186h1.487c.037 0 .074.019.111.056l1.19 2.082h.056l1.19-2.082c.019-.037.056-.056.111-.056h1.487c.093 0 .149.112.112.186l-1.933 3.216 2.026 3.402c.056.074 0 .186-.111.186h-1.524c-.037 0-.093-.019-.111-.056L52.831 5.65h-.056l-1.264 2.287c-.019.037-.056.056-.112.056h-1.487c-.093 0-.149-.112-.111-.186l2.008-3.402zM35.319 12.1c0-.074.056-.149.149-.149h2.603c1.524 0 2.324.632 2.324 1.822v.037c0 .744-.353 1.264-1.134 1.506.911.186 1.394.706 1.394 1.636v.037c0 1.283-.837 1.952-2.454 1.952h-2.733c-.074 0-.149-.056-.149-.149V12.1zm2.491 2.733c.762 0 1.06-.279 1.06-.911v-.037c0-.595-.335-.855-1.078-.855h-.836c-.056 0-.093.037-.093.093v1.58c0 .056.037.093.093.093l.855.037zm.13 3.03c.781 0 1.134-.353 1.134-.985v-.037c0-.651-.353-.985-1.208-.985h-.911c-.056 0-.093.037-.093.093v1.803c0 .056.037.093.093.093l.985.019zm3.643-6.357h1.097c.074 0 .149.056.149.149v7.12c0 .074-.056.149-.149.149h-1.097c-.074 0-.149-.056-.149-.149v-7.12c0-.074.056-.149.149-.149zm1.989 4.946v-.074c0-1.599 1.153-2.658 2.696-2.658s2.696 1.022 2.696 2.621v.074c0 1.617-1.153 2.64-2.696 2.64s-2.696-1.004-2.696-2.603zm3.96-.037v-.056c0-.985-.465-1.562-1.245-1.562s-1.245.576-1.245 1.543v.074c0 .985.446 1.562 1.245 1.562.781 0 1.245-.576 1.245-1.562z"/><path d="M49.354 16.452v-.074c0-1.655 1.19-2.658 2.64-2.658 1.134 0 2.194.483 2.38 1.822 0 .093-.056.167-.149.167h-1.078c-.037 0-.093-.037-.093-.074-.111-.539-.465-.799-1.022-.799-.744 0-1.227.539-1.227 1.524v.074c0 1.022.465 1.562 1.246 1.562.539 0 .985-.297 1.078-.911 0-.037.037-.074.093-.074h1.023c.093 0 .167.074.149.167-.149 1.115-1.004 1.896-2.435 1.896-1.469-.019-2.603-.948-2.603-2.621zm5.875-4.946h1.115c.074 0 .149.056.149.149v4.09c0 .074.093.093.13.037l1.469-1.952c.019-.019.037-.037.074-.037h1.245c.074 0 .13.093.074.167l-1.729 2.157 1.896 2.621c.037.056 0 .167-.074.167h-1.357c-.037 0-.056-.019-.074-.037l-1.524-2.175c-.037-.056-.13-.019-.13.037v2.026c0 .074-.056.149-.149.149h-1.115c-.074 0-.149-.056-.149-.149v-7.12c0-.056.056-.13.149-.13zm4.517 4.963v-.074c0-1.692.967-2.677 2.249-2.677.781 0 1.283.316 1.562.799 0 .019.037 0 .037 0v-2.844c0-.074.056-.149.149-.149h1.097c.074 0 .149.056.149.149v7.12c0 .074-.056.149-.149.149h-1.097c-.074 0-.149-.056-.149-.149v-.595c0-.018-.037-.037-.037 0-.279.483-.892.874-1.599.874-1.227-.019-2.212-.892-2.212-2.603zm3.904-.056v-.074c0-1.004-.446-1.543-1.227-1.543-.799 0-1.227.539-1.227 1.561v.074c0 1.004.483 1.524 1.19 1.524.744 0 1.264-.502 1.264-1.543zm2.546-2.583h1.115c.074 0 .149.056.149.149v.837c.297-.632.762-.985 1.487-1.041.093 0 .167.056.167.149v1.004c0 .074-.056.149-.149.149-.967.019-1.506.372-1.506 1.301v2.417c0 .074-.056.149-.149.149h-1.115c-.074 0-.149-.056-.149-.149V13.98c0-.074.056-.149.149-.149zm3.199 2.622v-.074c0-1.617 1.134-2.658 2.64-2.658 1.32 0 2.491.781 2.491 2.603v.242c0 .074-.056.149-.149.149h-3.421c-.056 0-.112.056-.093.112.074.781.52 1.227 1.264 1.227.595 0 .93-.242 1.041-.613.019-.056.074-.093.149-.093h1.022c.093 0 .167.093.149.186-.223.985-1.097 1.524-2.417 1.524-1.543 0-2.677-.967-2.677-2.603zm3.644-.614c.056 0 .112-.056.093-.111-.074-.707-.465-1.023-1.097-1.023-.595 0-1.004.372-1.153 1.023 0 .056.037.111.093.111h2.063zm1.895 1.692c0-1.19 1.097-1.636 2.658-1.636h.558c.019 0 .019 0 .019-.019v-.186c0-.614-.186-.948-.837-.948-.502 0-.762.223-.855.614a.16.16 0 0 1-.149.111h-1.041c-.093 0-.167-.074-.149-.167.167-1.078 1.078-1.58 2.287-1.58 1.246 0 2.138.502 2.138 1.896v3.179c0 .074-.056.149-.149.149h-1.06c-.074 0-.149-.056-.149-.149v-.465c-.297.409-.744.725-1.543.725-.948 0-1.729-.446-1.729-1.524zm3.216-.372v-.409c0-.019 0-.019-.019-.019h-.521c-.818 0-1.301.167-1.301.725 0 .372.223.613.744.613.632 0 1.097-.335 1.097-.911zm2.529-3.328h1.115c.074 0 .149.056.149.149v.539c0 .019.037.037.037 0 .26-.446.799-.818 1.524-.818.669 0 1.153.26 1.413.855 0 .019.037.019.037 0 .409-.595 1.06-.855 1.692-.855.948 0 1.692.595 1.692 1.952v3.123c0 .074-.056.149-.149.149h-1.097c-.074 0-.149-.056-.149-.149v-2.956c0-.651-.297-.948-.799-.948-.539 0-.985.353-.985 1.041v2.881c0 .074-.056.149-.149.149h-1.097c-.074 0-.149-.056-.149-.149v-2.956c0-.651-.297-.948-.799-.948-.539 0-.985.353-.985 1.041v2.882c0 .074-.056.149-.149.149h-1.097c-.074 0-.149-.056-.149-.149v-4.815c-.056-.093.019-.167.093-.167zm-45.212 8.643h1.338c.056 0 .13.037.149.112l1.599 5.187c0 .019.037.019.037 0l1.599-5.187c.019-.056.074-.112.149-.112h1.153c.093 0 .167.093.149.205l-2.231 6.692c-.019.056-.074.093-.149.093h-1.599c-.056 0-.112-.037-.149-.093l-2.231-6.692c0-.093.074-.205.186-.205zm5.875 4.499v-.074c0-1.617 1.134-2.658 2.64-2.658 1.32 0 2.491.781 2.491 2.603v.242c0 .074-.056.149-.149.149h-3.421c-.056 0-.111.056-.093.111.074.781.52 1.227 1.264 1.227.595 0 .929-.242 1.041-.613.019-.056.074-.093.149-.093h1.022c.093 0 .167.093.149.186-.223.985-1.097 1.524-2.417 1.524-1.543 0-2.677-.967-2.677-2.603zm3.644-.613c.056 0 .112-.056.093-.111-.074-.706-.465-1.023-1.097-1.023-.595 0-1.004.372-1.153 1.023 0 .056.037.111.093.111h2.063zm2.323-2.008h1.115c.074 0 .149.056.149.149v.558c0 .019.037.037.037 0 .279-.465.818-.837 1.617-.837 1.004 0 1.729.614 1.729 1.971v3.086c0 .074-.056.149-.149.149h-1.115c-.074 0-.149-.056-.149-.149v-2.9c0-.688-.279-1.022-.911-1.022-.614 0-1.06.372-1.06 1.115v2.807c0 .074-.056.149-.149.149h-1.115c-.074 0-.149-.056-.149-.149v-4.815c0-.037.074-.112.149-.112zm5.838 3.608v-2.565c0-.019 0-.019-.019-.019h-.483c-.074 0-.149-.056-.149-.149v-.706c0-.074.056-.149.149-.149h.502v-.948c0-.074.056-.149.149-.149h1.097c.074 0 .149.056.149.149v.948h.929c.074 0 .149.056.149.149v.706c0 .074-.056.149-.149.149h-.911c-.019 0-.019 0-.019.019v2.435c0 .409.204.614.576.614.13 0 .242 0 .353-.037.093-.019.186.037.186.149v.781c0 .056-.037.13-.112.149-.186.056-.428.093-.762.093-1.06 0-1.636-.558-1.636-1.617zm3.197-.299v-3.142c0-.074.056-.149.149-.149h1.097c.074 0 .149.056.149.149v2.956c0 .688.279 1.022.892 1.022.595 0 1.06-.372 1.06-1.115v-2.863c0-.074.056-.149.149-.149h1.097c.074 0 .149.056.149.149v4.815c0 .074-.056.149-.149.149H59.84c-.074 0-.149-.056-.149-.149v-.651c-.26.52-.781.911-1.617.911-.985-.019-1.729-.595-1.729-1.933zm5.93-3.309h1.115c.074 0 .149.056.149.149v.837c.297-.632.762-.985 1.487-1.041.093 0 .167.056.167.149v1.004c0 .074-.056.149-.149.149-.967.019-1.506.372-1.506 1.301v2.398c0 .074-.056.149-.149.149h-1.115c-.074 0-.149-.056-.149-.149v-4.815c0-.056.056-.13.149-.13zm3.197 2.621v-.074c0-1.617 1.134-2.658 2.64-2.658 1.32 0 2.491.781 2.491 2.603v.242c0 .074-.056.149-.149.149h-3.439c-.056 0-.112.056-.093.111.074.781.52 1.227 1.264 1.227.595 0 .93-.242 1.041-.613.019-.056.074-.093.149-.093h1.022c.093 0 .167.093.149.186-.223.985-1.097 1.524-2.417 1.524-1.543 0-2.658-.967-2.658-2.603zm3.644-.613c.056 0 .112-.056.093-.111-.074-.706-.465-1.023-1.097-1.023-.595 0-1.004.372-1.153 1.023 0 .056.037.111.093.111h2.064zm2.008 1.506h1.022c.074 0 .13.037.149.112.074.39.316.613.892.613.539 0 .799-.204.799-.558s-.297-.502-1.041-.613c-1.357-.204-1.896-.595-1.896-1.599 0-1.06.985-1.599 2.026-1.599 1.078 0 1.896.372 2.082 1.394.019.093-.056.186-.149.186h-1.004c-.056 0-.13-.037-.149-.111-.093-.353-.335-.502-.781-.502-.465 0-.725.204-.725.521s.242.446.985.558c1.283.186 1.989.502 1.989 1.599s-.799 1.692-2.156 1.692c-1.301 0-2.082-.539-2.212-1.543.019-.056.074-.149.167-.149zM9.497 10.596H.741a.45.45 0 0 1-.446-.446V1.394A.45.45 0 0 1 .741.948h8.756a.45.45 0 0 1 .446.446v8.756c.019.242-.186.446-.446.446zm18.944.02h-8.756c-.242 0-.446-.205-.446-.446V1.413c0-.242.205-.446.446-.446h8.756a.45.45 0 0 1 .446.446v8.756a.45.45 0 0 1-.446.446zM9.497 29.577H.741a.45.45 0 0 1-.446-.446v-8.756a.45.45 0 0 1 .446-.446h8.756a.45.45 0 0 1 .446.446v8.756c.019.223-.186.446-.446.446zm18.944-.001h-8.756a.45.45 0 0 1-.446-.446v-8.756c0-.242.205-.446.446-.446h8.756a.45.45 0 0 1 .446.446v8.756a.45.45 0 0 1-.446.446z"/><path d="M18.978 20.133h-8.756c-.242 0-.446-.204-.446-.446v-8.756c0-.242.204-.446.446-.446h8.756c.242 0 .446.204.446.446v8.756c.019.242-.186.446-.446.446z"/></svg>